<?xml version="1.0" standalone="no"?>
 <!DOCTYPE svg PUBLIC "-//W3C//DTD SVG 1.1//EN" 
 "http://www.w3.org/Graphics/SVG/1.1/DTD/svg11.dtd"> 
<svg
  xmlns:svg="http://www.w3.org/2000/svg"
  xmlns="http://www.w3.org/2000/svg"
  xmlns:xlink="http://www.w3.org/1999/xlink"
  version="1.1"
  width="8.874760cm" height="9.593580cm" viewBox="0 0 88747600 95935800">
<title>SVG Picture created as Pico_Handheld-B_Fab.svg date 2023/01/28 18:17:40 </title>
  <desc>Picture generated by PCBNEW </desc>
<g style="fill:#000000; fill-opacity:1.000000;stroke:#000000; stroke-opacity:1.000000;
stroke-linecap:round; stroke-linejoin:round;"
 transform="translate(0 0) scale(1 1)">
</g>
<g style="fill:#000000; fill-opacity:0.0; 
stroke:#000000; stroke-width:0.000000; stroke-opacity:1; 
stroke-linecap:round; stroke-linejoin:round;">
</g>
<g style="fill:#585D84; fill-opacity:0.0; 
stroke:#585D84; stroke-width:0.000000; stroke-opacity:1; 
stroke-linecap:round; stroke-linejoin:round;">
</g>
<g style="fill:#585D84; fill-opacity:0.0; 
stroke:#585D84; stroke-width:150000.000000; stroke-opacity:1; 
stroke-linecap:round; stroke-linejoin:round;">
<text x="43230000.000000" y="70479500.000000"
transform="scale(-1 1) translate(-86460000.000000 0)"
textLength="5090714.000000" font-size="1333333.000000" lengthAdjust="spacingAndGlyphs"
text-anchor="middle" opacity="0">Battery</text>
<g class="stroked-text"><desc>Battery</desc>
<path d="M45301428 69908071
L45158571 69955690
L45110952 70003309
L45063333 70098547
L45063333 70241404
L45110952 70336642
L45158571 70384261
L45253809 70431880
L45634761 70431880
L45634761 69431880
L45301428 69431880
L45206190 69479500
L45158571 69527119
L45110952 69622357
L45110952 69717595
L45158571 69812833
L45206190 69860452
L45301428 69908071
L45634761 69908071
" />
<path d="M44206190 70431880
L44206190 69908071
L44253809 69812833
L44349047 69765214
L44539523 69765214
L44634761 69812833
" />
<path d="M44206190 70384261
L44301428 70431880
L44539523 70431880
L44634761 70384261
L44682380 70289023
L44682380 70193785
L44634761 70098547
L44539523 70050928
L44301428 70050928
L44206190 70003309
" />
<path d="M43872857 69765214
L43491904 69765214
" />
<path d="M43730000 69431880
L43730000 70289023
L43682380 70384261
L43587142 70431880
L43491904 70431880
" />
<path d="M43301428 69765214
L42920476 69765214
" />
<path d="M43158571 69431880
L43158571 70289023
L43110952 70384261
L43015714 70431880
L42920476 70431880
" />
<path d="M42206190 70384261
L42301428 70431880
L42491904 70431880
L42587142 70384261
L42634761 70289023
L42634761 69908071
L42587142 69812833
L42491904 69765214
L42301428 69765214
L42206190 69812833
L42158571 69908071
L42158571 70003309
L42634761 70098547
" />
<path d="M41730000 70431880
L41730000 69765214
" />
<path d="M41730000 69955690
L41682380 69860452
L41634761 69812833
L41539523 69765214
L41444285 69765214
" />
<path d="M41206190 69765214
L40968095 70431880
" />
<path d="M40730000 69765214
L40968095 70431880
L41063333 70669976
L41110952 70717595
L41206190 70765214
" />
</g><text x="43230000.000000" y="71979500.000000"
transform="scale(-1 1) translate(-86460000.000000 0)"
textLength="2519286.000000" font-size="1333333.000000" lengthAdjust="spacingAndGlyphs"
text-anchor="middle" opacity="0">BT1</text>
<g class="stroked-text"><desc>BT1</desc>
<path d="M44015714 71408071
L43872857 71455690
L43825238 71503309
L43777619 71598547
L43777619 71741404
L43825238 71836642
L43872857 71884261
L43968095 71931880
L44349047 71931880
L44349047 70931880
L44015714 70931880
L43920476 70979500
L43872857 71027119
L43825238 71122357
L43825238 71217595
L43872857 71312833
L43920476 71360452
L44015714 71408071
L44349047 71408071
" />
<path d="M43491904 70931880
L42920476 70931880
" />
<path d="M43206190 71931880
L43206190 70931880
" />
<path d="M42063333 71931880
L42634761 71931880
" />
<path d="M42349047 71931880
L42349047 70931880
L42444285 71074738
L42539523 71169976
L42634761 71217595
" />
</g></g>
<g style="fill:#585D84; fill-opacity:0.0; 
stroke:#585D84; stroke-width:100000.000000; stroke-opacity:1; 
stroke-linecap:round; stroke-linejoin:round;">
<path d="M71524000 43781500
L14524000 43781500
" />
<path d="M14524000 43781500
L14524000 92081500
" />
<path d="M14524000 92081500
L72524000 92081500
" />
<path d="M72524000 44781500
L71524000 43781500
" />
<path d="M72524000 92081500
L72524000 44781500
" />
<g >
</g>
<g >
</g>
<g >
</g>
<g >
</g>
<g >
</g>
<g >
</g>
<g >
</g>
<g >
</g>
<g >
</g>
<g >
</g>
<g >
</g>
<g >
</g>
<g >
</g>
<g >
</g>
<g >
</g>
<g >
</g>
<g >
</g>
<g >
</g>
</g>
<g style="fill:#000000; fill-opacity:0.0; 
stroke:#000000; stroke-width:100000.000000; stroke-opacity:1; 
stroke-linecap:round; stroke-linejoin:round;">
</g>
<g style="fill:#D0D2CD; fill-opacity:0.0; 
stroke:#D0D2CD; stroke-width:100000.000000; stroke-opacity:1; 
stroke-linecap:round; stroke-linejoin:round;">
<path d="M86410000 95887500
L50000 95887500
" />
<path d="M43230000 4447500
L86410000 4447500
" />
<path d="M50000 4447500
L50000 95887500
" />
<path d="M43230000 4447500
L50000 4447500
" />
<path d="M86410000 4447500
L86410000 95887500
" />
<g >
</g>
<g >
</g>
<g >
</g>
<g >
</g>
<g >
</g>
<g >
</g>
<g >
</g>
<g >
</g>
<g >
</g>
<g >
</g>
<g >
</g>
<g >
</g>
<g >
</g>
<g >
</g>
<g >
</g>
<g >
</g>
<g >
</g>
<g >
</g>
</g> 
</svg>
