<?xml version="1.0" standalone="no"?>
 <!DOCTYPE svg PUBLIC "-//W3C//DTD SVG 1.1//EN" 
 "http://www.w3.org/Graphics/SVG/1.1/DTD/svg11.dtd"> 
<svg
  xmlns:svg="http://www.w3.org/2000/svg"
  xmlns="http://www.w3.org/2000/svg"
  xmlns:xlink="http://www.w3.org/1999/xlink"
  version="1.1"
  width="8.874760cm" height="9.593580cm" viewBox="0 0 88747600 95935800">
<title>SVG Picture created as Pico_Handheld-B_Silkscreen.svg date 2023/01/28 18:17:40 </title>
  <desc>Picture generated by PCBNEW </desc>
<g style="fill:#000000; fill-opacity:1.000000;stroke:#000000; stroke-opacity:1.000000;
stroke-linecap:round; stroke-linejoin:round;"
 transform="translate(0 0) scale(1 1)">
</g>
<g style="fill:#000000; fill-opacity:0.0; 
stroke:#000000; stroke-width:0.000000; stroke-opacity:1; 
stroke-linecap:round; stroke-linejoin:round;">
</g>
<g style="fill:#E8B2A7; fill-opacity:0.0; 
stroke:#E8B2A7; stroke-width:0.000000; stroke-opacity:1; 
stroke-linecap:round; stroke-linejoin:round;">
</g>
<g style="fill:#E8B2A7; fill-opacity:0.0; 
stroke:#E8B2A7; stroke-width:150000.000000; stroke-opacity:1; 
stroke-linecap:round; stroke-linejoin:round;">
<text x="43230000.000000" y="68955500.000000"
transform="scale(-1 1) translate(-86460000.000000 0)"
textLength="2519286.000000" font-size="1333333.000000" lengthAdjust="spacingAndGlyphs"
text-anchor="middle" opacity="0">BT1</text>
<g class="stroked-text"><desc>BT1</desc>
<path d="M44015714 68384071
L43872857 68431690
L43825238 68479309
L43777619 68574547
L43777619 68717404
L43825238 68812642
L43872857 68860261
L43968095 68907880
L44349047 68907880
L44349047 67907880
L44015714 67907880
L43920476 67955500
L43872857 68003119
L43825238 68098357
L43825238 68193595
L43872857 68288833
L43920476 68336452
L44015714 68384071
L44349047 68384071
" />
<path d="M43491904 67907880
L42920476 67907880
" />
<path d="M43206190 68907880
L43206190 67907880
" />
<path d="M42063333 68907880
L42634761 68907880
" />
<path d="M42349047 68907880
L42349047 67907880
L42444285 68050738
L42539523 68145976
L42634761 68193595
" />
</g><text x="78282000.000000" y="78083500.000000"
transform="scale(-1 1) translate(-156564000.000000 0)"
textLength="3519286.000000" font-size="4000000.000000" lengthAdjust="spacingAndGlyphs"
text-anchor="middle" opacity="0">+</text>
<g class="stroked-text"><desc>+</desc>
<path d="M79424857 76797785
L77139142 76797785
" />
<path d="M78282000 77940642
L78282000 75654928
" />
</g></g>
<g style="fill:#E8B2A7; fill-opacity:0.0; 
stroke:#E8B2A7; stroke-width:120000.000000; stroke-opacity:1; 
stroke-linecap:round; stroke-linejoin:round;">
<path d="M72644000 92201500
L14404000 92201500
" />
<path d="M73024000 43281500
L70024000 43281500
" />
<path d="M14404000 43661500
L14404000 92201500
" />
<path d="M72644000 43661500
L14404000 43661500
" />
<path d="M72644000 43661500
L72644000 92201500
" />
<path d="M73024000 46281500
L73024000 43281500
" />
<g >
</g>
<g >
</g>
<g >
</g>
<g >
</g>
<g >
</g>
<g >
</g>
<g >
</g>
<g >
</g>
<g >
</g>
<g >
</g>
<g >
</g>
<g >
</g>
<g >
</g>
<g >
</g>
<g >
</g>
<g >
</g>
<g >
</g>
<g >
</g>
</g>
<g style="fill:#000000; fill-opacity:0.0; 
stroke:#000000; stroke-width:120000.000000; stroke-opacity:1; 
stroke-linecap:round; stroke-linejoin:round;">
</g>
<g style="fill:#D0D2CD; fill-opacity:0.0; 
stroke:#D0D2CD; stroke-width:120000.000000; stroke-opacity:1; 
stroke-linecap:round; stroke-linejoin:round;">
</g>
<g style="fill:#D0D2CD; fill-opacity:0.0; 
stroke:#D0D2CD; stroke-width:100000.000000; stroke-opacity:1; 
stroke-linecap:round; stroke-linejoin:round;">
<path d="M86410000 95887500
L50000 95887500
" />
<path d="M43230000 4447500
L86410000 4447500
" />
<path d="M50000 4447500
L50000 95887500
" />
<path d="M43230000 4447500
L50000 4447500
" />
<path d="M86410000 4447500
L86410000 95887500
" />
<g >
</g>
<g >
</g>
<g >
</g>
<g >
</g>
<g >
</g>
<g >
</g>
<g >
</g>
<g >
</g>
<g >
</g>
<g >
</g>
<g >
</g>
<g >
</g>
<g >
</g>
<g >
</g>
<g >
</g>
<g >
</g>
<g >
</g>
<g >
</g>
</g> 
</svg>
