<?xml version="1.0" standalone="no"?>
 <!DOCTYPE svg PUBLIC "-//W3C//DTD SVG 1.1//EN" 
 "http://www.w3.org/Graphics/SVG/1.1/DTD/svg11.dtd"> 
<svg
  xmlns:svg="http://www.w3.org/2000/svg"
  xmlns="http://www.w3.org/2000/svg"
  xmlns:xlink="http://www.w3.org/1999/xlink"
  version="1.1"
  width="8.874760cm" height="9.593580cm" viewBox="0 0 88747600 95935800">
<title>SVG Picture created as Pico_Handheld-F_Silkscreen.svg date 2023/01/28 18:17:40 </title>
  <desc>Picture generated by PCBNEW </desc>
<g style="fill:#000000; fill-opacity:1.000000;stroke:#000000; stroke-opacity:1.000000;
stroke-linecap:round; stroke-linejoin:round;"
 transform="translate(0 0) scale(1 1)">
</g>
<g style="fill:#000000; fill-opacity:0.0; 
stroke:#000000; stroke-width:0.000000; stroke-opacity:1; 
stroke-linecap:round; stroke-linejoin:round;">
</g>
<g style="fill:#F2EDA1; fill-opacity:0.0; 
stroke:#F2EDA1; stroke-width:0.000000; stroke-opacity:1; 
stroke-linecap:round; stroke-linejoin:round;">
</g>
<g style="fill:#F2EDA1; fill-opacity:0.0; 
stroke:#F2EDA1; stroke-width:150000.000000; stroke-opacity:1; 
stroke-linecap:round; stroke-linejoin:round;">
<path d="M35610000 17147500
L50850000 17147500
" />
<path d="M50850000 17147500
L50850000 28577500
" />
<path d="M50850000 28577500
L35610000 28577500
" />
<path d="M35610000 28577500
L35610000 17147500
" />
<text x="48310000.000000" y="48762500.000000"
textLength="23480714.000000" font-size="1333333.000000" lengthAdjust="spacingAndGlyphs"
text-anchor="start" opacity="0">Pico Handheld Games Console</text>
<g class="stroked-text"><desc>Pico Handheld Games Console</desc>
<path d="M48645595 48714880
L48645595 47714880
L49026547 47714880
L49121785 47762500
L49169404 47810119
L49217023 47905357
L49217023 48048214
L49169404 48143452
L49121785 48191071
L49026547 48238690
L48645595 48238690
" />
<path d="M49645595 48714880
L49645595 48048214
" />
<path d="M49645595 47714880
L49597976 47762500
L49645595 47810119
L49693214 47762500
L49645595 47714880
L49645595 47810119
" />
<path d="M50550357 48667261
L50455119 48714880
L50264642 48714880
L50169404 48667261
L50121785 48619642
L50074166 48524404
L50074166 48238690
L50121785 48143452
L50169404 48095833
L50264642 48048214
L50455119 48048214
L50550357 48095833
" />
<path d="M51121785 48714880
L51026547 48667261
L50978928 48619642
L50931309 48524404
L50931309 48238690
L50978928 48143452
L51026547 48095833
L51121785 48048214
L51264642 48048214
L51359880 48095833
L51407500 48143452
L51455119 48238690
L51455119 48524404
L51407500 48619642
L51359880 48667261
L51264642 48714880
L51121785 48714880
" />
<path d="M52645595 48714880
L52645595 47714880
" />
<path d="M52645595 48191071
L53217023 48191071
" />
<path d="M53217023 48714880
L53217023 47714880
" />
<path d="M54121785 48714880
L54121785 48191071
L54074166 48095833
L53978928 48048214
L53788452 48048214
L53693214 48095833
" />
<path d="M54121785 48667261
L54026547 48714880
L53788452 48714880
L53693214 48667261
L53645595 48572023
L53645595 48476785
L53693214 48381547
L53788452 48333928
L54026547 48333928
L54121785 48286309
" />
<path d="M54597976 48048214
L54597976 48714880
" />
<path d="M54597976 48143452
L54645595 48095833
L54740833 48048214
L54883690 48048214
L54978928 48095833
L55026547 48191071
L55026547 48714880
" />
<path d="M55931309 48714880
L55931309 47714880
" />
<path d="M55931309 48667261
L55836071 48714880
L55645595 48714880
L55550357 48667261
L55502738 48619642
L55455119 48524404
L55455119 48238690
L55502738 48143452
L55550357 48095833
L55645595 48048214
L55836071 48048214
L55931309 48095833
" />
<path d="M56407500 48714880
L56407500 47714880
" />
<path d="M56836071 48714880
L56836071 48191071
L56788452 48095833
L56693214 48048214
L56550357 48048214
L56455119 48095833
L56407500 48143452
" />
<path d="M57693214 48667261
L57597976 48714880
L57407500 48714880
L57312261 48667261
L57264642 48572023
L57264642 48191071
L57312261 48095833
L57407500 48048214
L57597976 48048214
L57693214 48095833
L57740833 48191071
L57740833 48286309
L57264642 48381547
" />
<path d="M58312261 48714880
L58217023 48667261
L58169404 48572023
L58169404 47714880
" />
<path d="M59121785 48714880
L59121785 47714880
" />
<path d="M59121785 48667261
L59026547 48714880
L58836071 48714880
L58740833 48667261
L58693214 48619642
L58645595 48524404
L58645595 48238690
L58693214 48143452
L58740833 48095833
L58836071 48048214
L59026547 48048214
L59121785 48095833
" />
<path d="M60883690 47762500
L60788452 47714880
L60645595 47714880
L60502738 47762500
L60407500 47857738
L60359880 47952976
L60312261 48143452
L60312261 48286309
L60359880 48476785
L60407500 48572023
L60502738 48667261
L60645595 48714880
L60740833 48714880
L60883690 48667261
L60931309 48619642
L60931309 48286309
L60740833 48286309
" />
<path d="M61788452 48714880
L61788452 48191071
L61740833 48095833
L61645595 48048214
L61455119 48048214
L61359880 48095833
" />
<path d="M61788452 48667261
L61693214 48714880
L61455119 48714880
L61359880 48667261
L61312261 48572023
L61312261 48476785
L61359880 48381547
L61455119 48333928
L61693214 48333928
L61788452 48286309
" />
<path d="M62264642 48714880
L62264642 48048214
" />
<path d="M62264642 48143452
L62312261 48095833
L62407500 48048214
L62550357 48048214
L62645595 48095833
L62693214 48191071
L62693214 48714880
" />
<path d="M62693214 48191071
L62740833 48095833
L62836071 48048214
L62978928 48048214
L63074166 48095833
L63121785 48191071
L63121785 48714880
" />
<path d="M63978928 48667261
L63883690 48714880
L63693214 48714880
L63597976 48667261
L63550357 48572023
L63550357 48191071
L63597976 48095833
L63693214 48048214
L63883690 48048214
L63978928 48095833
L64026547 48191071
L64026547 48286309
L63550357 48381547
" />
<path d="M64407500 48667261
L64502738 48714880
L64693214 48714880
L64788452 48667261
L64836071 48572023
L64836071 48524404
L64788452 48429166
L64693214 48381547
L64550357 48381547
L64455119 48333928
L64407500 48238690
L64407500 48191071
L64455119 48095833
L64550357 48048214
L64693214 48048214
L64788452 48095833
" />
<path d="M66597976 48619642
L66550357 48667261
L66407500 48714880
L66312261 48714880
L66169404 48667261
L66074166 48572023
L66026547 48476785
L65978928 48286309
L65978928 48143452
L66026547 47952976
L66074166 47857738
L66169404 47762500
L66312261 47714880
L66407500 47714880
L66550357 47762500
L66597976 47810119
" />
<path d="M67169404 48714880
L67074166 48667261
L67026547 48619642
L66978928 48524404
L66978928 48238690
L67026547 48143452
L67074166 48095833
L67169404 48048214
L67312261 48048214
L67407500 48095833
L67455119 48143452
L67502738 48238690
L67502738 48524404
L67455119 48619642
L67407500 48667261
L67312261 48714880
L67169404 48714880
" />
<path d="M67931309 48048214
L67931309 48714880
" />
<path d="M67931309 48143452
L67978928 48095833
L68074166 48048214
L68217023 48048214
L68312261 48095833
L68359880 48191071
L68359880 48714880
" />
<path d="M68788452 48667261
L68883690 48714880
L69074166 48714880
L69169404 48667261
L69217023 48572023
L69217023 48524404
L69169404 48429166
L69074166 48381547
L68931309 48381547
L68836071 48333928
L68788452 48238690
L68788452 48191071
L68836071 48095833
L68931309 48048214
L69074166 48048214
L69169404 48095833
" />
<path d="M69788452 48714880
L69693214 48667261
L69645595 48619642
L69597976 48524404
L69597976 48238690
L69645595 48143452
L69693214 48095833
L69788452 48048214
L69931309 48048214
L70026547 48095833
L70074166 48143452
L70121785 48238690
L70121785 48524404
L70074166 48619642
L70026547 48667261
L69931309 48714880
L69788452 48714880
" />
<path d="M70693214 48714880
L70597976 48667261
L70550357 48572023
L70550357 47714880
" />
<path d="M71455119 48667261
L71359880 48714880
L71169404 48714880
L71074166 48667261
L71026547 48572023
L71026547 48191071
L71074166 48095833
L71169404 48048214
L71359880 48048214
L71455119 48095833
L71502738 48191071
L71502738 48286309
L71026547 48381547
" />
</g><text x="48310000.000000" y="50667500.000000"
textLength="3433095.000000" font-size="1333333.000000" lengthAdjust="spacingAndGlyphs"
text-anchor="start" opacity="0">V1.0</text>
<g class="stroked-text"><desc>V1.0</desc>
<path d="M48502738 49619880
L48836071 50619880
L49169404 49619880
" />
<path d="M50026547 50619880
L49455119 50619880
" />
<path d="M49740833 50619880
L49740833 49619880
L49645595 49762738
L49550357 49857976
L49455119 49905595
" />
<path d="M50455119 50524642
L50502738 50572261
L50455119 50619880
L50407500 50572261
L50455119 50524642
L50455119 50619880
" />
<path d="M51121785 49619880
L51217023 49619880
L51312261 49667500
L51359880 49715119
L51407500 49810357
L51455119 50000833
L51455119 50238928
L51407500 50429404
L51359880 50524642
L51312261 50572261
L51217023 50619880
L51121785 50619880
L51026547 50572261
L50978928 50524642
L50931309 50429404
L50883690 50238928
L50883690 50000833
L50931309 49810357
L50978928 49715119
L51026547 49667500
L51121785 49619880
" />
</g><text x="43230000.000000" y="20822500.000000"
textLength="14528333.000000" font-size="1333333.000000" lengthAdjust="spacingAndGlyphs"
text-anchor="middle" opacity="0">Vcc/GND/SCL/SDA</text>
<g class="stroked-text"><desc>Vcc/GND/SCL/SDA</desc>
<path d="M36158571 19774880
L36491904 20774880
L36825238 19774880
" />
<path d="M37587142 20727261
L37491904 20774880
L37301428 20774880
L37206190 20727261
L37158571 20679642
L37110952 20584404
L37110952 20298690
L37158571 20203452
L37206190 20155833
L37301428 20108214
L37491904 20108214
L37587142 20155833
" />
<path d="M38444285 20727261
L38349047 20774880
L38158571 20774880
L38063333 20727261
L38015714 20679642
L37968095 20584404
L37968095 20298690
L38015714 20203452
L38063333 20155833
L38158571 20108214
L38349047 20108214
L38444285 20155833
" />
<path d="M39587142 19727261
L38730000 21012976
" />
<path d="M40444285 19822500
L40349047 19774880
L40206190 19774880
L40063333 19822500
L39968095 19917738
L39920476 20012976
L39872857 20203452
L39872857 20346309
L39920476 20536785
L39968095 20632023
L40063333 20727261
L40206190 20774880
L40301428 20774880
L40444285 20727261
L40491904 20679642
L40491904 20346309
L40301428 20346309
" />
<path d="M40920476 20774880
L40920476 19774880
L41491904 20774880
L41491904 19774880
" />
<path d="M41968095 20774880
L41968095 19774880
L42206190 19774880
L42349047 19822500
L42444285 19917738
L42491904 20012976
L42539523 20203452
L42539523 20346309
L42491904 20536785
L42444285 20632023
L42349047 20727261
L42206190 20774880
L41968095 20774880
" />
<path d="M43682380 19727261
L42825238 21012976
" />
<path d="M43968095 20727261
L44110952 20774880
L44349047 20774880
L44444285 20727261
L44491904 20679642
L44539523 20584404
L44539523 20489166
L44491904 20393928
L44444285 20346309
L44349047 20298690
L44158571 20251071
L44063333 20203452
L44015714 20155833
L43968095 20060595
L43968095 19965357
L44015714 19870119
L44063333 19822500
L44158571 19774880
L44396666 19774880
L44539523 19822500
" />
<path d="M45539523 20679642
L45491904 20727261
L45349047 20774880
L45253809 20774880
L45110952 20727261
L45015714 20632023
L44968095 20536785
L44920476 20346309
L44920476 20203452
L44968095 20012976
L45015714 19917738
L45110952 19822500
L45253809 19774880
L45349047 19774880
L45491904 19822500
L45539523 19870119
" />
<path d="M46444285 20774880
L45968095 20774880
L45968095 19774880
" />
<path d="M47491904 19727261
L46634761 21012976
" />
<path d="M47777619 20727261
L47920476 20774880
L48158571 20774880
L48253809 20727261
L48301428 20679642
L48349047 20584404
L48349047 20489166
L48301428 20393928
L48253809 20346309
L48158571 20298690
L47968095 20251071
L47872857 20203452
L47825238 20155833
L47777619 20060595
L47777619 19965357
L47825238 19870119
L47872857 19822500
L47968095 19774880
L48206190 19774880
L48349047 19822500
" />
<path d="M48777619 20774880
L48777619 19774880
L49015714 19774880
L49158571 19822500
L49253809 19917738
L49301428 20012976
L49349047 20203452
L49349047 20346309
L49301428 20536785
L49253809 20632023
L49158571 20727261
L49015714 20774880
L48777619 20774880
" />
<path d="M49730000 20489166
L50206190 20489166
" />
<path d="M49634761 20774880
L49968095 19774880
L50301428 20774880
" />
</g><text x="43230000.000000" y="18917500.000000"
textLength="12290238.000000" font-size="1333333.000000" lengthAdjust="spacingAndGlyphs"
text-anchor="middle" opacity="0">DISPLAY PINOUT</text>
<g class="stroked-text"><desc>DISPLAY PINOUT</desc>
<path d="M37420476 18869880
L37420476 17869880
L37658571 17869880
L37801428 17917500
L37896666 18012738
L37944285 18107976
L37991904 18298452
L37991904 18441309
L37944285 18631785
L37896666 18727023
L37801428 18822261
L37658571 18869880
L37420476 18869880
" />
<path d="M38420476 18869880
L38420476 17869880
" />
<path d="M38849047 18822261
L38991904 18869880
L39230000 18869880
L39325238 18822261
L39372857 18774642
L39420476 18679404
L39420476 18584166
L39372857 18488928
L39325238 18441309
L39230000 18393690
L39039523 18346071
L38944285 18298452
L38896666 18250833
L38849047 18155595
L38849047 18060357
L38896666 17965119
L38944285 17917500
L39039523 17869880
L39277619 17869880
L39420476 17917500
" />
<path d="M39849047 18869880
L39849047 17869880
L40230000 17869880
L40325238 17917500
L40372857 17965119
L40420476 18060357
L40420476 18203214
L40372857 18298452
L40325238 18346071
L40230000 18393690
L39849047 18393690
" />
<path d="M41325238 18869880
L40849047 18869880
L40849047 17869880
" />
<path d="M41610952 18584166
L42087142 18584166
" />
<path d="M41515714 18869880
L41849047 17869880
L42182380 18869880
" />
<path d="M42706190 18393690
L42706190 18869880
" />
<path d="M42372857 17869880
L42706190 18393690
L43039523 17869880
" />
<path d="M44134761 18869880
L44134761 17869880
L44515714 17869880
L44610952 17917500
L44658571 17965119
L44706190 18060357
L44706190 18203214
L44658571 18298452
L44610952 18346071
L44515714 18393690
L44134761 18393690
" />
<path d="M45134761 18869880
L45134761 17869880
" />
<path d="M45610952 18869880
L45610952 17869880
L46182380 18869880
L46182380 17869880
" />
<path d="M46849047 17869880
L47039523 17869880
L47134761 17917500
L47230000 18012738
L47277619 18203214
L47277619 18536547
L47230000 18727023
L47134761 18822261
L47039523 18869880
L46849047 18869880
L46753809 18822261
L46658571 18727023
L46610952 18536547
L46610952 18203214
L46658571 18012738
L46753809 17917500
L46849047 17869880
" />
<path d="M47706190 17869880
L47706190 18679404
L47753809 18774642
L47801428 18822261
L47896666 18869880
L48087142 18869880
L48182380 18822261
L48230000 18774642
L48277619 18679404
L48277619 17869880
" />
<path d="M48610952 17869880
L49182380 17869880
" />
<path d="M48896666 18869880
L48896666 17869880
" />
</g><text x="43230000.000000" y="27807500.000000"
textLength="14528333.000000" font-size="1333333.000000" lengthAdjust="spacingAndGlyphs"
text-anchor="middle" opacity="0">GND/Vcc/SCL/SDA</text>
<g class="stroked-text"><desc>GND/Vcc/SCL/SDA</desc>
<path d="M36825238 26807500
L36730000 26759880
L36587142 26759880
L36444285 26807500
L36349047 26902738
L36301428 26997976
L36253809 27188452
L36253809 27331309
L36301428 27521785
L36349047 27617023
L36444285 27712261
L36587142 27759880
L36682380 27759880
L36825238 27712261
L36872857 27664642
L36872857 27331309
L36682380 27331309
" />
<path d="M37301428 27759880
L37301428 26759880
L37872857 27759880
L37872857 26759880
" />
<path d="M38349047 27759880
L38349047 26759880
L38587142 26759880
L38730000 26807500
L38825238 26902738
L38872857 26997976
L38920476 27188452
L38920476 27331309
L38872857 27521785
L38825238 27617023
L38730000 27712261
L38587142 27759880
L38349047 27759880
" />
<path d="M40063333 26712261
L39206190 27997976
" />
<path d="M40253809 26759880
L40587142 27759880
L40920476 26759880
" />
<path d="M41682380 27712261
L41587142 27759880
L41396666 27759880
L41301428 27712261
L41253809 27664642
L41206190 27569404
L41206190 27283690
L41253809 27188452
L41301428 27140833
L41396666 27093214
L41587142 27093214
L41682380 27140833
" />
<path d="M42539523 27712261
L42444285 27759880
L42253809 27759880
L42158571 27712261
L42110952 27664642
L42063333 27569404
L42063333 27283690
L42110952 27188452
L42158571 27140833
L42253809 27093214
L42444285 27093214
L42539523 27140833
" />
<path d="M43682380 26712261
L42825238 27997976
" />
<path d="M43968095 27712261
L44110952 27759880
L44349047 27759880
L44444285 27712261
L44491904 27664642
L44539523 27569404
L44539523 27474166
L44491904 27378928
L44444285 27331309
L44349047 27283690
L44158571 27236071
L44063333 27188452
L44015714 27140833
L43968095 27045595
L43968095 26950357
L44015714 26855119
L44063333 26807500
L44158571 26759880
L44396666 26759880
L44539523 26807500
" />
<path d="M45539523 27664642
L45491904 27712261
L45349047 27759880
L45253809 27759880
L45110952 27712261
L45015714 27617023
L44968095 27521785
L44920476 27331309
L44920476 27188452
L44968095 26997976
L45015714 26902738
L45110952 26807500
L45253809 26759880
L45349047 26759880
L45491904 26807500
L45539523 26855119
" />
<path d="M46444285 27759880
L45968095 27759880
L45968095 26759880
" />
<path d="M47491904 26712261
L46634761 27997976
" />
<path d="M47777619 27712261
L47920476 27759880
L48158571 27759880
L48253809 27712261
L48301428 27664642
L48349047 27569404
L48349047 27474166
L48301428 27378928
L48253809 27331309
L48158571 27283690
L47968095 27236071
L47872857 27188452
L47825238 27140833
L47777619 27045595
L47777619 26950357
L47825238 26855119
L47872857 26807500
L47968095 26759880
L48206190 26759880
L48349047 26807500
" />
<path d="M48777619 27759880
L48777619 26759880
L49015714 26759880
L49158571 26807500
L49253809 26902738
L49301428 26997976
L49349047 27188452
L49349047 27331309
L49301428 27521785
L49253809 27617023
L49158571 27712261
L49015714 27759880
L48777619 27759880
" />
<path d="M49730000 27474166
L50206190 27474166
" />
<path d="M49634761 27759880
L49968095 26759880
L50301428 27759880
" />
</g><text x="48310000.000000" y="52572500.000000"
textLength="8385476.000000" font-size="1333333.000000" lengthAdjust="spacingAndGlyphs"
text-anchor="start" opacity="0">Sean Price</text>
<g class="stroked-text"><desc>Sean Price</desc>
<path d="M48597976 52477261
L48740833 52524880
L48978928 52524880
L49074166 52477261
L49121785 52429642
L49169404 52334404
L49169404 52239166
L49121785 52143928
L49074166 52096309
L48978928 52048690
L48788452 52001071
L48693214 51953452
L48645595 51905833
L48597976 51810595
L48597976 51715357
L48645595 51620119
L48693214 51572500
L48788452 51524880
L49026547 51524880
L49169404 51572500
" />
<path d="M49978928 52477261
L49883690 52524880
L49693214 52524880
L49597976 52477261
L49550357 52382023
L49550357 52001071
L49597976 51905833
L49693214 51858214
L49883690 51858214
L49978928 51905833
L50026547 52001071
L50026547 52096309
L49550357 52191547
" />
<path d="M50883690 52524880
L50883690 52001071
L50836071 51905833
L50740833 51858214
L50550357 51858214
L50455119 51905833
" />
<path d="M50883690 52477261
L50788452 52524880
L50550357 52524880
L50455119 52477261
L50407500 52382023
L50407500 52286785
L50455119 52191547
L50550357 52143928
L50788452 52143928
L50883690 52096309
" />
<path d="M51359880 51858214
L51359880 52524880
" />
<path d="M51359880 51953452
L51407500 51905833
L51502738 51858214
L51645595 51858214
L51740833 51905833
L51788452 52001071
L51788452 52524880
" />
<path d="M53026547 52524880
L53026547 51524880
L53407500 51524880
L53502738 51572500
L53550357 51620119
L53597976 51715357
L53597976 51858214
L53550357 51953452
L53502738 52001071
L53407500 52048690
L53026547 52048690
" />
<path d="M54026547 52524880
L54026547 51858214
" />
<path d="M54026547 52048690
L54074166 51953452
L54121785 51905833
L54217023 51858214
L54312261 51858214
" />
<path d="M54645595 52524880
L54645595 51858214
" />
<path d="M54645595 51524880
L54597976 51572500
L54645595 51620119
L54693214 51572500
L54645595 51524880
L54645595 51620119
" />
<path d="M55550357 52477261
L55455119 52524880
L55264642 52524880
L55169404 52477261
L55121785 52429642
L55074166 52334404
L55074166 52048690
L55121785 51953452
L55169404 51905833
L55264642 51858214
L55455119 51858214
L55550357 51905833
" />
<path d="M56359880 52477261
L56264642 52524880
L56074166 52524880
L55978928 52477261
L55931309 52382023
L55931309 52001071
L55978928 51905833
L56074166 51858214
L56264642 51858214
L56359880 51905833
L56407500 52001071
L56407500 52096309
L55931309 52191547
" />
</g><text x="52120000.000000" y="5587500.000000"
textLength="1195000.000000" font-size="1333333.000000" lengthAdjust="spacingAndGlyphs"
text-anchor="middle" opacity="0">K</text>
<g class="stroked-text"><desc>K</desc>
<path d="M51858095 5539880
L51858095 4539880
" />
<path d="M52429523 5539880
L52000952 4968452
" />
<path d="M52429523 4539880
L51858095 5111309
" />
</g><g transform="rotate(-90.000000 42490000.000000 23497500.000000)">
<text x="42490000.000000" y="23997500.000000"
textLength="2909286.000000" font-size="1333333.000000" lengthAdjust="spacingAndGlyphs"
text-anchor="middle" opacity="0">JP1</text>
</g>
<g class="stroked-text"><desc>JP1</desc>
<path d="M41942380 24330833
L42656666 24330833
L42799523 24378452
L42894761 24473690
L42942380 24616547
L42942380 24711785
" />
<path d="M42942380 23854642
L41942380 23854642
L41942380 23473690
L41990000 23378452
L42037619 23330833
L42132857 23283214
L42275714 23283214
L42370952 23330833
L42418571 23378452
L42466190 23473690
L42466190 23854642
" />
<path d="M42942380 22330833
L42942380 22902261
" />
<path d="M42942380 22616547
L41942380 22616547
L42085238 22711785
L42180476 22807023
L42228095 22902261
" />
</g><text x="64270000.000000" y="14457500.000000"
textLength="3099762.000000" font-size="1333333.000000" lengthAdjust="spacingAndGlyphs"
text-anchor="middle" opacity="0">BZ1</text>
<g class="stroked-text"><desc>BZ1</desc>
<path d="M63389047 13886071
L63531904 13933690
L63579523 13981309
L63627142 14076547
L63627142 14219404
L63579523 14314642
L63531904 14362261
L63436666 14409880
L63055714 14409880
L63055714 13409880
L63389047 13409880
L63484285 13457500
L63531904 13505119
L63579523 13600357
L63579523 13695595
L63531904 13790833
L63484285 13838452
L63389047 13886071
L63055714 13886071
" />
<path d="M63960476 13409880
L64627142 13409880
L63960476 14409880
L64627142 14409880
" />
<path d="M65531904 14409880
L64960476 14409880
" />
<path d="M65246190 14409880
L65246190 13409880
L65150952 13552738
L65055714 13647976
L64960476 13695595
" />
</g><text x="61020000.000000" y="19657500.000000"
textLength="1433095.000000" font-size="1333333.000000" lengthAdjust="spacingAndGlyphs"
text-anchor="middle" opacity="0">+</text>
<g class="stroked-text"><desc>+</desc>
<path d="M60639047 19228928
L61400952 19228928
" />
<path d="M61020000 19609880
L61020000 18847976
" />
</g><text x="15290000.000000" y="31617500.000000"
textLength="2195000.000000" font-size="1333333.000000" lengthAdjust="spacingAndGlyphs"
text-anchor="middle" opacity="0">U1</text>
<g class="stroked-text"><desc>U1</desc>
<path d="M14528095 30569880
L14528095 31379404
L14575714 31474642
L14623333 31522261
L14718571 31569880
L14909047 31569880
L15004285 31522261
L15051904 31474642
L15099523 31379404
L15099523 30569880
" />
<path d="M16099523 31569880
L15528095 31569880
" />
<path d="M15813809 31569880
L15813809 30569880
L15718571 30712738
L15623333 30807976
L15528095 30855595
" />
</g><g transform="rotate(-45.000000 2490000.000000 24767500.000000)">
<text x="2490000.000000" y="25167500.000000"
textLength="2633095.000000" font-size="1066666.000000" lengthAdjust="spacingAndGlyphs"
text-anchor="middle" opacity="0">GND</text>
</g>
<g class="stroked-text"><desc>GND</desc>
<path d="M1776158 24915655
L1695346 24942593
L1614534 25023405
L1560659 25131154
L1560659 25238904
L1587597 25319716
L1668409 25454403
L1749221 25535215
L1883908 25616028
L1964720 25642965
L2072470 25642965
L2180219 25589090
L2234094 25535215
L2287969 25427466
L2287969 25373591
L2099407 25185029
L1991658 25292779
" />
<path d="M2584280 25185029
L2018595 24619344
L2907529 24861780
L2341844 24296095
" />
<path d="M3176903 24592406
L2611218 24026721
L2745905 23892034
L2853654 23838159
L2961404 23838159
L3042216 23865097
L3176903 23945909
L3257715 24026721
L3338528 24161408
L3365465 24242220
L3365465 24349970
L3311590 24457719
L3176903 24592406
" />
</g><g transform="rotate(-45.000000 2490000.000000 34927500.000000)">
<text x="2490000.000000" y="35327500.000000"
textLength="2556905.000000" font-size="1066666.000000" lengthAdjust="spacingAndGlyphs"
text-anchor="middle" opacity="0">GP9</text>
</g>
<g class="stroked-text"><desc>GP9</desc>
<path d="M1803096 35048718
L1722284 35075655
L1641471 35156467
L1587597 35264217
L1587597 35371967
L1614534 35452779
L1695346 35587466
L1776158 35668278
L1910845 35749090
L1991658 35776028
L2099407 35776028
L2207157 35722153
L2261032 35668278
L2314906 35560528
L2314906 35506654
L2126345 35318092
L2018595 35425841
" />
<path d="M2611218 35318092
L2045532 34752406
L2261032 34536907
L2341844 34509970
L2395719 34509970
L2476531 34536907
L2557343 34617719
L2584280 34698532
L2584280 34752406
L2557343 34833219
L2341844 35048718
" />
<path d="M3203841 34725469
L3311590 34617719
L3338528 34536907
L3338528 34483032
L3311590 34348345
L3230778 34213658
L3015279 33998159
L2934467 33971222
L2880592 33971222
L2799780 33998159
L2692030 34105909
L2665093 34186721
L2665093 34240596
L2692030 34321408
L2826717 34456095
L2907529 34483032
L2961404 34483032
L3042216 34456095
L3149966 34348345
L3176903 34267533
L3176903 34213658
L3149966 34132846
" />
</g><g transform="rotate(-45.000000 2490000.000000 32387500.000000)">
<text x="2490000.000000" y="32787500.000000"
textLength="2556905.000000" font-size="1066666.000000" lengthAdjust="spacingAndGlyphs"
text-anchor="middle" opacity="0">GP8</text>
</g>
<g class="stroked-text"><desc>GP8</desc>
<path d="M1803096 32508718
L1722284 32535655
L1641471 32616467
L1587597 32724217
L1587597 32831967
L1614534 32912779
L1695346 33047466
L1776158 33128278
L1910845 33209090
L1991658 33236028
L2099407 33236028
L2207157 33182153
L2261032 33128278
L2314906 33020528
L2314906 32966654
L2126345 32778092
L2018595 32885841
" />
<path d="M2611218 32778092
L2045532 32212406
L2261032 31996907
L2341844 31969970
L2395719 31969970
L2476531 31996907
L2557343 32077719
L2584280 32158532
L2584280 32212406
L2557343 32293219
L2341844 32508718
" />
<path d="M2934467 31808345
L2853654 31835283
L2799780 31835283
L2718967 31808345
L2692030 31781408
L2665093 31700596
L2665093 31646721
L2692030 31565909
L2799780 31458159
L2880592 31431222
L2934467 31431222
L3015279 31458159
L3042216 31485097
L3069154 31565909
L3069154 31619784
L3042216 31700596
L2934467 31808345
L2907529 31889158
L2907529 31943032
L2934467 32023845
L3042216 32131594
L3123028 32158532
L3176903 32158532
L3257715 32131594
L3365465 32023845
L3392402 31943032
L3392402 31889158
L3365465 31808345
L3257715 31700596
L3176903 31673658
L3123028 31673658
L3042216 31700596
" />
</g><g transform="rotate(-45.000000 2236000.000000 40007500.000000)">
<text x="2236000.000000" y="40407500.000000"
textLength="3318810.000000" font-size="1066666.000000" lengthAdjust="spacingAndGlyphs"
text-anchor="middle" opacity="0">GP10</text>
</g>
<g class="stroked-text"><desc>GP10</desc>
<path d="M1279722 40398092
L1198910 40425029
L1118097 40505841
L1064223 40613591
L1064223 40721341
L1091160 40802153
L1171972 40936840
L1252784 41017652
L1387471 41098464
L1468284 41125402
L1576033 41125402
L1683783 41071527
L1737658 41017652
L1791532 40909902
L1791532 40856028
L1602971 40667466
L1495221 40775215
" />
<path d="M2087844 40667466
L1522158 40101780
L1737658 39886281
L1818470 39859344
L1872345 39859344
L1953157 39886281
L2033969 39967093
L2060906 40047906
L2060906 40101780
L2033969 40182593
L1818470 40398092
" />
<path d="M2949841 39805469
L2626592 40128718
" />
<path d="M2788216 39967093
L2222531 39401408
L2249468 39536095
L2249468 39643845
L2222531 39724657
" />
<path d="M2734341 38889597
L2788216 38835723
L2869028 38808785
L2922903 38808785
L3003715 38835723
L3138402 38916535
L3273089 39051222
L3353902 39185909
L3380839 39266721
L3380839 39320596
L3353902 39401408
L3300027 39455283
L3219215 39482220
L3165340 39482220
L3084528 39455283
L2949841 39374471
L2815154 39239784
L2734341 39105097
L2707404 39024284
L2707404 38970410
L2734341 38889597
" />
</g><g transform="rotate(-45.000000 2490000.000000 50167500.000000)">
<text x="2490000.000000" y="50567500.000000"
textLength="2633095.000000" font-size="1066666.000000" lengthAdjust="spacingAndGlyphs"
text-anchor="middle" opacity="0">GND</text>
</g>
<g class="stroked-text"><desc>GND</desc>
<path d="M1776158 50315655
L1695346 50342593
L1614534 50423405
L1560659 50531154
L1560659 50638904
L1587597 50719716
L1668409 50854403
L1749221 50935215
L1883908 51016028
L1964720 51042965
L2072470 51042965
L2180219 50989090
L2234094 50935215
L2287969 50827466
L2287969 50773591
L2099407 50585029
L1991658 50692779
" />
<path d="M2584280 50585029
L2018595 50019344
L2907529 50261780
L2341844 49696095
" />
<path d="M3176903 49992406
L2611218 49426721
L2745905 49292034
L2853654 49238159
L2961404 49238159
L3042216 49265097
L3176903 49345909
L3257715 49426721
L3338528 49561408
L3365465 49642220
L3365465 49749970
L3311590 49857719
L3176903 49992406
" />
</g><g transform="rotate(-45.000000 28344000.000000 40017500.000000)">
<text x="28344000.000000" y="40417500.000000"
textLength="3318810.000000" font-size="1066666.000000" lengthAdjust="spacingAndGlyphs"
text-anchor="middle" opacity="0">GP21</text>
</g>
<g class="stroked-text"><desc>GP21</desc>
<path d="M27387722 40408092
L27306910 40435029
L27226097 40515841
L27172223 40623591
L27172223 40731341
L27199160 40812153
L27279972 40946840
L27360784 41027652
L27495471 41108464
L27576284 41135402
L27684033 41135402
L27791783 41081527
L27845658 41027652
L27899532 40919902
L27899532 40866028
L27710971 40677466
L27603221 40785215
" />
<path d="M28195844 40677466
L27630158 40111780
L27845658 39896281
L27926470 39869344
L27980345 39869344
L28061157 39896281
L28141969 39977093
L28168906 40057906
L28168906 40111780
L28141969 40192593
L27926470 40408092
" />
<path d="M28222781 39626907
L28222781 39573032
L28249719 39492220
L28384406 39357533
L28465218 39330596
L28519093 39330596
L28599905 39357533
L28653780 39411408
L28707654 39519158
L28707654 40165655
L29057841 39815469
" />
<path d="M29596589 39276721
L29273340 39599970
" />
<path d="M29434964 39438345
L28869279 38872660
L28896216 39007347
L28896216 39115097
L28869279 39195909
" />
</g><g transform="rotate(-45.000000 2490000.000000 19687500.000000)">
<text x="2490000.000000" y="20087500.000000"
textLength="2556905.000000" font-size="1066666.000000" lengthAdjust="spacingAndGlyphs"
text-anchor="middle" opacity="0">GP4</text>
</g>
<g class="stroked-text"><desc>GP4</desc>
<path d="M1803096 19808718
L1722284 19835655
L1641471 19916467
L1587597 20024217
L1587597 20131967
L1614534 20212779
L1695346 20347466
L1776158 20428278
L1910845 20509090
L1991658 20536028
L2099407 20536028
L2207157 20482153
L2261032 20428278
L2314906 20320528
L2314906 20266654
L2126345 20078092
L2018595 20185841
" />
<path d="M2611218 20078092
L2045532 19512406
L2261032 19296907
L2341844 19269970
L2395719 19269970
L2476531 19296907
L2557343 19377719
L2584280 19458532
L2584280 19512406
L2557343 19593219
L2341844 19808718
" />
<path d="M3042216 18892846
L3419340 19269970
" />
<path d="M2692030 18812034
L2961404 19350782
L3311590 19000596
" />
</g><g transform="rotate(-45.000000 2090000.000000 42547500.000000)">
<text x="2090000.000000" y="42947500.000000"
textLength="3318810.000000" font-size="1066666.000000" lengthAdjust="spacingAndGlyphs"
text-anchor="middle" opacity="0">GP11</text>
</g>
<g class="stroked-text"><desc>GP11</desc>
<path d="M1133722 42938092
L1052910 42965029
L972097 43045841
L918223 43153591
L918223 43261341
L945160 43342153
L1025972 43476840
L1106784 43557652
L1241471 43638464
L1322284 43665402
L1430033 43665402
L1537783 43611527
L1591658 43557652
L1645532 43449902
L1645532 43396028
L1456971 43207466
L1349221 43315215
" />
<path d="M1941844 43207466
L1376158 42641780
L1591658 42426281
L1672470 42399344
L1726345 42399344
L1807157 42426281
L1887969 42507093
L1914906 42587906
L1914906 42641780
L1887969 42722593
L1672470 42938092
" />
<path d="M2803841 42345469
L2480592 42668718
" />
<path d="M2642216 42507093
L2076531 41941408
L2103468 42076095
L2103468 42183845
L2076531 42264657
" />
<path d="M3342589 41806721
L3019340 42129970
" />
<path d="M3180964 41968345
L2615279 41402660
L2642216 41537347
L2642216 41645097
L2615279 41725909
" />
</g><g transform="rotate(-45.000000 28344000.000000 34927500.000000)">
<text x="28344000.000000" y="35327500.000000"
textLength="3318810.000000" font-size="1066666.000000" lengthAdjust="spacingAndGlyphs"
text-anchor="middle" opacity="0">GP22</text>
</g>
<g class="stroked-text"><desc>GP22</desc>
<path d="M27387722 35318092
L27306910 35345029
L27226097 35425841
L27172223 35533591
L27172223 35641341
L27199160 35722153
L27279972 35856840
L27360784 35937652
L27495471 36018464
L27576284 36045402
L27684033 36045402
L27791783 35991527
L27845658 35937652
L27899532 35829902
L27899532 35776028
L27710971 35587466
L27603221 35695215
" />
<path d="M28195844 35587466
L27630158 35021780
L27845658 34806281
L27926470 34779344
L27980345 34779344
L28061157 34806281
L28141969 34887093
L28168906 34967906
L28168906 35021780
L28141969 35102593
L27926470 35318092
" />
<path d="M28222781 34536907
L28222781 34483032
L28249719 34402220
L28384406 34267533
L28465218 34240596
L28519093 34240596
L28599905 34267533
L28653780 34321408
L28707654 34429158
L28707654 35075655
L29057841 34725469
" />
<path d="M28761529 33998159
L28761529 33944284
L28788467 33863472
L28923154 33728785
L29003966 33701848
L29057841 33701848
L29138653 33728785
L29192528 33782660
L29246402 33890410
L29246402 34536907
L29596589 34186721
" />
</g><g transform="rotate(-45.000000 2490000.000000 6987500.000000)">
<text x="2490000.000000" y="7387500.000000"
textLength="2556905.000000" font-size="1066666.000000" lengthAdjust="spacingAndGlyphs"
text-anchor="middle" opacity="0">GP0</text>
</g>
<g class="stroked-text"><desc>GP0</desc>
<path d="M1803096 7108718
L1722284 7135655
L1641471 7216467
L1587597 7324217
L1587597 7431967
L1614534 7512779
L1695346 7647466
L1776158 7728278
L1910845 7809090
L1991658 7836028
L2099407 7836028
L2207157 7782153
L2261032 7728278
L2314906 7620528
L2314906 7566654
L2126345 7378092
L2018595 7485841
" />
<path d="M2611218 7378092
L2045532 6812406
L2261032 6596907
L2341844 6569970
L2395719 6569970
L2476531 6596907
L2557343 6677719
L2584280 6758532
L2584280 6812406
L2557343 6893219
L2341844 7108718
" />
<path d="M2718967 6138971
L2772842 6085097
L2853654 6058159
L2907529 6058159
L2988341 6085097
L3123028 6165909
L3257715 6300596
L3338528 6435283
L3365465 6516095
L3365465 6569970
L3338528 6650782
L3284653 6704657
L3203841 6731594
L3149966 6731594
L3069154 6704657
L2934467 6623845
L2799780 6489158
L2718967 6354471
L2692030 6273658
L2692030 6219784
L2718967 6138971
" />
</g><g transform="rotate(-45.000000 2490000.000000 27307500.000000)">
<text x="2490000.000000" y="27707500.000000"
textLength="2556905.000000" font-size="1066666.000000" lengthAdjust="spacingAndGlyphs"
text-anchor="middle" opacity="0">GP6</text>
</g>
<g class="stroked-text"><desc>GP6</desc>
<path d="M1803096 27428718
L1722284 27455655
L1641471 27536467
L1587597 27644217
L1587597 27751967
L1614534 27832779
L1695346 27967466
L1776158 28048278
L1910845 28129090
L1991658 28156028
L2099407 28156028
L2207157 28102153
L2261032 28048278
L2314906 27940528
L2314906 27886654
L2126345 27698092
L2018595 27805841
" />
<path d="M2611218 27698092
L2045532 27132406
L2261032 26916907
L2341844 26889970
L2395719 26889970
L2476531 26916907
L2557343 26997719
L2584280 27078532
L2584280 27132406
L2557343 27213219
L2341844 27428718
" />
<path d="M2853654 26324284
L2745905 26432034
L2718967 26512846
L2718967 26566721
L2745905 26701408
L2826717 26836095
L3042216 27051594
L3123028 27078532
L3176903 27078532
L3257715 27051594
L3365465 26943845
L3392402 26863032
L3392402 26809158
L3365465 26728345
L3230778 26593658
L3149966 26566721
L3096091 26566721
L3015279 26593658
L2907529 26701408
L2880592 26782220
L2880592 26836095
L2907529 26916907
" />
</g><g transform="rotate(-45.000000 28344000.000000 27317500.000000)">
<text x="28344000.000000" y="27717500.000000"
textLength="3318810.000000" font-size="1066666.000000" lengthAdjust="spacingAndGlyphs"
text-anchor="middle" opacity="0">GP27</text>
</g>
<g class="stroked-text"><desc>GP27</desc>
<path d="M27387722 27708092
L27306910 27735029
L27226097 27815841
L27172223 27923591
L27172223 28031341
L27199160 28112153
L27279972 28246840
L27360784 28327652
L27495471 28408464
L27576284 28435402
L27684033 28435402
L27791783 28381527
L27845658 28327652
L27899532 28219902
L27899532 28166028
L27710971 27977466
L27603221 28085215
" />
<path d="M28195844 27977466
L27630158 27411780
L27845658 27196281
L27926470 27169344
L27980345 27169344
L28061157 27196281
L28141969 27277093
L28168906 27357906
L28168906 27411780
L28141969 27492593
L27926470 27708092
" />
<path d="M28222781 26926907
L28222781 26873032
L28249719 26792220
L28384406 26657533
L28465218 26630596
L28519093 26630596
L28599905 26657533
L28653780 26711408
L28707654 26819158
L28707654 27465655
L29057841 27115469
" />
<path d="M28680717 26361222
L29057841 25984098
L29381089 26792220
" />
</g><g transform="rotate(-45.000000 28344000.000000 29847500.000000)">
<text x="28344000.000000" y="30247500.000000"
textLength="3318810.000000" font-size="1066666.000000" lengthAdjust="spacingAndGlyphs"
text-anchor="middle" opacity="0">GP26</text>
</g>
<g class="stroked-text"><desc>GP26</desc>
<path d="M27387722 30238092
L27306910 30265029
L27226097 30345841
L27172223 30453591
L27172223 30561341
L27199160 30642153
L27279972 30776840
L27360784 30857652
L27495471 30938464
L27576284 30965402
L27684033 30965402
L27791783 30911527
L27845658 30857652
L27899532 30749902
L27899532 30696028
L27710971 30507466
L27603221 30615215
" />
<path d="M28195844 30507466
L27630158 29941780
L27845658 29726281
L27926470 29699344
L27980345 29699344
L28061157 29726281
L28141969 29807093
L28168906 29887906
L28168906 29941780
L28141969 30022593
L27926470 30238092
" />
<path d="M28222781 29456907
L28222781 29403032
L28249719 29322220
L28384406 29187533
L28465218 29160596
L28519093 29160596
L28599905 29187533
L28653780 29241408
L28707654 29349158
L28707654 29995655
L29057841 29645469
" />
<path d="M28977028 28594910
L28869279 28702660
L28842341 28783472
L28842341 28837347
L28869279 28972034
L28950091 29106721
L29165590 29322220
L29246402 29349158
L29300277 29349158
L29381089 29322220
L29488839 29214471
L29515776 29133658
L29515776 29079784
L29488839 28998971
L29354152 28864284
L29273340 28837347
L29219465 28837347
L29138653 28864284
L29030903 28972034
L29003966 29052846
L29003966 29106721
L29030903 29187533
" />
</g><g transform="rotate(-45.000000 28344000.000000 47627500.000000)">
<text x="28344000.000000" y="48027500.000000"
textLength="3318810.000000" font-size="1066666.000000" lengthAdjust="spacingAndGlyphs"
text-anchor="middle" opacity="0">GP18</text>
</g>
<g class="stroked-text"><desc>GP18</desc>
<path d="M27387722 48018092
L27306910 48045029
L27226097 48125841
L27172223 48233591
L27172223 48341341
L27199160 48422153
L27279972 48556840
L27360784 48637652
L27495471 48718464
L27576284 48745402
L27684033 48745402
L27791783 48691527
L27845658 48637652
L27899532 48529902
L27899532 48476028
L27710971 48287466
L27603221 48395215
" />
<path d="M28195844 48287466
L27630158 47721780
L27845658 47506281
L27926470 47479344
L27980345 47479344
L28061157 47506281
L28141969 47587093
L28168906 47667906
L28168906 47721780
L28141969 47802593
L27926470 48018092
" />
<path d="M29057841 47425469
L28734592 47748718
" />
<path d="M28896216 47587093
L28330531 47021408
L28357468 47156095
L28357468 47263845
L28330531 47344657
" />
<path d="M29057841 46778971
L28977028 46805909
L28923154 46805909
L28842341 46778971
L28815404 46752034
L28788467 46671222
L28788467 46617347
L28815404 46536535
L28923154 46428785
L29003966 46401848
L29057841 46401848
L29138653 46428785
L29165590 46455723
L29192528 46536535
L29192528 46590410
L29165590 46671222
L29057841 46778971
L29030903 46859784
L29030903 46913658
L29057841 46994471
L29165590 47102220
L29246402 47129158
L29300277 47129158
L29381089 47102220
L29488839 46994471
L29515776 46913658
L29515776 46859784
L29488839 46778971
L29381089 46671222
L29300277 46644284
L29246402 46644284
L29165590 46671222
" />
</g><text x="20890000.000000" y="57717500.000000"
textLength="3890238.000000" font-size="1066666.000000" lengthAdjust="spacingAndGlyphs"
text-anchor="middle" opacity="0">SWDIO</text>
<g class="stroked-text"><desc>SWDIO</desc>
<path d="M19194761 57641309
L19309047 57679404
L19499523 57679404
L19575714 57641309
L19613809 57603214
L19651904 57527023
L19651904 57450833
L19613809 57374642
L19575714 57336547
L19499523 57298452
L19347142 57260357
L19270952 57222261
L19232857 57184166
L19194761 57107976
L19194761 57031785
L19232857 56955595
L19270952 56917500
L19347142 56879404
L19537619 56879404
L19651904 56917500
" />
<path d="M19918571 56879404
L20109047 57679404
L20261428 57107976
L20413809 57679404
L20604285 56879404
" />
<path d="M20909047 57679404
L20909047 56879404
L21099523 56879404
L21213809 56917500
L21290000 56993690
L21328095 57069880
L21366190 57222261
L21366190 57336547
L21328095 57488928
L21290000 57565119
L21213809 57641309
L21099523 57679404
L20909047 57679404
" />
<path d="M21709047 57679404
L21709047 56879404
" />
<path d="M22242380 56879404
L22394761 56879404
L22470952 56917500
L22547142 56993690
L22585238 57146071
L22585238 57412738
L22547142 57565119
L22470952 57641309
L22394761 57679404
L22242380 57679404
L22166190 57641309
L22090000 57565119
L22051904 57412738
L22051904 57146071
L22090000 56993690
L22166190 56917500
L22242380 56879404
" />
</g><g transform="rotate(-45.000000 28344000.000000 24767500.000000)">
<text x="28344000.000000" y="25167500.000000"
textLength="3318810.000000" font-size="1066666.000000" lengthAdjust="spacingAndGlyphs"
text-anchor="middle" opacity="0">AGND</text>
</g>
<g class="stroked-text"><desc>AGND</desc>
<path d="M27441597 25858464
L27710971 25589090
" />
<path d="M27549346 26073963
L27172223 25319716
L27926470 25696840
" />
<path d="M27872595 24673219
L27791783 24700156
L27710971 24780968
L27657096 24888718
L27657096 24996467
L27684033 25077280
L27764845 25211967
L27845658 25292779
L27980345 25373591
L28061157 25400528
L28168906 25400528
L28276656 25346654
L28330531 25292779
L28384406 25185029
L28384406 25131154
L28195844 24942593
L28088094 25050342
" />
<path d="M28680717 24942593
L28115032 24376907
L29003966 24619344
L28438280 24053658
" />
<path d="M29273340 24349970
L28707654 23784284
L28842341 23649597
L28950091 23595723
L29057841 23595723
L29138653 23622660
L29273340 23703472
L29354152 23784284
L29434964 23918971
L29461902 23999784
L29461902 24107533
L29408027 24215283
L29273340 24349970
" />
</g><g transform="rotate(-45.000000 2236000.000000 55247500.000000)">
<text x="2236000.000000" y="55647500.000000"
textLength="3318810.000000" font-size="1066666.000000" lengthAdjust="spacingAndGlyphs"
text-anchor="middle" opacity="0">GP15</text>
</g>
<g class="stroked-text"><desc>GP15</desc>
<path d="M1279722 55638092
L1198910 55665029
L1118097 55745841
L1064223 55853591
L1064223 55961341
L1091160 56042153
L1171972 56176840
L1252784 56257652
L1387471 56338464
L1468284 56365402
L1576033 56365402
L1683783 56311527
L1737658 56257652
L1791532 56149902
L1791532 56096028
L1602971 55907466
L1495221 56015215
" />
<path d="M2087844 55907466
L1522158 55341780
L1737658 55126281
L1818470 55099344
L1872345 55099344
L1953157 55126281
L2033969 55207093
L2060906 55287906
L2060906 55341780
L2033969 55422593
L1818470 55638092
" />
<path d="M2949841 55045469
L2626592 55368718
" />
<path d="M2788216 55207093
L2222531 54641408
L2249468 54776095
L2249468 54883845
L2222531 54964657
" />
<path d="M2895966 53967973
L2626592 54237347
L2869028 54533658
L2869028 54479784
L2895966 54398971
L3030653 54264284
L3111465 54237347
L3165340 54237347
L3246152 54264284
L3380839 54398971
L3407776 54479784
L3407776 54533658
L3380839 54614471
L3246152 54749158
L3165340 54776095
L3111465 54776095
" />
</g><g transform="rotate(-45.000000 2590000.000000 29817500.000000)">
<text x="2590000.000000" y="30217500.000000"
textLength="2556905.000000" font-size="1066666.000000" lengthAdjust="spacingAndGlyphs"
text-anchor="middle" opacity="0">GP7</text>
</g>
<g class="stroked-text"><desc>GP7</desc>
<path d="M1903096 29938718
L1822284 29965655
L1741471 30046467
L1687597 30154217
L1687597 30261967
L1714534 30342779
L1795346 30477466
L1876158 30558278
L2010845 30639090
L2091658 30666028
L2199407 30666028
L2307157 30612153
L2361032 30558278
L2414906 30450528
L2414906 30396654
L2226345 30208092
L2118595 30315841
" />
<path d="M2711218 30208092
L2145532 29642406
L2361032 29426907
L2441844 29399970
L2495719 29399970
L2576531 29426907
L2657343 29507719
L2684280 29588532
L2684280 29642406
L2657343 29723219
L2441844 29938718
" />
<path d="M2657343 29130596
L3034467 28753472
L3357715 29561594
" />
</g><g transform="rotate(-45.000000 28990000.000000 13917500.000000)">
<text x="28990000.000000" y="14317500.000000"
textLength="4575952.000000" font-size="1066666.000000" lengthAdjust="spacingAndGlyphs"
text-anchor="middle" opacity="0">3V3_EN</text>
</g>
<g class="stroked-text"><desc>3V3_EN</desc>
<path d="M27212131 15075808
L27562317 14725622
L27589255 15129683
L27670067 15048870
L27750879 15021933
L27804754 15021933
L27885566 15048870
L28020253 15183557
L28047190 15264370
L28047190 15318244
L28020253 15399057
L27858629 15560681
L27777816 15587618
L27723942 15587618
" />
<path d="M27723942 14563997
L28478189 14941121
L28101065 14186874
" />
<path d="M28235752 14052187
L28585938 13702000
L28612876 14106061
L28693688 14025249
L28774500 13998312
L28828375 13998312
L28909187 14025249
L29043874 14159936
L29070812 14240748
L29070812 14294623
L29043874 14375435
L28882250 14537060
L28801438 14563997
L28747563 14563997
" />
<path d="M29313248 14213811
L29744247 13782812
" />
<path d="M29528748 13297939
L29717309 13109377
" />
<path d="M30094433 13324877
L29825059 13594251
L29259374 13028565
L29528748 12759191
" />
<path d="M30336870 13082440
L29771184 12516755
L30660118 12759191
L30094433 12193506
" />
</g><g transform="rotate(-45.000000 28344000.000000 52707500.000000)">
<text x="28344000.000000" y="53107500.000000"
textLength="3318810.000000" font-size="1066666.000000" lengthAdjust="spacingAndGlyphs"
text-anchor="middle" opacity="0">GP17</text>
</g>
<g class="stroked-text"><desc>GP17</desc>
<path d="M27387722 53098092
L27306910 53125029
L27226097 53205841
L27172223 53313591
L27172223 53421341
L27199160 53502153
L27279972 53636840
L27360784 53717652
L27495471 53798464
L27576284 53825402
L27684033 53825402
L27791783 53771527
L27845658 53717652
L27899532 53609902
L27899532 53556028
L27710971 53367466
L27603221 53475215
" />
<path d="M28195844 53367466
L27630158 52801780
L27845658 52586281
L27926470 52559344
L27980345 52559344
L28061157 52586281
L28141969 52667093
L28168906 52747906
L28168906 52801780
L28141969 52882593
L27926470 53098092
" />
<path d="M29057841 52505469
L28734592 52828718
" />
<path d="M28896216 52667093
L28330531 52101408
L28357468 52236095
L28357468 52343845
L28330531 52424657
" />
<path d="M28680717 51751222
L29057841 51374098
L29381089 52182220
" />
</g><g transform="rotate(-45.000000 2190000.000000 52707500.000000)">
<text x="2190000.000000" y="53107500.000000"
textLength="3318810.000000" font-size="1066666.000000" lengthAdjust="spacingAndGlyphs"
text-anchor="middle" opacity="0">GP14</text>
</g>
<g class="stroked-text"><desc>GP14</desc>
<path d="M1233722 53098092
L1152910 53125029
L1072097 53205841
L1018223 53313591
L1018223 53421341
L1045160 53502153
L1125972 53636840
L1206784 53717652
L1341471 53798464
L1422284 53825402
L1530033 53825402
L1637783 53771527
L1691658 53717652
L1745532 53609902
L1745532 53556028
L1556971 53367466
L1449221 53475215
" />
<path d="M2041844 53367466
L1476158 52801780
L1691658 52586281
L1772470 52559344
L1826345 52559344
L1907157 52586281
L1987969 52667093
L2014906 52747906
L2014906 52801780
L1987969 52882593
L1772470 53098092
" />
<path d="M2903841 52505469
L2580592 52828718
" />
<path d="M2742216 52667093
L2176531 52101408
L2203468 52236095
L2203468 52343845
L2176531 52424657
" />
<path d="M3011590 51643472
L3388714 52020596
" />
<path d="M2661404 51562660
L2930778 52101408
L3280964 51751222
" />
</g><g transform="rotate(-45.000000 28344000.000000 45087500.000000)">
<text x="28344000.000000" y="45487500.000000"
textLength="3318810.000000" font-size="1066666.000000" lengthAdjust="spacingAndGlyphs"
text-anchor="middle" opacity="0">GP19</text>
</g>
<g class="stroked-text"><desc>GP19</desc>
<path d="M27387722 45478092
L27306910 45505029
L27226097 45585841
L27172223 45693591
L27172223 45801341
L27199160 45882153
L27279972 46016840
L27360784 46097652
L27495471 46178464
L27576284 46205402
L27684033 46205402
L27791783 46151527
L27845658 46097652
L27899532 45989902
L27899532 45936028
L27710971 45747466
L27603221 45855215
" />
<path d="M28195844 45747466
L27630158 45181780
L27845658 44966281
L27926470 44939344
L27980345 44939344
L28061157 44966281
L28141969 45047093
L28168906 45127906
L28168906 45181780
L28141969 45262593
L27926470 45478092
" />
<path d="M29057841 44885469
L28734592 45208718
" />
<path d="M28896216 45047093
L28330531 44481408
L28357468 44616095
L28357468 44723845
L28330531 44804657
" />
<path d="M29327215 44616095
L29434964 44508345
L29461902 44427533
L29461902 44373658
L29434964 44238971
L29354152 44104284
L29138653 43888785
L29057841 43861848
L29003966 43861848
L28923154 43888785
L28815404 43996535
L28788467 44077347
L28788467 44131222
L28815404 44212034
L28950091 44346721
L29030903 44373658
L29084778 44373658
L29165590 44346721
L29273340 44238971
L29300277 44158159
L29300277 44104284
L29273340 44023472
" />
</g><g transform="rotate(-45.000000 28490000.000000 9527500.000000)">
<text x="28490000.000000" y="9927500.000000"
textLength="3090238.000000" font-size="1066666.000000" lengthAdjust="spacingAndGlyphs"
text-anchor="middle" opacity="0">VSYS</text>
</g>
<g class="stroked-text"><desc>VSYS</desc>
<path d="M27210473 10187466
L27964720 10564589
L27587597 9810342
" />
<path d="M28287969 10187466
L28395719 10133591
L28530406 9998904
L28557343 9918092
L28557343 9864217
L28530406 9783405
L28476531 9729530
L28395719 9702593
L28341844 9702593
L28261032 9729530
L28126345 9810342
L28045532 9837280
L27991658 9837280
L27910845 9810342
L27856971 9756467
L27830033 9675655
L27830033 9621780
L27856971 9540968
L27991658 9406281
L28099407 9352406
" />
<path d="M28718967 9271594
L28988341 9540968
" />
<path d="M28234094 9163845
L28718967 9271594
L28611218 8786721
" />
<path d="M29311590 9163845
L29419340 9109970
L29554027 8975283
L29580964 8894471
L29580964 8840596
L29554027 8759784
L29500152 8705909
L29419340 8678971
L29365465 8678971
L29284653 8705909
L29149966 8786721
L29069154 8813658
L29015279 8813658
L28934467 8786721
L28880592 8732846
L28853654 8652034
L28853654 8598159
L28880592 8517347
L29015279 8382660
L29123028 8328785
" />
</g><g transform="rotate(-45.000000 28344000.000000 55247500.000000)">
<text x="28344000.000000" y="55647500.000000"
textLength="3318810.000000" font-size="1066666.000000" lengthAdjust="spacingAndGlyphs"
text-anchor="middle" opacity="0">GP16</text>
</g>
<g class="stroked-text"><desc>GP16</desc>
<path d="M27387722 55638092
L27306910 55665029
L27226097 55745841
L27172223 55853591
L27172223 55961341
L27199160 56042153
L27279972 56176840
L27360784 56257652
L27495471 56338464
L27576284 56365402
L27684033 56365402
L27791783 56311527
L27845658 56257652
L27899532 56149902
L27899532 56096028
L27710971 55907466
L27603221 56015215
" />
<path d="M28195844 55907466
L27630158 55341780
L27845658 55126281
L27926470 55099344
L27980345 55099344
L28061157 55126281
L28141969 55207093
L28168906 55287906
L28168906 55341780
L28141969 55422593
L27926470 55638092
" />
<path d="M29057841 55045469
L28734592 55368718
" />
<path d="M28896216 55207093
L28330531 54641408
L28357468 54776095
L28357468 54883845
L28330531 54964657
" />
<path d="M28977028 53994910
L28869279 54102660
L28842341 54183472
L28842341 54237347
L28869279 54372034
L28950091 54506721
L29165590 54722220
L29246402 54749158
L29300277 54749158
L29381089 54722220
L29488839 54614471
L29515776 54533658
L29515776 54479784
L29488839 54398971
L29354152 54264284
L29273340 54237347
L29219465 54237347
L29138653 54264284
L29030903 54372034
L29003966 54452846
L29003966 54506721
L29030903 54587533
" />
</g><g transform="rotate(-45.000000 28090000.000000 37467500.000000)">
<text x="28090000.000000" y="37867500.000000"
textLength="2633095.000000" font-size="1066666.000000" lengthAdjust="spacingAndGlyphs"
text-anchor="middle" opacity="0">GND</text>
</g>
<g class="stroked-text"><desc>GND</desc>
<path d="M27376158 37615655
L27295346 37642593
L27214534 37723405
L27160659 37831154
L27160659 37938904
L27187597 38019716
L27268409 38154403
L27349221 38235215
L27483908 38316028
L27564720 38342965
L27672470 38342965
L27780219 38289090
L27834094 38235215
L27887969 38127466
L27887969 38073591
L27699407 37885029
L27591658 37992779
" />
<path d="M28184280 37885029
L27618595 37319344
L28507529 37561780
L27941844 36996095
" />
<path d="M28776903 37292406
L28211218 36726721
L28345905 36592034
L28453654 36538159
L28561404 36538159
L28642216 36565097
L28776903 36645909
L28857715 36726721
L28938528 36861408
L28965465 36942220
L28965465 37049970
L28911590 37157719
L28776903 37292406
" />
</g><g transform="rotate(-45.000000 28590000.000000 6917500.000000)">
<text x="28590000.000000" y="7317500.000000"
textLength="3280714.000000" font-size="1066666.000000" lengthAdjust="spacingAndGlyphs"
text-anchor="middle" opacity="0">VBUS</text>
</g>
<g class="stroked-text"><desc>VBUS</desc>
<path d="M27243129 7644809
L27997377 8021933
L27620253 7267686
" />
<path d="M28266751 7159936
L28374500 7106061
L28428375 7106061
L28509187 7132999
L28590000 7213811
L28616937 7294623
L28616937 7348498
L28590000 7429310
L28374500 7644809
L27808815 7079124
L27997377 6890562
L28078189 6863625
L28132064 6863625
L28212876 6890562
L28266751 6944437
L28293688 7025249
L28293688 7079124
L28266751 7159936
L28078189 7348498
" />
<path d="M28374500 6513438
L28832436 6971374
L28913248 6998312
L28967123 6998312
L29047935 6971374
L29155685 6863625
L29182622 6782812
L29182622 6728938
L29155685 6648125
L28697749 6190190
" />
<path d="M29478934 6486501
L29586683 6432626
L29721370 6297939
L29748308 6217127
L29748308 6163252
L29721370 6082440
L29667496 6028565
L29586683 6001628
L29532809 6001628
L29451996 6028565
L29317309 6109377
L29236497 6136315
L29182622 6136315
L29101810 6109377
L29047935 6055503
L29020998 5974690
L29020998 5920816
L29047935 5840003
L29182622 5705316
L29290372 5651442
" />
</g><g transform="rotate(-45.000000 29290000.000000 18617500.000000)">
<text x="29290000.000000" y="19017500.000000"
textLength="5985476.000000" font-size="1066666.000000" lengthAdjust="spacingAndGlyphs"
text-anchor="middle" opacity="0">ADC_VREF</text>
</g>
<g class="stroked-text"><desc>ADC_VREF</desc>
<path d="M27444788 20651273
L27714162 20381899
" />
<path d="M27552537 20866772
L27175414 20112525
L27929661 20489649
" />
<path d="M28118223 20301087
L27552537 19735402
L27687224 19600715
L27794974 19546840
L27902723 19546840
L27983536 19573777
L28118223 19654589
L28199035 19735402
L28279847 19870089
L28306784 19950901
L28306784 20058650
L28252910 20166400
L28118223 20301087
" />
<path d="M28953282 19358278
L28953282 19412153
L28899407 19519902
L28845532 19573777
L28737783 19627652
L28630033 19627652
L28549221 19600715
L28414534 19519902
L28333722 19439090
L28252910 19304403
L28225972 19223591
L28225972 19115841
L28279847 19008092
L28333722 18954217
L28441471 18900342
L28495346 18900342
" />
<path d="M29168781 19358278
L29599780 18927280
" />
<path d="M29034094 18253845
L29788341 18630968
L29411218 17876721
" />
<path d="M30488714 17930596
L30030778 17849784
" />
<path d="M30165465 18253845
L29599780 17688159
L29815279 17472660
L29896091 17445723
L29949966 17445723
L30030778 17472660
L30111590 17553472
L30138528 17634284
L30138528 17688159
L30111590 17768971
L29896091 17984471
" />
<path d="M30434839 17391848
L30623401 17203286
" />
<path d="M31000524 17418785
L30731150 17688159
L30165465 17122474
L30434839 16853100
" />
<path d="M31135211 16691475
L30946650 16880037
" />
<path d="M31242961 17176349
L30677276 16610663
L30946650 16341289
" />
</g><g transform="rotate(-45.000000 2490000.000000 17147500.000000)">
<text x="2490000.000000" y="17547500.000000"
textLength="2556905.000000" font-size="1066666.000000" lengthAdjust="spacingAndGlyphs"
text-anchor="middle" opacity="0">GP3</text>
</g>
<g class="stroked-text"><desc>GP3</desc>
<path d="M1803096 17268718
L1722284 17295655
L1641471 17376467
L1587597 17484217
L1587597 17591967
L1614534 17672779
L1695346 17807466
L1776158 17888278
L1910845 17969090
L1991658 17996028
L2099407 17996028
L2207157 17942153
L2261032 17888278
L2314906 17780528
L2314906 17726654
L2126345 17538092
L2018595 17645841
" />
<path d="M2611218 17538092
L2045532 16972406
L2261032 16756907
L2341844 16729970
L2395719 16729970
L2476531 16756907
L2557343 16837719
L2584280 16918532
L2584280 16972406
L2557343 17053219
L2341844 17268718
" />
<path d="M2557343 16460596
L2907529 16110410
L2934467 16514471
L3015279 16433658
L3096091 16406721
L3149966 16406721
L3230778 16433658
L3365465 16568345
L3392402 16649158
L3392402 16703032
L3365465 16783845
L3203841 16945469
L3123028 16972406
L3069154 16972406
" />
</g><g transform="rotate(-45.000000 2490000.000000 22227500.000000)">
<text x="2490000.000000" y="22627500.000000"
textLength="2556905.000000" font-size="1066666.000000" lengthAdjust="spacingAndGlyphs"
text-anchor="middle" opacity="0">GP5</text>
</g>
<g class="stroked-text"><desc>GP5</desc>
<path d="M1803096 22348718
L1722284 22375655
L1641471 22456467
L1587597 22564217
L1587597 22671967
L1614534 22752779
L1695346 22887466
L1776158 22968278
L1910845 23049090
L1991658 23076028
L2099407 23076028
L2207157 23022153
L2261032 22968278
L2314906 22860528
L2314906 22806654
L2126345 22618092
L2018595 22725841
" />
<path d="M2611218 22618092
L2045532 22052406
L2261032 21836907
L2341844 21809970
L2395719 21809970
L2476531 21836907
L2557343 21917719
L2584280 21998532
L2584280 22052406
L2557343 22133219
L2341844 22348718
" />
<path d="M2880592 21217347
L2611218 21486721
L2853654 21783032
L2853654 21729158
L2880592 21648345
L3015279 21513658
L3096091 21486721
L3149966 21486721
L3230778 21513658
L3365465 21648345
L3392402 21729158
L3392402 21783032
L3365465 21863845
L3230778 21998532
L3149966 22025469
L3096091 22025469
" />
</g><g transform="rotate(-45.000000 28090000.000000 12067500.000000)">
<text x="28090000.000000" y="12467500.000000"
textLength="2633095.000000" font-size="1066666.000000" lengthAdjust="spacingAndGlyphs"
text-anchor="middle" opacity="0">GND</text>
</g>
<g class="stroked-text"><desc>GND</desc>
<path d="M27376158 12215655
L27295346 12242593
L27214534 12323405
L27160659 12431154
L27160659 12538904
L27187597 12619716
L27268409 12754403
L27349221 12835215
L27483908 12916028
L27564720 12942965
L27672470 12942965
L27780219 12889090
L27834094 12835215
L27887969 12727466
L27887969 12673591
L27699407 12485029
L27591658 12592779
" />
<path d="M28184280 12485029
L27618595 11919344
L28507529 12161780
L27941844 11596095
" />
<path d="M28776903 11892406
L28211218 11326721
L28345905 11192034
L28453654 11138159
L28561404 11138159
L28642216 11165097
L28776903 11245909
L28857715 11326721
L28938528 11461408
L28965465 11542220
L28965465 11649970
L28911590 11757719
L28776903 11892406
" />
</g><g transform="rotate(-45.000000 2390000.000000 9517500.000000)">
<text x="2390000.000000" y="9917500.000000"
textLength="2556905.000000" font-size="1066666.000000" lengthAdjust="spacingAndGlyphs"
text-anchor="middle" opacity="0">GP1</text>
</g>
<g class="stroked-text"><desc>GP1</desc>
<path d="M1703096 9638718
L1622284 9665655
L1541471 9746467
L1487597 9854217
L1487597 9961967
L1514534 10042779
L1595346 10177466
L1676158 10258278
L1810845 10339090
L1891658 10366028
L1999407 10366028
L2107157 10312153
L2161032 10258278
L2214906 10150528
L2214906 10096654
L2026345 9908092
L1918595 10015841
" />
<path d="M2511218 9908092
L1945532 9342406
L2161032 9126907
L2241844 9099970
L2295719 9099970
L2376531 9126907
L2457343 9207719
L2484280 9288532
L2484280 9342406
L2457343 9423219
L2241844 9638718
" />
<path d="M3373215 9046095
L3049966 9369344
" />
<path d="M3211590 9207719
L2645905 8642034
L2672842 8776721
L2672842 8884471
L2645905 8965283
" />
</g><g transform="rotate(-45.000000 2236000.000000 47627500.000000)">
<text x="2236000.000000" y="48027500.000000"
textLength="3318810.000000" font-size="1066666.000000" lengthAdjust="spacingAndGlyphs"
text-anchor="middle" opacity="0">GP13</text>
</g>
<g class="stroked-text"><desc>GP13</desc>
<path d="M1279722 48018092
L1198910 48045029
L1118097 48125841
L1064223 48233591
L1064223 48341341
L1091160 48422153
L1171972 48556840
L1252784 48637652
L1387471 48718464
L1468284 48745402
L1576033 48745402
L1683783 48691527
L1737658 48637652
L1791532 48529902
L1791532 48476028
L1602971 48287466
L1495221 48395215
" />
<path d="M2087844 48287466
L1522158 47721780
L1737658 47506281
L1818470 47479344
L1872345 47479344
L1953157 47506281
L2033969 47587093
L2060906 47667906
L2060906 47721780
L2033969 47802593
L1818470 48018092
" />
<path d="M2949841 47425469
L2626592 47748718
" />
<path d="M2788216 47587093
L2222531 47021408
L2249468 47156095
L2249468 47263845
L2222531 47344657
" />
<path d="M2572717 46671222
L2922903 46321036
L2949841 46725097
L3030653 46644284
L3111465 46617347
L3165340 46617347
L3246152 46644284
L3380839 46778971
L3407776 46859784
L3407776 46913658
L3380839 46994471
L3219215 47156095
L3138402 47183032
L3084528 47183032
" />
</g><text x="9590000.000000" y="57717500.000000"
textLength="4118810.000000" font-size="1066666.000000" lengthAdjust="spacingAndGlyphs"
text-anchor="middle" opacity="0">SWCLK</text>
<g class="stroked-text"><desc>SWCLK</desc>
<path d="M7780476 57641309
L7894761 57679404
L8085238 57679404
L8161428 57641309
L8199523 57603214
L8237619 57527023
L8237619 57450833
L8199523 57374642
L8161428 57336547
L8085238 57298452
L7932857 57260357
L7856666 57222261
L7818571 57184166
L7780476 57107976
L7780476 57031785
L7818571 56955595
L7856666 56917500
L7932857 56879404
L8123333 56879404
L8237619 56917500
" />
<path d="M8504285 56879404
L8694761 57679404
L8847142 57107976
L8999523 57679404
L9190000 56879404
" />
<path d="M9951904 57603214
L9913809 57641309
L9799523 57679404
L9723333 57679404
L9609047 57641309
L9532857 57565119
L9494761 57488928
L9456666 57336547
L9456666 57222261
L9494761 57069880
L9532857 56993690
L9609047 56917500
L9723333 56879404
L9799523 56879404
L9913809 56917500
L9951904 56955595
" />
<path d="M10675714 57679404
L10294761 57679404
L10294761 56879404
" />
<path d="M10942380 57679404
L10942380 56879404
" />
<path d="M11399523 57679404
L11056666 57222261
" />
<path d="M11399523 56879404
L10942380 57336547
" />
</g><g transform="rotate(-45.000000 28190000.000000 17217500.000000)">
<text x="28190000.000000" y="17617500.000000"
textLength="2404524.000000" font-size="1066666.000000" lengthAdjust="spacingAndGlyphs"
text-anchor="middle" opacity="0">3V3</text>
</g>
<g class="stroked-text"><desc>3V3</desc>
<path d="M27179847 17608092
L27530033 17257906
L27556971 17661967
L27637783 17581154
L27718595 17554217
L27772470 17554217
L27853282 17581154
L27987969 17715841
L28014906 17796654
L28014906 17850528
L27987969 17931341
L27826345 18092965
L27745532 18119902
L27691658 18119902
" />
<path d="M27691658 17096281
L28445905 17473405
L28068781 16719158
" />
<path d="M28203468 16584471
L28553654 16234284
L28580592 16638345
L28661404 16557533
L28742216 16530596
L28796091 16530596
L28876903 16557533
L29011590 16692220
L29038528 16773032
L29038528 16826907
L29011590 16907719
L28849966 17069344
L28769154 17096281
L28715279 17096281
" />
</g><g transform="rotate(-45.000000 2490000.000000 37467500.000000)">
<text x="2490000.000000" y="37867500.000000"
textLength="2633095.000000" font-size="1066666.000000" lengthAdjust="spacingAndGlyphs"
text-anchor="middle" opacity="0">GND</text>
</g>
<g class="stroked-text"><desc>GND</desc>
<path d="M1776158 37615655
L1695346 37642593
L1614534 37723405
L1560659 37831154
L1560659 37938904
L1587597 38019716
L1668409 38154403
L1749221 38235215
L1883908 38316028
L1964720 38342965
L2072470 38342965
L2180219 38289090
L2234094 38235215
L2287969 38127466
L2287969 38073591
L2099407 37885029
L1991658 37992779
" />
<path d="M2584280 37885029
L2018595 37319344
L2907529 37561780
L2341844 36996095
" />
<path d="M3176903 37292406
L2611218 36726721
L2745905 36592034
L2853654 36538159
L2961404 36538159
L3042216 36565097
L3176903 36645909
L3257715 36726721
L3338528 36861408
L3365465 36942220
L3365465 37049970
L3311590 37157719
L3176903 37292406
" />
</g><g transform="rotate(-45.000000 28290000.000000 32387500.000000)">
<text x="28290000.000000" y="32787500.000000"
textLength="2671190.000000" font-size="1066666.000000" lengthAdjust="spacingAndGlyphs"
text-anchor="middle" opacity="0">RUN</text>
</g>
<g class="stroked-text"><desc>RUN</desc>
<path d="M28128375 33060935
L27670439 32980122
" />
<path d="M27805126 33384183
L27239441 32818498
L27454940 32602999
L27535752 32576061
L27589627 32576061
L27670439 32602999
L27751251 32683811
L27778189 32764623
L27778189 32818498
L27751251 32899310
L27535752 33114809
" />
<path d="M27805126 32252812
L28263062 32710748
L28343874 32737686
L28397749 32737686
L28478561 32710748
L28586311 32602999
L28613248 32522187
L28613248 32468312
L28586311 32387499
L28128375 31929564
" />
<path d="M28963435 32225875
L28397749 31660190
L29286683 31902626
L28720998 31336941
" />
</g><g transform="rotate(-45.000000 2490000.000000 12067500.000000)">
<text x="2490000.000000" y="12467500.000000"
textLength="2633095.000000" font-size="1066666.000000" lengthAdjust="spacingAndGlyphs"
text-anchor="middle" opacity="0">GND</text>
</g>
<g class="stroked-text"><desc>GND</desc>
<path d="M1776158 12215655
L1695346 12242593
L1614534 12323405
L1560659 12431154
L1560659 12538904
L1587597 12619716
L1668409 12754403
L1749221 12835215
L1883908 12916028
L1964720 12942965
L2072470 12942965
L2180219 12889090
L2234094 12835215
L2287969 12727466
L2287969 12673591
L2099407 12485029
L1991658 12592779
" />
<path d="M2584280 12485029
L2018595 11919344
L2907529 12161780
L2341844 11596095
" />
<path d="M3176903 11892406
L2611218 11326721
L2745905 11192034
L2853654 11138159
L2961404 11138159
L3042216 11165097
L3176903 11245909
L3257715 11326721
L3338528 11461408
L3365465 11542220
L3365465 11649970
L3311590 11757719
L3176903 11892406
" />
</g><g transform="rotate(-45.000000 2090000.000000 45087500.000000)">
<text x="2090000.000000" y="45487500.000000"
textLength="3318810.000000" font-size="1066666.000000" lengthAdjust="spacingAndGlyphs"
text-anchor="middle" opacity="0">GP12</text>
</g>
<g class="stroked-text"><desc>GP12</desc>
<path d="M1133722 45478092
L1052910 45505029
L972097 45585841
L918223 45693591
L918223 45801341
L945160 45882153
L1025972 46016840
L1106784 46097652
L1241471 46178464
L1322284 46205402
L1430033 46205402
L1537783 46151527
L1591658 46097652
L1645532 45989902
L1645532 45936028
L1456971 45747466
L1349221 45855215
" />
<path d="M1941844 45747466
L1376158 45181780
L1591658 44966281
L1672470 44939344
L1726345 44939344
L1807157 44966281
L1887969 45047093
L1914906 45127906
L1914906 45181780
L1887969 45262593
L1672470 45478092
" />
<path d="M2803841 44885469
L2480592 45208718
" />
<path d="M2642216 45047093
L2076531 44481408
L2103468 44616095
L2103468 44723845
L2076531 44804657
" />
<path d="M2507529 44158159
L2507529 44104284
L2534467 44023472
L2669154 43888785
L2749966 43861848
L2803841 43861848
L2884653 43888785
L2938528 43942660
L2992402 44050410
L2992402 44696907
L3342589 44346721
" />
</g><g transform="rotate(-45.000000 28344000.000000 42547500.000000)">
<text x="28344000.000000" y="42947500.000000"
textLength="3318810.000000" font-size="1066666.000000" lengthAdjust="spacingAndGlyphs"
text-anchor="middle" opacity="0">GP20</text>
</g>
<g class="stroked-text"><desc>GP20</desc>
<path d="M27387722 42938092
L27306910 42965029
L27226097 43045841
L27172223 43153591
L27172223 43261341
L27199160 43342153
L27279972 43476840
L27360784 43557652
L27495471 43638464
L27576284 43665402
L27684033 43665402
L27791783 43611527
L27845658 43557652
L27899532 43449902
L27899532 43396028
L27710971 43207466
L27603221 43315215
" />
<path d="M28195844 43207466
L27630158 42641780
L27845658 42426281
L27926470 42399344
L27980345 42399344
L28061157 42426281
L28141969 42507093
L28168906 42587906
L28168906 42641780
L28141969 42722593
L27926470 42938092
" />
<path d="M28222781 42156907
L28222781 42103032
L28249719 42022220
L28384406 41887533
L28465218 41860596
L28519093 41860596
L28599905 41887533
L28653780 41941408
L28707654 42049158
L28707654 42695655
L29057841 42345469
" />
<path d="M28842341 41429597
L28896216 41375723
L28977028 41348785
L29030903 41348785
L29111715 41375723
L29246402 41456535
L29381089 41591222
L29461902 41725909
L29488839 41806721
L29488839 41860596
L29461902 41941408
L29408027 41995283
L29327215 42022220
L29273340 42022220
L29192528 41995283
L29057841 41914471
L28923154 41779784
L28842341 41645097
L28815404 41564284
L28815404 41510410
L28842341 41429597
" />
</g><g transform="rotate(-45.000000 2390000.000000 14607500.000000)">
<text x="2390000.000000" y="15007500.000000"
textLength="2556905.000000" font-size="1066666.000000" lengthAdjust="spacingAndGlyphs"
text-anchor="middle" opacity="0">GP2</text>
</g>
<g class="stroked-text"><desc>GP2</desc>
<path d="M1703096 14728718
L1622284 14755655
L1541471 14836467
L1487597 14944217
L1487597 15051967
L1514534 15132779
L1595346 15267466
L1676158 15348278
L1810845 15429090
L1891658 15456028
L1999407 15456028
L2107157 15402153
L2161032 15348278
L2214906 15240528
L2214906 15186654
L2026345 14998092
L1918595 15105841
" />
<path d="M2511218 14998092
L1945532 14432406
L2161032 14216907
L2241844 14189970
L2295719 14189970
L2376531 14216907
L2457343 14297719
L2484280 14378532
L2484280 14432406
L2457343 14513219
L2241844 14728718
" />
<path d="M2538155 13947533
L2538155 13893658
L2565093 13812846
L2699780 13678159
L2780592 13651222
L2834467 13651222
L2915279 13678159
L2969154 13732034
L3023028 13839784
L3023028 14486281
L3373215 14136095
" />
</g><g transform="rotate(-45.000000 28090000.000000 50167500.000000)">
<text x="28090000.000000" y="50567500.000000"
textLength="2633095.000000" font-size="1066666.000000" lengthAdjust="spacingAndGlyphs"
text-anchor="middle" opacity="0">GND</text>
</g>
<g class="stroked-text"><desc>GND</desc>
<path d="M27376158 50315655
L27295346 50342593
L27214534 50423405
L27160659 50531154
L27160659 50638904
L27187597 50719716
L27268409 50854403
L27349221 50935215
L27483908 51016028
L27564720 51042965
L27672470 51042965
L27780219 50989090
L27834094 50935215
L27887969 50827466
L27887969 50773591
L27699407 50585029
L27591658 50692779
" />
<path d="M28184280 50585029
L27618595 50019344
L28507529 50261780
L27941844 49696095
" />
<path d="M28776903 49992406
L28211218 49426721
L28345905 49292034
L28453654 49238159
L28561404 49238159
L28642216 49265097
L28776903 49345909
L28857715 49426721
L28938528 49561408
L28965465 49642220
L28965465 49749970
L28911590 49857719
L28776903 49992406
" />
</g><g transform="rotate(-45.000000 28344000.000000 21973500.000000)">
<text x="28344000.000000" y="22373500.000000"
textLength="3318810.000000" font-size="1066666.000000" lengthAdjust="spacingAndGlyphs"
text-anchor="middle" opacity="0">GP28</text>
</g>
<g class="stroked-text"><desc>GP28</desc>
<path d="M27387722 22364092
L27306910 22391029
L27226097 22471841
L27172223 22579591
L27172223 22687341
L27199160 22768153
L27279972 22902840
L27360784 22983652
L27495471 23064464
L27576284 23091402
L27684033 23091402
L27791783 23037527
L27845658 22983652
L27899532 22875902
L27899532 22822028
L27710971 22633466
L27603221 22741215
" />
<path d="M28195844 22633466
L27630158 22067780
L27845658 21852281
L27926470 21825344
L27980345 21825344
L28061157 21852281
L28141969 21933093
L28168906 22013906
L28168906 22067780
L28141969 22148593
L27926470 22364092
" />
<path d="M28222781 21582907
L28222781 21529032
L28249719 21448220
L28384406 21313533
L28465218 21286596
L28519093 21286596
L28599905 21313533
L28653780 21367408
L28707654 21475158
L28707654 22121655
L29057841 21771469
" />
<path d="M29057841 21124971
L28977028 21151909
L28923154 21151909
L28842341 21124971
L28815404 21098034
L28788467 21017222
L28788467 20963347
L28815404 20882535
L28923154 20774785
L29003966 20747848
L29057841 20747848
L29138653 20774785
L29165590 20801723
L29192528 20882535
L29192528 20936410
L29165590 21017222
L29057841 21124971
L29030903 21205784
L29030903 21259658
L29057841 21340471
L29165590 21448220
L29246402 21475158
L29300277 21475158
L29381089 21448220
L29488839 21340471
L29515776 21259658
L29515776 21205784
L29488839 21124971
L29381089 21017222
L29300277 20990284
L29246402 20990284
L29165590 21017222
" />
</g><text x="79552000.000000" y="31363500.000000"
textLength="2195000.000000" font-size="1333333.000000" lengthAdjust="spacingAndGlyphs"
text-anchor="middle" opacity="0">U2</text>
<g class="stroked-text"><desc>U2</desc>
<path d="M78790095 30315880
L78790095 31125404
L78837714 31220642
L78885333 31268261
L78980571 31315880
L79171047 31315880
L79266285 31268261
L79313904 31220642
L79361523 31125404
L79361523 30315880
" />
<path d="M79790095 30411119
L79837714 30363500
L79932952 30315880
L80171047 30315880
L80266285 30363500
L80313904 30411119
L80361523 30506357
L80361523 30601595
L80313904 30744452
L79742476 31315880
L80361523 31315880
" />
</g><g transform="rotate(-90.000000 47570000.000000 23497500.000000)">
<text x="47570000.000000" y="23997500.000000"
textLength="2909286.000000" font-size="1333333.000000" lengthAdjust="spacingAndGlyphs"
text-anchor="middle" opacity="0">JP2</text>
</g>
<g class="stroked-text"><desc>JP2</desc>
<path d="M47022380 24330833
L47736666 24330833
L47879523 24378452
L47974761 24473690
L48022380 24616547
L48022380 24711785
" />
<path d="M48022380 23854642
L47022380 23854642
L47022380 23473690
L47070000 23378452
L47117619 23330833
L47212857 23283214
L47355714 23283214
L47450952 23330833
L47498571 23378452
L47546190 23473690
L47546190 23854642
" />
<path d="M47117619 22902261
L47070000 22854642
L47022380 22759404
L47022380 22521309
L47070000 22426071
L47117619 22378452
L47212857 22330833
L47308095 22330833
L47450952 22378452
L48022380 22949880
L48022380 22330833
" />
</g></g>
<g style="fill:#F2EDA1; fill-opacity:0.0; 
stroke:#F2EDA1; stroke-width:120000.000000; stroke-opacity:1; 
stroke-linecap:round; stroke-linejoin:round;">
<path d="M53990000 5517500
L53990000 8457500
" />
<path d="M53210000 8127500
L53210000 8457500
" />
<path d="M58650000 8457500
L58650000 8127500
" />
<path d="M54230000 5517500
L54230000 8457500
" />
<path d="M58650000 5517500
L58650000 5847500
" />
<path d="M53210000 5517500
L58650000 5517500
" />
<path d="M53210000 8457500
L58650000 8457500
" />
<path d="M54110000 5517500
L54110000 8457500
" />
<path d="M53210000 5847500
L53210000 5517500
" />
<path d="M39690000 21447500
L41690000 21447500
" />
<path d="M39690000 25547500
L39690000 21447500
" />
<path d="M39490000 22197500
L39190000 21897500
" />
<path d="M41690000 21447500
L41690000 25547500
" />
<path d="M41690000 25547500
L39690000 25547500
" />
<path d="M39190000 21897500
L39190000 22497500
" />
<path d="M39490000 22197500
L39190000 22497500
" />
<circle cx="64270000.000000" cy="20957500.000000" r="6100000.000000" /> 
<path d="M79390000 4727500
L79390000 5037500
" />
<path d="M70570000 4727500
L79390000 4727500
" />
<path d="M79390000 9247500
L70570000 9247500
" />
<path d="M72480000 4027500
L72980000 4527500
" />
<path d="M73480000 4027500
L72480000 4027500
" />
<path d="M70570000 9247500
L70570000 8937500
" />
<path d="M72980000 4527500
L73480000 4027500
" />
<path d="M70570000 5037500
L70570000 4727500
" />
<path d="M79390000 9247500
L79390000 8937500
" />
<path d="M25790000 28417500
L25790000 28817500
" />
<path d="M25790000 15717500
L25790000 16117500
" />
<path d="M25790000 41117500
L25790000 41517500
" />
<path d="M25790000 51217500
L25790000 51617500
" />
<path d="M4790000 53817500
L4790000 54217500
" />
<path d="M13790000 56617500
L14190000 56617500
" />
<path d="M4790000 41117500
L4790000 41517500
" />
<path d="M25790000 33417500
L25790000 33817500
" />
<path d="M25790000 56617500
L18990000 56617500
" />
<path d="M4790000 5617500
L25790000 5617500
" />
<path d="M25790000 46217500
L25790000 46617500
" />
<path d="M11590000 56617500
L4790000 56617500
" />
<path d="M4790000 20717500
L4790000 21117500
" />
<path d="M4790000 46217500
L4790000 46617500
" />
<path d="M4790000 30917500
L4790000 31317500
" />
<path d="M25790000 25817500
L25790000 26217500
" />
<path d="M25790000 13117500
L25790000 13517500
" />
<path d="M4790000 5617500
L4790000 5917500
" />
<path d="M25790000 36017500
L25790000 36417500
" />
<path d="M25790000 10617500
L25790000 11017500
" />
<path d="M4790000 8284500
L7797000 8284500
" />
<path d="M4790000 43617500
L4790000 44017500
" />
<path d="M4790000 8017500
L4790000 8417500
" />
<path d="M4790000 13117500
L4790000 13517500
" />
<path d="M25790000 23317500
L25790000 23717500
" />
<path d="M4790000 36017500
L4790000 36417500
" />
<path d="M16390000 56617500
L16790000 56617500
" />
<path d="M25790000 48717500
L25790000 49117500
" />
<path d="M4790000 25817500
L4790000 26217500
" />
<path d="M25790000 8017500
L25790000 8417500
" />
<path d="M4790000 15717500
L4790000 16117500
" />
<path d="M25790000 20717500
L25790000 21117500
" />
<path d="M4790000 51217500
L4790000 51617500
" />
<path d="M4790000 28417500
L4790000 28817500
" />
<path d="M25790000 5617500
L25790000 5917500
" />
<path d="M4790000 10617500
L4790000 11017500
" />
<path d="M25790000 43617500
L25790000 44017500
" />
<path d="M4790000 18217500
L4790000 18617500
" />
<path d="M4790000 33417500
L4790000 33817500
" />
<path d="M7797000 8284500
L7797000 5617500
" />
<path d="M25790000 53817500
L25790000 54217500
" />
<path d="M25790000 18217500
L25790000 18617500
" />
<path d="M25790000 38517500
L25790000 38917500
" />
<path d="M4790000 38517500
L4790000 38917500
" />
<path d="M25790000 30917500
L25790000 31317500
" />
<path d="M4790000 48717500
L4790000 49117500
" />
<path d="M4790000 23317500
L4790000 23717500
" />
<path d="M72948000 37467500
L81584000 37467500
" />
<path d="M72440000 29339500
L72440000 31371500
" />
<path d="M72440000 33403500
L72440000 35435500
" />
<path d="M72948000 27307500
L81584000 27307500
" />
<path d="M83616000.099636 37467500.142337 A6200931.000000 6200931.000000 0.0 0 0 83616000.099636 27307499.857663" />
<circle cx="80060000.000000" cy="32387500.000000" r="8636000.000000" /> 
<path d="M57080000 40517500
L29140000 40517500
" />
<path d="M57080000 12577500
L57080000 40517500
" />
<path d="M29140000 12577500
L57080000 12577500
" />
<path d="M29140000 40517500
L29140000 12577500
" />
<path d="M44570000 22197500
L44270000 22497500
" />
<path d="M46770000 21447500
L46770000 25547500
" />
<path d="M46770000 25547500
L44770000 25547500
" />
<path d="M44770000 21447500
L46770000 21447500
" />
<path d="M44770000 25547500
L44770000 21447500
" />
<path d="M44270000 21897500
L44270000 22497500
" />
<path d="M44570000 22197500
L44270000 21897500
" />
<g >
</g>
<g >
</g>
<g >
</g>
<g >
</g>
<g >
</g>
<g >
</g>
<g >
</g>
<g >
</g>
<g >
</g>
<g >
</g>
<g >
</g>
<g >
</g>
<g >
</g>
<g >
</g>
<g >
</g>
<g >
</g>
<g >
</g>
<g >
</g>
</g>
<g style="fill:#000000; fill-opacity:0.0; 
stroke:#000000; stroke-width:120000.000000; stroke-opacity:1; 
stroke-linecap:round; stroke-linejoin:round;">
</g>
<g style="fill:#D0D2CD; fill-opacity:0.0; 
stroke:#D0D2CD; stroke-width:120000.000000; stroke-opacity:1; 
stroke-linecap:round; stroke-linejoin:round;">
</g>
<g style="fill:#D0D2CD; fill-opacity:0.0; 
stroke:#D0D2CD; stroke-width:100000.000000; stroke-opacity:1; 
stroke-linecap:round; stroke-linejoin:round;">
<path d="M86410000 95887500
L50000 95887500
" />
<path d="M43230000 4447500
L86410000 4447500
" />
<path d="M50000 4447500
L50000 95887500
" />
<path d="M43230000 4447500
L50000 4447500
" />
<path d="M86410000 4447500
L86410000 95887500
" />
<g >
</g>
<g >
</g>
<g >
</g>
<g >
</g>
<g >
</g>
<g >
</g>
<g >
</g>
<g >
</g>
<g >
</g>
<g >
</g>
<g >
</g>
<g >
</g>
<g >
</g>
<g >
</g>
<g >
</g>
<g >
</g>
<g >
</g>
<g >
</g>
</g> 
</svg>
