<?xml version="1.0" standalone="no"?>
 <!DOCTYPE svg PUBLIC "-//W3C//DTD SVG 1.1//EN" 
 "http://www.w3.org/Graphics/SVG/1.1/DTD/svg11.dtd"> 
<svg
  xmlns:svg="http://www.w3.org/2000/svg"
  xmlns="http://www.w3.org/2000/svg"
  xmlns:xlink="http://www.w3.org/1999/xlink"
  version="1.1"
  width="8.874760cm" height="9.593580cm" viewBox="0 0 88747600 95935800">
<title>SVG Picture created as Pico_Handheld-F_Fab.svg date 2023/01/28 18:17:40 </title>
  <desc>Picture generated by PCBNEW </desc>
<g style="fill:#000000; fill-opacity:1.000000;stroke:#000000; stroke-opacity:1.000000;
stroke-linecap:round; stroke-linejoin:round;"
 transform="translate(0 0) scale(1 1)">
</g>
<g style="fill:#000000; fill-opacity:0.0; 
stroke:#000000; stroke-width:0.000000; stroke-opacity:1; 
stroke-linecap:round; stroke-linejoin:round;">
</g>
<g style="fill:#AFAFAF; fill-opacity:0.0; 
stroke:#AFAFAF; stroke-width:0.000000; stroke-opacity:1; 
stroke-linecap:round; stroke-linejoin:round;">
</g>
<g style="fill:#AFAFAF; fill-opacity:0.0; 
stroke:#AFAFAF; stroke-width:150000.000000; stroke-opacity:1; 
stroke-linecap:round; stroke-linejoin:round;">
<text x="55930000.000000" y="9957500.000000"
textLength="8290238.000000" font-size="1333333.000000" lengthAdjust="spacingAndGlyphs"
text-anchor="middle" opacity="0">D_Schottky</text>
<g class="stroked-text"><desc>D_Schottky</desc>
<path d="M52120476 9909880
L52120476 8909880
L52358571 8909880
L52501428 8957500
L52596666 9052738
L52644285 9147976
L52691904 9338452
L52691904 9481309
L52644285 9671785
L52596666 9767023
L52501428 9862261
L52358571 9909880
L52120476 9909880
" />
<path d="M52882380 10005119
L53644285 10005119
" />
<path d="M53834761 9862261
L53977619 9909880
L54215714 9909880
L54310952 9862261
L54358571 9814642
L54406190 9719404
L54406190 9624166
L54358571 9528928
L54310952 9481309
L54215714 9433690
L54025238 9386071
L53930000 9338452
L53882380 9290833
L53834761 9195595
L53834761 9100357
L53882380 9005119
L53930000 8957500
L54025238 8909880
L54263333 8909880
L54406190 8957500
" />
<path d="M55263333 9862261
L55168095 9909880
L54977619 9909880
L54882380 9862261
L54834761 9814642
L54787142 9719404
L54787142 9433690
L54834761 9338452
L54882380 9290833
L54977619 9243214
L55168095 9243214
L55263333 9290833
" />
<path d="M55691904 9909880
L55691904 8909880
" />
<path d="M56120476 9909880
L56120476 9386071
L56072857 9290833
L55977619 9243214
L55834761 9243214
L55739523 9290833
L55691904 9338452
" />
<path d="M56739523 9909880
L56644285 9862261
L56596666 9814642
L56549047 9719404
L56549047 9433690
L56596666 9338452
L56644285 9290833
L56739523 9243214
L56882380 9243214
L56977619 9290833
L57025238 9338452
L57072857 9433690
L57072857 9719404
L57025238 9814642
L56977619 9862261
L56882380 9909880
L56739523 9909880
" />
<path d="M57358571 9243214
L57739523 9243214
" />
<path d="M57501428 8909880
L57501428 9767023
L57549047 9862261
L57644285 9909880
L57739523 9909880
" />
<path d="M57930000 9243214
L58310952 9243214
" />
<path d="M58072857 8909880
L58072857 9767023
L58120476 9862261
L58215714 9909880
L58310952 9909880
" />
<path d="M58644285 9909880
L58644285 8909880
" />
<path d="M58739523 9528928
L59025238 9909880
" />
<path d="M59025238 9243214
L58644285 9624166
" />
<path d="M59358571 9243214
L59596666 9909880
" />
<path d="M59834761 9243214
L59596666 9909880
L59501428 10147976
L59453809 10195595
L59358571 10243214
" />
</g><text x="52120000.000000" y="5587500.000000"
textLength="1195000.000000" font-size="1333333.000000" lengthAdjust="spacingAndGlyphs"
text-anchor="middle" opacity="0">K</text>
<g class="stroked-text"><desc>K</desc>
<path d="M51858095 5539880
L51858095 4539880
" />
<path d="M52429523 5539880
L52000952 4968452
" />
<path d="M52429523 4539880
L51858095 5111309
" />
</g><text x="56320000.000000" y="7487500.000000"
textLength="2147381.000000" font-size="1333333.000000" lengthAdjust="spacingAndGlyphs"
text-anchor="middle" opacity="0">D1</text>
<g class="stroked-text"><desc>D1</desc>
<path d="M55581904 7439880
L55581904 6439880
L55820000 6439880
L55962857 6487500
L56058095 6582738
L56105714 6677976
L56153333 6868452
L56153333 7011309
L56105714 7201785
L56058095 7297023
L55962857 7392261
L55820000 7439880
L55581904 7439880
" />
<path d="M57105714 7439880
L56534285 7439880
" />
<path d="M56820000 7439880
L56820000 6439880
L56724761 6582738
L56629523 6677976
L56534285 6725595
" />
</g><text x="20370000.000000" y="78607500.000000"
textLength="4433095.000000" font-size="1333333.000000" lengthAdjust="spacingAndGlyphs"
text-anchor="middle" opacity="0">DOWN</text>
<g class="stroked-text"><desc>DOWN</desc>
<path d="M18489047 78559880
L18489047 77559880
L18727142 77559880
L18870000 77607500
L18965238 77702738
L19012857 77797976
L19060476 77988452
L19060476 78131309
L19012857 78321785
L18965238 78417023
L18870000 78512261
L18727142 78559880
L18489047 78559880
" />
<path d="M19679523 77559880
L19870000 77559880
L19965238 77607500
L20060476 77702738
L20108095 77893214
L20108095 78226547
L20060476 78417023
L19965238 78512261
L19870000 78559880
L19679523 78559880
L19584285 78512261
L19489047 78417023
L19441428 78226547
L19441428 77893214
L19489047 77702738
L19584285 77607500
L19679523 77559880
" />
<path d="M20441428 77559880
L20679523 78559880
L20870000 77845595
L21060476 78559880
L21298571 77559880
" />
<path d="M21679523 78559880
L21679523 77559880
L22250952 78559880
L22250952 77559880
" />
</g><text x="64270000.000000" y="28457500.000000"
textLength="5195000.000000" font-size="1333333.000000" lengthAdjust="spacingAndGlyphs"
text-anchor="middle" opacity="0">Buzzer</text>
<g class="stroked-text"><desc>Buzzer</desc>
<path d="M62341428 27886071
L62484285 27933690
L62531904 27981309
L62579523 28076547
L62579523 28219404
L62531904 28314642
L62484285 28362261
L62389047 28409880
L62008095 28409880
L62008095 27409880
L62341428 27409880
L62436666 27457500
L62484285 27505119
L62531904 27600357
L62531904 27695595
L62484285 27790833
L62436666 27838452
L62341428 27886071
L62008095 27886071
" />
<path d="M63436666 27743214
L63436666 28409880
" />
<path d="M63008095 27743214
L63008095 28267023
L63055714 28362261
L63150952 28409880
L63293809 28409880
L63389047 28362261
L63436666 28314642
" />
<path d="M63817619 27743214
L64341428 27743214
L63817619 28409880
L64341428 28409880
" />
<path d="M64627142 27743214
L65150952 27743214
L64627142 28409880
L65150952 28409880
" />
<path d="M65912857 28362261
L65817619 28409880
L65627142 28409880
L65531904 28362261
L65484285 28267023
L65484285 27886071
L65531904 27790833
L65627142 27743214
L65817619 27743214
L65912857 27790833
L65960476 27886071
L65960476 27981309
L65484285 28076547
" />
<path d="M66389047 28409880
L66389047 27743214
" />
<path d="M66389047 27933690
L66436666 27838452
L66484285 27790833
L66579523 27743214
L66674761 27743214
" />
</g><text x="61020000.000000" y="19657500.000000"
textLength="1433095.000000" font-size="1333333.000000" lengthAdjust="spacingAndGlyphs"
text-anchor="middle" opacity="0">+</text>
<g class="stroked-text"><desc>+</desc>
<path d="M60639047 19228928
L61400952 19228928
" />
<path d="M61020000 19609880
L61020000 18847976
" />
</g><text x="64270000.000000" y="14457500.000000"
textLength="3099762.000000" font-size="1333333.000000" lengthAdjust="spacingAndGlyphs"
text-anchor="middle" opacity="0">BZ1</text>
<g class="stroked-text"><desc>BZ1</desc>
<path d="M63389047 13886071
L63531904 13933690
L63579523 13981309
L63627142 14076547
L63627142 14219404
L63579523 14314642
L63531904 14362261
L63436666 14409880
L63055714 14409880
L63055714 13409880
L63389047 13409880
L63484285 13457500
L63531904 13505119
L63579523 13600357
L63579523 13695595
L63531904 13790833
L63484285 13838452
L63389047 13886071
L63055714 13886071
" />
<path d="M63960476 13409880
L64627142 13409880
L63960476 14409880
L64627142 14409880
" />
<path d="M65531904 14409880
L64960476 14409880
" />
<path d="M65246190 14409880
L65246190 13409880
L65150952 13552738
L65055714 13647976
L64960476 13695595
" />
</g><text x="58470000.000000" y="71622500.000000"
textLength="1195000.000000" font-size="1333333.000000" lengthAdjust="spacingAndGlyphs"
text-anchor="middle" opacity="0">B</text>
<g class="stroked-text"><desc>B</desc>
<path d="M58541428 71051071
L58684285 71098690
L58731904 71146309
L58779523 71241547
L58779523 71384404
L58731904 71479642
L58684285 71527261
L58589047 71574880
L58208095 71574880
L58208095 70574880
L58541428 70574880
L58636666 70622500
L58684285 70670119
L58731904 70765357
L58731904 70860595
L58684285 70955833
L58636666 71003452
L58541428 71051071
L58208095 71051071
" />
</g><text x="74980000.000000" y="10487500.000000"
textLength="6766429.000000" font-size="1333333.000000" lengthAdjust="spacingAndGlyphs"
text-anchor="middle" opacity="0">SW_SPDT</text>
<g class="stroked-text"><desc>SW_SPDT</desc>
<path d="M71884761 10392261
L72027619 10439880
L72265714 10439880
L72360952 10392261
L72408571 10344642
L72456190 10249404
L72456190 10154166
L72408571 10058928
L72360952 10011309
L72265714 9963690
L72075238 9916071
L71980000 9868452
L71932380 9820833
L71884761 9725595
L71884761 9630357
L71932380 9535119
L71980000 9487500
L72075238 9439880
L72313333 9439880
L72456190 9487500
" />
<path d="M72789523 9439880
L73027619 10439880
L73218095 9725595
L73408571 10439880
L73646666 9439880
" />
<path d="M73789523 10535119
L74551428 10535119
" />
<path d="M74741904 10392261
L74884761 10439880
L75122857 10439880
L75218095 10392261
L75265714 10344642
L75313333 10249404
L75313333 10154166
L75265714 10058928
L75218095 10011309
L75122857 9963690
L74932380 9916071
L74837142 9868452
L74789523 9820833
L74741904 9725595
L74741904 9630357
L74789523 9535119
L74837142 9487500
L74932380 9439880
L75170476 9439880
L75313333 9487500
" />
<path d="M75741904 10439880
L75741904 9439880
L76122857 9439880
L76218095 9487500
L76265714 9535119
L76313333 9630357
L76313333 9773214
L76265714 9868452
L76218095 9916071
L76122857 9963690
L75741904 9963690
" />
<path d="M76741904 10439880
L76741904 9439880
L76980000 9439880
L77122857 9487500
L77218095 9582738
L77265714 9677976
L77313333 9868452
L77313333 10011309
L77265714 10201785
L77218095 10297023
L77122857 10392261
L76980000 10439880
L76741904 10439880
" />
<path d="M77599047 9439880
L78170476 9439880
" />
<path d="M77884761 10439880
L77884761 9439880
" />
</g><text x="15290000.000000" y="33776500.000000"
textLength="3433095.000000" font-size="1333333.000000" lengthAdjust="spacingAndGlyphs"
text-anchor="middle" opacity="0">Pico</text>
<g class="stroked-text"><desc>Pico</desc>
<path d="M13909047 33728880
L13909047 32728880
L14290000 32728880
L14385238 32776500
L14432857 32824119
L14480476 32919357
L14480476 33062214
L14432857 33157452
L14385238 33205071
L14290000 33252690
L13909047 33252690
" />
<path d="M14909047 33728880
L14909047 33062214
" />
<path d="M14909047 32728880
L14861428 32776500
L14909047 32824119
L14956666 32776500
L14909047 32728880
L14909047 32824119
" />
<path d="M15813809 33681261
L15718571 33728880
L15528095 33728880
L15432857 33681261
L15385238 33633642
L15337619 33538404
L15337619 33252690
L15385238 33157452
L15432857 33109833
L15528095 33062214
L15718571 33062214
L15813809 33109833
" />
<path d="M16385238 33728880
L16290000 33681261
L16242380 33633642
L16194761 33538404
L16194761 33252690
L16242380 33157452
L16290000 33109833
L16385238 33062214
L16528095 33062214
L16623333 33109833
L16670952 33157452
L16718571 33252690
L16718571 33538404
L16670952 33633642
L16623333 33681261
L16528095 33728880
L16385238 33728880
" />
</g><text x="15290000.000000" y="31617500.000000"
textLength="2195000.000000" font-size="1333333.000000" lengthAdjust="spacingAndGlyphs"
text-anchor="middle" opacity="0">U1</text>
<g class="stroked-text"><desc>U1</desc>
<path d="M14528095 30569880
L14528095 31379404
L14575714 31474642
L14623333 31522261
L14718571 31569880
L14909047 31569880
L15004285 31522261
L15051904 31474642
L15099523 31379404
L15099523 30569880
" />
<path d="M16099523 31569880
L15528095 31569880
" />
<path d="M15813809 31569880
L15813809 30569880
L15718571 30712738
L15623333 30807976
L15528095 30855595
" />
</g><text x="27990000.000000" y="71622500.000000"
textLength="4480714.000000" font-size="1333333.000000" lengthAdjust="spacingAndGlyphs"
text-anchor="middle" opacity="0">RIGHT</text>
<g class="stroked-text"><desc>RIGHT</desc>
<path d="M26656666 71574880
L26323333 71098690
" />
<path d="M26085238 71574880
L26085238 70574880
L26466190 70574880
L26561428 70622500
L26609047 70670119
L26656666 70765357
L26656666 70908214
L26609047 71003452
L26561428 71051071
L26466190 71098690
L26085238 71098690
" />
<path d="M27085238 71574880
L27085238 70574880
" />
<path d="M28085238 70622500
L27990000 70574880
L27847142 70574880
L27704285 70622500
L27609047 70717738
L27561428 70812976
L27513809 71003452
L27513809 71146309
L27561428 71336785
L27609047 71432023
L27704285 71527261
L27847142 71574880
L27942380 71574880
L28085238 71527261
L28132857 71479642
L28132857 71146309
L27942380 71146309
" />
<path d="M28561428 71574880
L28561428 70574880
" />
<path d="M28561428 71051071
L29132857 71051071
" />
<path d="M29132857 71574880
L29132857 70574880
" />
<path d="M29466190 70574880
L30037619 70574880
" />
<path d="M29751904 71574880
L29751904 70574880
" />
</g><text x="79044000.000000" y="32887500.000000"
textLength="10623571.000000" font-size="1333333.000000" lengthAdjust="spacingAndGlyphs"
text-anchor="middle" opacity="0">Volume_Wheel</text>
<g class="stroked-text"><desc>Volume_Wheel</desc>
<path d="M73924952 31839880
L74258285 32839880
L74591619 31839880
" />
<path d="M75067809 32839880
L74972571 32792261
L74924952 32744642
L74877333 32649404
L74877333 32363690
L74924952 32268452
L74972571 32220833
L75067809 32173214
L75210666 32173214
L75305904 32220833
L75353523 32268452
L75401142 32363690
L75401142 32649404
L75353523 32744642
L75305904 32792261
L75210666 32839880
L75067809 32839880
" />
<path d="M75972571 32839880
L75877333 32792261
L75829714 32697023
L75829714 31839880
" />
<path d="M76782095 32173214
L76782095 32839880
" />
<path d="M76353523 32173214
L76353523 32697023
L76401142 32792261
L76496380 32839880
L76639238 32839880
L76734476 32792261
L76782095 32744642
" />
<path d="M77258285 32839880
L77258285 32173214
" />
<path d="M77258285 32268452
L77305904 32220833
L77401142 32173214
L77544000 32173214
L77639238 32220833
L77686857 32316071
L77686857 32839880
" />
<path d="M77686857 32316071
L77734476 32220833
L77829714 32173214
L77972571 32173214
L78067809 32220833
L78115428 32316071
L78115428 32839880
" />
<path d="M78972571 32792261
L78877333 32839880
L78686857 32839880
L78591619 32792261
L78544000 32697023
L78544000 32316071
L78591619 32220833
L78686857 32173214
L78877333 32173214
L78972571 32220833
L79020190 32316071
L79020190 32411309
L78544000 32506547
" />
<path d="M79210666 32935119
L79972571 32935119
" />
<path d="M80115428 31839880
L80353523 32839880
L80544000 32125595
L80734476 32839880
L80972571 31839880
" />
<path d="M81353523 32839880
L81353523 31839880
" />
<path d="M81782095 32839880
L81782095 32316071
L81734476 32220833
L81639238 32173214
L81496380 32173214
L81401142 32220833
L81353523 32268452
" />
<path d="M82639238 32792261
L82544000 32839880
L82353523 32839880
L82258285 32792261
L82210666 32697023
L82210666 32316071
L82258285 32220833
L82353523 32173214
L82544000 32173214
L82639238 32220833
L82686857 32316071
L82686857 32411309
L82210666 32506547
" />
<path d="M83496380 32792261
L83401142 32839880
L83210666 32839880
L83115428 32792261
L83067809 32697023
L83067809 32316071
L83115428 32220833
L83210666 32173214
L83401142 32173214
L83496380 32220833
L83544000 32316071
L83544000 32411309
L83067809 32506547
" />
<path d="M84115428 32839880
L84020190 32792261
L83972571 32697023
L83972571 31839880
" />
</g><text x="79552000.000000" y="34919500.000000"
textLength="2195000.000000" font-size="1333333.000000" lengthAdjust="spacingAndGlyphs"
text-anchor="middle" opacity="0">U2</text>
<g class="stroked-text"><desc>U2</desc>
<path d="M78790095 33871880
L78790095 34681404
L78837714 34776642
L78885333 34824261
L78980571 34871880
L79171047 34871880
L79266285 34824261
L79313904 34776642
L79361523 34681404
L79361523 33871880
" />
<path d="M79790095 33967119
L79837714 33919500
L79932952 33871880
L80171047 33871880
L80266285 33919500
L80313904 33967119
L80361523 34062357
L80361523 34157595
L80313904 34300452
L79742476 34871880
L80361523 34871880
" />
</g><text x="43110000.000000" y="16377500.000000"
textLength="27575952.000000" font-size="1333333.000000" lengthAdjust="spacingAndGlyphs"
text-anchor="middle" opacity="0">0.91_128x64_SSD1306_Oled_Display</text>
<g class="stroked-text"><desc>0.91_128x64_SSD1306_Oled_Display</desc>
<path d="M29848095 15329880
L29943333 15329880
L30038571 15377500
L30086190 15425119
L30133809 15520357
L30181428 15710833
L30181428 15948928
L30133809 16139404
L30086190 16234642
L30038571 16282261
L29943333 16329880
L29848095 16329880
L29752857 16282261
L29705238 16234642
L29657619 16139404
L29610000 15948928
L29610000 15710833
L29657619 15520357
L29705238 15425119
L29752857 15377500
L29848095 15329880
" />
<path d="M30610000 16234642
L30657619 16282261
L30610000 16329880
L30562380 16282261
L30610000 16234642
L30610000 16329880
" />
<path d="M31133809 16329880
L31324285 16329880
L31419523 16282261
L31467142 16234642
L31562380 16091785
L31610000 15901309
L31610000 15520357
L31562380 15425119
L31514761 15377500
L31419523 15329880
L31229047 15329880
L31133809 15377500
L31086190 15425119
L31038571 15520357
L31038571 15758452
L31086190 15853690
L31133809 15901309
L31229047 15948928
L31419523 15948928
L31514761 15901309
L31562380 15853690
L31610000 15758452
" />
<path d="M32562380 16329880
L31990952 16329880
" />
<path d="M32276666 16329880
L32276666 15329880
L32181428 15472738
L32086190 15567976
L31990952 15615595
" />
<path d="M32752857 16425119
L33514761 16425119
" />
<path d="M34276666 16329880
L33705238 16329880
" />
<path d="M33990952 16329880
L33990952 15329880
L33895714 15472738
L33800476 15567976
L33705238 15615595
" />
<path d="M34657619 15425119
L34705238 15377500
L34800476 15329880
L35038571 15329880
L35133809 15377500
L35181428 15425119
L35229047 15520357
L35229047 15615595
L35181428 15758452
L34610000 16329880
L35229047 16329880
" />
<path d="M35800476 15758452
L35705238 15710833
L35657619 15663214
L35610000 15567976
L35610000 15520357
L35657619 15425119
L35705238 15377500
L35800476 15329880
L35990952 15329880
L36086190 15377500
L36133809 15425119
L36181428 15520357
L36181428 15567976
L36133809 15663214
L36086190 15710833
L35990952 15758452
L35800476 15758452
L35705238 15806071
L35657619 15853690
L35610000 15948928
L35610000 16139404
L35657619 16234642
L35705238 16282261
L35800476 16329880
L35990952 16329880
L36086190 16282261
L36133809 16234642
L36181428 16139404
L36181428 15948928
L36133809 15853690
L36086190 15806071
L35990952 15758452
" />
<path d="M36514761 16329880
L37038571 15663214
" />
<path d="M36514761 15663214
L37038571 16329880
" />
<path d="M37848095 15329880
L37657619 15329880
L37562380 15377500
L37514761 15425119
L37419523 15567976
L37371904 15758452
L37371904 16139404
L37419523 16234642
L37467142 16282261
L37562380 16329880
L37752857 16329880
L37848095 16282261
L37895714 16234642
L37943333 16139404
L37943333 15901309
L37895714 15806071
L37848095 15758452
L37752857 15710833
L37562380 15710833
L37467142 15758452
L37419523 15806071
L37371904 15901309
" />
<path d="M38800476 15663214
L38800476 16329880
" />
<path d="M38562380 15282261
L38324285 15996547
L38943333 15996547
" />
<path d="M39086190 16425119
L39848095 16425119
" />
<path d="M40038571 16282261
L40181428 16329880
L40419523 16329880
L40514761 16282261
L40562380 16234642
L40610000 16139404
L40610000 16044166
L40562380 15948928
L40514761 15901309
L40419523 15853690
L40229047 15806071
L40133809 15758452
L40086190 15710833
L40038571 15615595
L40038571 15520357
L40086190 15425119
L40133809 15377500
L40229047 15329880
L40467142 15329880
L40610000 15377500
" />
<path d="M40990952 16282261
L41133809 16329880
L41371904 16329880
L41467142 16282261
L41514761 16234642
L41562380 16139404
L41562380 16044166
L41514761 15948928
L41467142 15901309
L41371904 15853690
L41181428 15806071
L41086190 15758452
L41038571 15710833
L40990952 15615595
L40990952 15520357
L41038571 15425119
L41086190 15377500
L41181428 15329880
L41419523 15329880
L41562380 15377500
" />
<path d="M41990952 16329880
L41990952 15329880
L42229047 15329880
L42371904 15377500
L42467142 15472738
L42514761 15567976
L42562380 15758452
L42562380 15901309
L42514761 16091785
L42467142 16187023
L42371904 16282261
L42229047 16329880
L41990952 16329880
" />
<path d="M43514761 16329880
L42943333 16329880
" />
<path d="M43229047 16329880
L43229047 15329880
L43133809 15472738
L43038571 15567976
L42943333 15615595
" />
<path d="M43848095 15329880
L44467142 15329880
L44133809 15710833
L44276666 15710833
L44371904 15758452
L44419523 15806071
L44467142 15901309
L44467142 16139404
L44419523 16234642
L44371904 16282261
L44276666 16329880
L43990952 16329880
L43895714 16282261
L43848095 16234642
" />
<path d="M45086190 15329880
L45181428 15329880
L45276666 15377500
L45324285 15425119
L45371904 15520357
L45419523 15710833
L45419523 15948928
L45371904 16139404
L45324285 16234642
L45276666 16282261
L45181428 16329880
L45086190 16329880
L44990952 16282261
L44943333 16234642
L44895714 16139404
L44848095 15948928
L44848095 15710833
L44895714 15520357
L44943333 15425119
L44990952 15377500
L45086190 15329880
" />
<path d="M46276666 15329880
L46086190 15329880
L45990952 15377500
L45943333 15425119
L45848095 15567976
L45800476 15758452
L45800476 16139404
L45848095 16234642
L45895714 16282261
L45990952 16329880
L46181428 16329880
L46276666 16282261
L46324285 16234642
L46371904 16139404
L46371904 15901309
L46324285 15806071
L46276666 15758452
L46181428 15710833
L45990952 15710833
L45895714 15758452
L45848095 15806071
L45800476 15901309
" />
<path d="M46562380 16425119
L47324285 16425119
" />
<path d="M47752857 15329880
L47943333 15329880
L48038571 15377500
L48133809 15472738
L48181428 15663214
L48181428 15996547
L48133809 16187023
L48038571 16282261
L47943333 16329880
L47752857 16329880
L47657619 16282261
L47562380 16187023
L47514761 15996547
L47514761 15663214
L47562380 15472738
L47657619 15377500
L47752857 15329880
" />
<path d="M48752857 16329880
L48657619 16282261
L48610000 16187023
L48610000 15329880
" />
<path d="M49514761 16282261
L49419523 16329880
L49229047 16329880
L49133809 16282261
L49086190 16187023
L49086190 15806071
L49133809 15710833
L49229047 15663214
L49419523 15663214
L49514761 15710833
L49562380 15806071
L49562380 15901309
L49086190 15996547
" />
<path d="M50419523 16329880
L50419523 15329880
" />
<path d="M50419523 16282261
L50324285 16329880
L50133809 16329880
L50038571 16282261
L49990952 16234642
L49943333 16139404
L49943333 15853690
L49990952 15758452
L50038571 15710833
L50133809 15663214
L50324285 15663214
L50419523 15710833
" />
<path d="M50657619 16425119
L51419523 16425119
" />
<path d="M51657619 16329880
L51657619 15329880
L51895714 15329880
L52038571 15377500
L52133809 15472738
L52181428 15567976
L52229047 15758452
L52229047 15901309
L52181428 16091785
L52133809 16187023
L52038571 16282261
L51895714 16329880
L51657619 16329880
" />
<path d="M52657619 16329880
L52657619 15663214
" />
<path d="M52657619 15329880
L52610000 15377500
L52657619 15425119
L52705238 15377500
L52657619 15329880
L52657619 15425119
" />
<path d="M53086190 16282261
L53181428 16329880
L53371904 16329880
L53467142 16282261
L53514761 16187023
L53514761 16139404
L53467142 16044166
L53371904 15996547
L53229047 15996547
L53133809 15948928
L53086190 15853690
L53086190 15806071
L53133809 15710833
L53229047 15663214
L53371904 15663214
L53467142 15710833
" />
<path d="M53943333 15663214
L53943333 16663214
" />
<path d="M53943333 15710833
L54038571 15663214
L54229047 15663214
L54324285 15710833
L54371904 15758452
L54419523 15853690
L54419523 16139404
L54371904 16234642
L54324285 16282261
L54229047 16329880
L54038571 16329880
L53943333 16282261
" />
<path d="M54990952 16329880
L54895714 16282261
L54848095 16187023
L54848095 15329880
" />
<path d="M55800476 16329880
L55800476 15806071
L55752857 15710833
L55657619 15663214
L55467142 15663214
L55371904 15710833
" />
<path d="M55800476 16282261
L55705238 16329880
L55467142 16329880
L55371904 16282261
L55324285 16187023
L55324285 16091785
L55371904 15996547
L55467142 15948928
L55705238 15948928
L55800476 15901309
" />
<path d="M56181428 15663214
L56419523 16329880
" />
<path d="M56657619 15663214
L56419523 16329880
L56324285 16567976
L56276666 16615595
L56181428 16663214
" />
</g><text x="72440000.000000" y="66542500.000000"
textLength="1052143.000000" font-size="1333333.000000" lengthAdjust="spacingAndGlyphs"
text-anchor="middle" opacity="0">A</text>
<g class="stroked-text"><desc>A</desc>
<path d="M72201904 66209166
L72678095 66209166
" />
<path d="M72106666 66494880
L72440000 65494880
L72773333 66494880
" />
</g><text x="20370000.000000" y="63494500.000000"
textLength="2242619.000000" font-size="1333333.000000" lengthAdjust="spacingAndGlyphs"
text-anchor="middle" opacity="0">UP</text>
<g class="stroked-text"><desc>UP</desc>
<path d="M19584285 62446880
L19584285 63256404
L19631904 63351642
L19679523 63399261
L19774761 63446880
L19965238 63446880
L20060476 63399261
L20108095 63351642
L20155714 63256404
L20155714 62446880
" />
<path d="M20631904 63446880
L20631904 62446880
L21012857 62446880
L21108095 62494500
L21155714 62542119
L21203333 62637357
L21203333 62780214
L21155714 62875452
L21108095 62923071
L21012857 62970690
L20631904 62970690
" />
</g><text x="12750000.000000" y="71622500.000000"
textLength="3528333.000000" font-size="1333333.000000" lengthAdjust="spacingAndGlyphs"
text-anchor="middle" opacity="0">LEFT</text>
<g class="stroked-text"><desc>LEFT</desc>
<path d="M11797619 71574880
L11321428 71574880
L11321428 70574880
" />
<path d="M12130952 71051071
L12464285 71051071
" />
<path d="M12607142 71574880
L12130952 71574880
L12130952 70574880
L12607142 70574880
" />
<path d="M13369047 71051071
L13035714 71051071
" />
<path d="M13035714 71574880
L13035714 70574880
L13511904 70574880
" />
<path d="M13750000 70574880
L14321428 70574880
" />
<path d="M14035714 71574880
L14035714 70574880
" />
</g></g>
<g style="fill:#AFAFAF; fill-opacity:0.0; 
stroke:#AFAFAF; stroke-width:100000.000000; stroke-opacity:1; 
stroke-linecap:round; stroke-linejoin:round;">
<path d="M53330000 5637500
L53330000 8337500
" />
<path d="M59740000 6987500
L58530000 6987500
" />
<path d="M53330000 8337500
L58530000 8337500
" />
<path d="M58530000 8337500
L58530000 5637500
" />
<path d="M54010000 5637500
L54010000 8337500
" />
<path d="M58530000 5637500
L53330000 5637500
" />
<path d="M52120000 6987500
L53330000 6987500
" />
<path d="M54110000 5637500
L54110000 8337500
" />
<path d="M54210000 5637500
L54210000 8337500
" />
<circle cx="64270000.000000" cy="20957500.000000" r="1150000.000000" /> 
<circle cx="64270000.000000" cy="20957500.000000" r="6000000.000000" /> 
<path d="M79280000 9137500
L70680000 9137500
" />
<path d="M70680000 4837500
L72480000 4837500
" />
<path d="M72480000 4837500
L72980000 5337500
" />
<path d="M70680000 9137500
L70680000 4837500
" />
<path d="M72980000 5987500
L72980000 7987500
" />
<path d="M73480000 4837500
L79280000 4837500
" />
<path d="M72980000 5337500
L73480000 4837500
" />
<path d="M76980000 5987500
L76980000 7987500
" />
<path d="M74980000 5987500
L74980000 7987500
" />
<path d="M72980000 5987500
L76980000 5987500
" />
<path d="M73640000 5987500
L73640000 7987500
" />
<path d="M72980000 7987500
L76980000 7987500
" />
<path d="M79280000 4837500
L79280000 9137500
" />
<path d="M74320000 5987500
L74320000 7987500
" />
</g>
<g style="fill:#AFAFAF; fill-opacity:0.0; 
stroke:#AFAFAF; stroke-width:120000.000000; stroke-opacity:1; 
stroke-linecap:round; stroke-linejoin:round;">
<path d="M4790000 6917500
L6090000 5617500
" />
<path d="M4790000 56617500
L4790000 5617500
" />
<path d="M4790000 5617500
L25790000 5617500
" />
<path d="M25790000 56617500
L4790000 56617500
" />
<path d="M25790000 5617500
L25790000 56617500
" />
<g >
</g>
<g >
</g>
<g >
</g>
<g >
</g>
<g >
</g>
<g >
</g>
<g >
</g>
<g >
</g>
<g >
</g>
<g >
</g>
<g >
</g>
<g >
</g>
<g >
</g>
<g >
</g>
<g >
</g>
<g >
</g>
<g >
</g>
<g >
</g>
</g>
<g style="fill:#000000; fill-opacity:0.0; 
stroke:#000000; stroke-width:120000.000000; stroke-opacity:1; 
stroke-linecap:round; stroke-linejoin:round;">
</g>
<g style="fill:#D0D2CD; fill-opacity:0.0; 
stroke:#D0D2CD; stroke-width:120000.000000; stroke-opacity:1; 
stroke-linecap:round; stroke-linejoin:round;">
</g>
<g style="fill:#D0D2CD; fill-opacity:0.0; 
stroke:#D0D2CD; stroke-width:100000.000000; stroke-opacity:1; 
stroke-linecap:round; stroke-linejoin:round;">
<path d="M86410000 95887500
L50000 95887500
" />
<path d="M43230000 4447500
L86410000 4447500
" />
<path d="M50000 4447500
L50000 95887500
" />
<path d="M43230000 4447500
L50000 4447500
" />
<path d="M86410000 4447500
L86410000 95887500
" />
<g >
</g>
<g >
</g>
<g >
</g>
<g >
</g>
<g >
</g>
<g >
</g>
<g >
</g>
<g >
</g>
<g >
</g>
<g >
</g>
<g >
</g>
<g >
</g>
<g >
</g>
<g >
</g>
<g >
</g>
<g >
</g>
<g >
</g>
<g >
</g>
</g> 
</svg>
