G04 #@! TF.GenerationSoftware,KiCad,Pcbnew,(6.0.2)*
G04 #@! TF.CreationDate,2022-06-07T21:46:18+01:00*
G04 #@! TF.ProjectId,Pico_Handheld,5069636f-5f48-4616-9e64-68656c642e6b,rev?*
G04 #@! TF.SameCoordinates,Original*
G04 #@! TF.FileFunction,Copper,L1,Top*
G04 #@! TF.FilePolarity,Positive*
%FSLAX46Y46*%
G04 Gerber Fmt 4.6, Leading zero omitted, Abs format (unit mm)*
G04 Created by KiCad (PCBNEW (6.0.2)) date 2022-06-07 21:46:18*
%MOMM*%
%LPD*%
G01*
G04 APERTURE LIST*
G04 Aperture macros list*
%AMRoundRect*
0 Rectangle with rounded corners*
0 $1 Rounding radius*
0 $2 $3 $4 $5 $6 $7 $8 $9 X,Y pos of 4 corners*
0 Add a 4 corners polygon primitive as box body*
4,1,4,$2,$3,$4,$5,$6,$7,$8,$9,$2,$3,0*
0 Add four circle primitives for the rounded corners*
1,1,$1+$1,$2,$3*
1,1,$1+$1,$4,$5*
1,1,$1+$1,$6,$7*
1,1,$1+$1,$8,$9*
0 Add four rect primitives between the rounded corners*
20,1,$1+$1,$2,$3,$4,$5,0*
20,1,$1+$1,$4,$5,$6,$7,0*
20,1,$1+$1,$6,$7,$8,$9,0*
20,1,$1+$1,$8,$9,$2,$3,0*%
G04 Aperture macros list end*
G04 #@! TA.AperFunction,EtchedComponent*
%ADD10C,0.200000*%
G04 #@! TD*
G04 #@! TA.AperFunction,ComponentPad*
%ADD11C,1.524000*%
G04 #@! TD*
G04 #@! TA.AperFunction,ComponentPad*
%ADD12C,2.000000*%
G04 #@! TD*
G04 #@! TA.AperFunction,ComponentPad*
%ADD13R,1.800000X1.800000*%
G04 #@! TD*
G04 #@! TA.AperFunction,ComponentPad*
%ADD14O,1.800000X1.800000*%
G04 #@! TD*
G04 #@! TA.AperFunction,SMDPad,CuDef*
%ADD15R,1.500000X1.000000*%
G04 #@! TD*
G04 #@! TA.AperFunction,SMDPad,CuDef*
%ADD16RoundRect,0.381000X-0.381000X0.762000X-0.381000X-0.762000X0.381000X-0.762000X0.381000X0.762000X0*%
G04 #@! TD*
G04 #@! TA.AperFunction,ComponentPad*
%ADD17R,1.600000X1.600000*%
G04 #@! TD*
G04 #@! TA.AperFunction,ComponentPad*
%ADD18C,1.600000*%
G04 #@! TD*
G04 #@! TA.AperFunction,SMDPad,CuDef*
%ADD19RoundRect,0.381000X-0.762000X-0.381000X0.762000X-0.381000X0.762000X0.381000X-0.762000X0.381000X0*%
G04 #@! TD*
G04 #@! TA.AperFunction,ComponentPad*
%ADD20O,2.200000X3.500000*%
G04 #@! TD*
G04 #@! TA.AperFunction,ComponentPad*
%ADD21R,1.500000X2.500000*%
G04 #@! TD*
G04 #@! TA.AperFunction,ComponentPad*
%ADD22O,1.500000X2.500000*%
G04 #@! TD*
G04 #@! TA.AperFunction,SMDPad,CuDef*
%ADD23R,3.500000X1.700000*%
G04 #@! TD*
G04 #@! TA.AperFunction,ComponentPad*
%ADD24O,1.700000X1.700000*%
G04 #@! TD*
G04 #@! TA.AperFunction,ComponentPad*
%ADD25R,1.700000X1.700000*%
G04 #@! TD*
G04 #@! TA.AperFunction,SMDPad,CuDef*
%ADD26R,1.700000X3.500000*%
G04 #@! TD*
G04 #@! TA.AperFunction,SMDPad,CuDef*
%ADD27RoundRect,0.381000X0.381000X-0.762000X0.381000X0.762000X-0.381000X0.762000X-0.381000X-0.762000X0*%
G04 #@! TD*
G04 #@! TA.AperFunction,SMDPad,CuDef*
%ADD28RoundRect,0.381000X0.762000X0.381000X-0.762000X0.381000X-0.762000X-0.381000X0.762000X-0.381000X0*%
G04 #@! TD*
G04 #@! TA.AperFunction,ComponentPad*
%ADD29R,3.000000X3.000000*%
G04 #@! TD*
G04 #@! TA.AperFunction,ComponentPad*
%ADD30C,3.000000*%
G04 #@! TD*
G04 #@! TA.AperFunction,ViaPad*
%ADD31C,0.800000*%
G04 #@! TD*
G04 #@! TA.AperFunction,Conductor*
%ADD32C,0.500000*%
G04 #@! TD*
G04 #@! TA.AperFunction,Conductor*
%ADD33C,1.500000*%
G04 #@! TD*
G04 #@! TA.AperFunction,Conductor*
%ADD34C,1.000000*%
G04 #@! TD*
G04 APERTURE END LIST*
D10*
X128302000Y-125349000D02*
X128302000Y-131953000D01*
X128810000Y-125857000D02*
X128810000Y-132461000D01*
X129318000Y-131953000D02*
X129318000Y-125349000D01*
X131858000Y-132461000D02*
X131858000Y-125857000D01*
X129826000Y-125857000D02*
X129826000Y-132461000D01*
X134398000Y-125349000D02*
X134398000Y-132461000D01*
X131350000Y-130937000D02*
X131350000Y-125349000D01*
X132874000Y-125857000D02*
X132874000Y-132461000D01*
X133382000Y-125349000D02*
X133382000Y-131953000D01*
X130334000Y-130937000D02*
X130334000Y-125349000D01*
X127794000Y-125857000D02*
X127794000Y-132461000D01*
X127286000Y-132461000D02*
X127286000Y-125349000D01*
X133890000Y-125857000D02*
X133890000Y-132461000D01*
X127286000Y-125349000D02*
X130842000Y-125349000D01*
X133890000Y-132461000D02*
X127794000Y-132461000D01*
X130842000Y-132461000D02*
X130842000Y-126873000D01*
X132366000Y-131953000D02*
X132366000Y-125349000D01*
X131604000Y-125349000D02*
X134398000Y-125349000D01*
X165862000Y-123977000D02*
X172466000Y-123977000D01*
X172466000Y-118897000D02*
X172466000Y-124993000D01*
X165354000Y-121183000D02*
X165354000Y-118389000D01*
X165862000Y-119913000D02*
X172466000Y-119913000D01*
X165354000Y-125501000D02*
X165354000Y-121945000D01*
X165354000Y-124485000D02*
X171958000Y-124485000D01*
X172466000Y-121945000D02*
X166878000Y-121945000D01*
X165354000Y-118389000D02*
X172466000Y-118389000D01*
X171958000Y-120421000D02*
X165354000Y-120421000D01*
X170942000Y-121437000D02*
X165354000Y-121437000D01*
X165862000Y-124993000D02*
X172466000Y-124993000D01*
X165354000Y-119405000D02*
X171958000Y-119405000D01*
X172466000Y-125501000D02*
X165354000Y-125501000D01*
X171958000Y-123469000D02*
X165354000Y-123469000D01*
X170942000Y-122453000D02*
X165354000Y-122453000D01*
X165862000Y-122961000D02*
X172466000Y-122961000D01*
X172466000Y-120929000D02*
X165862000Y-120929000D01*
X165862000Y-118897000D02*
X172466000Y-118897000D01*
X134874000Y-120510000D02*
X134874000Y-117716000D01*
X134874000Y-118732000D02*
X141478000Y-118732000D01*
X134874000Y-117716000D02*
X141986000Y-117716000D01*
X141478000Y-119748000D02*
X134874000Y-119748000D01*
X134874000Y-124828000D02*
X134874000Y-121272000D01*
X141986000Y-121272000D02*
X136398000Y-121272000D01*
X135382000Y-124320000D02*
X141986000Y-124320000D01*
X140462000Y-120764000D02*
X134874000Y-120764000D01*
X135382000Y-123304000D02*
X141986000Y-123304000D01*
X140462000Y-121780000D02*
X134874000Y-121780000D01*
X141986000Y-120256000D02*
X135382000Y-120256000D01*
X141986000Y-124828000D02*
X134874000Y-124828000D01*
X134874000Y-123812000D02*
X141478000Y-123812000D01*
X141478000Y-122796000D02*
X134874000Y-122796000D01*
X135382000Y-119240000D02*
X141986000Y-119240000D01*
X141986000Y-118224000D02*
X141986000Y-124320000D01*
X135382000Y-118224000D02*
X141986000Y-118224000D01*
X135382000Y-122288000D02*
X141986000Y-122288000D01*
X186436000Y-116894000D02*
X180848000Y-116894000D01*
X186436000Y-120450000D02*
X179324000Y-120450000D01*
X185928000Y-118418000D02*
X179324000Y-118418000D01*
X179324000Y-114354000D02*
X185928000Y-114354000D01*
X179324000Y-116132000D02*
X179324000Y-113338000D01*
X179832000Y-117910000D02*
X186436000Y-117910000D01*
X179324000Y-120450000D02*
X179324000Y-116894000D01*
X184912000Y-117402000D02*
X179324000Y-117402000D01*
X184912000Y-116386000D02*
X179324000Y-116386000D01*
X179832000Y-114862000D02*
X186436000Y-114862000D01*
X179832000Y-119942000D02*
X186436000Y-119942000D01*
X186436000Y-113846000D02*
X186436000Y-119942000D01*
X185928000Y-115370000D02*
X179324000Y-115370000D01*
X179324000Y-113338000D02*
X186436000Y-113338000D01*
X179832000Y-113846000D02*
X186436000Y-113846000D01*
X179832000Y-118926000D02*
X186436000Y-118926000D01*
X186436000Y-115878000D02*
X179832000Y-115878000D01*
X179324000Y-119434000D02*
X185928000Y-119434000D01*
X129286000Y-110744000D02*
X129286000Y-117348000D01*
X129794000Y-110236000D02*
X129794000Y-116840000D01*
X133350000Y-117348000D02*
X133350000Y-110744000D01*
X130810000Y-110236000D02*
X130810000Y-115824000D01*
X130302000Y-111760000D02*
X130302000Y-117348000D01*
X134366000Y-117348000D02*
X130810000Y-117348000D01*
X127254000Y-117348000D02*
X127254000Y-110236000D01*
X134366000Y-110236000D02*
X134366000Y-117348000D01*
X133858000Y-116840000D02*
X133858000Y-110236000D01*
X131826000Y-116840000D02*
X131826000Y-110236000D01*
X131318000Y-111760000D02*
X131318000Y-117348000D01*
X128778000Y-116840000D02*
X128778000Y-110236000D01*
X128270000Y-117348000D02*
X128270000Y-110744000D01*
X127762000Y-110236000D02*
X133858000Y-110236000D01*
X127762000Y-116840000D02*
X127762000Y-110236000D01*
X132842000Y-116840000D02*
X132842000Y-110236000D01*
X130048000Y-117348000D02*
X127254000Y-117348000D01*
X132334000Y-110744000D02*
X132334000Y-117348000D01*
X120142000Y-119793000D02*
X126746000Y-119793000D01*
X126238000Y-120301000D02*
X119634000Y-120301000D01*
X126746000Y-124873000D02*
X119634000Y-124873000D01*
X119634000Y-121317000D02*
X125222000Y-121317000D01*
X121158000Y-121825000D02*
X126746000Y-121825000D01*
X121158000Y-120809000D02*
X126746000Y-120809000D01*
X126238000Y-123349000D02*
X119634000Y-123349000D01*
X126746000Y-117761000D02*
X126746000Y-121317000D01*
X126746000Y-118777000D02*
X120142000Y-118777000D01*
X126238000Y-118269000D02*
X119634000Y-118269000D01*
X119634000Y-124365000D02*
X119634000Y-118269000D01*
X126238000Y-119285000D02*
X119634000Y-119285000D01*
X126746000Y-123857000D02*
X120142000Y-123857000D01*
X119634000Y-122333000D02*
X126238000Y-122333000D01*
X126746000Y-122079000D02*
X126746000Y-124873000D01*
X126238000Y-124365000D02*
X119634000Y-124365000D01*
X120142000Y-122841000D02*
X126746000Y-122841000D01*
X119634000Y-117761000D02*
X126746000Y-117761000D01*
D11*
X182880000Y-73406000D03*
X182880000Y-77470000D03*
X182880000Y-81534000D03*
D12*
X193040000Y-72390000D03*
X193040000Y-82550000D03*
D13*
X162560000Y-52070000D03*
D14*
X170180000Y-52070000D03*
D15*
X151130000Y-67280000D03*
X151130000Y-68580000D03*
X151130000Y-69880000D03*
D16*
X130842000Y-125349000D03*
X130842000Y-132461000D03*
D17*
X171460000Y-66040000D03*
D18*
X177960000Y-66040000D03*
D19*
X165354000Y-121945000D03*
X172466000Y-121945000D03*
D20*
X181320000Y-52070000D03*
X189520000Y-52070000D03*
D21*
X183420000Y-52070000D03*
D22*
X185420000Y-52070000D03*
X187420000Y-52070000D03*
D23*
X115940000Y-52070000D03*
D24*
X116840000Y-52070000D03*
D23*
X115940000Y-54610000D03*
D24*
X116840000Y-54610000D03*
D25*
X116840000Y-57150000D03*
D23*
X115940000Y-57150000D03*
D24*
X116840000Y-59690000D03*
D23*
X115940000Y-59690000D03*
D24*
X116840000Y-62230000D03*
D23*
X115940000Y-62230000D03*
D24*
X116840000Y-64770000D03*
D23*
X115940000Y-64770000D03*
X115940000Y-67310000D03*
D24*
X116840000Y-67310000D03*
D25*
X116840000Y-69850000D03*
D23*
X115940000Y-69850000D03*
X115940000Y-72390000D03*
D24*
X116840000Y-72390000D03*
D23*
X115940000Y-74930000D03*
D24*
X116840000Y-74930000D03*
D23*
X115940000Y-77470000D03*
D24*
X116840000Y-77470000D03*
D23*
X115940000Y-80010000D03*
D24*
X116840000Y-80010000D03*
D23*
X115940000Y-82550000D03*
D25*
X116840000Y-82550000D03*
D23*
X115940000Y-85090000D03*
D24*
X116840000Y-85090000D03*
X116840000Y-87630000D03*
D23*
X115940000Y-87630000D03*
X115940000Y-90170000D03*
D24*
X116840000Y-90170000D03*
X116840000Y-92710000D03*
D23*
X115940000Y-92710000D03*
D25*
X116840000Y-95250000D03*
D23*
X115940000Y-95250000D03*
D24*
X116840000Y-97790000D03*
D23*
X115940000Y-97790000D03*
D24*
X116840000Y-100330000D03*
D23*
X115940000Y-100330000D03*
D24*
X134620000Y-100330000D03*
D23*
X135520000Y-100330000D03*
D24*
X134620000Y-97790000D03*
D23*
X135520000Y-97790000D03*
X135520000Y-95250000D03*
D25*
X134620000Y-95250000D03*
D23*
X135520000Y-92710000D03*
D24*
X134620000Y-92710000D03*
D23*
X135520000Y-90170000D03*
D24*
X134620000Y-90170000D03*
D23*
X135520000Y-87630000D03*
D24*
X134620000Y-87630000D03*
X134620000Y-85090000D03*
D23*
X135520000Y-85090000D03*
X135520000Y-82550000D03*
D25*
X134620000Y-82550000D03*
D23*
X135520000Y-80010000D03*
D24*
X134620000Y-80010000D03*
X134620000Y-77470000D03*
D23*
X135520000Y-77470000D03*
D24*
X134620000Y-74930000D03*
D23*
X135520000Y-74930000D03*
X135520000Y-72390000D03*
D24*
X134620000Y-72390000D03*
D23*
X135520000Y-69850000D03*
D25*
X134620000Y-69850000D03*
D23*
X135520000Y-67310000D03*
D24*
X134620000Y-67310000D03*
D23*
X135520000Y-64770000D03*
D24*
X134620000Y-64770000D03*
X134620000Y-62230000D03*
D23*
X135520000Y-62230000D03*
D24*
X134620000Y-59690000D03*
D23*
X135520000Y-59690000D03*
D25*
X134620000Y-57150000D03*
D23*
X135520000Y-57150000D03*
D24*
X134620000Y-54610000D03*
D23*
X135520000Y-54610000D03*
X135520000Y-52070000D03*
D24*
X134620000Y-52070000D03*
D26*
X123190000Y-101000000D03*
D24*
X123190000Y-100100000D03*
D26*
X125730000Y-101000000D03*
D25*
X125730000Y-100100000D03*
D24*
X128270000Y-100100000D03*
D26*
X128270000Y-101000000D03*
D19*
X134874000Y-121272000D03*
X141986000Y-121272000D03*
D11*
X149740000Y-58930000D03*
X152280000Y-58930000D03*
X154820000Y-58930000D03*
X157360000Y-58930000D03*
D19*
X179324000Y-116894000D03*
X186436000Y-116894000D03*
D27*
X130810000Y-117348000D03*
X130810000Y-110236000D03*
D15*
X156210000Y-67280000D03*
X156210000Y-68580000D03*
X156210000Y-69880000D03*
D28*
X126746000Y-121317000D03*
X119634000Y-121317000D03*
D29*
X188722000Y-125222000D03*
D30*
X188722000Y-130810000D03*
D31*
X130810000Y-121285000D03*
X156210000Y-67310000D03*
X151130000Y-69850000D03*
X176530000Y-127635000D03*
D32*
X130810000Y-121285000D02*
X130810000Y-118177902D01*
X130877902Y-118110000D02*
X131445000Y-118110000D01*
X177800000Y-118110000D02*
X178435000Y-117475000D01*
X163195000Y-125730000D02*
X163195000Y-123190000D01*
X163195000Y-123190000D02*
X163830000Y-122555000D01*
X176530000Y-127635000D02*
X176530000Y-123190000D01*
X130810000Y-121285000D02*
X130810000Y-124460000D01*
X176530000Y-123190000D02*
X177800000Y-121920000D01*
X130810000Y-121285000D02*
X133985000Y-121285000D01*
X176530000Y-127635000D02*
X165100000Y-127635000D01*
X165100000Y-127635000D02*
X163195000Y-125730000D01*
X177800000Y-121920000D02*
X177800000Y-118110000D01*
X163830000Y-122555000D02*
X164465000Y-122555000D01*
X130810000Y-118177902D02*
X130877902Y-118110000D01*
X130810000Y-121285000D02*
X127635000Y-121285000D01*
D33*
X186055000Y-64135000D02*
X183515000Y-61595000D01*
X171450000Y-66030000D02*
X171460000Y-66040000D01*
X183515000Y-61595000D02*
X173990000Y-61595000D01*
X182880000Y-77470000D02*
X186055000Y-74295000D01*
X173990000Y-61595000D02*
X171450000Y-64135000D01*
X171450000Y-64135000D02*
X171450000Y-66030000D01*
X186055000Y-74295000D02*
X186055000Y-64135000D01*
X141605000Y-52070000D02*
X162560000Y-52070000D01*
X139065000Y-54610000D02*
X141605000Y-52070000D01*
X134620000Y-54610000D02*
X139065000Y-54610000D01*
X179705000Y-55245000D02*
X182245000Y-55245000D01*
X176530000Y-52070000D02*
X179705000Y-55245000D01*
X183515000Y-53975000D02*
X183515000Y-52165000D01*
X170180000Y-52070000D02*
X176530000Y-52070000D01*
X182245000Y-55245000D02*
X183515000Y-53975000D01*
X183515000Y-52165000D02*
X183420000Y-52070000D01*
D32*
X151979022Y-67280000D02*
X151130000Y-67280000D01*
D34*
X139065000Y-62230000D02*
X144145000Y-67310000D01*
X134620000Y-62230000D02*
X139065000Y-62230000D01*
D32*
X156210000Y-69880000D02*
X154579022Y-69880000D01*
D34*
X144145000Y-67310000D02*
X144175000Y-67280000D01*
X144175000Y-67280000D02*
X151130000Y-67280000D01*
D32*
X154579022Y-69880000D02*
X151979022Y-67280000D01*
D34*
X149225000Y-73025000D02*
X158115000Y-73025000D01*
X162560000Y-57150000D02*
X160020000Y-54610000D01*
X160020000Y-54610000D02*
X151765000Y-54610000D01*
X151130000Y-68580000D02*
X149225000Y-68580000D01*
X151765000Y-54610000D02*
X149740000Y-56635000D01*
X149740000Y-56635000D02*
X149740000Y-58930000D01*
X147955000Y-69850000D02*
X147955000Y-71755000D01*
X147955000Y-71755000D02*
X149225000Y-73025000D01*
X162560000Y-68580000D02*
X162560000Y-57150000D01*
X149225000Y-68580000D02*
X147955000Y-69850000D01*
X158115000Y-73025000D02*
X162560000Y-68580000D01*
X156210000Y-68580000D02*
X158115000Y-68580000D01*
X158750000Y-56515000D02*
X153670000Y-56515000D01*
X152280000Y-57905000D02*
X152280000Y-58930000D01*
X160020000Y-57785000D02*
X158750000Y-56515000D01*
X158115000Y-68580000D02*
X160020000Y-66675000D01*
X160020000Y-66675000D02*
X160020000Y-57785000D01*
X153670000Y-56515000D02*
X152280000Y-57905000D01*
X137160000Y-106680000D02*
X144145000Y-113665000D01*
X118110000Y-87630000D02*
X120332500Y-89852500D01*
X120332500Y-89852500D02*
X120332500Y-104457500D01*
X122555000Y-106680000D02*
X137160000Y-106680000D01*
X144145000Y-119380000D02*
X142785520Y-120739480D01*
X142785520Y-120739480D02*
X142785520Y-121272000D01*
X144145000Y-113665000D02*
X144145000Y-119380000D01*
X120332500Y-104457500D02*
X122555000Y-106680000D01*
X116840000Y-87630000D02*
X118110000Y-87630000D01*
X129540000Y-108585000D02*
X130391480Y-109436480D01*
X121920000Y-108585000D02*
X129540000Y-108585000D01*
X118745000Y-105410000D02*
X121920000Y-108585000D01*
X130391480Y-109436480D02*
X130810000Y-109436480D01*
X118110000Y-90170000D02*
X118745000Y-90805000D01*
X118745000Y-90805000D02*
X118745000Y-105410000D01*
X116840000Y-90170000D02*
X118110000Y-90170000D01*
X132080000Y-134620000D02*
X130810000Y-133350000D01*
X116840000Y-85090000D02*
X128905000Y-85090000D01*
X130810000Y-86995000D02*
X130810000Y-103505000D01*
X146050000Y-133350000D02*
X144780000Y-134620000D01*
X138430000Y-104775000D02*
X146050000Y-112395000D01*
X146050000Y-112395000D02*
X146050000Y-133350000D01*
X130810000Y-103505000D02*
X132080000Y-104775000D01*
X144780000Y-134620000D02*
X132080000Y-134620000D01*
X128905000Y-85090000D02*
X130810000Y-86995000D01*
X132080000Y-104775000D02*
X138430000Y-104775000D01*
X113665000Y-92710000D02*
X112395000Y-93980000D01*
X114935000Y-121285000D02*
X118745000Y-121285000D01*
X112395000Y-93980000D02*
X112395000Y-118745000D01*
X116840000Y-92710000D02*
X113665000Y-92710000D01*
X112395000Y-118745000D02*
X114935000Y-121285000D01*
X137160000Y-100330000D02*
X153035000Y-116205000D01*
X173355000Y-116205000D02*
X175260000Y-118110000D01*
X153035000Y-116205000D02*
X173355000Y-116205000D01*
X175260000Y-118110000D02*
X175260000Y-120650000D01*
X175260000Y-120650000D02*
X173990000Y-121920000D01*
X134620000Y-100330000D02*
X137160000Y-100330000D01*
X173990000Y-121920000D02*
X173355000Y-121920000D01*
X134620000Y-97790000D02*
X138430000Y-97790000D01*
X188595000Y-110490000D02*
X190500000Y-112395000D01*
X190500000Y-115570000D02*
X189176000Y-116894000D01*
X151130000Y-110490000D02*
X188595000Y-110490000D01*
X189176000Y-116894000D02*
X187235520Y-116894000D01*
X138430000Y-97790000D02*
X151130000Y-110490000D01*
X190500000Y-112395000D02*
X190500000Y-115570000D01*
D33*
X176276000Y-80010000D02*
X182880000Y-73406000D01*
X134620000Y-80010000D02*
X176276000Y-80010000D01*
M02*
