%FSLAX45Y45*%
G04 Gerber Fmt 4.5, Leading zero omitted, Abs format (unit mm)*
G04 Created by KiCad (PCBNEW (6.0.2)) date 2022-06-07 21:46:57*
%MOMM*%
%LPD*%
G01*
G04 APERTURE LIST*
%TA.AperFunction,Profile*%
%ADD10C,0.100000*%
%TD*%
%ADD11C,0.200000*%
%ADD12C,0.040000*%
%ADD13C,0.076200*%
%ADD14C,0.080000*%
%ADD15C,0.090000*%
%ADD16C,0.100000*%
%ADD17C,0.102000*%
%ADD18C,0.120000*%
%ADD19C,0.150000*%
G04 APERTURE END LIST*
D10*
X19685000Y-14097000D02*
X11049000Y-14097000D01*
X15367000Y-4953000D02*
X19685000Y-4953000D01*
X11049000Y-4953000D02*
X11049000Y-14097000D01*
X15367000Y-4953000D02*
X11049000Y-4953000D01*
X19685000Y-4953000D02*
X19685000Y-14097000D01*
D11*
D12*
X13061000Y-12108500D02*
X13101000Y-12148500D01*
X13101000Y-12108500D02*
X13061000Y-12148500D01*
X15093000Y-6965000D02*
X15133000Y-7005000D01*
X15133000Y-6965000D02*
X15093000Y-7005000D01*
X15601000Y-6711000D02*
X15641000Y-6751000D01*
X15641000Y-6711000D02*
X15601000Y-6751000D01*
X17633000Y-12743500D02*
X17673000Y-12783500D01*
X17673000Y-12743500D02*
X17633000Y-12783500D01*
D13*
X15012100Y-5893000D02*
G75*
G03*
X15012100Y-5893000I-38100J0D01*
G01*
X15266100Y-5893000D02*
G75*
G03*
X15266100Y-5893000I-38100J0D01*
G01*
X15520100Y-5893000D02*
G75*
G03*
X15520100Y-5893000I-38100J0D01*
G01*
X15774100Y-5893000D02*
G75*
G03*
X15774100Y-5893000I-38100J0D01*
G01*
X18326100Y-7340600D02*
G75*
G03*
X18326100Y-7340600I-38100J0D01*
G01*
X18326100Y-7747000D02*
G75*
G03*
X18326100Y-7747000I-38100J0D01*
G01*
X18326100Y-8153400D02*
G75*
G03*
X18326100Y-8153400I-38100J0D01*
G01*
D14*
X18342000Y-5167000D02*
X18342000Y-5247000D01*
X18302000Y-5207000D02*
X18382000Y-5207000D01*
X18542000Y-5167000D02*
X18542000Y-5247000D01*
X18502000Y-5207000D02*
X18582000Y-5207000D01*
X18742000Y-5167000D02*
X18742000Y-5247000D01*
X18702000Y-5207000D02*
X18782000Y-5207000D01*
D15*
X16287820Y-5238820D02*
X16287820Y-5175180D01*
X16224180Y-5175180D01*
X16224180Y-5238820D01*
X16287820Y-5238820D01*
X17049820Y-5238820D02*
X17049820Y-5175180D01*
X16986180Y-5175180D01*
X16986180Y-5238820D01*
X17049820Y-5238820D01*
D16*
X17146000Y-6654000D02*
X17196000Y-6604000D01*
X17146000Y-6554000D01*
X17096000Y-6604000D01*
X17146000Y-6654000D01*
X17796000Y-6654000D02*
X17846000Y-6604000D01*
X17796000Y-6554000D01*
X17746000Y-6604000D01*
X17796000Y-6654000D01*
X19304000Y-7289000D02*
X19354000Y-7239000D01*
X19304000Y-7189000D01*
X19254000Y-7239000D01*
X19304000Y-7289000D01*
X19304000Y-8305000D02*
X19354000Y-8255000D01*
X19304000Y-8205000D01*
X19254000Y-8255000D01*
X19304000Y-8305000D01*
D17*
X11633000Y-5156000D02*
X11735000Y-5258000D01*
X11735000Y-5156000D02*
X11633000Y-5258000D01*
X11735000Y-5207000D02*
G75*
G03*
X11735000Y-5207000I-51000J0D01*
G01*
X11633000Y-5410000D02*
X11735000Y-5512000D01*
X11735000Y-5410000D02*
X11633000Y-5512000D01*
X11735000Y-5461000D02*
G75*
G03*
X11735000Y-5461000I-51000J0D01*
G01*
X11633000Y-5664000D02*
X11735000Y-5766000D01*
X11735000Y-5664000D02*
X11633000Y-5766000D01*
X11735000Y-5715000D02*
G75*
G03*
X11735000Y-5715000I-51000J0D01*
G01*
X11633000Y-5918000D02*
X11735000Y-6020000D01*
X11735000Y-5918000D02*
X11633000Y-6020000D01*
X11735000Y-5969000D02*
G75*
G03*
X11735000Y-5969000I-51000J0D01*
G01*
X11633000Y-6172000D02*
X11735000Y-6274000D01*
X11735000Y-6172000D02*
X11633000Y-6274000D01*
X11735000Y-6223000D02*
G75*
G03*
X11735000Y-6223000I-51000J0D01*
G01*
X11633000Y-6426000D02*
X11735000Y-6528000D01*
X11735000Y-6426000D02*
X11633000Y-6528000D01*
X11735000Y-6477000D02*
G75*
G03*
X11735000Y-6477000I-51000J0D01*
G01*
X11633000Y-6680000D02*
X11735000Y-6782000D01*
X11735000Y-6680000D02*
X11633000Y-6782000D01*
X11735000Y-6731000D02*
G75*
G03*
X11735000Y-6731000I-51000J0D01*
G01*
X11633000Y-6934000D02*
X11735000Y-7036000D01*
X11735000Y-6934000D02*
X11633000Y-7036000D01*
X11735000Y-6985000D02*
G75*
G03*
X11735000Y-6985000I-51000J0D01*
G01*
X11633000Y-7188000D02*
X11735000Y-7290000D01*
X11735000Y-7188000D02*
X11633000Y-7290000D01*
X11735000Y-7239000D02*
G75*
G03*
X11735000Y-7239000I-51000J0D01*
G01*
X11633000Y-7442000D02*
X11735000Y-7544000D01*
X11735000Y-7442000D02*
X11633000Y-7544000D01*
X11735000Y-7493000D02*
G75*
G03*
X11735000Y-7493000I-51000J0D01*
G01*
X11633000Y-7696000D02*
X11735000Y-7798000D01*
X11735000Y-7696000D02*
X11633000Y-7798000D01*
X11735000Y-7747000D02*
G75*
G03*
X11735000Y-7747000I-51000J0D01*
G01*
X11633000Y-7950000D02*
X11735000Y-8052000D01*
X11735000Y-7950000D02*
X11633000Y-8052000D01*
X11735000Y-8001000D02*
G75*
G03*
X11735000Y-8001000I-51000J0D01*
G01*
X11633000Y-8204000D02*
X11735000Y-8306000D01*
X11735000Y-8204000D02*
X11633000Y-8306000D01*
X11735000Y-8255000D02*
G75*
G03*
X11735000Y-8255000I-51000J0D01*
G01*
X11633000Y-8458000D02*
X11735000Y-8560000D01*
X11735000Y-8458000D02*
X11633000Y-8560000D01*
X11735000Y-8509000D02*
G75*
G03*
X11735000Y-8509000I-51000J0D01*
G01*
X11633000Y-8712000D02*
X11735000Y-8814000D01*
X11735000Y-8712000D02*
X11633000Y-8814000D01*
X11735000Y-8763000D02*
G75*
G03*
X11735000Y-8763000I-51000J0D01*
G01*
X11633000Y-8966000D02*
X11735000Y-9068000D01*
X11735000Y-8966000D02*
X11633000Y-9068000D01*
X11735000Y-9017000D02*
G75*
G03*
X11735000Y-9017000I-51000J0D01*
G01*
X11633000Y-9220000D02*
X11735000Y-9322000D01*
X11735000Y-9220000D02*
X11633000Y-9322000D01*
X11735000Y-9271000D02*
G75*
G03*
X11735000Y-9271000I-51000J0D01*
G01*
X11633000Y-9474000D02*
X11735000Y-9576000D01*
X11735000Y-9474000D02*
X11633000Y-9576000D01*
X11735000Y-9525000D02*
G75*
G03*
X11735000Y-9525000I-51000J0D01*
G01*
X11633000Y-9728000D02*
X11735000Y-9830000D01*
X11735000Y-9728000D02*
X11633000Y-9830000D01*
X11735000Y-9779000D02*
G75*
G03*
X11735000Y-9779000I-51000J0D01*
G01*
X11633000Y-9982000D02*
X11735000Y-10084000D01*
X11735000Y-9982000D02*
X11633000Y-10084000D01*
X11735000Y-10033000D02*
G75*
G03*
X11735000Y-10033000I-51000J0D01*
G01*
X12268000Y-9959000D02*
X12370000Y-10061000D01*
X12370000Y-9959000D02*
X12268000Y-10061000D01*
X12370000Y-10010000D02*
G75*
G03*
X12370000Y-10010000I-51000J0D01*
G01*
X12522000Y-9959000D02*
X12624000Y-10061000D01*
X12624000Y-9959000D02*
X12522000Y-10061000D01*
X12624000Y-10010000D02*
G75*
G03*
X12624000Y-10010000I-51000J0D01*
G01*
X12776000Y-9959000D02*
X12878000Y-10061000D01*
X12878000Y-9959000D02*
X12776000Y-10061000D01*
X12878000Y-10010000D02*
G75*
G03*
X12878000Y-10010000I-51000J0D01*
G01*
X13411000Y-5156000D02*
X13513000Y-5258000D01*
X13513000Y-5156000D02*
X13411000Y-5258000D01*
X13513000Y-5207000D02*
G75*
G03*
X13513000Y-5207000I-51000J0D01*
G01*
X13411000Y-5410000D02*
X13513000Y-5512000D01*
X13513000Y-5410000D02*
X13411000Y-5512000D01*
X13513000Y-5461000D02*
G75*
G03*
X13513000Y-5461000I-51000J0D01*
G01*
X13411000Y-5664000D02*
X13513000Y-5766000D01*
X13513000Y-5664000D02*
X13411000Y-5766000D01*
X13513000Y-5715000D02*
G75*
G03*
X13513000Y-5715000I-51000J0D01*
G01*
X13411000Y-5918000D02*
X13513000Y-6020000D01*
X13513000Y-5918000D02*
X13411000Y-6020000D01*
X13513000Y-5969000D02*
G75*
G03*
X13513000Y-5969000I-51000J0D01*
G01*
X13411000Y-6172000D02*
X13513000Y-6274000D01*
X13513000Y-6172000D02*
X13411000Y-6274000D01*
X13513000Y-6223000D02*
G75*
G03*
X13513000Y-6223000I-51000J0D01*
G01*
X13411000Y-6426000D02*
X13513000Y-6528000D01*
X13513000Y-6426000D02*
X13411000Y-6528000D01*
X13513000Y-6477000D02*
G75*
G03*
X13513000Y-6477000I-51000J0D01*
G01*
X13411000Y-6680000D02*
X13513000Y-6782000D01*
X13513000Y-6680000D02*
X13411000Y-6782000D01*
X13513000Y-6731000D02*
G75*
G03*
X13513000Y-6731000I-51000J0D01*
G01*
X13411000Y-6934000D02*
X13513000Y-7036000D01*
X13513000Y-6934000D02*
X13411000Y-7036000D01*
X13513000Y-6985000D02*
G75*
G03*
X13513000Y-6985000I-51000J0D01*
G01*
X13411000Y-7188000D02*
X13513000Y-7290000D01*
X13513000Y-7188000D02*
X13411000Y-7290000D01*
X13513000Y-7239000D02*
G75*
G03*
X13513000Y-7239000I-51000J0D01*
G01*
X13411000Y-7442000D02*
X13513000Y-7544000D01*
X13513000Y-7442000D02*
X13411000Y-7544000D01*
X13513000Y-7493000D02*
G75*
G03*
X13513000Y-7493000I-51000J0D01*
G01*
X13411000Y-7696000D02*
X13513000Y-7798000D01*
X13513000Y-7696000D02*
X13411000Y-7798000D01*
X13513000Y-7747000D02*
G75*
G03*
X13513000Y-7747000I-51000J0D01*
G01*
X13411000Y-7950000D02*
X13513000Y-8052000D01*
X13513000Y-7950000D02*
X13411000Y-8052000D01*
X13513000Y-8001000D02*
G75*
G03*
X13513000Y-8001000I-51000J0D01*
G01*
X13411000Y-8204000D02*
X13513000Y-8306000D01*
X13513000Y-8204000D02*
X13411000Y-8306000D01*
X13513000Y-8255000D02*
G75*
G03*
X13513000Y-8255000I-51000J0D01*
G01*
X13411000Y-8458000D02*
X13513000Y-8560000D01*
X13513000Y-8458000D02*
X13411000Y-8560000D01*
X13513000Y-8509000D02*
G75*
G03*
X13513000Y-8509000I-51000J0D01*
G01*
X13411000Y-8712000D02*
X13513000Y-8814000D01*
X13513000Y-8712000D02*
X13411000Y-8814000D01*
X13513000Y-8763000D02*
G75*
G03*
X13513000Y-8763000I-51000J0D01*
G01*
X13411000Y-8966000D02*
X13513000Y-9068000D01*
X13513000Y-8966000D02*
X13411000Y-9068000D01*
X13513000Y-9017000D02*
G75*
G03*
X13513000Y-9017000I-51000J0D01*
G01*
X13411000Y-9220000D02*
X13513000Y-9322000D01*
X13513000Y-9220000D02*
X13411000Y-9322000D01*
X13513000Y-9271000D02*
G75*
G03*
X13513000Y-9271000I-51000J0D01*
G01*
X13411000Y-9474000D02*
X13513000Y-9576000D01*
X13513000Y-9474000D02*
X13411000Y-9576000D01*
X13513000Y-9525000D02*
G75*
G03*
X13513000Y-9525000I-51000J0D01*
G01*
X13411000Y-9728000D02*
X13513000Y-9830000D01*
X13513000Y-9728000D02*
X13411000Y-9830000D01*
X13513000Y-9779000D02*
G75*
G03*
X13513000Y-9779000I-51000J0D01*
G01*
X13411000Y-9982000D02*
X13513000Y-10084000D01*
X13513000Y-9982000D02*
X13411000Y-10084000D01*
X13513000Y-10033000D02*
G75*
G03*
X13513000Y-10033000I-51000J0D01*
G01*
D18*
X18812200Y-12462200D02*
X18932200Y-12582200D01*
X18932200Y-12462200D02*
X18812200Y-12582200D01*
X18872200Y-12462200D02*
X18872200Y-12582200D01*
X18812200Y-12522200D02*
X18932200Y-12522200D01*
X18812200Y-13021000D02*
X18932200Y-13141000D01*
X18932200Y-13021000D02*
X18812200Y-13141000D01*
X18872200Y-13021000D02*
X18872200Y-13141000D01*
X18812200Y-13081000D02*
X18932200Y-13081000D01*
D19*
X18057000Y-5132000D02*
X18207000Y-5282000D01*
X18207000Y-5132000D02*
X18057000Y-5282000D01*
X18185034Y-5260034D02*
X18185034Y-5153967D01*
X18078967Y-5153967D01*
X18078967Y-5260034D01*
X18185034Y-5260034D01*
X18877000Y-5132000D02*
X19027000Y-5282000D01*
X19027000Y-5132000D02*
X18877000Y-5282000D01*
X19005034Y-5260034D02*
X19005034Y-5153967D01*
X18898967Y-5153967D01*
X18898967Y-5260034D01*
X19005034Y-5260034D01*
D11*
X11301619Y-14412476D02*
X11301619Y-14212476D01*
X11349238Y-14212476D01*
X11377809Y-14222000D01*
X11396857Y-14241048D01*
X11406381Y-14260095D01*
X11415905Y-14298190D01*
X11415905Y-14326762D01*
X11406381Y-14364857D01*
X11396857Y-14383905D01*
X11377809Y-14402952D01*
X11349238Y-14412476D01*
X11301619Y-14412476D01*
X11501619Y-14412476D02*
X11501619Y-14279143D01*
X11501619Y-14317238D02*
X11511143Y-14298190D01*
X11520667Y-14288667D01*
X11539714Y-14279143D01*
X11558762Y-14279143D01*
X11625428Y-14412476D02*
X11625428Y-14279143D01*
X11625428Y-14212476D02*
X11615905Y-14222000D01*
X11625428Y-14231524D01*
X11634952Y-14222000D01*
X11625428Y-14212476D01*
X11625428Y-14231524D01*
X11749238Y-14412476D02*
X11730190Y-14402952D01*
X11720667Y-14383905D01*
X11720667Y-14212476D01*
X11854000Y-14412476D02*
X11834952Y-14402952D01*
X11825428Y-14383905D01*
X11825428Y-14212476D01*
X12082571Y-14412476D02*
X12082571Y-14212476D01*
X12149238Y-14355333D01*
X12215905Y-14212476D01*
X12215905Y-14412476D01*
X12396857Y-14412476D02*
X12396857Y-14307714D01*
X12387333Y-14288667D01*
X12368286Y-14279143D01*
X12330190Y-14279143D01*
X12311143Y-14288667D01*
X12396857Y-14402952D02*
X12377809Y-14412476D01*
X12330190Y-14412476D01*
X12311143Y-14402952D01*
X12301619Y-14383905D01*
X12301619Y-14364857D01*
X12311143Y-14345809D01*
X12330190Y-14336286D01*
X12377809Y-14336286D01*
X12396857Y-14326762D01*
X12492095Y-14279143D02*
X12492095Y-14479143D01*
X12492095Y-14288667D02*
X12511143Y-14279143D01*
X12549238Y-14279143D01*
X12568286Y-14288667D01*
X12577809Y-14298190D01*
X12587333Y-14317238D01*
X12587333Y-14374381D01*
X12577809Y-14393428D01*
X12568286Y-14402952D01*
X12549238Y-14412476D01*
X12511143Y-14412476D01*
X12492095Y-14402952D01*
X12673048Y-14393428D02*
X12682571Y-14402952D01*
X12673048Y-14412476D01*
X12663524Y-14402952D01*
X12673048Y-14393428D01*
X12673048Y-14412476D01*
X12673048Y-14288667D02*
X12682571Y-14298190D01*
X12673048Y-14307714D01*
X12663524Y-14298190D01*
X12673048Y-14288667D01*
X12673048Y-14307714D01*
D12*
X11004000Y-14722000D02*
X11044000Y-14762000D01*
X11044000Y-14722000D02*
X11004000Y-14762000D01*
D11*
X11339714Y-14632476D02*
X11358762Y-14632476D01*
X11377809Y-14642000D01*
X11387333Y-14651524D01*
X11396857Y-14670571D01*
X11406381Y-14708667D01*
X11406381Y-14756286D01*
X11396857Y-14794381D01*
X11387333Y-14813428D01*
X11377809Y-14822952D01*
X11358762Y-14832476D01*
X11339714Y-14832476D01*
X11320667Y-14822952D01*
X11311143Y-14813428D01*
X11301619Y-14794381D01*
X11292095Y-14756286D01*
X11292095Y-14708667D01*
X11301619Y-14670571D01*
X11311143Y-14651524D01*
X11320667Y-14642000D01*
X11339714Y-14632476D01*
X11492095Y-14813428D02*
X11501619Y-14822952D01*
X11492095Y-14832476D01*
X11482571Y-14822952D01*
X11492095Y-14813428D01*
X11492095Y-14832476D01*
X11673048Y-14699143D02*
X11673048Y-14832476D01*
X11625428Y-14622952D02*
X11577809Y-14765809D01*
X11701619Y-14765809D01*
X11815905Y-14632476D02*
X11834952Y-14632476D01*
X11854000Y-14642000D01*
X11863524Y-14651524D01*
X11873048Y-14670571D01*
X11882571Y-14708667D01*
X11882571Y-14756286D01*
X11873048Y-14794381D01*
X11863524Y-14813428D01*
X11854000Y-14822952D01*
X11834952Y-14832476D01*
X11815905Y-14832476D01*
X11796857Y-14822952D01*
X11787333Y-14813428D01*
X11777809Y-14794381D01*
X11768286Y-14756286D01*
X11768286Y-14708667D01*
X11777809Y-14670571D01*
X11787333Y-14651524D01*
X11796857Y-14642000D01*
X11815905Y-14632476D01*
X12006381Y-14632476D02*
X12025428Y-14632476D01*
X12044476Y-14642000D01*
X12054000Y-14651524D01*
X12063524Y-14670571D01*
X12073048Y-14708667D01*
X12073048Y-14756286D01*
X12063524Y-14794381D01*
X12054000Y-14813428D01*
X12044476Y-14822952D01*
X12025428Y-14832476D01*
X12006381Y-14832476D01*
X11987333Y-14822952D01*
X11977809Y-14813428D01*
X11968286Y-14794381D01*
X11958762Y-14756286D01*
X11958762Y-14708667D01*
X11968286Y-14670571D01*
X11977809Y-14651524D01*
X11987333Y-14642000D01*
X12006381Y-14632476D01*
X12158762Y-14832476D02*
X12158762Y-14699143D01*
X12158762Y-14718190D02*
X12168286Y-14708667D01*
X12187333Y-14699143D01*
X12215905Y-14699143D01*
X12234952Y-14708667D01*
X12244476Y-14727714D01*
X12244476Y-14832476D01*
X12244476Y-14727714D02*
X12254000Y-14708667D01*
X12273048Y-14699143D01*
X12301619Y-14699143D01*
X12320667Y-14708667D01*
X12330190Y-14727714D01*
X12330190Y-14832476D01*
X12425428Y-14832476D02*
X12425428Y-14699143D01*
X12425428Y-14718190D02*
X12434952Y-14708667D01*
X12454000Y-14699143D01*
X12482571Y-14699143D01*
X12501619Y-14708667D01*
X12511143Y-14727714D01*
X12511143Y-14832476D01*
X12511143Y-14727714D02*
X12520667Y-14708667D01*
X12539714Y-14699143D01*
X12568286Y-14699143D01*
X12587333Y-14708667D01*
X12596857Y-14727714D01*
X12596857Y-14832476D01*
X12987333Y-14622952D02*
X12815905Y-14880095D01*
X13244476Y-14632476D02*
X13263524Y-14632476D01*
X13282571Y-14642000D01*
X13292095Y-14651524D01*
X13301619Y-14670571D01*
X13311143Y-14708667D01*
X13311143Y-14756286D01*
X13301619Y-14794381D01*
X13292095Y-14813428D01*
X13282571Y-14822952D01*
X13263524Y-14832476D01*
X13244476Y-14832476D01*
X13225428Y-14822952D01*
X13215905Y-14813428D01*
X13206381Y-14794381D01*
X13196857Y-14756286D01*
X13196857Y-14708667D01*
X13206381Y-14670571D01*
X13215905Y-14651524D01*
X13225428Y-14642000D01*
X13244476Y-14632476D01*
X13396857Y-14813428D02*
X13406381Y-14822952D01*
X13396857Y-14832476D01*
X13387333Y-14822952D01*
X13396857Y-14813428D01*
X13396857Y-14832476D01*
X13530190Y-14632476D02*
X13549238Y-14632476D01*
X13568286Y-14642000D01*
X13577809Y-14651524D01*
X13587333Y-14670571D01*
X13596857Y-14708667D01*
X13596857Y-14756286D01*
X13587333Y-14794381D01*
X13577809Y-14813428D01*
X13568286Y-14822952D01*
X13549238Y-14832476D01*
X13530190Y-14832476D01*
X13511143Y-14822952D01*
X13501619Y-14813428D01*
X13492095Y-14794381D01*
X13482571Y-14756286D01*
X13482571Y-14708667D01*
X13492095Y-14670571D01*
X13501619Y-14651524D01*
X13511143Y-14642000D01*
X13530190Y-14632476D01*
X13787333Y-14832476D02*
X13673048Y-14832476D01*
X13730190Y-14832476D02*
X13730190Y-14632476D01*
X13711143Y-14661048D01*
X13692095Y-14680095D01*
X13673048Y-14689619D01*
X13968286Y-14632476D02*
X13873048Y-14632476D01*
X13863524Y-14727714D01*
X13873048Y-14718190D01*
X13892095Y-14708667D01*
X13939714Y-14708667D01*
X13958762Y-14718190D01*
X13968286Y-14727714D01*
X13977809Y-14746762D01*
X13977809Y-14794381D01*
X13968286Y-14813428D01*
X13958762Y-14822952D01*
X13939714Y-14832476D01*
X13892095Y-14832476D01*
X13873048Y-14822952D01*
X13863524Y-14813428D01*
X14044476Y-14632476D02*
X14177809Y-14632476D01*
X14092095Y-14832476D01*
X14244476Y-14632476D02*
X14244476Y-14670571D01*
X14320667Y-14632476D02*
X14320667Y-14670571D01*
X14615905Y-14908667D02*
X14606381Y-14899143D01*
X14587333Y-14870571D01*
X14577809Y-14851524D01*
X14568286Y-14822952D01*
X14558762Y-14775333D01*
X14558762Y-14737238D01*
X14568286Y-14689619D01*
X14577809Y-14661048D01*
X14587333Y-14642000D01*
X14606381Y-14613428D01*
X14615905Y-14603905D01*
X14777809Y-14699143D02*
X14777809Y-14832476D01*
X14730190Y-14622952D02*
X14682571Y-14765809D01*
X14806381Y-14765809D01*
X15034952Y-14832476D02*
X15034952Y-14632476D01*
X15120667Y-14832476D02*
X15120667Y-14727714D01*
X15111143Y-14708667D01*
X15092095Y-14699143D01*
X15063524Y-14699143D01*
X15044476Y-14708667D01*
X15034952Y-14718190D01*
X15244476Y-14832476D02*
X15225428Y-14822952D01*
X15215905Y-14813428D01*
X15206381Y-14794381D01*
X15206381Y-14737238D01*
X15215905Y-14718190D01*
X15225428Y-14708667D01*
X15244476Y-14699143D01*
X15273048Y-14699143D01*
X15292095Y-14708667D01*
X15301619Y-14718190D01*
X15311143Y-14737238D01*
X15311143Y-14794381D01*
X15301619Y-14813428D01*
X15292095Y-14822952D01*
X15273048Y-14832476D01*
X15244476Y-14832476D01*
X15425428Y-14832476D02*
X15406381Y-14822952D01*
X15396857Y-14803905D01*
X15396857Y-14632476D01*
X15577809Y-14822952D02*
X15558762Y-14832476D01*
X15520667Y-14832476D01*
X15501619Y-14822952D01*
X15492095Y-14803905D01*
X15492095Y-14727714D01*
X15501619Y-14708667D01*
X15520667Y-14699143D01*
X15558762Y-14699143D01*
X15577809Y-14708667D01*
X15587333Y-14727714D01*
X15587333Y-14746762D01*
X15492095Y-14765809D01*
X15663524Y-14822952D02*
X15682571Y-14832476D01*
X15720667Y-14832476D01*
X15739714Y-14822952D01*
X15749238Y-14803905D01*
X15749238Y-14794381D01*
X15739714Y-14775333D01*
X15720667Y-14765809D01*
X15692095Y-14765809D01*
X15673048Y-14756286D01*
X15663524Y-14737238D01*
X15663524Y-14727714D01*
X15673048Y-14708667D01*
X15692095Y-14699143D01*
X15720667Y-14699143D01*
X15739714Y-14708667D01*
X15815905Y-14908667D02*
X15825428Y-14899143D01*
X15844476Y-14870571D01*
X15854000Y-14851524D01*
X15863524Y-14822952D01*
X15873048Y-14775333D01*
X15873048Y-14737238D01*
X15863524Y-14689619D01*
X15854000Y-14661048D01*
X15844476Y-14642000D01*
X15825428Y-14613428D01*
X15815905Y-14603905D01*
D13*
X11044000Y-15006000D02*
G75*
G03*
X11044000Y-15006000I-38100J0D01*
G01*
D11*
X11339714Y-14896476D02*
X11358762Y-14896476D01*
X11377809Y-14906000D01*
X11387333Y-14915524D01*
X11396857Y-14934571D01*
X11406381Y-14972667D01*
X11406381Y-15020286D01*
X11396857Y-15058381D01*
X11387333Y-15077428D01*
X11377809Y-15086952D01*
X11358762Y-15096476D01*
X11339714Y-15096476D01*
X11320667Y-15086952D01*
X11311143Y-15077428D01*
X11301619Y-15058381D01*
X11292095Y-15020286D01*
X11292095Y-14972667D01*
X11301619Y-14934571D01*
X11311143Y-14915524D01*
X11320667Y-14906000D01*
X11339714Y-14896476D01*
X11492095Y-15077428D02*
X11501619Y-15086952D01*
X11492095Y-15096476D01*
X11482571Y-15086952D01*
X11492095Y-15077428D01*
X11492095Y-15096476D01*
X11568286Y-14896476D02*
X11701619Y-14896476D01*
X11615905Y-15096476D01*
X11863524Y-14896476D02*
X11825428Y-14896476D01*
X11806381Y-14906000D01*
X11796857Y-14915524D01*
X11777809Y-14944095D01*
X11768286Y-14982190D01*
X11768286Y-15058381D01*
X11777809Y-15077428D01*
X11787333Y-15086952D01*
X11806381Y-15096476D01*
X11844476Y-15096476D01*
X11863524Y-15086952D01*
X11873048Y-15077428D01*
X11882571Y-15058381D01*
X11882571Y-15010762D01*
X11873048Y-14991714D01*
X11863524Y-14982190D01*
X11844476Y-14972667D01*
X11806381Y-14972667D01*
X11787333Y-14982190D01*
X11777809Y-14991714D01*
X11768286Y-15010762D01*
X11958762Y-14915524D02*
X11968286Y-14906000D01*
X11987333Y-14896476D01*
X12034952Y-14896476D01*
X12054000Y-14906000D01*
X12063524Y-14915524D01*
X12073048Y-14934571D01*
X12073048Y-14953619D01*
X12063524Y-14982190D01*
X11949238Y-15096476D01*
X12073048Y-15096476D01*
X12158762Y-15096476D02*
X12158762Y-14963143D01*
X12158762Y-14982190D02*
X12168286Y-14972667D01*
X12187333Y-14963143D01*
X12215905Y-14963143D01*
X12234952Y-14972667D01*
X12244476Y-14991714D01*
X12244476Y-15096476D01*
X12244476Y-14991714D02*
X12254000Y-14972667D01*
X12273048Y-14963143D01*
X12301619Y-14963143D01*
X12320667Y-14972667D01*
X12330190Y-14991714D01*
X12330190Y-15096476D01*
X12425428Y-15096476D02*
X12425428Y-14963143D01*
X12425428Y-14982190D02*
X12434952Y-14972667D01*
X12454000Y-14963143D01*
X12482571Y-14963143D01*
X12501619Y-14972667D01*
X12511143Y-14991714D01*
X12511143Y-15096476D01*
X12511143Y-14991714D02*
X12520667Y-14972667D01*
X12539714Y-14963143D01*
X12568286Y-14963143D01*
X12587333Y-14972667D01*
X12596857Y-14991714D01*
X12596857Y-15096476D01*
X12987333Y-14886952D02*
X12815905Y-15144095D01*
X13244476Y-14896476D02*
X13263524Y-14896476D01*
X13282571Y-14906000D01*
X13292095Y-14915524D01*
X13301619Y-14934571D01*
X13311143Y-14972667D01*
X13311143Y-15020286D01*
X13301619Y-15058381D01*
X13292095Y-15077428D01*
X13282571Y-15086952D01*
X13263524Y-15096476D01*
X13244476Y-15096476D01*
X13225428Y-15086952D01*
X13215905Y-15077428D01*
X13206381Y-15058381D01*
X13196857Y-15020286D01*
X13196857Y-14972667D01*
X13206381Y-14934571D01*
X13215905Y-14915524D01*
X13225428Y-14906000D01*
X13244476Y-14896476D01*
X13396857Y-15077428D02*
X13406381Y-15086952D01*
X13396857Y-15096476D01*
X13387333Y-15086952D01*
X13396857Y-15077428D01*
X13396857Y-15096476D01*
X13530190Y-14896476D02*
X13549238Y-14896476D01*
X13568286Y-14906000D01*
X13577809Y-14915524D01*
X13587333Y-14934571D01*
X13596857Y-14972667D01*
X13596857Y-15020286D01*
X13587333Y-15058381D01*
X13577809Y-15077428D01*
X13568286Y-15086952D01*
X13549238Y-15096476D01*
X13530190Y-15096476D01*
X13511143Y-15086952D01*
X13501619Y-15077428D01*
X13492095Y-15058381D01*
X13482571Y-15020286D01*
X13482571Y-14972667D01*
X13492095Y-14934571D01*
X13501619Y-14915524D01*
X13511143Y-14906000D01*
X13530190Y-14896476D01*
X13663524Y-14896476D02*
X13787333Y-14896476D01*
X13720667Y-14972667D01*
X13749238Y-14972667D01*
X13768286Y-14982190D01*
X13777809Y-14991714D01*
X13787333Y-15010762D01*
X13787333Y-15058381D01*
X13777809Y-15077428D01*
X13768286Y-15086952D01*
X13749238Y-15096476D01*
X13692095Y-15096476D01*
X13673048Y-15086952D01*
X13663524Y-15077428D01*
X13911143Y-14896476D02*
X13930190Y-14896476D01*
X13949238Y-14906000D01*
X13958762Y-14915524D01*
X13968286Y-14934571D01*
X13977809Y-14972667D01*
X13977809Y-15020286D01*
X13968286Y-15058381D01*
X13958762Y-15077428D01*
X13949238Y-15086952D01*
X13930190Y-15096476D01*
X13911143Y-15096476D01*
X13892095Y-15086952D01*
X13882571Y-15077428D01*
X13873048Y-15058381D01*
X13863524Y-15020286D01*
X13863524Y-14972667D01*
X13873048Y-14934571D01*
X13882571Y-14915524D01*
X13892095Y-14906000D01*
X13911143Y-14896476D01*
X14101619Y-14896476D02*
X14120667Y-14896476D01*
X14139714Y-14906000D01*
X14149238Y-14915524D01*
X14158762Y-14934571D01*
X14168286Y-14972667D01*
X14168286Y-15020286D01*
X14158762Y-15058381D01*
X14149238Y-15077428D01*
X14139714Y-15086952D01*
X14120667Y-15096476D01*
X14101619Y-15096476D01*
X14082571Y-15086952D01*
X14073048Y-15077428D01*
X14063524Y-15058381D01*
X14054000Y-15020286D01*
X14054000Y-14972667D01*
X14063524Y-14934571D01*
X14073048Y-14915524D01*
X14082571Y-14906000D01*
X14101619Y-14896476D01*
X14244476Y-14896476D02*
X14244476Y-14934571D01*
X14320667Y-14896476D02*
X14320667Y-14934571D01*
X14615905Y-15172667D02*
X14606381Y-15163143D01*
X14587333Y-15134571D01*
X14577809Y-15115524D01*
X14568286Y-15086952D01*
X14558762Y-15039333D01*
X14558762Y-15001238D01*
X14568286Y-14953619D01*
X14577809Y-14925048D01*
X14587333Y-14906000D01*
X14606381Y-14877428D01*
X14615905Y-14867905D01*
X14673048Y-14896476D02*
X14806381Y-14896476D01*
X14720667Y-15096476D01*
X15034952Y-15096476D02*
X15034952Y-14896476D01*
X15120667Y-15096476D02*
X15120667Y-14991714D01*
X15111143Y-14972667D01*
X15092095Y-14963143D01*
X15063524Y-14963143D01*
X15044476Y-14972667D01*
X15034952Y-14982190D01*
X15244476Y-15096476D02*
X15225428Y-15086952D01*
X15215905Y-15077428D01*
X15206381Y-15058381D01*
X15206381Y-15001238D01*
X15215905Y-14982190D01*
X15225428Y-14972667D01*
X15244476Y-14963143D01*
X15273048Y-14963143D01*
X15292095Y-14972667D01*
X15301619Y-14982190D01*
X15311143Y-15001238D01*
X15311143Y-15058381D01*
X15301619Y-15077428D01*
X15292095Y-15086952D01*
X15273048Y-15096476D01*
X15244476Y-15096476D01*
X15425428Y-15096476D02*
X15406381Y-15086952D01*
X15396857Y-15067905D01*
X15396857Y-14896476D01*
X15577809Y-15086952D02*
X15558762Y-15096476D01*
X15520667Y-15096476D01*
X15501619Y-15086952D01*
X15492095Y-15067905D01*
X15492095Y-14991714D01*
X15501619Y-14972667D01*
X15520667Y-14963143D01*
X15558762Y-14963143D01*
X15577809Y-14972667D01*
X15587333Y-14991714D01*
X15587333Y-15010762D01*
X15492095Y-15029809D01*
X15663524Y-15086952D02*
X15682571Y-15096476D01*
X15720667Y-15096476D01*
X15739714Y-15086952D01*
X15749238Y-15067905D01*
X15749238Y-15058381D01*
X15739714Y-15039333D01*
X15720667Y-15029809D01*
X15692095Y-15029809D01*
X15673048Y-15020286D01*
X15663524Y-15001238D01*
X15663524Y-14991714D01*
X15673048Y-14972667D01*
X15692095Y-14963143D01*
X15720667Y-14963143D01*
X15739714Y-14972667D01*
X15815905Y-15172667D02*
X15825428Y-15163143D01*
X15844476Y-15134571D01*
X15854000Y-15115524D01*
X15863524Y-15086952D01*
X15873048Y-15039333D01*
X15873048Y-15001238D01*
X15863524Y-14953619D01*
X15854000Y-14925048D01*
X15844476Y-14906000D01*
X15825428Y-14877428D01*
X15815905Y-14867905D01*
D14*
X11004000Y-15230000D02*
X11004000Y-15310000D01*
X10964000Y-15270000D02*
X11044000Y-15270000D01*
D11*
X11339714Y-15160476D02*
X11358762Y-15160476D01*
X11377809Y-15170000D01*
X11387333Y-15179524D01*
X11396857Y-15198571D01*
X11406381Y-15236667D01*
X11406381Y-15284286D01*
X11396857Y-15322381D01*
X11387333Y-15341428D01*
X11377809Y-15350952D01*
X11358762Y-15360476D01*
X11339714Y-15360476D01*
X11320667Y-15350952D01*
X11311143Y-15341428D01*
X11301619Y-15322381D01*
X11292095Y-15284286D01*
X11292095Y-15236667D01*
X11301619Y-15198571D01*
X11311143Y-15179524D01*
X11320667Y-15170000D01*
X11339714Y-15160476D01*
X11492095Y-15341428D02*
X11501619Y-15350952D01*
X11492095Y-15360476D01*
X11482571Y-15350952D01*
X11492095Y-15341428D01*
X11492095Y-15360476D01*
X11615905Y-15246190D02*
X11596857Y-15236667D01*
X11587333Y-15227143D01*
X11577809Y-15208095D01*
X11577809Y-15198571D01*
X11587333Y-15179524D01*
X11596857Y-15170000D01*
X11615905Y-15160476D01*
X11654000Y-15160476D01*
X11673048Y-15170000D01*
X11682571Y-15179524D01*
X11692095Y-15198571D01*
X11692095Y-15208095D01*
X11682571Y-15227143D01*
X11673048Y-15236667D01*
X11654000Y-15246190D01*
X11615905Y-15246190D01*
X11596857Y-15255714D01*
X11587333Y-15265238D01*
X11577809Y-15284286D01*
X11577809Y-15322381D01*
X11587333Y-15341428D01*
X11596857Y-15350952D01*
X11615905Y-15360476D01*
X11654000Y-15360476D01*
X11673048Y-15350952D01*
X11682571Y-15341428D01*
X11692095Y-15322381D01*
X11692095Y-15284286D01*
X11682571Y-15265238D01*
X11673048Y-15255714D01*
X11654000Y-15246190D01*
X11815905Y-15160476D02*
X11834952Y-15160476D01*
X11854000Y-15170000D01*
X11863524Y-15179524D01*
X11873048Y-15198571D01*
X11882571Y-15236667D01*
X11882571Y-15284286D01*
X11873048Y-15322381D01*
X11863524Y-15341428D01*
X11854000Y-15350952D01*
X11834952Y-15360476D01*
X11815905Y-15360476D01*
X11796857Y-15350952D01*
X11787333Y-15341428D01*
X11777809Y-15322381D01*
X11768286Y-15284286D01*
X11768286Y-15236667D01*
X11777809Y-15198571D01*
X11787333Y-15179524D01*
X11796857Y-15170000D01*
X11815905Y-15160476D01*
X12006381Y-15160476D02*
X12025428Y-15160476D01*
X12044476Y-15170000D01*
X12054000Y-15179524D01*
X12063524Y-15198571D01*
X12073048Y-15236667D01*
X12073048Y-15284286D01*
X12063524Y-15322381D01*
X12054000Y-15341428D01*
X12044476Y-15350952D01*
X12025428Y-15360476D01*
X12006381Y-15360476D01*
X11987333Y-15350952D01*
X11977809Y-15341428D01*
X11968286Y-15322381D01*
X11958762Y-15284286D01*
X11958762Y-15236667D01*
X11968286Y-15198571D01*
X11977809Y-15179524D01*
X11987333Y-15170000D01*
X12006381Y-15160476D01*
X12158762Y-15360476D02*
X12158762Y-15227143D01*
X12158762Y-15246190D02*
X12168286Y-15236667D01*
X12187333Y-15227143D01*
X12215905Y-15227143D01*
X12234952Y-15236667D01*
X12244476Y-15255714D01*
X12244476Y-15360476D01*
X12244476Y-15255714D02*
X12254000Y-15236667D01*
X12273048Y-15227143D01*
X12301619Y-15227143D01*
X12320667Y-15236667D01*
X12330190Y-15255714D01*
X12330190Y-15360476D01*
X12425428Y-15360476D02*
X12425428Y-15227143D01*
X12425428Y-15246190D02*
X12434952Y-15236667D01*
X12454000Y-15227143D01*
X12482571Y-15227143D01*
X12501619Y-15236667D01*
X12511143Y-15255714D01*
X12511143Y-15360476D01*
X12511143Y-15255714D02*
X12520667Y-15236667D01*
X12539714Y-15227143D01*
X12568286Y-15227143D01*
X12587333Y-15236667D01*
X12596857Y-15255714D01*
X12596857Y-15360476D01*
X12987333Y-15150952D02*
X12815905Y-15408095D01*
X13244476Y-15160476D02*
X13263524Y-15160476D01*
X13282571Y-15170000D01*
X13292095Y-15179524D01*
X13301619Y-15198571D01*
X13311143Y-15236667D01*
X13311143Y-15284286D01*
X13301619Y-15322381D01*
X13292095Y-15341428D01*
X13282571Y-15350952D01*
X13263524Y-15360476D01*
X13244476Y-15360476D01*
X13225428Y-15350952D01*
X13215905Y-15341428D01*
X13206381Y-15322381D01*
X13196857Y-15284286D01*
X13196857Y-15236667D01*
X13206381Y-15198571D01*
X13215905Y-15179524D01*
X13225428Y-15170000D01*
X13244476Y-15160476D01*
X13396857Y-15341428D02*
X13406381Y-15350952D01*
X13396857Y-15360476D01*
X13387333Y-15350952D01*
X13396857Y-15341428D01*
X13396857Y-15360476D01*
X13530190Y-15160476D02*
X13549238Y-15160476D01*
X13568286Y-15170000D01*
X13577809Y-15179524D01*
X13587333Y-15198571D01*
X13596857Y-15236667D01*
X13596857Y-15284286D01*
X13587333Y-15322381D01*
X13577809Y-15341428D01*
X13568286Y-15350952D01*
X13549238Y-15360476D01*
X13530190Y-15360476D01*
X13511143Y-15350952D01*
X13501619Y-15341428D01*
X13492095Y-15322381D01*
X13482571Y-15284286D01*
X13482571Y-15236667D01*
X13492095Y-15198571D01*
X13501619Y-15179524D01*
X13511143Y-15170000D01*
X13530190Y-15160476D01*
X13663524Y-15160476D02*
X13787333Y-15160476D01*
X13720667Y-15236667D01*
X13749238Y-15236667D01*
X13768286Y-15246190D01*
X13777809Y-15255714D01*
X13787333Y-15274762D01*
X13787333Y-15322381D01*
X13777809Y-15341428D01*
X13768286Y-15350952D01*
X13749238Y-15360476D01*
X13692095Y-15360476D01*
X13673048Y-15350952D01*
X13663524Y-15341428D01*
X13977809Y-15360476D02*
X13863524Y-15360476D01*
X13920667Y-15360476D02*
X13920667Y-15160476D01*
X13901619Y-15189048D01*
X13882571Y-15208095D01*
X13863524Y-15217619D01*
X14158762Y-15160476D02*
X14063524Y-15160476D01*
X14054000Y-15255714D01*
X14063524Y-15246190D01*
X14082571Y-15236667D01*
X14130190Y-15236667D01*
X14149238Y-15246190D01*
X14158762Y-15255714D01*
X14168286Y-15274762D01*
X14168286Y-15322381D01*
X14158762Y-15341428D01*
X14149238Y-15350952D01*
X14130190Y-15360476D01*
X14082571Y-15360476D01*
X14063524Y-15350952D01*
X14054000Y-15341428D01*
X14244476Y-15160476D02*
X14244476Y-15198571D01*
X14320667Y-15160476D02*
X14320667Y-15198571D01*
X14615905Y-15436667D02*
X14606381Y-15427143D01*
X14587333Y-15398571D01*
X14577809Y-15379524D01*
X14568286Y-15350952D01*
X14558762Y-15303333D01*
X14558762Y-15265238D01*
X14568286Y-15217619D01*
X14577809Y-15189048D01*
X14587333Y-15170000D01*
X14606381Y-15141428D01*
X14615905Y-15131905D01*
X14673048Y-15160476D02*
X14796857Y-15160476D01*
X14730190Y-15236667D01*
X14758762Y-15236667D01*
X14777809Y-15246190D01*
X14787333Y-15255714D01*
X14796857Y-15274762D01*
X14796857Y-15322381D01*
X14787333Y-15341428D01*
X14777809Y-15350952D01*
X14758762Y-15360476D01*
X14701619Y-15360476D01*
X14682571Y-15350952D01*
X14673048Y-15341428D01*
X15034952Y-15360476D02*
X15034952Y-15160476D01*
X15120667Y-15360476D02*
X15120667Y-15255714D01*
X15111143Y-15236667D01*
X15092095Y-15227143D01*
X15063524Y-15227143D01*
X15044476Y-15236667D01*
X15034952Y-15246190D01*
X15244476Y-15360476D02*
X15225428Y-15350952D01*
X15215905Y-15341428D01*
X15206381Y-15322381D01*
X15206381Y-15265238D01*
X15215905Y-15246190D01*
X15225428Y-15236667D01*
X15244476Y-15227143D01*
X15273048Y-15227143D01*
X15292095Y-15236667D01*
X15301619Y-15246190D01*
X15311143Y-15265238D01*
X15311143Y-15322381D01*
X15301619Y-15341428D01*
X15292095Y-15350952D01*
X15273048Y-15360476D01*
X15244476Y-15360476D01*
X15425428Y-15360476D02*
X15406381Y-15350952D01*
X15396857Y-15331905D01*
X15396857Y-15160476D01*
X15577809Y-15350952D02*
X15558762Y-15360476D01*
X15520667Y-15360476D01*
X15501619Y-15350952D01*
X15492095Y-15331905D01*
X15492095Y-15255714D01*
X15501619Y-15236667D01*
X15520667Y-15227143D01*
X15558762Y-15227143D01*
X15577809Y-15236667D01*
X15587333Y-15255714D01*
X15587333Y-15274762D01*
X15492095Y-15293809D01*
X15663524Y-15350952D02*
X15682571Y-15360476D01*
X15720667Y-15360476D01*
X15739714Y-15350952D01*
X15749238Y-15331905D01*
X15749238Y-15322381D01*
X15739714Y-15303333D01*
X15720667Y-15293809D01*
X15692095Y-15293809D01*
X15673048Y-15284286D01*
X15663524Y-15265238D01*
X15663524Y-15255714D01*
X15673048Y-15236667D01*
X15692095Y-15227143D01*
X15720667Y-15227143D01*
X15739714Y-15236667D01*
X15815905Y-15436667D02*
X15825428Y-15427143D01*
X15844476Y-15398571D01*
X15854000Y-15379524D01*
X15863524Y-15350952D01*
X15873048Y-15303333D01*
X15873048Y-15265238D01*
X15863524Y-15217619D01*
X15854000Y-15189048D01*
X15844476Y-15170000D01*
X15825428Y-15141428D01*
X15815905Y-15131905D01*
D15*
X11030820Y-15565820D02*
X11030820Y-15502180D01*
X10967180Y-15502180D01*
X10967180Y-15565820D01*
X11030820Y-15565820D01*
D11*
X11339714Y-15424476D02*
X11358762Y-15424476D01*
X11377809Y-15434000D01*
X11387333Y-15443524D01*
X11396857Y-15462571D01*
X11406381Y-15500667D01*
X11406381Y-15548286D01*
X11396857Y-15586381D01*
X11387333Y-15605428D01*
X11377809Y-15614952D01*
X11358762Y-15624476D01*
X11339714Y-15624476D01*
X11320667Y-15614952D01*
X11311143Y-15605428D01*
X11301619Y-15586381D01*
X11292095Y-15548286D01*
X11292095Y-15500667D01*
X11301619Y-15462571D01*
X11311143Y-15443524D01*
X11320667Y-15434000D01*
X11339714Y-15424476D01*
X11492095Y-15605428D02*
X11501619Y-15614952D01*
X11492095Y-15624476D01*
X11482571Y-15614952D01*
X11492095Y-15605428D01*
X11492095Y-15624476D01*
X11596857Y-15624476D02*
X11634952Y-15624476D01*
X11654000Y-15614952D01*
X11663524Y-15605428D01*
X11682571Y-15576857D01*
X11692095Y-15538762D01*
X11692095Y-15462571D01*
X11682571Y-15443524D01*
X11673048Y-15434000D01*
X11654000Y-15424476D01*
X11615905Y-15424476D01*
X11596857Y-15434000D01*
X11587333Y-15443524D01*
X11577809Y-15462571D01*
X11577809Y-15510190D01*
X11587333Y-15529238D01*
X11596857Y-15538762D01*
X11615905Y-15548286D01*
X11654000Y-15548286D01*
X11673048Y-15538762D01*
X11682571Y-15529238D01*
X11692095Y-15510190D01*
X11815905Y-15424476D02*
X11834952Y-15424476D01*
X11854000Y-15434000D01*
X11863524Y-15443524D01*
X11873048Y-15462571D01*
X11882571Y-15500667D01*
X11882571Y-15548286D01*
X11873048Y-15586381D01*
X11863524Y-15605428D01*
X11854000Y-15614952D01*
X11834952Y-15624476D01*
X11815905Y-15624476D01*
X11796857Y-15614952D01*
X11787333Y-15605428D01*
X11777809Y-15586381D01*
X11768286Y-15548286D01*
X11768286Y-15500667D01*
X11777809Y-15462571D01*
X11787333Y-15443524D01*
X11796857Y-15434000D01*
X11815905Y-15424476D01*
X12006381Y-15424476D02*
X12025428Y-15424476D01*
X12044476Y-15434000D01*
X12054000Y-15443524D01*
X12063524Y-15462571D01*
X12073048Y-15500667D01*
X12073048Y-15548286D01*
X12063524Y-15586381D01*
X12054000Y-15605428D01*
X12044476Y-15614952D01*
X12025428Y-15624476D01*
X12006381Y-15624476D01*
X11987333Y-15614952D01*
X11977809Y-15605428D01*
X11968286Y-15586381D01*
X11958762Y-15548286D01*
X11958762Y-15500667D01*
X11968286Y-15462571D01*
X11977809Y-15443524D01*
X11987333Y-15434000D01*
X12006381Y-15424476D01*
X12158762Y-15624476D02*
X12158762Y-15491143D01*
X12158762Y-15510190D02*
X12168286Y-15500667D01*
X12187333Y-15491143D01*
X12215905Y-15491143D01*
X12234952Y-15500667D01*
X12244476Y-15519714D01*
X12244476Y-15624476D01*
X12244476Y-15519714D02*
X12254000Y-15500667D01*
X12273048Y-15491143D01*
X12301619Y-15491143D01*
X12320667Y-15500667D01*
X12330190Y-15519714D01*
X12330190Y-15624476D01*
X12425428Y-15624476D02*
X12425428Y-15491143D01*
X12425428Y-15510190D02*
X12434952Y-15500667D01*
X12454000Y-15491143D01*
X12482571Y-15491143D01*
X12501619Y-15500667D01*
X12511143Y-15519714D01*
X12511143Y-15624476D01*
X12511143Y-15519714D02*
X12520667Y-15500667D01*
X12539714Y-15491143D01*
X12568286Y-15491143D01*
X12587333Y-15500667D01*
X12596857Y-15519714D01*
X12596857Y-15624476D01*
X12987333Y-15414952D02*
X12815905Y-15672095D01*
X13244476Y-15424476D02*
X13263524Y-15424476D01*
X13282571Y-15434000D01*
X13292095Y-15443524D01*
X13301619Y-15462571D01*
X13311143Y-15500667D01*
X13311143Y-15548286D01*
X13301619Y-15586381D01*
X13292095Y-15605428D01*
X13282571Y-15614952D01*
X13263524Y-15624476D01*
X13244476Y-15624476D01*
X13225428Y-15614952D01*
X13215905Y-15605428D01*
X13206381Y-15586381D01*
X13196857Y-15548286D01*
X13196857Y-15500667D01*
X13206381Y-15462571D01*
X13215905Y-15443524D01*
X13225428Y-15434000D01*
X13244476Y-15424476D01*
X13396857Y-15605428D02*
X13406381Y-15614952D01*
X13396857Y-15624476D01*
X13387333Y-15614952D01*
X13396857Y-15605428D01*
X13396857Y-15624476D01*
X13530190Y-15424476D02*
X13549238Y-15424476D01*
X13568286Y-15434000D01*
X13577809Y-15443524D01*
X13587333Y-15462571D01*
X13596857Y-15500667D01*
X13596857Y-15548286D01*
X13587333Y-15586381D01*
X13577809Y-15605428D01*
X13568286Y-15614952D01*
X13549238Y-15624476D01*
X13530190Y-15624476D01*
X13511143Y-15614952D01*
X13501619Y-15605428D01*
X13492095Y-15586381D01*
X13482571Y-15548286D01*
X13482571Y-15500667D01*
X13492095Y-15462571D01*
X13501619Y-15443524D01*
X13511143Y-15434000D01*
X13530190Y-15424476D01*
X13663524Y-15424476D02*
X13787333Y-15424476D01*
X13720667Y-15500667D01*
X13749238Y-15500667D01*
X13768286Y-15510190D01*
X13777809Y-15519714D01*
X13787333Y-15538762D01*
X13787333Y-15586381D01*
X13777809Y-15605428D01*
X13768286Y-15614952D01*
X13749238Y-15624476D01*
X13692095Y-15624476D01*
X13673048Y-15614952D01*
X13663524Y-15605428D01*
X13968286Y-15424476D02*
X13873048Y-15424476D01*
X13863524Y-15519714D01*
X13873048Y-15510190D01*
X13892095Y-15500667D01*
X13939714Y-15500667D01*
X13958762Y-15510190D01*
X13968286Y-15519714D01*
X13977809Y-15538762D01*
X13977809Y-15586381D01*
X13968286Y-15605428D01*
X13958762Y-15614952D01*
X13939714Y-15624476D01*
X13892095Y-15624476D01*
X13873048Y-15614952D01*
X13863524Y-15605428D01*
X14149238Y-15491143D02*
X14149238Y-15624476D01*
X14101619Y-15414952D02*
X14054000Y-15557809D01*
X14177809Y-15557809D01*
X14244476Y-15424476D02*
X14244476Y-15462571D01*
X14320667Y-15424476D02*
X14320667Y-15462571D01*
X14615905Y-15700667D02*
X14606381Y-15691143D01*
X14587333Y-15662571D01*
X14577809Y-15643524D01*
X14568286Y-15614952D01*
X14558762Y-15567333D01*
X14558762Y-15529238D01*
X14568286Y-15481619D01*
X14577809Y-15453048D01*
X14587333Y-15434000D01*
X14606381Y-15405428D01*
X14615905Y-15395905D01*
X14682571Y-15443524D02*
X14692095Y-15434000D01*
X14711143Y-15424476D01*
X14758762Y-15424476D01*
X14777809Y-15434000D01*
X14787333Y-15443524D01*
X14796857Y-15462571D01*
X14796857Y-15481619D01*
X14787333Y-15510190D01*
X14673048Y-15624476D01*
X14796857Y-15624476D01*
X15034952Y-15624476D02*
X15034952Y-15424476D01*
X15120667Y-15624476D02*
X15120667Y-15519714D01*
X15111143Y-15500667D01*
X15092095Y-15491143D01*
X15063524Y-15491143D01*
X15044476Y-15500667D01*
X15034952Y-15510190D01*
X15244476Y-15624476D02*
X15225428Y-15614952D01*
X15215905Y-15605428D01*
X15206381Y-15586381D01*
X15206381Y-15529238D01*
X15215905Y-15510190D01*
X15225428Y-15500667D01*
X15244476Y-15491143D01*
X15273048Y-15491143D01*
X15292095Y-15500667D01*
X15301619Y-15510190D01*
X15311143Y-15529238D01*
X15311143Y-15586381D01*
X15301619Y-15605428D01*
X15292095Y-15614952D01*
X15273048Y-15624476D01*
X15244476Y-15624476D01*
X15425428Y-15624476D02*
X15406381Y-15614952D01*
X15396857Y-15595905D01*
X15396857Y-15424476D01*
X15577809Y-15614952D02*
X15558762Y-15624476D01*
X15520667Y-15624476D01*
X15501619Y-15614952D01*
X15492095Y-15595905D01*
X15492095Y-15519714D01*
X15501619Y-15500667D01*
X15520667Y-15491143D01*
X15558762Y-15491143D01*
X15577809Y-15500667D01*
X15587333Y-15519714D01*
X15587333Y-15538762D01*
X15492095Y-15557809D01*
X15663524Y-15614952D02*
X15682571Y-15624476D01*
X15720667Y-15624476D01*
X15739714Y-15614952D01*
X15749238Y-15595905D01*
X15749238Y-15586381D01*
X15739714Y-15567333D01*
X15720667Y-15557809D01*
X15692095Y-15557809D01*
X15673048Y-15548286D01*
X15663524Y-15529238D01*
X15663524Y-15519714D01*
X15673048Y-15500667D01*
X15692095Y-15491143D01*
X15720667Y-15491143D01*
X15739714Y-15500667D01*
X15815905Y-15700667D02*
X15825428Y-15691143D01*
X15844476Y-15662571D01*
X15854000Y-15643524D01*
X15863524Y-15614952D01*
X15873048Y-15567333D01*
X15873048Y-15529238D01*
X15863524Y-15481619D01*
X15854000Y-15453048D01*
X15844476Y-15434000D01*
X15825428Y-15405428D01*
X15815905Y-15395905D01*
D16*
X10994000Y-15848000D02*
X11044000Y-15798000D01*
X10994000Y-15748000D01*
X10944000Y-15798000D01*
X10994000Y-15848000D01*
D11*
X11406381Y-15888476D02*
X11292095Y-15888476D01*
X11349238Y-15888476D02*
X11349238Y-15688476D01*
X11330190Y-15717048D01*
X11311143Y-15736095D01*
X11292095Y-15745619D01*
X11492095Y-15869428D02*
X11501619Y-15878952D01*
X11492095Y-15888476D01*
X11482571Y-15878952D01*
X11492095Y-15869428D01*
X11492095Y-15888476D01*
X11625428Y-15688476D02*
X11644476Y-15688476D01*
X11663524Y-15698000D01*
X11673048Y-15707524D01*
X11682571Y-15726571D01*
X11692095Y-15764667D01*
X11692095Y-15812286D01*
X11682571Y-15850381D01*
X11673048Y-15869428D01*
X11663524Y-15878952D01*
X11644476Y-15888476D01*
X11625428Y-15888476D01*
X11606381Y-15878952D01*
X11596857Y-15869428D01*
X11587333Y-15850381D01*
X11577809Y-15812286D01*
X11577809Y-15764667D01*
X11587333Y-15726571D01*
X11596857Y-15707524D01*
X11606381Y-15698000D01*
X11625428Y-15688476D01*
X11815905Y-15688476D02*
X11834952Y-15688476D01*
X11854000Y-15698000D01*
X11863524Y-15707524D01*
X11873048Y-15726571D01*
X11882571Y-15764667D01*
X11882571Y-15812286D01*
X11873048Y-15850381D01*
X11863524Y-15869428D01*
X11854000Y-15878952D01*
X11834952Y-15888476D01*
X11815905Y-15888476D01*
X11796857Y-15878952D01*
X11787333Y-15869428D01*
X11777809Y-15850381D01*
X11768286Y-15812286D01*
X11768286Y-15764667D01*
X11777809Y-15726571D01*
X11787333Y-15707524D01*
X11796857Y-15698000D01*
X11815905Y-15688476D01*
X12006381Y-15688476D02*
X12025428Y-15688476D01*
X12044476Y-15698000D01*
X12054000Y-15707524D01*
X12063524Y-15726571D01*
X12073048Y-15764667D01*
X12073048Y-15812286D01*
X12063524Y-15850381D01*
X12054000Y-15869428D01*
X12044476Y-15878952D01*
X12025428Y-15888476D01*
X12006381Y-15888476D01*
X11987333Y-15878952D01*
X11977809Y-15869428D01*
X11968286Y-15850381D01*
X11958762Y-15812286D01*
X11958762Y-15764667D01*
X11968286Y-15726571D01*
X11977809Y-15707524D01*
X11987333Y-15698000D01*
X12006381Y-15688476D01*
X12158762Y-15888476D02*
X12158762Y-15755143D01*
X12158762Y-15774190D02*
X12168286Y-15764667D01*
X12187333Y-15755143D01*
X12215905Y-15755143D01*
X12234952Y-15764667D01*
X12244476Y-15783714D01*
X12244476Y-15888476D01*
X12244476Y-15783714D02*
X12254000Y-15764667D01*
X12273048Y-15755143D01*
X12301619Y-15755143D01*
X12320667Y-15764667D01*
X12330190Y-15783714D01*
X12330190Y-15888476D01*
X12425428Y-15888476D02*
X12425428Y-15755143D01*
X12425428Y-15774190D02*
X12434952Y-15764667D01*
X12454000Y-15755143D01*
X12482571Y-15755143D01*
X12501619Y-15764667D01*
X12511143Y-15783714D01*
X12511143Y-15888476D01*
X12511143Y-15783714D02*
X12520667Y-15764667D01*
X12539714Y-15755143D01*
X12568286Y-15755143D01*
X12587333Y-15764667D01*
X12596857Y-15783714D01*
X12596857Y-15888476D01*
X12987333Y-15678952D02*
X12815905Y-15936095D01*
X13244476Y-15688476D02*
X13263524Y-15688476D01*
X13282571Y-15698000D01*
X13292095Y-15707524D01*
X13301619Y-15726571D01*
X13311143Y-15764667D01*
X13311143Y-15812286D01*
X13301619Y-15850381D01*
X13292095Y-15869428D01*
X13282571Y-15878952D01*
X13263524Y-15888476D01*
X13244476Y-15888476D01*
X13225428Y-15878952D01*
X13215905Y-15869428D01*
X13206381Y-15850381D01*
X13196857Y-15812286D01*
X13196857Y-15764667D01*
X13206381Y-15726571D01*
X13215905Y-15707524D01*
X13225428Y-15698000D01*
X13244476Y-15688476D01*
X13396857Y-15869428D02*
X13406381Y-15878952D01*
X13396857Y-15888476D01*
X13387333Y-15878952D01*
X13396857Y-15869428D01*
X13396857Y-15888476D01*
X13530190Y-15688476D02*
X13549238Y-15688476D01*
X13568286Y-15698000D01*
X13577809Y-15707524D01*
X13587333Y-15726571D01*
X13596857Y-15764667D01*
X13596857Y-15812286D01*
X13587333Y-15850381D01*
X13577809Y-15869428D01*
X13568286Y-15878952D01*
X13549238Y-15888476D01*
X13530190Y-15888476D01*
X13511143Y-15878952D01*
X13501619Y-15869428D01*
X13492095Y-15850381D01*
X13482571Y-15812286D01*
X13482571Y-15764667D01*
X13492095Y-15726571D01*
X13501619Y-15707524D01*
X13511143Y-15698000D01*
X13530190Y-15688476D01*
X13663524Y-15688476D02*
X13787333Y-15688476D01*
X13720667Y-15764667D01*
X13749238Y-15764667D01*
X13768286Y-15774190D01*
X13777809Y-15783714D01*
X13787333Y-15802762D01*
X13787333Y-15850381D01*
X13777809Y-15869428D01*
X13768286Y-15878952D01*
X13749238Y-15888476D01*
X13692095Y-15888476D01*
X13673048Y-15878952D01*
X13663524Y-15869428D01*
X13882571Y-15888476D02*
X13920667Y-15888476D01*
X13939714Y-15878952D01*
X13949238Y-15869428D01*
X13968286Y-15840857D01*
X13977809Y-15802762D01*
X13977809Y-15726571D01*
X13968286Y-15707524D01*
X13958762Y-15698000D01*
X13939714Y-15688476D01*
X13901619Y-15688476D01*
X13882571Y-15698000D01*
X13873048Y-15707524D01*
X13863524Y-15726571D01*
X13863524Y-15774190D01*
X13873048Y-15793238D01*
X13882571Y-15802762D01*
X13901619Y-15812286D01*
X13939714Y-15812286D01*
X13958762Y-15802762D01*
X13968286Y-15793238D01*
X13977809Y-15774190D01*
X14149238Y-15755143D02*
X14149238Y-15888476D01*
X14101619Y-15678952D02*
X14054000Y-15821809D01*
X14177809Y-15821809D01*
X14244476Y-15688476D02*
X14244476Y-15726571D01*
X14320667Y-15688476D02*
X14320667Y-15726571D01*
X14615905Y-15964667D02*
X14606381Y-15955143D01*
X14587333Y-15926571D01*
X14577809Y-15907524D01*
X14568286Y-15878952D01*
X14558762Y-15831333D01*
X14558762Y-15793238D01*
X14568286Y-15745619D01*
X14577809Y-15717048D01*
X14587333Y-15698000D01*
X14606381Y-15669428D01*
X14615905Y-15659905D01*
X14777809Y-15755143D02*
X14777809Y-15888476D01*
X14730190Y-15678952D02*
X14682571Y-15821809D01*
X14806381Y-15821809D01*
X15034952Y-15888476D02*
X15034952Y-15688476D01*
X15120667Y-15888476D02*
X15120667Y-15783714D01*
X15111143Y-15764667D01*
X15092095Y-15755143D01*
X15063524Y-15755143D01*
X15044476Y-15764667D01*
X15034952Y-15774190D01*
X15244476Y-15888476D02*
X15225428Y-15878952D01*
X15215905Y-15869428D01*
X15206381Y-15850381D01*
X15206381Y-15793238D01*
X15215905Y-15774190D01*
X15225428Y-15764667D01*
X15244476Y-15755143D01*
X15273048Y-15755143D01*
X15292095Y-15764667D01*
X15301619Y-15774190D01*
X15311143Y-15793238D01*
X15311143Y-15850381D01*
X15301619Y-15869428D01*
X15292095Y-15878952D01*
X15273048Y-15888476D01*
X15244476Y-15888476D01*
X15425428Y-15888476D02*
X15406381Y-15878952D01*
X15396857Y-15859905D01*
X15396857Y-15688476D01*
X15577809Y-15878952D02*
X15558762Y-15888476D01*
X15520667Y-15888476D01*
X15501619Y-15878952D01*
X15492095Y-15859905D01*
X15492095Y-15783714D01*
X15501619Y-15764667D01*
X15520667Y-15755143D01*
X15558762Y-15755143D01*
X15577809Y-15764667D01*
X15587333Y-15783714D01*
X15587333Y-15802762D01*
X15492095Y-15821809D01*
X15663524Y-15878952D02*
X15682571Y-15888476D01*
X15720667Y-15888476D01*
X15739714Y-15878952D01*
X15749238Y-15859905D01*
X15749238Y-15850381D01*
X15739714Y-15831333D01*
X15720667Y-15821809D01*
X15692095Y-15821809D01*
X15673048Y-15812286D01*
X15663524Y-15793238D01*
X15663524Y-15783714D01*
X15673048Y-15764667D01*
X15692095Y-15755143D01*
X15720667Y-15755143D01*
X15739714Y-15764667D01*
X15815905Y-15964667D02*
X15825428Y-15955143D01*
X15844476Y-15926571D01*
X15854000Y-15907524D01*
X15863524Y-15878952D01*
X15873048Y-15831333D01*
X15873048Y-15793238D01*
X15863524Y-15745619D01*
X15854000Y-15717048D01*
X15844476Y-15698000D01*
X15825428Y-15669428D01*
X15815905Y-15659905D01*
D17*
X10942000Y-16011000D02*
X11044000Y-16113000D01*
X11044000Y-16011000D02*
X10942000Y-16113000D01*
X11044000Y-16062000D02*
G75*
G03*
X11044000Y-16062000I-51000J0D01*
G01*
D11*
X11406381Y-16152476D02*
X11292095Y-16152476D01*
X11349238Y-16152476D02*
X11349238Y-15952476D01*
X11330190Y-15981048D01*
X11311143Y-16000095D01*
X11292095Y-16009619D01*
X11492095Y-16133428D02*
X11501619Y-16142952D01*
X11492095Y-16152476D01*
X11482571Y-16142952D01*
X11492095Y-16133428D01*
X11492095Y-16152476D01*
X11625428Y-15952476D02*
X11644476Y-15952476D01*
X11663524Y-15962000D01*
X11673048Y-15971524D01*
X11682571Y-15990571D01*
X11692095Y-16028667D01*
X11692095Y-16076286D01*
X11682571Y-16114381D01*
X11673048Y-16133428D01*
X11663524Y-16142952D01*
X11644476Y-16152476D01*
X11625428Y-16152476D01*
X11606381Y-16142952D01*
X11596857Y-16133428D01*
X11587333Y-16114381D01*
X11577809Y-16076286D01*
X11577809Y-16028667D01*
X11587333Y-15990571D01*
X11596857Y-15971524D01*
X11606381Y-15962000D01*
X11625428Y-15952476D01*
X11768286Y-15971524D02*
X11777809Y-15962000D01*
X11796857Y-15952476D01*
X11844476Y-15952476D01*
X11863524Y-15962000D01*
X11873048Y-15971524D01*
X11882571Y-15990571D01*
X11882571Y-16009619D01*
X11873048Y-16038190D01*
X11758762Y-16152476D01*
X11882571Y-16152476D01*
X12006381Y-15952476D02*
X12025428Y-15952476D01*
X12044476Y-15962000D01*
X12054000Y-15971524D01*
X12063524Y-15990571D01*
X12073048Y-16028667D01*
X12073048Y-16076286D01*
X12063524Y-16114381D01*
X12054000Y-16133428D01*
X12044476Y-16142952D01*
X12025428Y-16152476D01*
X12006381Y-16152476D01*
X11987333Y-16142952D01*
X11977809Y-16133428D01*
X11968286Y-16114381D01*
X11958762Y-16076286D01*
X11958762Y-16028667D01*
X11968286Y-15990571D01*
X11977809Y-15971524D01*
X11987333Y-15962000D01*
X12006381Y-15952476D01*
X12158762Y-16152476D02*
X12158762Y-16019143D01*
X12158762Y-16038190D02*
X12168286Y-16028667D01*
X12187333Y-16019143D01*
X12215905Y-16019143D01*
X12234952Y-16028667D01*
X12244476Y-16047714D01*
X12244476Y-16152476D01*
X12244476Y-16047714D02*
X12254000Y-16028667D01*
X12273048Y-16019143D01*
X12301619Y-16019143D01*
X12320667Y-16028667D01*
X12330190Y-16047714D01*
X12330190Y-16152476D01*
X12425428Y-16152476D02*
X12425428Y-16019143D01*
X12425428Y-16038190D02*
X12434952Y-16028667D01*
X12454000Y-16019143D01*
X12482571Y-16019143D01*
X12501619Y-16028667D01*
X12511143Y-16047714D01*
X12511143Y-16152476D01*
X12511143Y-16047714D02*
X12520667Y-16028667D01*
X12539714Y-16019143D01*
X12568286Y-16019143D01*
X12587333Y-16028667D01*
X12596857Y-16047714D01*
X12596857Y-16152476D01*
X12987333Y-15942952D02*
X12815905Y-16200095D01*
X13244476Y-15952476D02*
X13263524Y-15952476D01*
X13282571Y-15962000D01*
X13292095Y-15971524D01*
X13301619Y-15990571D01*
X13311143Y-16028667D01*
X13311143Y-16076286D01*
X13301619Y-16114381D01*
X13292095Y-16133428D01*
X13282571Y-16142952D01*
X13263524Y-16152476D01*
X13244476Y-16152476D01*
X13225428Y-16142952D01*
X13215905Y-16133428D01*
X13206381Y-16114381D01*
X13196857Y-16076286D01*
X13196857Y-16028667D01*
X13206381Y-15990571D01*
X13215905Y-15971524D01*
X13225428Y-15962000D01*
X13244476Y-15952476D01*
X13396857Y-16133428D02*
X13406381Y-16142952D01*
X13396857Y-16152476D01*
X13387333Y-16142952D01*
X13396857Y-16133428D01*
X13396857Y-16152476D01*
X13530190Y-15952476D02*
X13549238Y-15952476D01*
X13568286Y-15962000D01*
X13577809Y-15971524D01*
X13587333Y-15990571D01*
X13596857Y-16028667D01*
X13596857Y-16076286D01*
X13587333Y-16114381D01*
X13577809Y-16133428D01*
X13568286Y-16142952D01*
X13549238Y-16152476D01*
X13530190Y-16152476D01*
X13511143Y-16142952D01*
X13501619Y-16133428D01*
X13492095Y-16114381D01*
X13482571Y-16076286D01*
X13482571Y-16028667D01*
X13492095Y-15990571D01*
X13501619Y-15971524D01*
X13511143Y-15962000D01*
X13530190Y-15952476D01*
X13768286Y-16019143D02*
X13768286Y-16152476D01*
X13720667Y-15942952D02*
X13673048Y-16085809D01*
X13796857Y-16085809D01*
X13911143Y-15952476D02*
X13930190Y-15952476D01*
X13949238Y-15962000D01*
X13958762Y-15971524D01*
X13968286Y-15990571D01*
X13977809Y-16028667D01*
X13977809Y-16076286D01*
X13968286Y-16114381D01*
X13958762Y-16133428D01*
X13949238Y-16142952D01*
X13930190Y-16152476D01*
X13911143Y-16152476D01*
X13892095Y-16142952D01*
X13882571Y-16133428D01*
X13873048Y-16114381D01*
X13863524Y-16076286D01*
X13863524Y-16028667D01*
X13873048Y-15990571D01*
X13882571Y-15971524D01*
X13892095Y-15962000D01*
X13911143Y-15952476D01*
X14054000Y-15971524D02*
X14063524Y-15962000D01*
X14082571Y-15952476D01*
X14130190Y-15952476D01*
X14149238Y-15962000D01*
X14158762Y-15971524D01*
X14168286Y-15990571D01*
X14168286Y-16009619D01*
X14158762Y-16038190D01*
X14044476Y-16152476D01*
X14168286Y-16152476D01*
X14244476Y-15952476D02*
X14244476Y-15990571D01*
X14320667Y-15952476D02*
X14320667Y-15990571D01*
X14615905Y-16228667D02*
X14606381Y-16219143D01*
X14587333Y-16190571D01*
X14577809Y-16171524D01*
X14568286Y-16142952D01*
X14558762Y-16095333D01*
X14558762Y-16057238D01*
X14568286Y-16009619D01*
X14577809Y-15981048D01*
X14587333Y-15962000D01*
X14606381Y-15933428D01*
X14615905Y-15923905D01*
X14777809Y-16019143D02*
X14777809Y-16152476D01*
X14730190Y-15942952D02*
X14682571Y-16085809D01*
X14806381Y-16085809D01*
X14863524Y-15952476D02*
X14987333Y-15952476D01*
X14920667Y-16028667D01*
X14949238Y-16028667D01*
X14968286Y-16038190D01*
X14977809Y-16047714D01*
X14987333Y-16066762D01*
X14987333Y-16114381D01*
X14977809Y-16133428D01*
X14968286Y-16142952D01*
X14949238Y-16152476D01*
X14892095Y-16152476D01*
X14873048Y-16142952D01*
X14863524Y-16133428D01*
X15225428Y-16152476D02*
X15225428Y-15952476D01*
X15311143Y-16152476D02*
X15311143Y-16047714D01*
X15301619Y-16028667D01*
X15282571Y-16019143D01*
X15254000Y-16019143D01*
X15234952Y-16028667D01*
X15225428Y-16038190D01*
X15434952Y-16152476D02*
X15415905Y-16142952D01*
X15406381Y-16133428D01*
X15396857Y-16114381D01*
X15396857Y-16057238D01*
X15406381Y-16038190D01*
X15415905Y-16028667D01*
X15434952Y-16019143D01*
X15463524Y-16019143D01*
X15482571Y-16028667D01*
X15492095Y-16038190D01*
X15501619Y-16057238D01*
X15501619Y-16114381D01*
X15492095Y-16133428D01*
X15482571Y-16142952D01*
X15463524Y-16152476D01*
X15434952Y-16152476D01*
X15615905Y-16152476D02*
X15596857Y-16142952D01*
X15587333Y-16123905D01*
X15587333Y-15952476D01*
X15768286Y-16142952D02*
X15749238Y-16152476D01*
X15711143Y-16152476D01*
X15692095Y-16142952D01*
X15682571Y-16123905D01*
X15682571Y-16047714D01*
X15692095Y-16028667D01*
X15711143Y-16019143D01*
X15749238Y-16019143D01*
X15768286Y-16028667D01*
X15777809Y-16047714D01*
X15777809Y-16066762D01*
X15682571Y-16085809D01*
X15854000Y-16142952D02*
X15873048Y-16152476D01*
X15911143Y-16152476D01*
X15930190Y-16142952D01*
X15939714Y-16123905D01*
X15939714Y-16114381D01*
X15930190Y-16095333D01*
X15911143Y-16085809D01*
X15882571Y-16085809D01*
X15863524Y-16076286D01*
X15854000Y-16057238D01*
X15854000Y-16047714D01*
X15863524Y-16028667D01*
X15882571Y-16019143D01*
X15911143Y-16019143D01*
X15930190Y-16028667D01*
X16006381Y-16228667D02*
X16015905Y-16219143D01*
X16034952Y-16190571D01*
X16044476Y-16171524D01*
X16054000Y-16142952D01*
X16063524Y-16095333D01*
X16063524Y-16057238D01*
X16054000Y-16009619D01*
X16044476Y-15981048D01*
X16034952Y-15962000D01*
X16015905Y-15933428D01*
X16006381Y-15923905D01*
D18*
X10924000Y-16266000D02*
X11044000Y-16386000D01*
X11044000Y-16266000D02*
X10924000Y-16386000D01*
X10984000Y-16266000D02*
X10984000Y-16386000D01*
X10924000Y-16326000D02*
X11044000Y-16326000D01*
D11*
X11406381Y-16416476D02*
X11292095Y-16416476D01*
X11349238Y-16416476D02*
X11349238Y-16216476D01*
X11330190Y-16245048D01*
X11311143Y-16264095D01*
X11292095Y-16273619D01*
X11492095Y-16397428D02*
X11501619Y-16406952D01*
X11492095Y-16416476D01*
X11482571Y-16406952D01*
X11492095Y-16397428D01*
X11492095Y-16416476D01*
X11577809Y-16235524D02*
X11587333Y-16226000D01*
X11606381Y-16216476D01*
X11654000Y-16216476D01*
X11673048Y-16226000D01*
X11682571Y-16235524D01*
X11692095Y-16254571D01*
X11692095Y-16273619D01*
X11682571Y-16302190D01*
X11568286Y-16416476D01*
X11692095Y-16416476D01*
X11815905Y-16216476D02*
X11834952Y-16216476D01*
X11854000Y-16226000D01*
X11863524Y-16235524D01*
X11873048Y-16254571D01*
X11882571Y-16292667D01*
X11882571Y-16340286D01*
X11873048Y-16378381D01*
X11863524Y-16397428D01*
X11854000Y-16406952D01*
X11834952Y-16416476D01*
X11815905Y-16416476D01*
X11796857Y-16406952D01*
X11787333Y-16397428D01*
X11777809Y-16378381D01*
X11768286Y-16340286D01*
X11768286Y-16292667D01*
X11777809Y-16254571D01*
X11787333Y-16235524D01*
X11796857Y-16226000D01*
X11815905Y-16216476D01*
X12006381Y-16216476D02*
X12025428Y-16216476D01*
X12044476Y-16226000D01*
X12054000Y-16235524D01*
X12063524Y-16254571D01*
X12073048Y-16292667D01*
X12073048Y-16340286D01*
X12063524Y-16378381D01*
X12054000Y-16397428D01*
X12044476Y-16406952D01*
X12025428Y-16416476D01*
X12006381Y-16416476D01*
X11987333Y-16406952D01*
X11977809Y-16397428D01*
X11968286Y-16378381D01*
X11958762Y-16340286D01*
X11958762Y-16292667D01*
X11968286Y-16254571D01*
X11977809Y-16235524D01*
X11987333Y-16226000D01*
X12006381Y-16216476D01*
X12158762Y-16416476D02*
X12158762Y-16283143D01*
X12158762Y-16302190D02*
X12168286Y-16292667D01*
X12187333Y-16283143D01*
X12215905Y-16283143D01*
X12234952Y-16292667D01*
X12244476Y-16311714D01*
X12244476Y-16416476D01*
X12244476Y-16311714D02*
X12254000Y-16292667D01*
X12273048Y-16283143D01*
X12301619Y-16283143D01*
X12320667Y-16292667D01*
X12330190Y-16311714D01*
X12330190Y-16416476D01*
X12425428Y-16416476D02*
X12425428Y-16283143D01*
X12425428Y-16302190D02*
X12434952Y-16292667D01*
X12454000Y-16283143D01*
X12482571Y-16283143D01*
X12501619Y-16292667D01*
X12511143Y-16311714D01*
X12511143Y-16416476D01*
X12511143Y-16311714D02*
X12520667Y-16292667D01*
X12539714Y-16283143D01*
X12568286Y-16283143D01*
X12587333Y-16292667D01*
X12596857Y-16311714D01*
X12596857Y-16416476D01*
X12987333Y-16206952D02*
X12815905Y-16464095D01*
X13244476Y-16216476D02*
X13263524Y-16216476D01*
X13282571Y-16226000D01*
X13292095Y-16235524D01*
X13301619Y-16254571D01*
X13311143Y-16292667D01*
X13311143Y-16340286D01*
X13301619Y-16378381D01*
X13292095Y-16397428D01*
X13282571Y-16406952D01*
X13263524Y-16416476D01*
X13244476Y-16416476D01*
X13225428Y-16406952D01*
X13215905Y-16397428D01*
X13206381Y-16378381D01*
X13196857Y-16340286D01*
X13196857Y-16292667D01*
X13206381Y-16254571D01*
X13215905Y-16235524D01*
X13225428Y-16226000D01*
X13244476Y-16216476D01*
X13396857Y-16397428D02*
X13406381Y-16406952D01*
X13396857Y-16416476D01*
X13387333Y-16406952D01*
X13396857Y-16397428D01*
X13396857Y-16416476D01*
X13530190Y-16216476D02*
X13549238Y-16216476D01*
X13568286Y-16226000D01*
X13577809Y-16235524D01*
X13587333Y-16254571D01*
X13596857Y-16292667D01*
X13596857Y-16340286D01*
X13587333Y-16378381D01*
X13577809Y-16397428D01*
X13568286Y-16406952D01*
X13549238Y-16416476D01*
X13530190Y-16416476D01*
X13511143Y-16406952D01*
X13501619Y-16397428D01*
X13492095Y-16378381D01*
X13482571Y-16340286D01*
X13482571Y-16292667D01*
X13492095Y-16254571D01*
X13501619Y-16235524D01*
X13511143Y-16226000D01*
X13530190Y-16216476D01*
X13768286Y-16283143D02*
X13768286Y-16416476D01*
X13720667Y-16206952D02*
X13673048Y-16349809D01*
X13796857Y-16349809D01*
X13854000Y-16216476D02*
X13987333Y-16216476D01*
X13901619Y-16416476D01*
X14054000Y-16235524D02*
X14063524Y-16226000D01*
X14082571Y-16216476D01*
X14130190Y-16216476D01*
X14149238Y-16226000D01*
X14158762Y-16235524D01*
X14168286Y-16254571D01*
X14168286Y-16273619D01*
X14158762Y-16302190D01*
X14044476Y-16416476D01*
X14168286Y-16416476D01*
X14244476Y-16216476D02*
X14244476Y-16254571D01*
X14320667Y-16216476D02*
X14320667Y-16254571D01*
X14615905Y-16492667D02*
X14606381Y-16483143D01*
X14587333Y-16454571D01*
X14577809Y-16435524D01*
X14568286Y-16406952D01*
X14558762Y-16359333D01*
X14558762Y-16321238D01*
X14568286Y-16273619D01*
X14577809Y-16245048D01*
X14587333Y-16226000D01*
X14606381Y-16197428D01*
X14615905Y-16187905D01*
X14682571Y-16235524D02*
X14692095Y-16226000D01*
X14711143Y-16216476D01*
X14758762Y-16216476D01*
X14777809Y-16226000D01*
X14787333Y-16235524D01*
X14796857Y-16254571D01*
X14796857Y-16273619D01*
X14787333Y-16302190D01*
X14673048Y-16416476D01*
X14796857Y-16416476D01*
X15034952Y-16416476D02*
X15034952Y-16216476D01*
X15120667Y-16416476D02*
X15120667Y-16311714D01*
X15111143Y-16292667D01*
X15092095Y-16283143D01*
X15063524Y-16283143D01*
X15044476Y-16292667D01*
X15034952Y-16302190D01*
X15244476Y-16416476D02*
X15225428Y-16406952D01*
X15215905Y-16397428D01*
X15206381Y-16378381D01*
X15206381Y-16321238D01*
X15215905Y-16302190D01*
X15225428Y-16292667D01*
X15244476Y-16283143D01*
X15273048Y-16283143D01*
X15292095Y-16292667D01*
X15301619Y-16302190D01*
X15311143Y-16321238D01*
X15311143Y-16378381D01*
X15301619Y-16397428D01*
X15292095Y-16406952D01*
X15273048Y-16416476D01*
X15244476Y-16416476D01*
X15425428Y-16416476D02*
X15406381Y-16406952D01*
X15396857Y-16387905D01*
X15396857Y-16216476D01*
X15577809Y-16406952D02*
X15558762Y-16416476D01*
X15520667Y-16416476D01*
X15501619Y-16406952D01*
X15492095Y-16387905D01*
X15492095Y-16311714D01*
X15501619Y-16292667D01*
X15520667Y-16283143D01*
X15558762Y-16283143D01*
X15577809Y-16292667D01*
X15587333Y-16311714D01*
X15587333Y-16330762D01*
X15492095Y-16349809D01*
X15663524Y-16406952D02*
X15682571Y-16416476D01*
X15720667Y-16416476D01*
X15739714Y-16406952D01*
X15749238Y-16387905D01*
X15749238Y-16378381D01*
X15739714Y-16359333D01*
X15720667Y-16349809D01*
X15692095Y-16349809D01*
X15673048Y-16340286D01*
X15663524Y-16321238D01*
X15663524Y-16311714D01*
X15673048Y-16292667D01*
X15692095Y-16283143D01*
X15720667Y-16283143D01*
X15739714Y-16292667D01*
X15815905Y-16492667D02*
X15825428Y-16483143D01*
X15844476Y-16454571D01*
X15854000Y-16435524D01*
X15863524Y-16406952D01*
X15873048Y-16359333D01*
X15873048Y-16321238D01*
X15863524Y-16273619D01*
X15854000Y-16245048D01*
X15844476Y-16226000D01*
X15825428Y-16197428D01*
X15815905Y-16187905D01*
D19*
X10894000Y-16515000D02*
X11044000Y-16665000D01*
X11044000Y-16515000D02*
X10894000Y-16665000D01*
X11022034Y-16643033D02*
X11022034Y-16536966D01*
X10915967Y-16536966D01*
X10915967Y-16643033D01*
X11022034Y-16643033D01*
D11*
X11406381Y-16680476D02*
X11292095Y-16680476D01*
X11349238Y-16680476D02*
X11349238Y-16480476D01*
X11330190Y-16509048D01*
X11311143Y-16528095D01*
X11292095Y-16537619D01*
X11492095Y-16661428D02*
X11501619Y-16670952D01*
X11492095Y-16680476D01*
X11482571Y-16670952D01*
X11492095Y-16661428D01*
X11492095Y-16680476D01*
X11682571Y-16480476D02*
X11587333Y-16480476D01*
X11577809Y-16575714D01*
X11587333Y-16566190D01*
X11606381Y-16556667D01*
X11654000Y-16556667D01*
X11673048Y-16566190D01*
X11682571Y-16575714D01*
X11692095Y-16594762D01*
X11692095Y-16642381D01*
X11682571Y-16661428D01*
X11673048Y-16670952D01*
X11654000Y-16680476D01*
X11606381Y-16680476D01*
X11587333Y-16670952D01*
X11577809Y-16661428D01*
X11815905Y-16480476D02*
X11834952Y-16480476D01*
X11854000Y-16490000D01*
X11863524Y-16499524D01*
X11873048Y-16518571D01*
X11882571Y-16556667D01*
X11882571Y-16604286D01*
X11873048Y-16642381D01*
X11863524Y-16661428D01*
X11854000Y-16670952D01*
X11834952Y-16680476D01*
X11815905Y-16680476D01*
X11796857Y-16670952D01*
X11787333Y-16661428D01*
X11777809Y-16642381D01*
X11768286Y-16604286D01*
X11768286Y-16556667D01*
X11777809Y-16518571D01*
X11787333Y-16499524D01*
X11796857Y-16490000D01*
X11815905Y-16480476D01*
X12006381Y-16480476D02*
X12025428Y-16480476D01*
X12044476Y-16490000D01*
X12054000Y-16499524D01*
X12063524Y-16518571D01*
X12073048Y-16556667D01*
X12073048Y-16604286D01*
X12063524Y-16642381D01*
X12054000Y-16661428D01*
X12044476Y-16670952D01*
X12025428Y-16680476D01*
X12006381Y-16680476D01*
X11987333Y-16670952D01*
X11977809Y-16661428D01*
X11968286Y-16642381D01*
X11958762Y-16604286D01*
X11958762Y-16556667D01*
X11968286Y-16518571D01*
X11977809Y-16499524D01*
X11987333Y-16490000D01*
X12006381Y-16480476D01*
X12158762Y-16680476D02*
X12158762Y-16547143D01*
X12158762Y-16566190D02*
X12168286Y-16556667D01*
X12187333Y-16547143D01*
X12215905Y-16547143D01*
X12234952Y-16556667D01*
X12244476Y-16575714D01*
X12244476Y-16680476D01*
X12244476Y-16575714D02*
X12254000Y-16556667D01*
X12273048Y-16547143D01*
X12301619Y-16547143D01*
X12320667Y-16556667D01*
X12330190Y-16575714D01*
X12330190Y-16680476D01*
X12425428Y-16680476D02*
X12425428Y-16547143D01*
X12425428Y-16566190D02*
X12434952Y-16556667D01*
X12454000Y-16547143D01*
X12482571Y-16547143D01*
X12501619Y-16556667D01*
X12511143Y-16575714D01*
X12511143Y-16680476D01*
X12511143Y-16575714D02*
X12520667Y-16556667D01*
X12539714Y-16547143D01*
X12568286Y-16547143D01*
X12587333Y-16556667D01*
X12596857Y-16575714D01*
X12596857Y-16680476D01*
X12987333Y-16470952D02*
X12815905Y-16728095D01*
X13244476Y-16480476D02*
X13263524Y-16480476D01*
X13282571Y-16490000D01*
X13292095Y-16499524D01*
X13301619Y-16518571D01*
X13311143Y-16556667D01*
X13311143Y-16604286D01*
X13301619Y-16642381D01*
X13292095Y-16661428D01*
X13282571Y-16670952D01*
X13263524Y-16680476D01*
X13244476Y-16680476D01*
X13225428Y-16670952D01*
X13215905Y-16661428D01*
X13206381Y-16642381D01*
X13196857Y-16604286D01*
X13196857Y-16556667D01*
X13206381Y-16518571D01*
X13215905Y-16499524D01*
X13225428Y-16490000D01*
X13244476Y-16480476D01*
X13396857Y-16661428D02*
X13406381Y-16670952D01*
X13396857Y-16680476D01*
X13387333Y-16670952D01*
X13396857Y-16661428D01*
X13396857Y-16680476D01*
X13530190Y-16480476D02*
X13549238Y-16480476D01*
X13568286Y-16490000D01*
X13577809Y-16499524D01*
X13587333Y-16518571D01*
X13596857Y-16556667D01*
X13596857Y-16604286D01*
X13587333Y-16642381D01*
X13577809Y-16661428D01*
X13568286Y-16670952D01*
X13549238Y-16680476D01*
X13530190Y-16680476D01*
X13511143Y-16670952D01*
X13501619Y-16661428D01*
X13492095Y-16642381D01*
X13482571Y-16604286D01*
X13482571Y-16556667D01*
X13492095Y-16518571D01*
X13501619Y-16499524D01*
X13511143Y-16490000D01*
X13530190Y-16480476D01*
X13777809Y-16480476D02*
X13682571Y-16480476D01*
X13673048Y-16575714D01*
X13682571Y-16566190D01*
X13701619Y-16556667D01*
X13749238Y-16556667D01*
X13768286Y-16566190D01*
X13777809Y-16575714D01*
X13787333Y-16594762D01*
X13787333Y-16642381D01*
X13777809Y-16661428D01*
X13768286Y-16670952D01*
X13749238Y-16680476D01*
X13701619Y-16680476D01*
X13682571Y-16670952D01*
X13673048Y-16661428D01*
X13882571Y-16680476D02*
X13920667Y-16680476D01*
X13939714Y-16670952D01*
X13949238Y-16661428D01*
X13968286Y-16632857D01*
X13977809Y-16594762D01*
X13977809Y-16518571D01*
X13968286Y-16499524D01*
X13958762Y-16490000D01*
X13939714Y-16480476D01*
X13901619Y-16480476D01*
X13882571Y-16490000D01*
X13873048Y-16499524D01*
X13863524Y-16518571D01*
X13863524Y-16566190D01*
X13873048Y-16585238D01*
X13882571Y-16594762D01*
X13901619Y-16604286D01*
X13939714Y-16604286D01*
X13958762Y-16594762D01*
X13968286Y-16585238D01*
X13977809Y-16566190D01*
X14168286Y-16680476D02*
X14054000Y-16680476D01*
X14111143Y-16680476D02*
X14111143Y-16480476D01*
X14092095Y-16509048D01*
X14073048Y-16528095D01*
X14054000Y-16537619D01*
X14244476Y-16480476D02*
X14244476Y-16518571D01*
X14320667Y-16480476D02*
X14320667Y-16518571D01*
X14615905Y-16756667D02*
X14606381Y-16747143D01*
X14587333Y-16718571D01*
X14577809Y-16699524D01*
X14568286Y-16670952D01*
X14558762Y-16623333D01*
X14558762Y-16585238D01*
X14568286Y-16537619D01*
X14577809Y-16509048D01*
X14587333Y-16490000D01*
X14606381Y-16461428D01*
X14615905Y-16451905D01*
X14682571Y-16499524D02*
X14692095Y-16490000D01*
X14711143Y-16480476D01*
X14758762Y-16480476D01*
X14777809Y-16490000D01*
X14787333Y-16499524D01*
X14796857Y-16518571D01*
X14796857Y-16537619D01*
X14787333Y-16566190D01*
X14673048Y-16680476D01*
X14796857Y-16680476D01*
X15034952Y-16680476D02*
X15034952Y-16480476D01*
X15120667Y-16680476D02*
X15120667Y-16575714D01*
X15111143Y-16556667D01*
X15092095Y-16547143D01*
X15063524Y-16547143D01*
X15044476Y-16556667D01*
X15034952Y-16566190D01*
X15244476Y-16680476D02*
X15225428Y-16670952D01*
X15215905Y-16661428D01*
X15206381Y-16642381D01*
X15206381Y-16585238D01*
X15215905Y-16566190D01*
X15225428Y-16556667D01*
X15244476Y-16547143D01*
X15273048Y-16547143D01*
X15292095Y-16556667D01*
X15301619Y-16566190D01*
X15311143Y-16585238D01*
X15311143Y-16642381D01*
X15301619Y-16661428D01*
X15292095Y-16670952D01*
X15273048Y-16680476D01*
X15244476Y-16680476D01*
X15425428Y-16680476D02*
X15406381Y-16670952D01*
X15396857Y-16651905D01*
X15396857Y-16480476D01*
X15577809Y-16670952D02*
X15558762Y-16680476D01*
X15520667Y-16680476D01*
X15501619Y-16670952D01*
X15492095Y-16651905D01*
X15492095Y-16575714D01*
X15501619Y-16556667D01*
X15520667Y-16547143D01*
X15558762Y-16547143D01*
X15577809Y-16556667D01*
X15587333Y-16575714D01*
X15587333Y-16594762D01*
X15492095Y-16613809D01*
X15663524Y-16670952D02*
X15682571Y-16680476D01*
X15720667Y-16680476D01*
X15739714Y-16670952D01*
X15749238Y-16651905D01*
X15749238Y-16642381D01*
X15739714Y-16623333D01*
X15720667Y-16613809D01*
X15692095Y-16613809D01*
X15673048Y-16604286D01*
X15663524Y-16585238D01*
X15663524Y-16575714D01*
X15673048Y-16556667D01*
X15692095Y-16547143D01*
X15720667Y-16547143D01*
X15739714Y-16556667D01*
X15815905Y-16756667D02*
X15825428Y-16747143D01*
X15844476Y-16718571D01*
X15854000Y-16699524D01*
X15863524Y-16670952D01*
X15873048Y-16623333D01*
X15873048Y-16585238D01*
X15863524Y-16537619D01*
X15854000Y-16509048D01*
X15844476Y-16490000D01*
X15825428Y-16461428D01*
X15815905Y-16451905D01*
M02*
