G04 #@! TF.GenerationSoftware,KiCad,Pcbnew,(6.0.2)*
G04 #@! TF.CreationDate,2022-06-07T21:46:18+01:00*
G04 #@! TF.ProjectId,Pico_Handheld,5069636f-5f48-4616-9e64-68656c642e6b,rev?*
G04 #@! TF.SameCoordinates,Original*
G04 #@! TF.FileFunction,Legend,Top*
G04 #@! TF.FilePolarity,Positive*
%FSLAX46Y46*%
G04 Gerber Fmt 4.6, Leading zero omitted, Abs format (unit mm)*
G04 Created by KiCad (PCBNEW (6.0.2)) date 2022-06-07 21:46:18*
%MOMM*%
%LPD*%
G01*
G04 APERTURE LIST*
G04 Aperture macros list*
%AMRoundRect*
0 Rectangle with rounded corners*
0 $1 Rounding radius*
0 $2 $3 $4 $5 $6 $7 $8 $9 X,Y pos of 4 corners*
0 Add a 4 corners polygon primitive as box body*
4,1,4,$2,$3,$4,$5,$6,$7,$8,$9,$2,$3,0*
0 Add four circle primitives for the rounded corners*
1,1,$1+$1,$2,$3*
1,1,$1+$1,$4,$5*
1,1,$1+$1,$6,$7*
1,1,$1+$1,$8,$9*
0 Add four rect primitives between the rounded corners*
20,1,$1+$1,$2,$3,$4,$5,0*
20,1,$1+$1,$4,$5,$6,$7,0*
20,1,$1+$1,$6,$7,$8,$9,0*
20,1,$1+$1,$8,$9,$2,$3,0*%
G04 Aperture macros list end*
%ADD10C,0.150000*%
%ADD11C,0.120000*%
%ADD12C,1.524000*%
%ADD13C,2.000000*%
%ADD14R,1.800000X1.800000*%
%ADD15O,1.800000X1.800000*%
%ADD16R,1.500000X1.000000*%
%ADD17RoundRect,0.381000X-0.381000X0.762000X-0.381000X-0.762000X0.381000X-0.762000X0.381000X0.762000X0*%
%ADD18R,1.600000X1.600000*%
%ADD19C,1.600000*%
%ADD20RoundRect,0.381000X-0.762000X-0.381000X0.762000X-0.381000X0.762000X0.381000X-0.762000X0.381000X0*%
%ADD21O,2.200000X3.500000*%
%ADD22R,1.500000X2.500000*%
%ADD23O,1.500000X2.500000*%
%ADD24O,1.500000X1.500000*%
%ADD25R,3.500000X1.700000*%
%ADD26O,1.700000X1.700000*%
%ADD27R,1.700000X1.700000*%
%ADD28R,1.700000X3.500000*%
%ADD29RoundRect,0.381000X0.381000X-0.762000X0.381000X0.762000X-0.381000X0.762000X-0.381000X-0.762000X0*%
%ADD30RoundRect,0.381000X0.762000X0.381000X-0.762000X0.381000X-0.762000X-0.381000X0.762000X-0.381000X0*%
%ADD31C,3.500000*%
%ADD32R,3.000000X3.000000*%
%ADD33C,3.000000*%
G04 APERTURE END LIST*
D10*
X146050000Y-62230000D02*
X161290000Y-62230000D01*
X161290000Y-62230000D02*
X161290000Y-73660000D01*
X161290000Y-73660000D02*
X146050000Y-73660000D01*
X146050000Y-73660000D02*
X146050000Y-62230000D01*
X159085595Y-93797380D02*
X159085595Y-92797380D01*
X159466547Y-92797380D01*
X159561785Y-92845000D01*
X159609404Y-92892619D01*
X159657023Y-92987857D01*
X159657023Y-93130714D01*
X159609404Y-93225952D01*
X159561785Y-93273571D01*
X159466547Y-93321190D01*
X159085595Y-93321190D01*
X160085595Y-93797380D02*
X160085595Y-93130714D01*
X160085595Y-92797380D02*
X160037976Y-92845000D01*
X160085595Y-92892619D01*
X160133214Y-92845000D01*
X160085595Y-92797380D01*
X160085595Y-92892619D01*
X160990357Y-93749761D02*
X160895119Y-93797380D01*
X160704642Y-93797380D01*
X160609404Y-93749761D01*
X160561785Y-93702142D01*
X160514166Y-93606904D01*
X160514166Y-93321190D01*
X160561785Y-93225952D01*
X160609404Y-93178333D01*
X160704642Y-93130714D01*
X160895119Y-93130714D01*
X160990357Y-93178333D01*
X161561785Y-93797380D02*
X161466547Y-93749761D01*
X161418928Y-93702142D01*
X161371309Y-93606904D01*
X161371309Y-93321190D01*
X161418928Y-93225952D01*
X161466547Y-93178333D01*
X161561785Y-93130714D01*
X161704642Y-93130714D01*
X161799880Y-93178333D01*
X161847500Y-93225952D01*
X161895119Y-93321190D01*
X161895119Y-93606904D01*
X161847500Y-93702142D01*
X161799880Y-93749761D01*
X161704642Y-93797380D01*
X161561785Y-93797380D01*
X163085595Y-93797380D02*
X163085595Y-92797380D01*
X163085595Y-93273571D02*
X163657023Y-93273571D01*
X163657023Y-93797380D02*
X163657023Y-92797380D01*
X164561785Y-93797380D02*
X164561785Y-93273571D01*
X164514166Y-93178333D01*
X164418928Y-93130714D01*
X164228452Y-93130714D01*
X164133214Y-93178333D01*
X164561785Y-93749761D02*
X164466547Y-93797380D01*
X164228452Y-93797380D01*
X164133214Y-93749761D01*
X164085595Y-93654523D01*
X164085595Y-93559285D01*
X164133214Y-93464047D01*
X164228452Y-93416428D01*
X164466547Y-93416428D01*
X164561785Y-93368809D01*
X165037976Y-93130714D02*
X165037976Y-93797380D01*
X165037976Y-93225952D02*
X165085595Y-93178333D01*
X165180833Y-93130714D01*
X165323690Y-93130714D01*
X165418928Y-93178333D01*
X165466547Y-93273571D01*
X165466547Y-93797380D01*
X166371309Y-93797380D02*
X166371309Y-92797380D01*
X166371309Y-93749761D02*
X166276071Y-93797380D01*
X166085595Y-93797380D01*
X165990357Y-93749761D01*
X165942738Y-93702142D01*
X165895119Y-93606904D01*
X165895119Y-93321190D01*
X165942738Y-93225952D01*
X165990357Y-93178333D01*
X166085595Y-93130714D01*
X166276071Y-93130714D01*
X166371309Y-93178333D01*
X166847500Y-93797380D02*
X166847500Y-92797380D01*
X167276071Y-93797380D02*
X167276071Y-93273571D01*
X167228452Y-93178333D01*
X167133214Y-93130714D01*
X166990357Y-93130714D01*
X166895119Y-93178333D01*
X166847500Y-93225952D01*
X168133214Y-93749761D02*
X168037976Y-93797380D01*
X167847500Y-93797380D01*
X167752261Y-93749761D01*
X167704642Y-93654523D01*
X167704642Y-93273571D01*
X167752261Y-93178333D01*
X167847500Y-93130714D01*
X168037976Y-93130714D01*
X168133214Y-93178333D01*
X168180833Y-93273571D01*
X168180833Y-93368809D01*
X167704642Y-93464047D01*
X168752261Y-93797380D02*
X168657023Y-93749761D01*
X168609404Y-93654523D01*
X168609404Y-92797380D01*
X169561785Y-93797380D02*
X169561785Y-92797380D01*
X169561785Y-93749761D02*
X169466547Y-93797380D01*
X169276071Y-93797380D01*
X169180833Y-93749761D01*
X169133214Y-93702142D01*
X169085595Y-93606904D01*
X169085595Y-93321190D01*
X169133214Y-93225952D01*
X169180833Y-93178333D01*
X169276071Y-93130714D01*
X169466547Y-93130714D01*
X169561785Y-93178333D01*
X171323690Y-92845000D02*
X171228452Y-92797380D01*
X171085595Y-92797380D01*
X170942738Y-92845000D01*
X170847500Y-92940238D01*
X170799880Y-93035476D01*
X170752261Y-93225952D01*
X170752261Y-93368809D01*
X170799880Y-93559285D01*
X170847500Y-93654523D01*
X170942738Y-93749761D01*
X171085595Y-93797380D01*
X171180833Y-93797380D01*
X171323690Y-93749761D01*
X171371309Y-93702142D01*
X171371309Y-93368809D01*
X171180833Y-93368809D01*
X172228452Y-93797380D02*
X172228452Y-93273571D01*
X172180833Y-93178333D01*
X172085595Y-93130714D01*
X171895119Y-93130714D01*
X171799880Y-93178333D01*
X172228452Y-93749761D02*
X172133214Y-93797380D01*
X171895119Y-93797380D01*
X171799880Y-93749761D01*
X171752261Y-93654523D01*
X171752261Y-93559285D01*
X171799880Y-93464047D01*
X171895119Y-93416428D01*
X172133214Y-93416428D01*
X172228452Y-93368809D01*
X172704642Y-93797380D02*
X172704642Y-93130714D01*
X172704642Y-93225952D02*
X172752261Y-93178333D01*
X172847500Y-93130714D01*
X172990357Y-93130714D01*
X173085595Y-93178333D01*
X173133214Y-93273571D01*
X173133214Y-93797380D01*
X173133214Y-93273571D02*
X173180833Y-93178333D01*
X173276071Y-93130714D01*
X173418928Y-93130714D01*
X173514166Y-93178333D01*
X173561785Y-93273571D01*
X173561785Y-93797380D01*
X174418928Y-93749761D02*
X174323690Y-93797380D01*
X174133214Y-93797380D01*
X174037976Y-93749761D01*
X173990357Y-93654523D01*
X173990357Y-93273571D01*
X174037976Y-93178333D01*
X174133214Y-93130714D01*
X174323690Y-93130714D01*
X174418928Y-93178333D01*
X174466547Y-93273571D01*
X174466547Y-93368809D01*
X173990357Y-93464047D01*
X174847500Y-93749761D02*
X174942738Y-93797380D01*
X175133214Y-93797380D01*
X175228452Y-93749761D01*
X175276071Y-93654523D01*
X175276071Y-93606904D01*
X175228452Y-93511666D01*
X175133214Y-93464047D01*
X174990357Y-93464047D01*
X174895119Y-93416428D01*
X174847500Y-93321190D01*
X174847500Y-93273571D01*
X174895119Y-93178333D01*
X174990357Y-93130714D01*
X175133214Y-93130714D01*
X175228452Y-93178333D01*
X177037976Y-93702142D02*
X176990357Y-93749761D01*
X176847500Y-93797380D01*
X176752261Y-93797380D01*
X176609404Y-93749761D01*
X176514166Y-93654523D01*
X176466547Y-93559285D01*
X176418928Y-93368809D01*
X176418928Y-93225952D01*
X176466547Y-93035476D01*
X176514166Y-92940238D01*
X176609404Y-92845000D01*
X176752261Y-92797380D01*
X176847500Y-92797380D01*
X176990357Y-92845000D01*
X177037976Y-92892619D01*
X177609404Y-93797380D02*
X177514166Y-93749761D01*
X177466547Y-93702142D01*
X177418928Y-93606904D01*
X177418928Y-93321190D01*
X177466547Y-93225952D01*
X177514166Y-93178333D01*
X177609404Y-93130714D01*
X177752261Y-93130714D01*
X177847500Y-93178333D01*
X177895119Y-93225952D01*
X177942738Y-93321190D01*
X177942738Y-93606904D01*
X177895119Y-93702142D01*
X177847500Y-93749761D01*
X177752261Y-93797380D01*
X177609404Y-93797380D01*
X178371309Y-93130714D02*
X178371309Y-93797380D01*
X178371309Y-93225952D02*
X178418928Y-93178333D01*
X178514166Y-93130714D01*
X178657023Y-93130714D01*
X178752261Y-93178333D01*
X178799880Y-93273571D01*
X178799880Y-93797380D01*
X179228452Y-93749761D02*
X179323690Y-93797380D01*
X179514166Y-93797380D01*
X179609404Y-93749761D01*
X179657023Y-93654523D01*
X179657023Y-93606904D01*
X179609404Y-93511666D01*
X179514166Y-93464047D01*
X179371309Y-93464047D01*
X179276071Y-93416428D01*
X179228452Y-93321190D01*
X179228452Y-93273571D01*
X179276071Y-93178333D01*
X179371309Y-93130714D01*
X179514166Y-93130714D01*
X179609404Y-93178333D01*
X180228452Y-93797380D02*
X180133214Y-93749761D01*
X180085595Y-93702142D01*
X180037976Y-93606904D01*
X180037976Y-93321190D01*
X180085595Y-93225952D01*
X180133214Y-93178333D01*
X180228452Y-93130714D01*
X180371309Y-93130714D01*
X180466547Y-93178333D01*
X180514166Y-93225952D01*
X180561785Y-93321190D01*
X180561785Y-93606904D01*
X180514166Y-93702142D01*
X180466547Y-93749761D01*
X180371309Y-93797380D01*
X180228452Y-93797380D01*
X181133214Y-93797380D02*
X181037976Y-93749761D01*
X180990357Y-93654523D01*
X180990357Y-92797380D01*
X181895119Y-93749761D02*
X181799880Y-93797380D01*
X181609404Y-93797380D01*
X181514166Y-93749761D01*
X181466547Y-93654523D01*
X181466547Y-93273571D01*
X181514166Y-93178333D01*
X181609404Y-93130714D01*
X181799880Y-93130714D01*
X181895119Y-93178333D01*
X181942738Y-93273571D01*
X181942738Y-93368809D01*
X181466547Y-93464047D01*
X158942738Y-94702380D02*
X159276071Y-95702380D01*
X159609404Y-94702380D01*
X160466547Y-95702380D02*
X159895119Y-95702380D01*
X160180833Y-95702380D02*
X160180833Y-94702380D01*
X160085595Y-94845238D01*
X159990357Y-94940476D01*
X159895119Y-94988095D01*
X160895119Y-95607142D02*
X160942738Y-95654761D01*
X160895119Y-95702380D01*
X160847500Y-95654761D01*
X160895119Y-95607142D01*
X160895119Y-95702380D01*
X161561785Y-94702380D02*
X161657023Y-94702380D01*
X161752261Y-94750000D01*
X161799880Y-94797619D01*
X161847500Y-94892857D01*
X161895119Y-95083333D01*
X161895119Y-95321428D01*
X161847500Y-95511904D01*
X161799880Y-95607142D01*
X161752261Y-95654761D01*
X161657023Y-95702380D01*
X161561785Y-95702380D01*
X161466547Y-95654761D01*
X161418928Y-95607142D01*
X161371309Y-95511904D01*
X161323690Y-95321428D01*
X161323690Y-95083333D01*
X161371309Y-94892857D01*
X161418928Y-94797619D01*
X161466547Y-94750000D01*
X161561785Y-94702380D01*
X146598571Y-64857380D02*
X146931904Y-65857380D01*
X147265238Y-64857380D01*
X148027142Y-65809761D02*
X147931904Y-65857380D01*
X147741428Y-65857380D01*
X147646190Y-65809761D01*
X147598571Y-65762142D01*
X147550952Y-65666904D01*
X147550952Y-65381190D01*
X147598571Y-65285952D01*
X147646190Y-65238333D01*
X147741428Y-65190714D01*
X147931904Y-65190714D01*
X148027142Y-65238333D01*
X148884285Y-65809761D02*
X148789047Y-65857380D01*
X148598571Y-65857380D01*
X148503333Y-65809761D01*
X148455714Y-65762142D01*
X148408095Y-65666904D01*
X148408095Y-65381190D01*
X148455714Y-65285952D01*
X148503333Y-65238333D01*
X148598571Y-65190714D01*
X148789047Y-65190714D01*
X148884285Y-65238333D01*
X150027142Y-64809761D02*
X149170000Y-66095476D01*
X150884285Y-64905000D02*
X150789047Y-64857380D01*
X150646190Y-64857380D01*
X150503333Y-64905000D01*
X150408095Y-65000238D01*
X150360476Y-65095476D01*
X150312857Y-65285952D01*
X150312857Y-65428809D01*
X150360476Y-65619285D01*
X150408095Y-65714523D01*
X150503333Y-65809761D01*
X150646190Y-65857380D01*
X150741428Y-65857380D01*
X150884285Y-65809761D01*
X150931904Y-65762142D01*
X150931904Y-65428809D01*
X150741428Y-65428809D01*
X151360476Y-65857380D02*
X151360476Y-64857380D01*
X151931904Y-65857380D01*
X151931904Y-64857380D01*
X152408095Y-65857380D02*
X152408095Y-64857380D01*
X152646190Y-64857380D01*
X152789047Y-64905000D01*
X152884285Y-65000238D01*
X152931904Y-65095476D01*
X152979523Y-65285952D01*
X152979523Y-65428809D01*
X152931904Y-65619285D01*
X152884285Y-65714523D01*
X152789047Y-65809761D01*
X152646190Y-65857380D01*
X152408095Y-65857380D01*
X154122380Y-64809761D02*
X153265238Y-66095476D01*
X154408095Y-65809761D02*
X154550952Y-65857380D01*
X154789047Y-65857380D01*
X154884285Y-65809761D01*
X154931904Y-65762142D01*
X154979523Y-65666904D01*
X154979523Y-65571666D01*
X154931904Y-65476428D01*
X154884285Y-65428809D01*
X154789047Y-65381190D01*
X154598571Y-65333571D01*
X154503333Y-65285952D01*
X154455714Y-65238333D01*
X154408095Y-65143095D01*
X154408095Y-65047857D01*
X154455714Y-64952619D01*
X154503333Y-64905000D01*
X154598571Y-64857380D01*
X154836666Y-64857380D01*
X154979523Y-64905000D01*
X155979523Y-65762142D02*
X155931904Y-65809761D01*
X155789047Y-65857380D01*
X155693809Y-65857380D01*
X155550952Y-65809761D01*
X155455714Y-65714523D01*
X155408095Y-65619285D01*
X155360476Y-65428809D01*
X155360476Y-65285952D01*
X155408095Y-65095476D01*
X155455714Y-65000238D01*
X155550952Y-64905000D01*
X155693809Y-64857380D01*
X155789047Y-64857380D01*
X155931904Y-64905000D01*
X155979523Y-64952619D01*
X156884285Y-65857380D02*
X156408095Y-65857380D01*
X156408095Y-64857380D01*
X157931904Y-64809761D02*
X157074761Y-66095476D01*
X158217619Y-65809761D02*
X158360476Y-65857380D01*
X158598571Y-65857380D01*
X158693809Y-65809761D01*
X158741428Y-65762142D01*
X158789047Y-65666904D01*
X158789047Y-65571666D01*
X158741428Y-65476428D01*
X158693809Y-65428809D01*
X158598571Y-65381190D01*
X158408095Y-65333571D01*
X158312857Y-65285952D01*
X158265238Y-65238333D01*
X158217619Y-65143095D01*
X158217619Y-65047857D01*
X158265238Y-64952619D01*
X158312857Y-64905000D01*
X158408095Y-64857380D01*
X158646190Y-64857380D01*
X158789047Y-64905000D01*
X159217619Y-65857380D02*
X159217619Y-64857380D01*
X159455714Y-64857380D01*
X159598571Y-64905000D01*
X159693809Y-65000238D01*
X159741428Y-65095476D01*
X159789047Y-65285952D01*
X159789047Y-65428809D01*
X159741428Y-65619285D01*
X159693809Y-65714523D01*
X159598571Y-65809761D01*
X159455714Y-65857380D01*
X159217619Y-65857380D01*
X160170000Y-65571666D02*
X160646190Y-65571666D01*
X160074761Y-65857380D02*
X160408095Y-64857380D01*
X160741428Y-65857380D01*
X147860476Y-63952380D02*
X147860476Y-62952380D01*
X148098571Y-62952380D01*
X148241428Y-63000000D01*
X148336666Y-63095238D01*
X148384285Y-63190476D01*
X148431904Y-63380952D01*
X148431904Y-63523809D01*
X148384285Y-63714285D01*
X148336666Y-63809523D01*
X148241428Y-63904761D01*
X148098571Y-63952380D01*
X147860476Y-63952380D01*
X148860476Y-63952380D02*
X148860476Y-62952380D01*
X149289047Y-63904761D02*
X149431904Y-63952380D01*
X149670000Y-63952380D01*
X149765238Y-63904761D01*
X149812857Y-63857142D01*
X149860476Y-63761904D01*
X149860476Y-63666666D01*
X149812857Y-63571428D01*
X149765238Y-63523809D01*
X149670000Y-63476190D01*
X149479523Y-63428571D01*
X149384285Y-63380952D01*
X149336666Y-63333333D01*
X149289047Y-63238095D01*
X149289047Y-63142857D01*
X149336666Y-63047619D01*
X149384285Y-63000000D01*
X149479523Y-62952380D01*
X149717619Y-62952380D01*
X149860476Y-63000000D01*
X150289047Y-63952380D02*
X150289047Y-62952380D01*
X150670000Y-62952380D01*
X150765238Y-63000000D01*
X150812857Y-63047619D01*
X150860476Y-63142857D01*
X150860476Y-63285714D01*
X150812857Y-63380952D01*
X150765238Y-63428571D01*
X150670000Y-63476190D01*
X150289047Y-63476190D01*
X151765238Y-63952380D02*
X151289047Y-63952380D01*
X151289047Y-62952380D01*
X152050952Y-63666666D02*
X152527142Y-63666666D01*
X151955714Y-63952380D02*
X152289047Y-62952380D01*
X152622380Y-63952380D01*
X153146190Y-63476190D02*
X153146190Y-63952380D01*
X152812857Y-62952380D02*
X153146190Y-63476190D01*
X153479523Y-62952380D01*
X154574761Y-63952380D02*
X154574761Y-62952380D01*
X154955714Y-62952380D01*
X155050952Y-63000000D01*
X155098571Y-63047619D01*
X155146190Y-63142857D01*
X155146190Y-63285714D01*
X155098571Y-63380952D01*
X155050952Y-63428571D01*
X154955714Y-63476190D01*
X154574761Y-63476190D01*
X155574761Y-63952380D02*
X155574761Y-62952380D01*
X156050952Y-63952380D02*
X156050952Y-62952380D01*
X156622380Y-63952380D01*
X156622380Y-62952380D01*
X157289047Y-62952380D02*
X157479523Y-62952380D01*
X157574761Y-63000000D01*
X157670000Y-63095238D01*
X157717619Y-63285714D01*
X157717619Y-63619047D01*
X157670000Y-63809523D01*
X157574761Y-63904761D01*
X157479523Y-63952380D01*
X157289047Y-63952380D01*
X157193809Y-63904761D01*
X157098571Y-63809523D01*
X157050952Y-63619047D01*
X157050952Y-63285714D01*
X157098571Y-63095238D01*
X157193809Y-63000000D01*
X157289047Y-62952380D01*
X158146190Y-62952380D02*
X158146190Y-63761904D01*
X158193809Y-63857142D01*
X158241428Y-63904761D01*
X158336666Y-63952380D01*
X158527142Y-63952380D01*
X158622380Y-63904761D01*
X158670000Y-63857142D01*
X158717619Y-63761904D01*
X158717619Y-62952380D01*
X159050952Y-62952380D02*
X159622380Y-62952380D01*
X159336666Y-63952380D02*
X159336666Y-62952380D01*
X147265238Y-71890000D02*
X147170000Y-71842380D01*
X147027142Y-71842380D01*
X146884285Y-71890000D01*
X146789047Y-71985238D01*
X146741428Y-72080476D01*
X146693809Y-72270952D01*
X146693809Y-72413809D01*
X146741428Y-72604285D01*
X146789047Y-72699523D01*
X146884285Y-72794761D01*
X147027142Y-72842380D01*
X147122380Y-72842380D01*
X147265238Y-72794761D01*
X147312857Y-72747142D01*
X147312857Y-72413809D01*
X147122380Y-72413809D01*
X147741428Y-72842380D02*
X147741428Y-71842380D01*
X148312857Y-72842380D01*
X148312857Y-71842380D01*
X148789047Y-72842380D02*
X148789047Y-71842380D01*
X149027142Y-71842380D01*
X149170000Y-71890000D01*
X149265238Y-71985238D01*
X149312857Y-72080476D01*
X149360476Y-72270952D01*
X149360476Y-72413809D01*
X149312857Y-72604285D01*
X149265238Y-72699523D01*
X149170000Y-72794761D01*
X149027142Y-72842380D01*
X148789047Y-72842380D01*
X150503333Y-71794761D02*
X149646190Y-73080476D01*
X150693809Y-71842380D02*
X151027142Y-72842380D01*
X151360476Y-71842380D01*
X152122380Y-72794761D02*
X152027142Y-72842380D01*
X151836666Y-72842380D01*
X151741428Y-72794761D01*
X151693809Y-72747142D01*
X151646190Y-72651904D01*
X151646190Y-72366190D01*
X151693809Y-72270952D01*
X151741428Y-72223333D01*
X151836666Y-72175714D01*
X152027142Y-72175714D01*
X152122380Y-72223333D01*
X152979523Y-72794761D02*
X152884285Y-72842380D01*
X152693809Y-72842380D01*
X152598571Y-72794761D01*
X152550952Y-72747142D01*
X152503333Y-72651904D01*
X152503333Y-72366190D01*
X152550952Y-72270952D01*
X152598571Y-72223333D01*
X152693809Y-72175714D01*
X152884285Y-72175714D01*
X152979523Y-72223333D01*
X154122380Y-71794761D02*
X153265238Y-73080476D01*
X154408095Y-72794761D02*
X154550952Y-72842380D01*
X154789047Y-72842380D01*
X154884285Y-72794761D01*
X154931904Y-72747142D01*
X154979523Y-72651904D01*
X154979523Y-72556666D01*
X154931904Y-72461428D01*
X154884285Y-72413809D01*
X154789047Y-72366190D01*
X154598571Y-72318571D01*
X154503333Y-72270952D01*
X154455714Y-72223333D01*
X154408095Y-72128095D01*
X154408095Y-72032857D01*
X154455714Y-71937619D01*
X154503333Y-71890000D01*
X154598571Y-71842380D01*
X154836666Y-71842380D01*
X154979523Y-71890000D01*
X155979523Y-72747142D02*
X155931904Y-72794761D01*
X155789047Y-72842380D01*
X155693809Y-72842380D01*
X155550952Y-72794761D01*
X155455714Y-72699523D01*
X155408095Y-72604285D01*
X155360476Y-72413809D01*
X155360476Y-72270952D01*
X155408095Y-72080476D01*
X155455714Y-71985238D01*
X155550952Y-71890000D01*
X155693809Y-71842380D01*
X155789047Y-71842380D01*
X155931904Y-71890000D01*
X155979523Y-71937619D01*
X156884285Y-72842380D02*
X156408095Y-72842380D01*
X156408095Y-71842380D01*
X157931904Y-71794761D02*
X157074761Y-73080476D01*
X158217619Y-72794761D02*
X158360476Y-72842380D01*
X158598571Y-72842380D01*
X158693809Y-72794761D01*
X158741428Y-72747142D01*
X158789047Y-72651904D01*
X158789047Y-72556666D01*
X158741428Y-72461428D01*
X158693809Y-72413809D01*
X158598571Y-72366190D01*
X158408095Y-72318571D01*
X158312857Y-72270952D01*
X158265238Y-72223333D01*
X158217619Y-72128095D01*
X158217619Y-72032857D01*
X158265238Y-71937619D01*
X158312857Y-71890000D01*
X158408095Y-71842380D01*
X158646190Y-71842380D01*
X158789047Y-71890000D01*
X159217619Y-72842380D02*
X159217619Y-71842380D01*
X159455714Y-71842380D01*
X159598571Y-71890000D01*
X159693809Y-71985238D01*
X159741428Y-72080476D01*
X159789047Y-72270952D01*
X159789047Y-72413809D01*
X159741428Y-72604285D01*
X159693809Y-72699523D01*
X159598571Y-72794761D01*
X159455714Y-72842380D01*
X159217619Y-72842380D01*
X160170000Y-72556666D02*
X160646190Y-72556666D01*
X160074761Y-72842380D02*
X160408095Y-71842380D01*
X160741428Y-72842380D01*
X159037976Y-97559761D02*
X159180833Y-97607380D01*
X159418928Y-97607380D01*
X159514166Y-97559761D01*
X159561785Y-97512142D01*
X159609404Y-97416904D01*
X159609404Y-97321666D01*
X159561785Y-97226428D01*
X159514166Y-97178809D01*
X159418928Y-97131190D01*
X159228452Y-97083571D01*
X159133214Y-97035952D01*
X159085595Y-96988333D01*
X159037976Y-96893095D01*
X159037976Y-96797857D01*
X159085595Y-96702619D01*
X159133214Y-96655000D01*
X159228452Y-96607380D01*
X159466547Y-96607380D01*
X159609404Y-96655000D01*
X160418928Y-97559761D02*
X160323690Y-97607380D01*
X160133214Y-97607380D01*
X160037976Y-97559761D01*
X159990357Y-97464523D01*
X159990357Y-97083571D01*
X160037976Y-96988333D01*
X160133214Y-96940714D01*
X160323690Y-96940714D01*
X160418928Y-96988333D01*
X160466547Y-97083571D01*
X160466547Y-97178809D01*
X159990357Y-97274047D01*
X161323690Y-97607380D02*
X161323690Y-97083571D01*
X161276071Y-96988333D01*
X161180833Y-96940714D01*
X160990357Y-96940714D01*
X160895119Y-96988333D01*
X161323690Y-97559761D02*
X161228452Y-97607380D01*
X160990357Y-97607380D01*
X160895119Y-97559761D01*
X160847500Y-97464523D01*
X160847500Y-97369285D01*
X160895119Y-97274047D01*
X160990357Y-97226428D01*
X161228452Y-97226428D01*
X161323690Y-97178809D01*
X161799880Y-96940714D02*
X161799880Y-97607380D01*
X161799880Y-97035952D02*
X161847500Y-96988333D01*
X161942738Y-96940714D01*
X162085595Y-96940714D01*
X162180833Y-96988333D01*
X162228452Y-97083571D01*
X162228452Y-97607380D01*
X163466547Y-97607380D02*
X163466547Y-96607380D01*
X163847500Y-96607380D01*
X163942738Y-96655000D01*
X163990357Y-96702619D01*
X164037976Y-96797857D01*
X164037976Y-96940714D01*
X163990357Y-97035952D01*
X163942738Y-97083571D01*
X163847500Y-97131190D01*
X163466547Y-97131190D01*
X164466547Y-97607380D02*
X164466547Y-96940714D01*
X164466547Y-97131190D02*
X164514166Y-97035952D01*
X164561785Y-96988333D01*
X164657023Y-96940714D01*
X164752261Y-96940714D01*
X165085595Y-97607380D02*
X165085595Y-96940714D01*
X165085595Y-96607380D02*
X165037976Y-96655000D01*
X165085595Y-96702619D01*
X165133214Y-96655000D01*
X165085595Y-96607380D01*
X165085595Y-96702619D01*
X165990357Y-97559761D02*
X165895119Y-97607380D01*
X165704642Y-97607380D01*
X165609404Y-97559761D01*
X165561785Y-97512142D01*
X165514166Y-97416904D01*
X165514166Y-97131190D01*
X165561785Y-97035952D01*
X165609404Y-96988333D01*
X165704642Y-96940714D01*
X165895119Y-96940714D01*
X165990357Y-96988333D01*
X166799880Y-97559761D02*
X166704642Y-97607380D01*
X166514166Y-97607380D01*
X166418928Y-97559761D01*
X166371309Y-97464523D01*
X166371309Y-97083571D01*
X166418928Y-96988333D01*
X166514166Y-96940714D01*
X166704642Y-96940714D01*
X166799880Y-96988333D01*
X166847500Y-97083571D01*
X166847500Y-97178809D01*
X166371309Y-97274047D01*
X189230095Y-75398380D02*
X189230095Y-76207904D01*
X189277714Y-76303142D01*
X189325333Y-76350761D01*
X189420571Y-76398380D01*
X189611047Y-76398380D01*
X189706285Y-76350761D01*
X189753904Y-76303142D01*
X189801523Y-76207904D01*
X189801523Y-75398380D01*
X190230095Y-75493619D02*
X190277714Y-75446000D01*
X190372952Y-75398380D01*
X190611047Y-75398380D01*
X190706285Y-75446000D01*
X190753904Y-75493619D01*
X190801523Y-75588857D01*
X190801523Y-75684095D01*
X190753904Y-75826952D01*
X190182476Y-76398380D01*
X190801523Y-76398380D01*
X162298095Y-50622380D02*
X162298095Y-49622380D01*
X162869523Y-50622380D02*
X162440952Y-50050952D01*
X162869523Y-49622380D02*
X162298095Y-50193809D01*
X152382380Y-69413333D02*
X153096666Y-69413333D01*
X153239523Y-69460952D01*
X153334761Y-69556190D01*
X153382380Y-69699047D01*
X153382380Y-69794285D01*
X153382380Y-68937142D02*
X152382380Y-68937142D01*
X152382380Y-68556190D01*
X152430000Y-68460952D01*
X152477619Y-68413333D01*
X152572857Y-68365714D01*
X152715714Y-68365714D01*
X152810952Y-68413333D01*
X152858571Y-68460952D01*
X152906190Y-68556190D01*
X152906190Y-68937142D01*
X153382380Y-67413333D02*
X153382380Y-67984761D01*
X153382380Y-67699047D02*
X152382380Y-67699047D01*
X152525238Y-67794285D01*
X152620476Y-67889523D01*
X152668095Y-67984761D01*
X173829047Y-58968571D02*
X173971904Y-59016190D01*
X174019523Y-59063809D01*
X174067142Y-59159047D01*
X174067142Y-59301904D01*
X174019523Y-59397142D01*
X173971904Y-59444761D01*
X173876666Y-59492380D01*
X173495714Y-59492380D01*
X173495714Y-58492380D01*
X173829047Y-58492380D01*
X173924285Y-58540000D01*
X173971904Y-58587619D01*
X174019523Y-58682857D01*
X174019523Y-58778095D01*
X173971904Y-58873333D01*
X173924285Y-58920952D01*
X173829047Y-58968571D01*
X173495714Y-58968571D01*
X174400476Y-58492380D02*
X175067142Y-58492380D01*
X174400476Y-59492380D01*
X175067142Y-59492380D01*
X175971904Y-59492380D02*
X175400476Y-59492380D01*
X175686190Y-59492380D02*
X175686190Y-58492380D01*
X175590952Y-58635238D01*
X175495714Y-58730476D01*
X175400476Y-58778095D01*
X171079047Y-64311428D02*
X171840952Y-64311428D01*
X171460000Y-64692380D02*
X171460000Y-63930476D01*
X124968095Y-75652380D02*
X124968095Y-76461904D01*
X125015714Y-76557142D01*
X125063333Y-76604761D01*
X125158571Y-76652380D01*
X125349047Y-76652380D01*
X125444285Y-76604761D01*
X125491904Y-76557142D01*
X125539523Y-76461904D01*
X125539523Y-75652380D01*
X126539523Y-76652380D02*
X125968095Y-76652380D01*
X126253809Y-76652380D02*
X126253809Y-75652380D01*
X126158571Y-75795238D01*
X126063333Y-75890476D01*
X125968095Y-75938095D01*
X112216158Y-69998155D02*
X112135346Y-70025093D01*
X112054534Y-70105905D01*
X112000659Y-70213654D01*
X112000659Y-70321404D01*
X112027597Y-70402216D01*
X112108409Y-70536903D01*
X112189221Y-70617715D01*
X112323908Y-70698528D01*
X112404720Y-70725465D01*
X112512470Y-70725465D01*
X112620219Y-70671590D01*
X112674094Y-70617715D01*
X112727969Y-70509966D01*
X112727969Y-70456091D01*
X112539407Y-70267529D01*
X112431658Y-70375279D01*
X113024280Y-70267529D02*
X112458595Y-69701844D01*
X113347529Y-69944280D01*
X112781844Y-69378595D01*
X113616903Y-69674906D02*
X113051218Y-69109221D01*
X113185905Y-68974534D01*
X113293654Y-68920659D01*
X113401404Y-68920659D01*
X113482216Y-68947597D01*
X113616903Y-69028409D01*
X113697715Y-69109221D01*
X113778528Y-69243908D01*
X113805465Y-69324720D01*
X113805465Y-69432470D01*
X113751590Y-69540219D01*
X113616903Y-69674906D01*
X112243096Y-80131218D02*
X112162284Y-80158155D01*
X112081471Y-80238967D01*
X112027597Y-80346717D01*
X112027597Y-80454467D01*
X112054534Y-80535279D01*
X112135346Y-80669966D01*
X112216158Y-80750778D01*
X112350845Y-80831590D01*
X112431658Y-80858528D01*
X112539407Y-80858528D01*
X112647157Y-80804653D01*
X112701032Y-80750778D01*
X112754906Y-80643028D01*
X112754906Y-80589154D01*
X112566345Y-80400592D01*
X112458595Y-80508341D01*
X113051218Y-80400592D02*
X112485532Y-79834906D01*
X112701032Y-79619407D01*
X112781844Y-79592470D01*
X112835719Y-79592470D01*
X112916531Y-79619407D01*
X112997343Y-79700219D01*
X113024280Y-79781032D01*
X113024280Y-79834906D01*
X112997343Y-79915719D01*
X112781844Y-80131218D01*
X113643841Y-79807969D02*
X113751590Y-79700219D01*
X113778528Y-79619407D01*
X113778528Y-79565532D01*
X113751590Y-79430845D01*
X113670778Y-79296158D01*
X113455279Y-79080659D01*
X113374467Y-79053722D01*
X113320592Y-79053722D01*
X113239780Y-79080659D01*
X113132030Y-79188409D01*
X113105093Y-79269221D01*
X113105093Y-79323096D01*
X113132030Y-79403908D01*
X113266717Y-79538595D01*
X113347529Y-79565532D01*
X113401404Y-79565532D01*
X113482216Y-79538595D01*
X113589966Y-79430845D01*
X113616903Y-79350033D01*
X113616903Y-79296158D01*
X113589966Y-79215346D01*
X112243096Y-77591218D02*
X112162284Y-77618155D01*
X112081471Y-77698967D01*
X112027597Y-77806717D01*
X112027597Y-77914467D01*
X112054534Y-77995279D01*
X112135346Y-78129966D01*
X112216158Y-78210778D01*
X112350845Y-78291590D01*
X112431658Y-78318528D01*
X112539407Y-78318528D01*
X112647157Y-78264653D01*
X112701032Y-78210778D01*
X112754906Y-78103028D01*
X112754906Y-78049154D01*
X112566345Y-77860592D01*
X112458595Y-77968341D01*
X113051218Y-77860592D02*
X112485532Y-77294906D01*
X112701032Y-77079407D01*
X112781844Y-77052470D01*
X112835719Y-77052470D01*
X112916531Y-77079407D01*
X112997343Y-77160219D01*
X113024280Y-77241032D01*
X113024280Y-77294906D01*
X112997343Y-77375719D01*
X112781844Y-77591218D01*
X113374467Y-76890845D02*
X113293654Y-76917783D01*
X113239780Y-76917783D01*
X113158967Y-76890845D01*
X113132030Y-76863908D01*
X113105093Y-76783096D01*
X113105093Y-76729221D01*
X113132030Y-76648409D01*
X113239780Y-76540659D01*
X113320592Y-76513722D01*
X113374467Y-76513722D01*
X113455279Y-76540659D01*
X113482216Y-76567597D01*
X113509154Y-76648409D01*
X113509154Y-76702284D01*
X113482216Y-76783096D01*
X113374467Y-76890845D01*
X113347529Y-76971658D01*
X113347529Y-77025532D01*
X113374467Y-77106345D01*
X113482216Y-77214094D01*
X113563028Y-77241032D01*
X113616903Y-77241032D01*
X113697715Y-77214094D01*
X113805465Y-77106345D01*
X113832402Y-77025532D01*
X113832402Y-76971658D01*
X113805465Y-76890845D01*
X113697715Y-76783096D01*
X113616903Y-76756158D01*
X113563028Y-76756158D01*
X113482216Y-76783096D01*
X111719722Y-85480592D02*
X111638910Y-85507529D01*
X111558097Y-85588341D01*
X111504223Y-85696091D01*
X111504223Y-85803841D01*
X111531160Y-85884653D01*
X111611972Y-86019340D01*
X111692784Y-86100152D01*
X111827471Y-86180964D01*
X111908284Y-86207902D01*
X112016033Y-86207902D01*
X112123783Y-86154027D01*
X112177658Y-86100152D01*
X112231532Y-85992402D01*
X112231532Y-85938528D01*
X112042971Y-85749966D01*
X111935221Y-85857715D01*
X112527844Y-85749966D02*
X111962158Y-85184280D01*
X112177658Y-84968781D01*
X112258470Y-84941844D01*
X112312345Y-84941844D01*
X112393157Y-84968781D01*
X112473969Y-85049593D01*
X112500906Y-85130406D01*
X112500906Y-85184280D01*
X112473969Y-85265093D01*
X112258470Y-85480592D01*
X113389841Y-84887969D02*
X113066592Y-85211218D01*
X113228216Y-85049593D02*
X112662531Y-84483908D01*
X112689468Y-84618595D01*
X112689468Y-84726345D01*
X112662531Y-84807157D01*
X113174341Y-83972097D02*
X113228216Y-83918223D01*
X113309028Y-83891285D01*
X113362903Y-83891285D01*
X113443715Y-83918223D01*
X113578402Y-83999035D01*
X113713089Y-84133722D01*
X113793902Y-84268409D01*
X113820839Y-84349221D01*
X113820839Y-84403096D01*
X113793902Y-84483908D01*
X113740027Y-84537783D01*
X113659215Y-84564720D01*
X113605340Y-84564720D01*
X113524528Y-84537783D01*
X113389841Y-84456971D01*
X113255154Y-84322284D01*
X113174341Y-84187597D01*
X113147404Y-84106784D01*
X113147404Y-84052910D01*
X113174341Y-83972097D01*
X112216158Y-95398155D02*
X112135346Y-95425093D01*
X112054534Y-95505905D01*
X112000659Y-95613654D01*
X112000659Y-95721404D01*
X112027597Y-95802216D01*
X112108409Y-95936903D01*
X112189221Y-96017715D01*
X112323908Y-96098528D01*
X112404720Y-96125465D01*
X112512470Y-96125465D01*
X112620219Y-96071590D01*
X112674094Y-96017715D01*
X112727969Y-95909966D01*
X112727969Y-95856091D01*
X112539407Y-95667529D01*
X112431658Y-95775279D01*
X113024280Y-95667529D02*
X112458595Y-95101844D01*
X113347529Y-95344280D01*
X112781844Y-94778595D01*
X113616903Y-95074906D02*
X113051218Y-94509221D01*
X113185905Y-94374534D01*
X113293654Y-94320659D01*
X113401404Y-94320659D01*
X113482216Y-94347597D01*
X113616903Y-94428409D01*
X113697715Y-94509221D01*
X113778528Y-94643908D01*
X113805465Y-94724720D01*
X113805465Y-94832470D01*
X113751590Y-94940219D01*
X113616903Y-95074906D01*
X137827722Y-85490592D02*
X137746910Y-85517529D01*
X137666097Y-85598341D01*
X137612223Y-85706091D01*
X137612223Y-85813841D01*
X137639160Y-85894653D01*
X137719972Y-86029340D01*
X137800784Y-86110152D01*
X137935471Y-86190964D01*
X138016284Y-86217902D01*
X138124033Y-86217902D01*
X138231783Y-86164027D01*
X138285658Y-86110152D01*
X138339532Y-86002402D01*
X138339532Y-85948528D01*
X138150971Y-85759966D01*
X138043221Y-85867715D01*
X138635844Y-85759966D02*
X138070158Y-85194280D01*
X138285658Y-84978781D01*
X138366470Y-84951844D01*
X138420345Y-84951844D01*
X138501157Y-84978781D01*
X138581969Y-85059593D01*
X138608906Y-85140406D01*
X138608906Y-85194280D01*
X138581969Y-85275093D01*
X138366470Y-85490592D01*
X138662781Y-84709407D02*
X138662781Y-84655532D01*
X138689719Y-84574720D01*
X138824406Y-84440033D01*
X138905218Y-84413096D01*
X138959093Y-84413096D01*
X139039905Y-84440033D01*
X139093780Y-84493908D01*
X139147654Y-84601658D01*
X139147654Y-85248155D01*
X139497841Y-84897969D01*
X140036589Y-84359221D02*
X139713340Y-84682470D01*
X139874964Y-84520845D02*
X139309279Y-83955160D01*
X139336216Y-84089847D01*
X139336216Y-84197597D01*
X139309279Y-84278409D01*
X112243096Y-64891218D02*
X112162284Y-64918155D01*
X112081471Y-64998967D01*
X112027597Y-65106717D01*
X112027597Y-65214467D01*
X112054534Y-65295279D01*
X112135346Y-65429966D01*
X112216158Y-65510778D01*
X112350845Y-65591590D01*
X112431658Y-65618528D01*
X112539407Y-65618528D01*
X112647157Y-65564653D01*
X112701032Y-65510778D01*
X112754906Y-65403028D01*
X112754906Y-65349154D01*
X112566345Y-65160592D01*
X112458595Y-65268341D01*
X113051218Y-65160592D02*
X112485532Y-64594906D01*
X112701032Y-64379407D01*
X112781844Y-64352470D01*
X112835719Y-64352470D01*
X112916531Y-64379407D01*
X112997343Y-64460219D01*
X113024280Y-64541032D01*
X113024280Y-64594906D01*
X112997343Y-64675719D01*
X112781844Y-64891218D01*
X113482216Y-63975346D02*
X113859340Y-64352470D01*
X113132030Y-63894534D02*
X113401404Y-64433282D01*
X113751590Y-64083096D01*
X111573722Y-88020592D02*
X111492910Y-88047529D01*
X111412097Y-88128341D01*
X111358223Y-88236091D01*
X111358223Y-88343841D01*
X111385160Y-88424653D01*
X111465972Y-88559340D01*
X111546784Y-88640152D01*
X111681471Y-88720964D01*
X111762284Y-88747902D01*
X111870033Y-88747902D01*
X111977783Y-88694027D01*
X112031658Y-88640152D01*
X112085532Y-88532402D01*
X112085532Y-88478528D01*
X111896971Y-88289966D01*
X111789221Y-88397715D01*
X112381844Y-88289966D02*
X111816158Y-87724280D01*
X112031658Y-87508781D01*
X112112470Y-87481844D01*
X112166345Y-87481844D01*
X112247157Y-87508781D01*
X112327969Y-87589593D01*
X112354906Y-87670406D01*
X112354906Y-87724280D01*
X112327969Y-87805093D01*
X112112470Y-88020592D01*
X113243841Y-87427969D02*
X112920592Y-87751218D01*
X113082216Y-87589593D02*
X112516531Y-87023908D01*
X112543468Y-87158595D01*
X112543468Y-87266345D01*
X112516531Y-87347157D01*
X113782589Y-86889221D02*
X113459340Y-87212470D01*
X113620964Y-87050845D02*
X113055279Y-86485160D01*
X113082216Y-86619847D01*
X113082216Y-86727597D01*
X113055279Y-86808409D01*
X137827722Y-80400592D02*
X137746910Y-80427529D01*
X137666097Y-80508341D01*
X137612223Y-80616091D01*
X137612223Y-80723841D01*
X137639160Y-80804653D01*
X137719972Y-80939340D01*
X137800784Y-81020152D01*
X137935471Y-81100964D01*
X138016284Y-81127902D01*
X138124033Y-81127902D01*
X138231783Y-81074027D01*
X138285658Y-81020152D01*
X138339532Y-80912402D01*
X138339532Y-80858528D01*
X138150971Y-80669966D01*
X138043221Y-80777715D01*
X138635844Y-80669966D02*
X138070158Y-80104280D01*
X138285658Y-79888781D01*
X138366470Y-79861844D01*
X138420345Y-79861844D01*
X138501157Y-79888781D01*
X138581969Y-79969593D01*
X138608906Y-80050406D01*
X138608906Y-80104280D01*
X138581969Y-80185093D01*
X138366470Y-80400592D01*
X138662781Y-79619407D02*
X138662781Y-79565532D01*
X138689719Y-79484720D01*
X138824406Y-79350033D01*
X138905218Y-79323096D01*
X138959093Y-79323096D01*
X139039905Y-79350033D01*
X139093780Y-79403908D01*
X139147654Y-79511658D01*
X139147654Y-80158155D01*
X139497841Y-79807969D01*
X139201529Y-79080659D02*
X139201529Y-79026784D01*
X139228467Y-78945972D01*
X139363154Y-78811285D01*
X139443966Y-78784348D01*
X139497841Y-78784348D01*
X139578653Y-78811285D01*
X139632528Y-78865160D01*
X139686402Y-78972910D01*
X139686402Y-79619407D01*
X140036589Y-79269221D01*
X112243096Y-52191218D02*
X112162284Y-52218155D01*
X112081471Y-52298967D01*
X112027597Y-52406717D01*
X112027597Y-52514467D01*
X112054534Y-52595279D01*
X112135346Y-52729966D01*
X112216158Y-52810778D01*
X112350845Y-52891590D01*
X112431658Y-52918528D01*
X112539407Y-52918528D01*
X112647157Y-52864653D01*
X112701032Y-52810778D01*
X112754906Y-52703028D01*
X112754906Y-52649154D01*
X112566345Y-52460592D01*
X112458595Y-52568341D01*
X113051218Y-52460592D02*
X112485532Y-51894906D01*
X112701032Y-51679407D01*
X112781844Y-51652470D01*
X112835719Y-51652470D01*
X112916531Y-51679407D01*
X112997343Y-51760219D01*
X113024280Y-51841032D01*
X113024280Y-51894906D01*
X112997343Y-51975719D01*
X112781844Y-52191218D01*
X113158967Y-51221471D02*
X113212842Y-51167597D01*
X113293654Y-51140659D01*
X113347529Y-51140659D01*
X113428341Y-51167597D01*
X113563028Y-51248409D01*
X113697715Y-51383096D01*
X113778528Y-51517783D01*
X113805465Y-51598595D01*
X113805465Y-51652470D01*
X113778528Y-51733282D01*
X113724653Y-51787157D01*
X113643841Y-51814094D01*
X113589966Y-51814094D01*
X113509154Y-51787157D01*
X113374467Y-51706345D01*
X113239780Y-51571658D01*
X113158967Y-51436971D01*
X113132030Y-51356158D01*
X113132030Y-51302284D01*
X113158967Y-51221471D01*
X112243096Y-72511218D02*
X112162284Y-72538155D01*
X112081471Y-72618967D01*
X112027597Y-72726717D01*
X112027597Y-72834467D01*
X112054534Y-72915279D01*
X112135346Y-73049966D01*
X112216158Y-73130778D01*
X112350845Y-73211590D01*
X112431658Y-73238528D01*
X112539407Y-73238528D01*
X112647157Y-73184653D01*
X112701032Y-73130778D01*
X112754906Y-73023028D01*
X112754906Y-72969154D01*
X112566345Y-72780592D01*
X112458595Y-72888341D01*
X113051218Y-72780592D02*
X112485532Y-72214906D01*
X112701032Y-71999407D01*
X112781844Y-71972470D01*
X112835719Y-71972470D01*
X112916531Y-71999407D01*
X112997343Y-72080219D01*
X113024280Y-72161032D01*
X113024280Y-72214906D01*
X112997343Y-72295719D01*
X112781844Y-72511218D01*
X113293654Y-71406784D02*
X113185905Y-71514534D01*
X113158967Y-71595346D01*
X113158967Y-71649221D01*
X113185905Y-71783908D01*
X113266717Y-71918595D01*
X113482216Y-72134094D01*
X113563028Y-72161032D01*
X113616903Y-72161032D01*
X113697715Y-72134094D01*
X113805465Y-72026345D01*
X113832402Y-71945532D01*
X113832402Y-71891658D01*
X113805465Y-71810845D01*
X113670778Y-71676158D01*
X113589966Y-71649221D01*
X113536091Y-71649221D01*
X113455279Y-71676158D01*
X113347529Y-71783908D01*
X113320592Y-71864720D01*
X113320592Y-71918595D01*
X113347529Y-71999407D01*
X137827722Y-72790592D02*
X137746910Y-72817529D01*
X137666097Y-72898341D01*
X137612223Y-73006091D01*
X137612223Y-73113841D01*
X137639160Y-73194653D01*
X137719972Y-73329340D01*
X137800784Y-73410152D01*
X137935471Y-73490964D01*
X138016284Y-73517902D01*
X138124033Y-73517902D01*
X138231783Y-73464027D01*
X138285658Y-73410152D01*
X138339532Y-73302402D01*
X138339532Y-73248528D01*
X138150971Y-73059966D01*
X138043221Y-73167715D01*
X138635844Y-73059966D02*
X138070158Y-72494280D01*
X138285658Y-72278781D01*
X138366470Y-72251844D01*
X138420345Y-72251844D01*
X138501157Y-72278781D01*
X138581969Y-72359593D01*
X138608906Y-72440406D01*
X138608906Y-72494280D01*
X138581969Y-72575093D01*
X138366470Y-72790592D01*
X138662781Y-72009407D02*
X138662781Y-71955532D01*
X138689719Y-71874720D01*
X138824406Y-71740033D01*
X138905218Y-71713096D01*
X138959093Y-71713096D01*
X139039905Y-71740033D01*
X139093780Y-71793908D01*
X139147654Y-71901658D01*
X139147654Y-72548155D01*
X139497841Y-72197969D01*
X139120717Y-71443722D02*
X139497841Y-71066598D01*
X139821089Y-71874720D01*
X137827722Y-75320592D02*
X137746910Y-75347529D01*
X137666097Y-75428341D01*
X137612223Y-75536091D01*
X137612223Y-75643841D01*
X137639160Y-75724653D01*
X137719972Y-75859340D01*
X137800784Y-75940152D01*
X137935471Y-76020964D01*
X138016284Y-76047902D01*
X138124033Y-76047902D01*
X138231783Y-75994027D01*
X138285658Y-75940152D01*
X138339532Y-75832402D01*
X138339532Y-75778528D01*
X138150971Y-75589966D01*
X138043221Y-75697715D01*
X138635844Y-75589966D02*
X138070158Y-75024280D01*
X138285658Y-74808781D01*
X138366470Y-74781844D01*
X138420345Y-74781844D01*
X138501157Y-74808781D01*
X138581969Y-74889593D01*
X138608906Y-74970406D01*
X138608906Y-75024280D01*
X138581969Y-75105093D01*
X138366470Y-75320592D01*
X138662781Y-74539407D02*
X138662781Y-74485532D01*
X138689719Y-74404720D01*
X138824406Y-74270033D01*
X138905218Y-74243096D01*
X138959093Y-74243096D01*
X139039905Y-74270033D01*
X139093780Y-74323908D01*
X139147654Y-74431658D01*
X139147654Y-75078155D01*
X139497841Y-74727969D01*
X139417028Y-73677410D02*
X139309279Y-73785160D01*
X139282341Y-73865972D01*
X139282341Y-73919847D01*
X139309279Y-74054534D01*
X139390091Y-74189221D01*
X139605590Y-74404720D01*
X139686402Y-74431658D01*
X139740277Y-74431658D01*
X139821089Y-74404720D01*
X139928839Y-74296971D01*
X139955776Y-74216158D01*
X139955776Y-74162284D01*
X139928839Y-74081471D01*
X139794152Y-73946784D01*
X139713340Y-73919847D01*
X139659465Y-73919847D01*
X139578653Y-73946784D01*
X139470903Y-74054534D01*
X139443966Y-74135346D01*
X139443966Y-74189221D01*
X139470903Y-74270033D01*
X137827722Y-93100592D02*
X137746910Y-93127529D01*
X137666097Y-93208341D01*
X137612223Y-93316091D01*
X137612223Y-93423841D01*
X137639160Y-93504653D01*
X137719972Y-93639340D01*
X137800784Y-93720152D01*
X137935471Y-93800964D01*
X138016284Y-93827902D01*
X138124033Y-93827902D01*
X138231783Y-93774027D01*
X138285658Y-93720152D01*
X138339532Y-93612402D01*
X138339532Y-93558528D01*
X138150971Y-93369966D01*
X138043221Y-93477715D01*
X138635844Y-93369966D02*
X138070158Y-92804280D01*
X138285658Y-92588781D01*
X138366470Y-92561844D01*
X138420345Y-92561844D01*
X138501157Y-92588781D01*
X138581969Y-92669593D01*
X138608906Y-92750406D01*
X138608906Y-92804280D01*
X138581969Y-92885093D01*
X138366470Y-93100592D01*
X139497841Y-92507969D02*
X139174592Y-92831218D01*
X139336216Y-92669593D02*
X138770531Y-92103908D01*
X138797468Y-92238595D01*
X138797468Y-92346345D01*
X138770531Y-92427157D01*
X139497841Y-91861471D02*
X139417028Y-91888409D01*
X139363154Y-91888409D01*
X139282341Y-91861471D01*
X139255404Y-91834534D01*
X139228467Y-91753722D01*
X139228467Y-91699847D01*
X139255404Y-91619035D01*
X139363154Y-91511285D01*
X139443966Y-91484348D01*
X139497841Y-91484348D01*
X139578653Y-91511285D01*
X139605590Y-91538223D01*
X139632528Y-91619035D01*
X139632528Y-91672910D01*
X139605590Y-91753722D01*
X139497841Y-91861471D01*
X139470903Y-91942284D01*
X139470903Y-91996158D01*
X139497841Y-92076971D01*
X139605590Y-92184720D01*
X139686402Y-92211658D01*
X139740277Y-92211658D01*
X139821089Y-92184720D01*
X139928839Y-92076971D01*
X139955776Y-91996158D01*
X139955776Y-91942284D01*
X139928839Y-91861471D01*
X139821089Y-91753722D01*
X139740277Y-91726784D01*
X139686402Y-91726784D01*
X139605590Y-91753722D01*
X129634761Y-102723809D02*
X129749047Y-102761904D01*
X129939523Y-102761904D01*
X130015714Y-102723809D01*
X130053809Y-102685714D01*
X130091904Y-102609523D01*
X130091904Y-102533333D01*
X130053809Y-102457142D01*
X130015714Y-102419047D01*
X129939523Y-102380952D01*
X129787142Y-102342857D01*
X129710952Y-102304761D01*
X129672857Y-102266666D01*
X129634761Y-102190476D01*
X129634761Y-102114285D01*
X129672857Y-102038095D01*
X129710952Y-102000000D01*
X129787142Y-101961904D01*
X129977619Y-101961904D01*
X130091904Y-102000000D01*
X130358571Y-101961904D02*
X130549047Y-102761904D01*
X130701428Y-102190476D01*
X130853809Y-102761904D01*
X131044285Y-101961904D01*
X131349047Y-102761904D02*
X131349047Y-101961904D01*
X131539523Y-101961904D01*
X131653809Y-102000000D01*
X131730000Y-102076190D01*
X131768095Y-102152380D01*
X131806190Y-102304761D01*
X131806190Y-102419047D01*
X131768095Y-102571428D01*
X131730000Y-102647619D01*
X131653809Y-102723809D01*
X131539523Y-102761904D01*
X131349047Y-102761904D01*
X132149047Y-102761904D02*
X132149047Y-101961904D01*
X132682380Y-101961904D02*
X132834761Y-101961904D01*
X132910952Y-102000000D01*
X132987142Y-102076190D01*
X133025238Y-102228571D01*
X133025238Y-102495238D01*
X132987142Y-102647619D01*
X132910952Y-102723809D01*
X132834761Y-102761904D01*
X132682380Y-102761904D01*
X132606190Y-102723809D01*
X132530000Y-102647619D01*
X132491904Y-102495238D01*
X132491904Y-102228571D01*
X132530000Y-102076190D01*
X132606190Y-102000000D01*
X132682380Y-101961904D01*
X137881597Y-70940964D02*
X138150971Y-70671590D01*
X137989346Y-71156463D02*
X137612223Y-70402216D01*
X138366470Y-70779340D01*
X138312595Y-69755719D02*
X138231783Y-69782656D01*
X138150971Y-69863468D01*
X138097096Y-69971218D01*
X138097096Y-70078967D01*
X138124033Y-70159780D01*
X138204845Y-70294467D01*
X138285658Y-70375279D01*
X138420345Y-70456091D01*
X138501157Y-70483028D01*
X138608906Y-70483028D01*
X138716656Y-70429154D01*
X138770531Y-70375279D01*
X138824406Y-70267529D01*
X138824406Y-70213654D01*
X138635844Y-70025093D01*
X138528094Y-70132842D01*
X139120717Y-70025093D02*
X138555032Y-69459407D01*
X139443966Y-69701844D01*
X138878280Y-69136158D01*
X139713340Y-69432470D02*
X139147654Y-68866784D01*
X139282341Y-68732097D01*
X139390091Y-68678223D01*
X139497841Y-68678223D01*
X139578653Y-68705160D01*
X139713340Y-68785972D01*
X139794152Y-68866784D01*
X139874964Y-69001471D01*
X139901902Y-69082284D01*
X139901902Y-69190033D01*
X139848027Y-69297783D01*
X139713340Y-69432470D01*
X111719722Y-100720592D02*
X111638910Y-100747529D01*
X111558097Y-100828341D01*
X111504223Y-100936091D01*
X111504223Y-101043841D01*
X111531160Y-101124653D01*
X111611972Y-101259340D01*
X111692784Y-101340152D01*
X111827471Y-101420964D01*
X111908284Y-101447902D01*
X112016033Y-101447902D01*
X112123783Y-101394027D01*
X112177658Y-101340152D01*
X112231532Y-101232402D01*
X112231532Y-101178528D01*
X112042971Y-100989966D01*
X111935221Y-101097715D01*
X112527844Y-100989966D02*
X111962158Y-100424280D01*
X112177658Y-100208781D01*
X112258470Y-100181844D01*
X112312345Y-100181844D01*
X112393157Y-100208781D01*
X112473969Y-100289593D01*
X112500906Y-100370406D01*
X112500906Y-100424280D01*
X112473969Y-100505093D01*
X112258470Y-100720592D01*
X113389841Y-100127969D02*
X113066592Y-100451218D01*
X113228216Y-100289593D02*
X112662531Y-99723908D01*
X112689468Y-99858595D01*
X112689468Y-99966345D01*
X112662531Y-100047157D01*
X113335966Y-99050473D02*
X113066592Y-99319847D01*
X113309028Y-99616158D01*
X113309028Y-99562284D01*
X113335966Y-99481471D01*
X113470653Y-99346784D01*
X113551465Y-99319847D01*
X113605340Y-99319847D01*
X113686152Y-99346784D01*
X113820839Y-99481471D01*
X113847776Y-99562284D01*
X113847776Y-99616158D01*
X113820839Y-99696971D01*
X113686152Y-99831658D01*
X113605340Y-99858595D01*
X113551465Y-99858595D01*
X112343096Y-75021218D02*
X112262284Y-75048155D01*
X112181471Y-75128967D01*
X112127597Y-75236717D01*
X112127597Y-75344467D01*
X112154534Y-75425279D01*
X112235346Y-75559966D01*
X112316158Y-75640778D01*
X112450845Y-75721590D01*
X112531658Y-75748528D01*
X112639407Y-75748528D01*
X112747157Y-75694653D01*
X112801032Y-75640778D01*
X112854906Y-75533028D01*
X112854906Y-75479154D01*
X112666345Y-75290592D01*
X112558595Y-75398341D01*
X113151218Y-75290592D02*
X112585532Y-74724906D01*
X112801032Y-74509407D01*
X112881844Y-74482470D01*
X112935719Y-74482470D01*
X113016531Y-74509407D01*
X113097343Y-74590219D01*
X113124280Y-74671032D01*
X113124280Y-74724906D01*
X113097343Y-74805719D01*
X112881844Y-75021218D01*
X113097343Y-74213096D02*
X113474467Y-73835972D01*
X113797715Y-74644094D01*
X137652131Y-60158308D02*
X138002317Y-59808122D01*
X138029255Y-60212183D01*
X138110067Y-60131370D01*
X138190879Y-60104433D01*
X138244754Y-60104433D01*
X138325566Y-60131370D01*
X138460253Y-60266057D01*
X138487190Y-60346870D01*
X138487190Y-60400744D01*
X138460253Y-60481557D01*
X138298629Y-60643181D01*
X138217816Y-60670118D01*
X138163942Y-60670118D01*
X138163942Y-59646497D02*
X138918189Y-60023621D01*
X138541065Y-59269374D01*
X138675752Y-59134687D02*
X139025938Y-58784500D01*
X139052876Y-59188561D01*
X139133688Y-59107749D01*
X139214500Y-59080812D01*
X139268375Y-59080812D01*
X139349187Y-59107749D01*
X139483874Y-59242436D01*
X139510812Y-59323248D01*
X139510812Y-59377123D01*
X139483874Y-59457935D01*
X139322250Y-59619560D01*
X139241438Y-59646497D01*
X139187563Y-59646497D01*
X139753248Y-59296311D02*
X140184247Y-58865312D01*
X139968748Y-58380439D02*
X140157309Y-58191877D01*
X140534433Y-58407377D02*
X140265059Y-58676751D01*
X139699374Y-58111065D01*
X139968748Y-57841691D01*
X140776870Y-58164940D02*
X140211184Y-57599255D01*
X141100118Y-57841691D01*
X140534433Y-57276006D01*
X137827722Y-98180592D02*
X137746910Y-98207529D01*
X137666097Y-98288341D01*
X137612223Y-98396091D01*
X137612223Y-98503841D01*
X137639160Y-98584653D01*
X137719972Y-98719340D01*
X137800784Y-98800152D01*
X137935471Y-98880964D01*
X138016284Y-98907902D01*
X138124033Y-98907902D01*
X138231783Y-98854027D01*
X138285658Y-98800152D01*
X138339532Y-98692402D01*
X138339532Y-98638528D01*
X138150971Y-98449966D01*
X138043221Y-98557715D01*
X138635844Y-98449966D02*
X138070158Y-97884280D01*
X138285658Y-97668781D01*
X138366470Y-97641844D01*
X138420345Y-97641844D01*
X138501157Y-97668781D01*
X138581969Y-97749593D01*
X138608906Y-97830406D01*
X138608906Y-97884280D01*
X138581969Y-97965093D01*
X138366470Y-98180592D01*
X139497841Y-97587969D02*
X139174592Y-97911218D01*
X139336216Y-97749593D02*
X138770531Y-97183908D01*
X138797468Y-97318595D01*
X138797468Y-97426345D01*
X138770531Y-97507157D01*
X139120717Y-96833722D02*
X139497841Y-96456598D01*
X139821089Y-97264720D01*
X111673722Y-98180592D02*
X111592910Y-98207529D01*
X111512097Y-98288341D01*
X111458223Y-98396091D01*
X111458223Y-98503841D01*
X111485160Y-98584653D01*
X111565972Y-98719340D01*
X111646784Y-98800152D01*
X111781471Y-98880964D01*
X111862284Y-98907902D01*
X111970033Y-98907902D01*
X112077783Y-98854027D01*
X112131658Y-98800152D01*
X112185532Y-98692402D01*
X112185532Y-98638528D01*
X111996971Y-98449966D01*
X111889221Y-98557715D01*
X112481844Y-98449966D02*
X111916158Y-97884280D01*
X112131658Y-97668781D01*
X112212470Y-97641844D01*
X112266345Y-97641844D01*
X112347157Y-97668781D01*
X112427969Y-97749593D01*
X112454906Y-97830406D01*
X112454906Y-97884280D01*
X112427969Y-97965093D01*
X112212470Y-98180592D01*
X113343841Y-97587969D02*
X113020592Y-97911218D01*
X113182216Y-97749593D02*
X112616531Y-97183908D01*
X112643468Y-97318595D01*
X112643468Y-97426345D01*
X112616531Y-97507157D01*
X113451590Y-96725972D02*
X113828714Y-97103096D01*
X113101404Y-96645160D02*
X113370778Y-97183908D01*
X113720964Y-96833722D01*
X137827722Y-90560592D02*
X137746910Y-90587529D01*
X137666097Y-90668341D01*
X137612223Y-90776091D01*
X137612223Y-90883841D01*
X137639160Y-90964653D01*
X137719972Y-91099340D01*
X137800784Y-91180152D01*
X137935471Y-91260964D01*
X138016284Y-91287902D01*
X138124033Y-91287902D01*
X138231783Y-91234027D01*
X138285658Y-91180152D01*
X138339532Y-91072402D01*
X138339532Y-91018528D01*
X138150971Y-90829966D01*
X138043221Y-90937715D01*
X138635844Y-90829966D02*
X138070158Y-90264280D01*
X138285658Y-90048781D01*
X138366470Y-90021844D01*
X138420345Y-90021844D01*
X138501157Y-90048781D01*
X138581969Y-90129593D01*
X138608906Y-90210406D01*
X138608906Y-90264280D01*
X138581969Y-90345093D01*
X138366470Y-90560592D01*
X139497841Y-89967969D02*
X139174592Y-90291218D01*
X139336216Y-90129593D02*
X138770531Y-89563908D01*
X138797468Y-89698595D01*
X138797468Y-89806345D01*
X138770531Y-89887157D01*
X139767215Y-89698595D02*
X139874964Y-89590845D01*
X139901902Y-89510033D01*
X139901902Y-89456158D01*
X139874964Y-89321471D01*
X139794152Y-89186784D01*
X139578653Y-88971285D01*
X139497841Y-88944348D01*
X139443966Y-88944348D01*
X139363154Y-88971285D01*
X139255404Y-89079035D01*
X139228467Y-89159847D01*
X139228467Y-89213722D01*
X139255404Y-89294534D01*
X139390091Y-89429221D01*
X139470903Y-89456158D01*
X139524778Y-89456158D01*
X139605590Y-89429221D01*
X139713340Y-89321471D01*
X139740277Y-89240659D01*
X139740277Y-89186784D01*
X139713340Y-89105972D01*
X137650473Y-55269966D02*
X138404720Y-55647089D01*
X138027597Y-54892842D01*
X138727969Y-55269966D02*
X138835719Y-55216091D01*
X138970406Y-55081404D01*
X138997343Y-55000592D01*
X138997343Y-54946717D01*
X138970406Y-54865905D01*
X138916531Y-54812030D01*
X138835719Y-54785093D01*
X138781844Y-54785093D01*
X138701032Y-54812030D01*
X138566345Y-54892842D01*
X138485532Y-54919780D01*
X138431658Y-54919780D01*
X138350845Y-54892842D01*
X138296971Y-54838967D01*
X138270033Y-54758155D01*
X138270033Y-54704280D01*
X138296971Y-54623468D01*
X138431658Y-54488781D01*
X138539407Y-54434906D01*
X139158967Y-54354094D02*
X139428341Y-54623468D01*
X138674094Y-54246345D02*
X139158967Y-54354094D01*
X139051218Y-53869221D01*
X139751590Y-54246345D02*
X139859340Y-54192470D01*
X139994027Y-54057783D01*
X140020964Y-53976971D01*
X140020964Y-53923096D01*
X139994027Y-53842284D01*
X139940152Y-53788409D01*
X139859340Y-53761471D01*
X139805465Y-53761471D01*
X139724653Y-53788409D01*
X139589966Y-53869221D01*
X139509154Y-53896158D01*
X139455279Y-53896158D01*
X139374467Y-53869221D01*
X139320592Y-53815346D01*
X139293654Y-53734534D01*
X139293654Y-53680659D01*
X139320592Y-53599847D01*
X139455279Y-53465160D01*
X139563028Y-53411285D01*
X137827722Y-100720592D02*
X137746910Y-100747529D01*
X137666097Y-100828341D01*
X137612223Y-100936091D01*
X137612223Y-101043841D01*
X137639160Y-101124653D01*
X137719972Y-101259340D01*
X137800784Y-101340152D01*
X137935471Y-101420964D01*
X138016284Y-101447902D01*
X138124033Y-101447902D01*
X138231783Y-101394027D01*
X138285658Y-101340152D01*
X138339532Y-101232402D01*
X138339532Y-101178528D01*
X138150971Y-100989966D01*
X138043221Y-101097715D01*
X138635844Y-100989966D02*
X138070158Y-100424280D01*
X138285658Y-100208781D01*
X138366470Y-100181844D01*
X138420345Y-100181844D01*
X138501157Y-100208781D01*
X138581969Y-100289593D01*
X138608906Y-100370406D01*
X138608906Y-100424280D01*
X138581969Y-100505093D01*
X138366470Y-100720592D01*
X139497841Y-100127969D02*
X139174592Y-100451218D01*
X139336216Y-100289593D02*
X138770531Y-99723908D01*
X138797468Y-99858595D01*
X138797468Y-99966345D01*
X138770531Y-100047157D01*
X139417028Y-99077410D02*
X139309279Y-99185160D01*
X139282341Y-99265972D01*
X139282341Y-99319847D01*
X139309279Y-99454534D01*
X139390091Y-99589221D01*
X139605590Y-99804720D01*
X139686402Y-99831658D01*
X139740277Y-99831658D01*
X139821089Y-99804720D01*
X139928839Y-99696971D01*
X139955776Y-99616158D01*
X139955776Y-99562284D01*
X139928839Y-99481471D01*
X139794152Y-99346784D01*
X139713340Y-99319847D01*
X139659465Y-99319847D01*
X139578653Y-99346784D01*
X139470903Y-99454534D01*
X139443966Y-99535346D01*
X139443966Y-99589221D01*
X139470903Y-99670033D01*
X137816158Y-82698155D02*
X137735346Y-82725093D01*
X137654534Y-82805905D01*
X137600659Y-82913654D01*
X137600659Y-83021404D01*
X137627597Y-83102216D01*
X137708409Y-83236903D01*
X137789221Y-83317715D01*
X137923908Y-83398528D01*
X138004720Y-83425465D01*
X138112470Y-83425465D01*
X138220219Y-83371590D01*
X138274094Y-83317715D01*
X138327969Y-83209966D01*
X138327969Y-83156091D01*
X138139407Y-82967529D01*
X138031658Y-83075279D01*
X138624280Y-82967529D02*
X138058595Y-82401844D01*
X138947529Y-82644280D01*
X138381844Y-82078595D01*
X139216903Y-82374906D02*
X138651218Y-81809221D01*
X138785905Y-81674534D01*
X138893654Y-81620659D01*
X139001404Y-81620659D01*
X139082216Y-81647597D01*
X139216903Y-81728409D01*
X139297715Y-81809221D01*
X139378528Y-81943908D01*
X139405465Y-82024720D01*
X139405465Y-82132470D01*
X139351590Y-82240219D01*
X139216903Y-82374906D01*
X137683129Y-52727309D02*
X138437377Y-53104433D01*
X138060253Y-52350186D01*
X138706751Y-52242436D02*
X138814500Y-52188561D01*
X138868375Y-52188561D01*
X138949187Y-52215499D01*
X139030000Y-52296311D01*
X139056937Y-52377123D01*
X139056937Y-52430998D01*
X139030000Y-52511810D01*
X138814500Y-52727309D01*
X138248815Y-52161624D01*
X138437377Y-51973062D01*
X138518189Y-51946125D01*
X138572064Y-51946125D01*
X138652876Y-51973062D01*
X138706751Y-52026937D01*
X138733688Y-52107749D01*
X138733688Y-52161624D01*
X138706751Y-52242436D01*
X138518189Y-52430998D01*
X138814500Y-51595938D02*
X139272436Y-52053874D01*
X139353248Y-52080812D01*
X139407123Y-52080812D01*
X139487935Y-52053874D01*
X139595685Y-51946125D01*
X139622622Y-51865312D01*
X139622622Y-51811438D01*
X139595685Y-51730625D01*
X139137749Y-51272690D01*
X139918934Y-51569001D02*
X140026683Y-51515126D01*
X140161370Y-51380439D01*
X140188308Y-51299627D01*
X140188308Y-51245752D01*
X140161370Y-51164940D01*
X140107496Y-51111065D01*
X140026683Y-51084128D01*
X139972809Y-51084128D01*
X139891996Y-51111065D01*
X139757309Y-51191877D01*
X139676497Y-51218815D01*
X139622622Y-51218815D01*
X139541810Y-51191877D01*
X139487935Y-51138003D01*
X139460998Y-51057190D01*
X139460998Y-51003316D01*
X139487935Y-50922503D01*
X139622622Y-50787816D01*
X139730372Y-50733942D01*
X137884788Y-65733773D02*
X138154162Y-65464399D01*
X137992537Y-65949272D02*
X137615414Y-65195025D01*
X138369661Y-65572149D01*
X138558223Y-65383587D02*
X137992537Y-64817902D01*
X138127224Y-64683215D01*
X138234974Y-64629340D01*
X138342723Y-64629340D01*
X138423536Y-64656277D01*
X138558223Y-64737089D01*
X138639035Y-64817902D01*
X138719847Y-64952589D01*
X138746784Y-65033401D01*
X138746784Y-65141150D01*
X138692910Y-65248900D01*
X138558223Y-65383587D01*
X139393282Y-64440778D02*
X139393282Y-64494653D01*
X139339407Y-64602402D01*
X139285532Y-64656277D01*
X139177783Y-64710152D01*
X139070033Y-64710152D01*
X138989221Y-64683215D01*
X138854534Y-64602402D01*
X138773722Y-64521590D01*
X138692910Y-64386903D01*
X138665972Y-64306091D01*
X138665972Y-64198341D01*
X138719847Y-64090592D01*
X138773722Y-64036717D01*
X138881471Y-63982842D01*
X138935346Y-63982842D01*
X139608781Y-64440778D02*
X140039780Y-64009780D01*
X139474094Y-63336345D02*
X140228341Y-63713468D01*
X139851218Y-62959221D01*
X140928714Y-63013096D02*
X140470778Y-62932284D01*
X140605465Y-63336345D02*
X140039780Y-62770659D01*
X140255279Y-62555160D01*
X140336091Y-62528223D01*
X140389966Y-62528223D01*
X140470778Y-62555160D01*
X140551590Y-62635972D01*
X140578528Y-62716784D01*
X140578528Y-62770659D01*
X140551590Y-62851471D01*
X140336091Y-63066971D01*
X140874839Y-62474348D02*
X141063401Y-62285786D01*
X141440524Y-62501285D02*
X141171150Y-62770659D01*
X140605465Y-62204974D01*
X140874839Y-61935600D01*
X141575211Y-61773975D02*
X141386650Y-61962537D01*
X141682961Y-62258849D02*
X141117276Y-61693163D01*
X141386650Y-61423789D01*
X112243096Y-62351218D02*
X112162284Y-62378155D01*
X112081471Y-62458967D01*
X112027597Y-62566717D01*
X112027597Y-62674467D01*
X112054534Y-62755279D01*
X112135346Y-62889966D01*
X112216158Y-62970778D01*
X112350845Y-63051590D01*
X112431658Y-63078528D01*
X112539407Y-63078528D01*
X112647157Y-63024653D01*
X112701032Y-62970778D01*
X112754906Y-62863028D01*
X112754906Y-62809154D01*
X112566345Y-62620592D01*
X112458595Y-62728341D01*
X113051218Y-62620592D02*
X112485532Y-62054906D01*
X112701032Y-61839407D01*
X112781844Y-61812470D01*
X112835719Y-61812470D01*
X112916531Y-61839407D01*
X112997343Y-61920219D01*
X113024280Y-62001032D01*
X113024280Y-62054906D01*
X112997343Y-62135719D01*
X112781844Y-62351218D01*
X112997343Y-61543096D02*
X113347529Y-61192910D01*
X113374467Y-61596971D01*
X113455279Y-61516158D01*
X113536091Y-61489221D01*
X113589966Y-61489221D01*
X113670778Y-61516158D01*
X113805465Y-61650845D01*
X113832402Y-61731658D01*
X113832402Y-61785532D01*
X113805465Y-61866345D01*
X113643841Y-62027969D01*
X113563028Y-62054906D01*
X113509154Y-62054906D01*
X112243096Y-67431218D02*
X112162284Y-67458155D01*
X112081471Y-67538967D01*
X112027597Y-67646717D01*
X112027597Y-67754467D01*
X112054534Y-67835279D01*
X112135346Y-67969966D01*
X112216158Y-68050778D01*
X112350845Y-68131590D01*
X112431658Y-68158528D01*
X112539407Y-68158528D01*
X112647157Y-68104653D01*
X112701032Y-68050778D01*
X112754906Y-67943028D01*
X112754906Y-67889154D01*
X112566345Y-67700592D01*
X112458595Y-67808341D01*
X113051218Y-67700592D02*
X112485532Y-67134906D01*
X112701032Y-66919407D01*
X112781844Y-66892470D01*
X112835719Y-66892470D01*
X112916531Y-66919407D01*
X112997343Y-67000219D01*
X113024280Y-67081032D01*
X113024280Y-67134906D01*
X112997343Y-67215719D01*
X112781844Y-67431218D01*
X113320592Y-66299847D02*
X113051218Y-66569221D01*
X113293654Y-66865532D01*
X113293654Y-66811658D01*
X113320592Y-66730845D01*
X113455279Y-66596158D01*
X113536091Y-66569221D01*
X113589966Y-66569221D01*
X113670778Y-66596158D01*
X113805465Y-66730845D01*
X113832402Y-66811658D01*
X113832402Y-66865532D01*
X113805465Y-66946345D01*
X113670778Y-67081032D01*
X113589966Y-67107969D01*
X113536091Y-67107969D01*
X137816158Y-57298155D02*
X137735346Y-57325093D01*
X137654534Y-57405905D01*
X137600659Y-57513654D01*
X137600659Y-57621404D01*
X137627597Y-57702216D01*
X137708409Y-57836903D01*
X137789221Y-57917715D01*
X137923908Y-57998528D01*
X138004720Y-58025465D01*
X138112470Y-58025465D01*
X138220219Y-57971590D01*
X138274094Y-57917715D01*
X138327969Y-57809966D01*
X138327969Y-57756091D01*
X138139407Y-57567529D01*
X138031658Y-57675279D01*
X138624280Y-57567529D02*
X138058595Y-57001844D01*
X138947529Y-57244280D01*
X138381844Y-56678595D01*
X139216903Y-56974906D02*
X138651218Y-56409221D01*
X138785905Y-56274534D01*
X138893654Y-56220659D01*
X139001404Y-56220659D01*
X139082216Y-56247597D01*
X139216903Y-56328409D01*
X139297715Y-56409221D01*
X139378528Y-56543908D01*
X139405465Y-56624720D01*
X139405465Y-56732470D01*
X139351590Y-56840219D01*
X139216903Y-56974906D01*
X112143096Y-54721218D02*
X112062284Y-54748155D01*
X111981471Y-54828967D01*
X111927597Y-54936717D01*
X111927597Y-55044467D01*
X111954534Y-55125279D01*
X112035346Y-55259966D01*
X112116158Y-55340778D01*
X112250845Y-55421590D01*
X112331658Y-55448528D01*
X112439407Y-55448528D01*
X112547157Y-55394653D01*
X112601032Y-55340778D01*
X112654906Y-55233028D01*
X112654906Y-55179154D01*
X112466345Y-54990592D01*
X112358595Y-55098341D01*
X112951218Y-54990592D02*
X112385532Y-54424906D01*
X112601032Y-54209407D01*
X112681844Y-54182470D01*
X112735719Y-54182470D01*
X112816531Y-54209407D01*
X112897343Y-54290219D01*
X112924280Y-54371032D01*
X112924280Y-54424906D01*
X112897343Y-54505719D01*
X112681844Y-54721218D01*
X113813215Y-54128595D02*
X113489966Y-54451844D01*
X113651590Y-54290219D02*
X113085905Y-53724534D01*
X113112842Y-53859221D01*
X113112842Y-53966971D01*
X113085905Y-54047783D01*
X111719722Y-93100592D02*
X111638910Y-93127529D01*
X111558097Y-93208341D01*
X111504223Y-93316091D01*
X111504223Y-93423841D01*
X111531160Y-93504653D01*
X111611972Y-93639340D01*
X111692784Y-93720152D01*
X111827471Y-93800964D01*
X111908284Y-93827902D01*
X112016033Y-93827902D01*
X112123783Y-93774027D01*
X112177658Y-93720152D01*
X112231532Y-93612402D01*
X112231532Y-93558528D01*
X112042971Y-93369966D01*
X111935221Y-93477715D01*
X112527844Y-93369966D02*
X111962158Y-92804280D01*
X112177658Y-92588781D01*
X112258470Y-92561844D01*
X112312345Y-92561844D01*
X112393157Y-92588781D01*
X112473969Y-92669593D01*
X112500906Y-92750406D01*
X112500906Y-92804280D01*
X112473969Y-92885093D01*
X112258470Y-93100592D01*
X113389841Y-92507969D02*
X113066592Y-92831218D01*
X113228216Y-92669593D02*
X112662531Y-92103908D01*
X112689468Y-92238595D01*
X112689468Y-92346345D01*
X112662531Y-92427157D01*
X113012717Y-91753722D02*
X113362903Y-91403536D01*
X113389841Y-91807597D01*
X113470653Y-91726784D01*
X113551465Y-91699847D01*
X113605340Y-91699847D01*
X113686152Y-91726784D01*
X113820839Y-91861471D01*
X113847776Y-91942284D01*
X113847776Y-91996158D01*
X113820839Y-92076971D01*
X113659215Y-92238595D01*
X113578402Y-92265532D01*
X113524528Y-92265532D01*
X118220476Y-102723809D02*
X118334761Y-102761904D01*
X118525238Y-102761904D01*
X118601428Y-102723809D01*
X118639523Y-102685714D01*
X118677619Y-102609523D01*
X118677619Y-102533333D01*
X118639523Y-102457142D01*
X118601428Y-102419047D01*
X118525238Y-102380952D01*
X118372857Y-102342857D01*
X118296666Y-102304761D01*
X118258571Y-102266666D01*
X118220476Y-102190476D01*
X118220476Y-102114285D01*
X118258571Y-102038095D01*
X118296666Y-102000000D01*
X118372857Y-101961904D01*
X118563333Y-101961904D01*
X118677619Y-102000000D01*
X118944285Y-101961904D02*
X119134761Y-102761904D01*
X119287142Y-102190476D01*
X119439523Y-102761904D01*
X119630000Y-101961904D01*
X120391904Y-102685714D02*
X120353809Y-102723809D01*
X120239523Y-102761904D01*
X120163333Y-102761904D01*
X120049047Y-102723809D01*
X119972857Y-102647619D01*
X119934761Y-102571428D01*
X119896666Y-102419047D01*
X119896666Y-102304761D01*
X119934761Y-102152380D01*
X119972857Y-102076190D01*
X120049047Y-102000000D01*
X120163333Y-101961904D01*
X120239523Y-101961904D01*
X120353809Y-102000000D01*
X120391904Y-102038095D01*
X121115714Y-102761904D02*
X120734761Y-102761904D01*
X120734761Y-101961904D01*
X121382380Y-102761904D02*
X121382380Y-101961904D01*
X121839523Y-102761904D02*
X121496666Y-102304761D01*
X121839523Y-101961904D02*
X121382380Y-102419047D01*
X137619847Y-62690592D02*
X137970033Y-62340406D01*
X137996971Y-62744467D01*
X138077783Y-62663654D01*
X138158595Y-62636717D01*
X138212470Y-62636717D01*
X138293282Y-62663654D01*
X138427969Y-62798341D01*
X138454906Y-62879154D01*
X138454906Y-62933028D01*
X138427969Y-63013841D01*
X138266345Y-63175465D01*
X138185532Y-63202402D01*
X138131658Y-63202402D01*
X138131658Y-62178781D02*
X138885905Y-62555905D01*
X138508781Y-61801658D01*
X138643468Y-61666971D02*
X138993654Y-61316784D01*
X139020592Y-61720845D01*
X139101404Y-61640033D01*
X139182216Y-61613096D01*
X139236091Y-61613096D01*
X139316903Y-61640033D01*
X139451590Y-61774720D01*
X139478528Y-61855532D01*
X139478528Y-61909407D01*
X139451590Y-61990219D01*
X139289966Y-62151844D01*
X139209154Y-62178781D01*
X139155279Y-62178781D01*
X112216158Y-82698155D02*
X112135346Y-82725093D01*
X112054534Y-82805905D01*
X112000659Y-82913654D01*
X112000659Y-83021404D01*
X112027597Y-83102216D01*
X112108409Y-83236903D01*
X112189221Y-83317715D01*
X112323908Y-83398528D01*
X112404720Y-83425465D01*
X112512470Y-83425465D01*
X112620219Y-83371590D01*
X112674094Y-83317715D01*
X112727969Y-83209966D01*
X112727969Y-83156091D01*
X112539407Y-82967529D01*
X112431658Y-83075279D01*
X113024280Y-82967529D02*
X112458595Y-82401844D01*
X113347529Y-82644280D01*
X112781844Y-82078595D01*
X113616903Y-82374906D02*
X113051218Y-81809221D01*
X113185905Y-81674534D01*
X113293654Y-81620659D01*
X113401404Y-81620659D01*
X113482216Y-81647597D01*
X113616903Y-81728409D01*
X113697715Y-81809221D01*
X113778528Y-81943908D01*
X113805465Y-82024720D01*
X113805465Y-82132470D01*
X113751590Y-82240219D01*
X113616903Y-82374906D01*
X138568375Y-78143435D02*
X138110439Y-78062622D01*
X138245126Y-78466683D02*
X137679441Y-77900998D01*
X137894940Y-77685499D01*
X137975752Y-77658561D01*
X138029627Y-77658561D01*
X138110439Y-77685499D01*
X138191251Y-77766311D01*
X138218189Y-77847123D01*
X138218189Y-77900998D01*
X138191251Y-77981810D01*
X137975752Y-78197309D01*
X138245126Y-77335312D02*
X138703062Y-77793248D01*
X138783874Y-77820186D01*
X138837749Y-77820186D01*
X138918561Y-77793248D01*
X139026311Y-77685499D01*
X139053248Y-77604687D01*
X139053248Y-77550812D01*
X139026311Y-77469999D01*
X138568375Y-77012064D01*
X139403435Y-77308375D02*
X138837749Y-76742690D01*
X139726683Y-76985126D01*
X139160998Y-76419441D01*
X112216158Y-57298155D02*
X112135346Y-57325093D01*
X112054534Y-57405905D01*
X112000659Y-57513654D01*
X112000659Y-57621404D01*
X112027597Y-57702216D01*
X112108409Y-57836903D01*
X112189221Y-57917715D01*
X112323908Y-57998528D01*
X112404720Y-58025465D01*
X112512470Y-58025465D01*
X112620219Y-57971590D01*
X112674094Y-57917715D01*
X112727969Y-57809966D01*
X112727969Y-57756091D01*
X112539407Y-57567529D01*
X112431658Y-57675279D01*
X113024280Y-57567529D02*
X112458595Y-57001844D01*
X113347529Y-57244280D01*
X112781844Y-56678595D01*
X113616903Y-56974906D02*
X113051218Y-56409221D01*
X113185905Y-56274534D01*
X113293654Y-56220659D01*
X113401404Y-56220659D01*
X113482216Y-56247597D01*
X113616903Y-56328409D01*
X113697715Y-56409221D01*
X113778528Y-56543908D01*
X113805465Y-56624720D01*
X113805465Y-56732470D01*
X113751590Y-56840219D01*
X113616903Y-56974906D01*
X111573722Y-90560592D02*
X111492910Y-90587529D01*
X111412097Y-90668341D01*
X111358223Y-90776091D01*
X111358223Y-90883841D01*
X111385160Y-90964653D01*
X111465972Y-91099340D01*
X111546784Y-91180152D01*
X111681471Y-91260964D01*
X111762284Y-91287902D01*
X111870033Y-91287902D01*
X111977783Y-91234027D01*
X112031658Y-91180152D01*
X112085532Y-91072402D01*
X112085532Y-91018528D01*
X111896971Y-90829966D01*
X111789221Y-90937715D01*
X112381844Y-90829966D02*
X111816158Y-90264280D01*
X112031658Y-90048781D01*
X112112470Y-90021844D01*
X112166345Y-90021844D01*
X112247157Y-90048781D01*
X112327969Y-90129593D01*
X112354906Y-90210406D01*
X112354906Y-90264280D01*
X112327969Y-90345093D01*
X112112470Y-90560592D01*
X113243841Y-89967969D02*
X112920592Y-90291218D01*
X113082216Y-90129593D02*
X112516531Y-89563908D01*
X112543468Y-89698595D01*
X112543468Y-89806345D01*
X112516531Y-89887157D01*
X112947529Y-89240659D02*
X112947529Y-89186784D01*
X112974467Y-89105972D01*
X113109154Y-88971285D01*
X113189966Y-88944348D01*
X113243841Y-88944348D01*
X113324653Y-88971285D01*
X113378528Y-89025160D01*
X113432402Y-89132910D01*
X113432402Y-89779407D01*
X113782589Y-89429221D01*
X137827722Y-88020592D02*
X137746910Y-88047529D01*
X137666097Y-88128341D01*
X137612223Y-88236091D01*
X137612223Y-88343841D01*
X137639160Y-88424653D01*
X137719972Y-88559340D01*
X137800784Y-88640152D01*
X137935471Y-88720964D01*
X138016284Y-88747902D01*
X138124033Y-88747902D01*
X138231783Y-88694027D01*
X138285658Y-88640152D01*
X138339532Y-88532402D01*
X138339532Y-88478528D01*
X138150971Y-88289966D01*
X138043221Y-88397715D01*
X138635844Y-88289966D02*
X138070158Y-87724280D01*
X138285658Y-87508781D01*
X138366470Y-87481844D01*
X138420345Y-87481844D01*
X138501157Y-87508781D01*
X138581969Y-87589593D01*
X138608906Y-87670406D01*
X138608906Y-87724280D01*
X138581969Y-87805093D01*
X138366470Y-88020592D01*
X138662781Y-87239407D02*
X138662781Y-87185532D01*
X138689719Y-87104720D01*
X138824406Y-86970033D01*
X138905218Y-86943096D01*
X138959093Y-86943096D01*
X139039905Y-86970033D01*
X139093780Y-87023908D01*
X139147654Y-87131658D01*
X139147654Y-87778155D01*
X139497841Y-87427969D01*
X139282341Y-86512097D02*
X139336216Y-86458223D01*
X139417028Y-86431285D01*
X139470903Y-86431285D01*
X139551715Y-86458223D01*
X139686402Y-86539035D01*
X139821089Y-86673722D01*
X139901902Y-86808409D01*
X139928839Y-86889221D01*
X139928839Y-86943096D01*
X139901902Y-87023908D01*
X139848027Y-87077783D01*
X139767215Y-87104720D01*
X139713340Y-87104720D01*
X139632528Y-87077783D01*
X139497841Y-86996971D01*
X139363154Y-86862284D01*
X139282341Y-86727597D01*
X139255404Y-86646784D01*
X139255404Y-86592910D01*
X139282341Y-86512097D01*
X112143096Y-59811218D02*
X112062284Y-59838155D01*
X111981471Y-59918967D01*
X111927597Y-60026717D01*
X111927597Y-60134467D01*
X111954534Y-60215279D01*
X112035346Y-60349966D01*
X112116158Y-60430778D01*
X112250845Y-60511590D01*
X112331658Y-60538528D01*
X112439407Y-60538528D01*
X112547157Y-60484653D01*
X112601032Y-60430778D01*
X112654906Y-60323028D01*
X112654906Y-60269154D01*
X112466345Y-60080592D01*
X112358595Y-60188341D01*
X112951218Y-60080592D02*
X112385532Y-59514906D01*
X112601032Y-59299407D01*
X112681844Y-59272470D01*
X112735719Y-59272470D01*
X112816531Y-59299407D01*
X112897343Y-59380219D01*
X112924280Y-59461032D01*
X112924280Y-59514906D01*
X112897343Y-59595719D01*
X112681844Y-59811218D01*
X112978155Y-59030033D02*
X112978155Y-58976158D01*
X113005093Y-58895346D01*
X113139780Y-58760659D01*
X113220592Y-58733722D01*
X113274467Y-58733722D01*
X113355279Y-58760659D01*
X113409154Y-58814534D01*
X113463028Y-58922284D01*
X113463028Y-59568781D01*
X113813215Y-59218595D01*
X137816158Y-95398155D02*
X137735346Y-95425093D01*
X137654534Y-95505905D01*
X137600659Y-95613654D01*
X137600659Y-95721404D01*
X137627597Y-95802216D01*
X137708409Y-95936903D01*
X137789221Y-96017715D01*
X137923908Y-96098528D01*
X138004720Y-96125465D01*
X138112470Y-96125465D01*
X138220219Y-96071590D01*
X138274094Y-96017715D01*
X138327969Y-95909966D01*
X138327969Y-95856091D01*
X138139407Y-95667529D01*
X138031658Y-95775279D01*
X138624280Y-95667529D02*
X138058595Y-95101844D01*
X138947529Y-95344280D01*
X138381844Y-94778595D01*
X139216903Y-95074906D02*
X138651218Y-94509221D01*
X138785905Y-94374534D01*
X138893654Y-94320659D01*
X139001404Y-94320659D01*
X139082216Y-94347597D01*
X139216903Y-94428409D01*
X139297715Y-94509221D01*
X139378528Y-94643908D01*
X139405465Y-94724720D01*
X139405465Y-94832470D01*
X139351590Y-94940219D01*
X139216903Y-95074906D01*
X137827722Y-67446592D02*
X137746910Y-67473529D01*
X137666097Y-67554341D01*
X137612223Y-67662091D01*
X137612223Y-67769841D01*
X137639160Y-67850653D01*
X137719972Y-67985340D01*
X137800784Y-68066152D01*
X137935471Y-68146964D01*
X138016284Y-68173902D01*
X138124033Y-68173902D01*
X138231783Y-68120027D01*
X138285658Y-68066152D01*
X138339532Y-67958402D01*
X138339532Y-67904528D01*
X138150971Y-67715966D01*
X138043221Y-67823715D01*
X138635844Y-67715966D02*
X138070158Y-67150280D01*
X138285658Y-66934781D01*
X138366470Y-66907844D01*
X138420345Y-66907844D01*
X138501157Y-66934781D01*
X138581969Y-67015593D01*
X138608906Y-67096406D01*
X138608906Y-67150280D01*
X138581969Y-67231093D01*
X138366470Y-67446592D01*
X138662781Y-66665407D02*
X138662781Y-66611532D01*
X138689719Y-66530720D01*
X138824406Y-66396033D01*
X138905218Y-66369096D01*
X138959093Y-66369096D01*
X139039905Y-66396033D01*
X139093780Y-66449908D01*
X139147654Y-66557658D01*
X139147654Y-67204155D01*
X139497841Y-66853969D01*
X139497841Y-66207471D02*
X139417028Y-66234409D01*
X139363154Y-66234409D01*
X139282341Y-66207471D01*
X139255404Y-66180534D01*
X139228467Y-66099722D01*
X139228467Y-66045847D01*
X139255404Y-65965035D01*
X139363154Y-65857285D01*
X139443966Y-65830348D01*
X139497841Y-65830348D01*
X139578653Y-65857285D01*
X139605590Y-65884223D01*
X139632528Y-65965035D01*
X139632528Y-66018910D01*
X139605590Y-66099722D01*
X139497841Y-66207471D01*
X139470903Y-66288284D01*
X139470903Y-66342158D01*
X139497841Y-66422971D01*
X139605590Y-66530720D01*
X139686402Y-66557658D01*
X139740277Y-66557658D01*
X139821089Y-66530720D01*
X139928839Y-66422971D01*
X139955776Y-66342158D01*
X139955776Y-66288284D01*
X139928839Y-66207471D01*
X139821089Y-66099722D01*
X139740277Y-66072784D01*
X139686402Y-66072784D01*
X139605590Y-66099722D01*
X157462380Y-69413333D02*
X158176666Y-69413333D01*
X158319523Y-69460952D01*
X158414761Y-69556190D01*
X158462380Y-69699047D01*
X158462380Y-69794285D01*
X158462380Y-68937142D02*
X157462380Y-68937142D01*
X157462380Y-68556190D01*
X157510000Y-68460952D01*
X157557619Y-68413333D01*
X157652857Y-68365714D01*
X157795714Y-68365714D01*
X157890952Y-68413333D01*
X157938571Y-68460952D01*
X157986190Y-68556190D01*
X157986190Y-68937142D01*
X157557619Y-67984761D02*
X157510000Y-67937142D01*
X157462380Y-67841904D01*
X157462380Y-67603809D01*
X157510000Y-67508571D01*
X157557619Y-67460952D01*
X157652857Y-67413333D01*
X157748095Y-67413333D01*
X157890952Y-67460952D01*
X158462380Y-68032380D01*
X158462380Y-67413333D01*
D11*
X183388000Y-82550000D02*
X192024000Y-82550000D01*
X183388000Y-72390000D02*
X192024000Y-72390000D01*
X182880000Y-74422000D02*
X182880000Y-76454000D01*
X182880000Y-78486000D02*
X182880000Y-80518000D01*
X194056000Y-82550000D02*
G75*
G03*
X194056000Y-72390000I-3556001J5080000D01*
G01*
X199136000Y-77470000D02*
G75*
G03*
X199136000Y-77470000I-8636000J0D01*
G01*
X164430000Y-50600000D02*
X164430000Y-53540000D01*
X163650000Y-53210000D02*
X163650000Y-53540000D01*
X169090000Y-53540000D02*
X169090000Y-53210000D01*
X164670000Y-50600000D02*
X164670000Y-53540000D01*
X169090000Y-50600000D02*
X169090000Y-50930000D01*
X163650000Y-50600000D02*
X169090000Y-50600000D01*
X163650000Y-53540000D02*
X169090000Y-53540000D01*
X164550000Y-50600000D02*
X164550000Y-53540000D01*
X163650000Y-50930000D02*
X163650000Y-50600000D01*
X150130000Y-66530000D02*
X152130000Y-66530000D01*
X150130000Y-70630000D02*
X150130000Y-66530000D01*
X149930000Y-67280000D02*
X149630000Y-66980000D01*
X152130000Y-66530000D02*
X152130000Y-70630000D01*
X152130000Y-70630000D02*
X150130000Y-70630000D01*
X149630000Y-66980000D02*
X149630000Y-67580000D01*
X149930000Y-67280000D02*
X149630000Y-67580000D01*
X180810000Y-66040000D02*
G75*
G03*
X180810000Y-66040000I-6100000J0D01*
G01*
X189830000Y-49810000D02*
X189830000Y-50120000D01*
X181010000Y-49810000D02*
X189830000Y-49810000D01*
X189830000Y-54330000D02*
X181010000Y-54330000D01*
X182920000Y-49110000D02*
X183420000Y-49610000D01*
X183920000Y-49110000D02*
X182920000Y-49110000D01*
X181010000Y-54330000D02*
X181010000Y-54020000D01*
X183420000Y-49610000D02*
X183920000Y-49110000D01*
X181010000Y-50120000D02*
X181010000Y-49810000D01*
X189830000Y-54330000D02*
X189830000Y-54020000D01*
X136230000Y-73500000D02*
X136230000Y-73900000D01*
X136230000Y-60800000D02*
X136230000Y-61200000D01*
X136230000Y-86200000D02*
X136230000Y-86600000D01*
X136230000Y-96300000D02*
X136230000Y-96700000D01*
X115230000Y-98900000D02*
X115230000Y-99300000D01*
X124230000Y-101700000D02*
X124630000Y-101700000D01*
X115230000Y-86200000D02*
X115230000Y-86600000D01*
X136230000Y-78500000D02*
X136230000Y-78900000D01*
X136230000Y-101700000D02*
X129430000Y-101700000D01*
X115230000Y-50700000D02*
X136230000Y-50700000D01*
X136230000Y-91300000D02*
X136230000Y-91700000D01*
X122030000Y-101700000D02*
X115230000Y-101700000D01*
X115230000Y-65800000D02*
X115230000Y-66200000D01*
X115230000Y-91300000D02*
X115230000Y-91700000D01*
X115230000Y-76000000D02*
X115230000Y-76400000D01*
X136230000Y-70900000D02*
X136230000Y-71300000D01*
X136230000Y-58200000D02*
X136230000Y-58600000D01*
X115230000Y-50700000D02*
X115230000Y-51000000D01*
X136230000Y-81100000D02*
X136230000Y-81500000D01*
X136230000Y-55700000D02*
X136230000Y-56100000D01*
X115230000Y-53367000D02*
X118237000Y-53367000D01*
X115230000Y-88700000D02*
X115230000Y-89100000D01*
X115230000Y-53100000D02*
X115230000Y-53500000D01*
X115230000Y-58200000D02*
X115230000Y-58600000D01*
X136230000Y-68400000D02*
X136230000Y-68800000D01*
X115230000Y-81100000D02*
X115230000Y-81500000D01*
X126830000Y-101700000D02*
X127230000Y-101700000D01*
X136230000Y-93800000D02*
X136230000Y-94200000D01*
X115230000Y-70900000D02*
X115230000Y-71300000D01*
X136230000Y-53100000D02*
X136230000Y-53500000D01*
X115230000Y-60800000D02*
X115230000Y-61200000D01*
X136230000Y-65800000D02*
X136230000Y-66200000D01*
X115230000Y-96300000D02*
X115230000Y-96700000D01*
X115230000Y-73500000D02*
X115230000Y-73900000D01*
X136230000Y-50700000D02*
X136230000Y-51000000D01*
X115230000Y-55700000D02*
X115230000Y-56100000D01*
X136230000Y-88700000D02*
X136230000Y-89100000D01*
X115230000Y-63300000D02*
X115230000Y-63700000D01*
X115230000Y-78500000D02*
X115230000Y-78900000D01*
X118237000Y-53367000D02*
X118237000Y-50700000D01*
X136230000Y-98900000D02*
X136230000Y-99300000D01*
X136230000Y-63300000D02*
X136230000Y-63700000D01*
X136230000Y-83600000D02*
X136230000Y-84000000D01*
X115230000Y-83600000D02*
X115230000Y-84000000D01*
X136230000Y-76000000D02*
X136230000Y-76400000D01*
X115230000Y-93800000D02*
X115230000Y-94200000D01*
X115230000Y-68400000D02*
X115230000Y-68800000D01*
X167520000Y-85600000D02*
X139580000Y-85600000D01*
X167520000Y-57660000D02*
X167520000Y-85600000D01*
X139580000Y-57660000D02*
X167520000Y-57660000D01*
X139580000Y-85600000D02*
X139580000Y-57660000D01*
X155010000Y-67280000D02*
X154710000Y-67580000D01*
X157210000Y-66530000D02*
X157210000Y-70630000D01*
X157210000Y-70630000D02*
X155210000Y-70630000D01*
X155210000Y-66530000D02*
X157210000Y-66530000D01*
X155210000Y-70630000D02*
X155210000Y-66530000D01*
X154710000Y-66980000D02*
X154710000Y-67580000D01*
X155010000Y-67280000D02*
X154710000Y-66980000D01*
%LPC*%
X134906000Y-124841000D02*
X126778000Y-124841000D01*
X126778000Y-124841000D02*
X126778000Y-132969000D01*
X126778000Y-132969000D02*
X134906000Y-132969000D01*
X134906000Y-132969000D02*
X134906000Y-124841000D01*
G36*
X134906000Y-124841000D02*
G01*
X126778000Y-124841000D01*
X126778000Y-132969000D01*
X134906000Y-132969000D01*
X134906000Y-124841000D01*
G37*
X164846000Y-117881000D02*
X172974000Y-117881000D01*
X172974000Y-117881000D02*
X172974000Y-126009000D01*
X172974000Y-126009000D02*
X164846000Y-126009000D01*
X164846000Y-126009000D02*
X164846000Y-117881000D01*
G36*
X164846000Y-117881000D02*
G01*
X172974000Y-117881000D01*
X172974000Y-126009000D01*
X164846000Y-126009000D01*
X164846000Y-117881000D01*
G37*
X134366000Y-117208000D02*
X142494000Y-117208000D01*
X142494000Y-117208000D02*
X142494000Y-125336000D01*
X142494000Y-125336000D02*
X134366000Y-125336000D01*
X134366000Y-125336000D02*
X134366000Y-117208000D01*
G36*
X134366000Y-117208000D02*
G01*
X142494000Y-117208000D01*
X142494000Y-125336000D01*
X134366000Y-125336000D01*
X134366000Y-117208000D01*
G37*
X178816000Y-112830000D02*
X186944000Y-112830000D01*
X186944000Y-112830000D02*
X186944000Y-120958000D01*
X186944000Y-120958000D02*
X178816000Y-120958000D01*
X178816000Y-120958000D02*
X178816000Y-112830000D01*
G36*
X178816000Y-112830000D02*
G01*
X186944000Y-112830000D01*
X186944000Y-120958000D01*
X178816000Y-120958000D01*
X178816000Y-112830000D01*
G37*
X126746000Y-117856000D02*
X134874000Y-117856000D01*
X134874000Y-117856000D02*
X134874000Y-109728000D01*
X134874000Y-109728000D02*
X126746000Y-109728000D01*
X126746000Y-109728000D02*
X126746000Y-117856000D01*
G36*
X126746000Y-117856000D02*
G01*
X134874000Y-117856000D01*
X134874000Y-109728000D01*
X126746000Y-109728000D01*
X126746000Y-117856000D01*
G37*
X127254000Y-125381000D02*
X119126000Y-125381000D01*
X119126000Y-125381000D02*
X119126000Y-117253000D01*
X119126000Y-117253000D02*
X127254000Y-117253000D01*
X127254000Y-117253000D02*
X127254000Y-125381000D01*
G36*
X127254000Y-125381000D02*
G01*
X119126000Y-125381000D01*
X119126000Y-117253000D01*
X127254000Y-117253000D01*
X127254000Y-125381000D01*
G37*
D12*
X182880000Y-73406000D03*
X182880000Y-77470000D03*
X182880000Y-81534000D03*
D13*
X193040000Y-72390000D03*
X193040000Y-82550000D03*
D14*
X162560000Y-52070000D03*
D15*
X170180000Y-52070000D03*
D16*
X151130000Y-67280000D03*
X151130000Y-68580000D03*
X151130000Y-69880000D03*
D17*
X130842000Y-125349000D03*
X130842000Y-132461000D03*
D18*
X171460000Y-66040000D03*
D19*
X177960000Y-66040000D03*
D20*
X165354000Y-121945000D03*
X172466000Y-121945000D03*
D21*
X181320000Y-52070000D03*
X189520000Y-52070000D03*
D22*
X183420000Y-52070000D03*
D23*
X185420000Y-52070000D03*
X187420000Y-52070000D03*
D15*
X128455000Y-52200000D03*
X123005000Y-52200000D03*
D24*
X128155000Y-55230000D03*
X123305000Y-55230000D03*
D25*
X115940000Y-52070000D03*
D26*
X116840000Y-52070000D03*
D25*
X115940000Y-54610000D03*
D26*
X116840000Y-54610000D03*
D27*
X116840000Y-57150000D03*
D25*
X115940000Y-57150000D03*
D26*
X116840000Y-59690000D03*
D25*
X115940000Y-59690000D03*
D26*
X116840000Y-62230000D03*
D25*
X115940000Y-62230000D03*
D26*
X116840000Y-64770000D03*
D25*
X115940000Y-64770000D03*
X115940000Y-67310000D03*
D26*
X116840000Y-67310000D03*
D27*
X116840000Y-69850000D03*
D25*
X115940000Y-69850000D03*
X115940000Y-72390000D03*
D26*
X116840000Y-72390000D03*
D25*
X115940000Y-74930000D03*
D26*
X116840000Y-74930000D03*
D25*
X115940000Y-77470000D03*
D26*
X116840000Y-77470000D03*
D25*
X115940000Y-80010000D03*
D26*
X116840000Y-80010000D03*
D25*
X115940000Y-82550000D03*
D27*
X116840000Y-82550000D03*
D25*
X115940000Y-85090000D03*
D26*
X116840000Y-85090000D03*
X116840000Y-87630000D03*
D25*
X115940000Y-87630000D03*
X115940000Y-90170000D03*
D26*
X116840000Y-90170000D03*
X116840000Y-92710000D03*
D25*
X115940000Y-92710000D03*
D27*
X116840000Y-95250000D03*
D25*
X115940000Y-95250000D03*
D26*
X116840000Y-97790000D03*
D25*
X115940000Y-97790000D03*
D26*
X116840000Y-100330000D03*
D25*
X115940000Y-100330000D03*
D26*
X134620000Y-100330000D03*
D25*
X135520000Y-100330000D03*
D26*
X134620000Y-97790000D03*
D25*
X135520000Y-97790000D03*
X135520000Y-95250000D03*
D27*
X134620000Y-95250000D03*
D25*
X135520000Y-92710000D03*
D26*
X134620000Y-92710000D03*
D25*
X135520000Y-90170000D03*
D26*
X134620000Y-90170000D03*
D25*
X135520000Y-87630000D03*
D26*
X134620000Y-87630000D03*
X134620000Y-85090000D03*
D25*
X135520000Y-85090000D03*
X135520000Y-82550000D03*
D27*
X134620000Y-82550000D03*
D25*
X135520000Y-80010000D03*
D26*
X134620000Y-80010000D03*
X134620000Y-77470000D03*
D25*
X135520000Y-77470000D03*
D26*
X134620000Y-74930000D03*
D25*
X135520000Y-74930000D03*
X135520000Y-72390000D03*
D26*
X134620000Y-72390000D03*
D25*
X135520000Y-69850000D03*
D27*
X134620000Y-69850000D03*
D25*
X135520000Y-67310000D03*
D26*
X134620000Y-67310000D03*
D25*
X135520000Y-64770000D03*
D26*
X134620000Y-64770000D03*
X134620000Y-62230000D03*
D25*
X135520000Y-62230000D03*
D26*
X134620000Y-59690000D03*
D25*
X135520000Y-59690000D03*
D27*
X134620000Y-57150000D03*
D25*
X135520000Y-57150000D03*
D26*
X134620000Y-54610000D03*
D25*
X135520000Y-54610000D03*
X135520000Y-52070000D03*
D26*
X134620000Y-52070000D03*
D28*
X123190000Y-101000000D03*
D26*
X123190000Y-100100000D03*
D28*
X125730000Y-101000000D03*
D27*
X125730000Y-100100000D03*
D26*
X128270000Y-100100000D03*
D28*
X128270000Y-101000000D03*
D20*
X134874000Y-121272000D03*
X141986000Y-121272000D03*
D12*
X149740000Y-58930000D03*
X152280000Y-58930000D03*
X154820000Y-58930000D03*
X157360000Y-58930000D03*
D20*
X179324000Y-116894000D03*
X186436000Y-116894000D03*
D29*
X130810000Y-117348000D03*
X130810000Y-110236000D03*
D16*
X156210000Y-67280000D03*
X156210000Y-68580000D03*
X156210000Y-69880000D03*
D30*
X126746000Y-121317000D03*
X119634000Y-121317000D03*
D31*
X153964000Y-128014000D03*
X153964000Y-98014000D03*
D32*
X188722000Y-125222000D03*
D33*
X188722000Y-130810000D03*
M02*
