G04 #@! TF.GenerationSoftware,KiCad,Pcbnew,(6.0.2)*
G04 #@! TF.CreationDate,2022-06-07T21:46:18+01:00*
G04 #@! TF.ProjectId,Pico_Handheld,5069636f-5f48-4616-9e64-68656c642e6b,rev?*
G04 #@! TF.SameCoordinates,Original*
G04 #@! TF.FileFunction,Paste,Top*
G04 #@! TF.FilePolarity,Positive*
%FSLAX46Y46*%
G04 Gerber Fmt 4.6, Leading zero omitted, Abs format (unit mm)*
G04 Created by KiCad (PCBNEW (6.0.2)) date 2022-06-07 21:46:18*
%MOMM*%
%LPD*%
G01*
G04 APERTURE LIST*
G04 Aperture macros list*
%AMRoundRect*
0 Rectangle with rounded corners*
0 $1 Rounding radius*
0 $2 $3 $4 $5 $6 $7 $8 $9 X,Y pos of 4 corners*
0 Add a 4 corners polygon primitive as box body*
4,1,4,$2,$3,$4,$5,$6,$7,$8,$9,$2,$3,0*
0 Add four circle primitives for the rounded corners*
1,1,$1+$1,$2,$3*
1,1,$1+$1,$4,$5*
1,1,$1+$1,$6,$7*
1,1,$1+$1,$8,$9*
0 Add four rect primitives between the rounded corners*
20,1,$1+$1,$2,$3,$4,$5,0*
20,1,$1+$1,$4,$5,$6,$7,0*
20,1,$1+$1,$6,$7,$8,$9,0*
20,1,$1+$1,$8,$9,$2,$3,0*%
G04 Aperture macros list end*
%ADD10C,0.120000*%
%ADD11RoundRect,0.381000X-0.381000X0.762000X-0.381000X-0.762000X0.381000X-0.762000X0.381000X0.762000X0*%
%ADD12RoundRect,0.381000X-0.762000X-0.381000X0.762000X-0.381000X0.762000X0.381000X-0.762000X0.381000X0*%
%ADD13RoundRect,0.381000X0.381000X-0.762000X0.381000X0.762000X-0.381000X0.762000X-0.381000X-0.762000X0*%
%ADD14RoundRect,0.381000X0.762000X0.381000X-0.762000X0.381000X-0.762000X-0.381000X0.762000X-0.381000X0*%
G04 APERTURE END LIST*
D10*
X134906000Y-124841000D02*
X126778000Y-124841000D01*
X126778000Y-124841000D02*
X126778000Y-132969000D01*
X126778000Y-132969000D02*
X134906000Y-132969000D01*
X134906000Y-132969000D02*
X134906000Y-124841000D01*
G36*
X134906000Y-124841000D02*
G01*
X126778000Y-124841000D01*
X126778000Y-132969000D01*
X134906000Y-132969000D01*
X134906000Y-124841000D01*
G37*
X164846000Y-117881000D02*
X172974000Y-117881000D01*
X172974000Y-117881000D02*
X172974000Y-126009000D01*
X172974000Y-126009000D02*
X164846000Y-126009000D01*
X164846000Y-126009000D02*
X164846000Y-117881000D01*
G36*
X164846000Y-117881000D02*
G01*
X172974000Y-117881000D01*
X172974000Y-126009000D01*
X164846000Y-126009000D01*
X164846000Y-117881000D01*
G37*
X134366000Y-117208000D02*
X142494000Y-117208000D01*
X142494000Y-117208000D02*
X142494000Y-125336000D01*
X142494000Y-125336000D02*
X134366000Y-125336000D01*
X134366000Y-125336000D02*
X134366000Y-117208000D01*
G36*
X134366000Y-117208000D02*
G01*
X142494000Y-117208000D01*
X142494000Y-125336000D01*
X134366000Y-125336000D01*
X134366000Y-117208000D01*
G37*
X178816000Y-112830000D02*
X186944000Y-112830000D01*
X186944000Y-112830000D02*
X186944000Y-120958000D01*
X186944000Y-120958000D02*
X178816000Y-120958000D01*
X178816000Y-120958000D02*
X178816000Y-112830000D01*
G36*
X178816000Y-112830000D02*
G01*
X186944000Y-112830000D01*
X186944000Y-120958000D01*
X178816000Y-120958000D01*
X178816000Y-112830000D01*
G37*
X126746000Y-117856000D02*
X134874000Y-117856000D01*
X134874000Y-117856000D02*
X134874000Y-109728000D01*
X134874000Y-109728000D02*
X126746000Y-109728000D01*
X126746000Y-109728000D02*
X126746000Y-117856000D01*
G36*
X126746000Y-117856000D02*
G01*
X134874000Y-117856000D01*
X134874000Y-109728000D01*
X126746000Y-109728000D01*
X126746000Y-117856000D01*
G37*
X127254000Y-125381000D02*
X119126000Y-125381000D01*
X119126000Y-125381000D02*
X119126000Y-117253000D01*
X119126000Y-117253000D02*
X127254000Y-117253000D01*
X127254000Y-117253000D02*
X127254000Y-125381000D01*
G36*
X127254000Y-125381000D02*
G01*
X119126000Y-125381000D01*
X119126000Y-117253000D01*
X127254000Y-117253000D01*
X127254000Y-125381000D01*
G37*
D11*
X130842000Y-125349000D03*
X130842000Y-132461000D03*
D12*
X165354000Y-121945000D03*
X172466000Y-121945000D03*
X134874000Y-121272000D03*
X141986000Y-121272000D03*
X179324000Y-116894000D03*
X186436000Y-116894000D03*
D13*
X130810000Y-117348000D03*
X130810000Y-110236000D03*
D14*
X126746000Y-121317000D03*
X119634000Y-121317000D03*
M02*
