G04 #@! TF.GenerationSoftware,KiCad,Pcbnew,(6.0.2)*
G04 #@! TF.CreationDate,2022-06-07T21:46:18+01:00*
G04 #@! TF.ProjectId,Pico_Handheld,5069636f-5f48-4616-9e64-68656c642e6b,rev?*
G04 #@! TF.SameCoordinates,Original*
G04 #@! TF.FileFunction,Copper,L2,Bot*
G04 #@! TF.FilePolarity,Positive*
%FSLAX46Y46*%
G04 Gerber Fmt 4.6, Leading zero omitted, Abs format (unit mm)*
G04 Created by KiCad (PCBNEW (6.0.2)) date 2022-06-07 21:46:18*
%MOMM*%
%LPD*%
G01*
G04 APERTURE LIST*
G04 #@! TA.AperFunction,ComponentPad*
%ADD10C,1.524000*%
G04 #@! TD*
G04 #@! TA.AperFunction,ComponentPad*
%ADD11C,2.000000*%
G04 #@! TD*
G04 #@! TA.AperFunction,ComponentPad*
%ADD12R,1.800000X1.800000*%
G04 #@! TD*
G04 #@! TA.AperFunction,ComponentPad*
%ADD13O,1.800000X1.800000*%
G04 #@! TD*
G04 #@! TA.AperFunction,ComponentPad*
%ADD14R,1.600000X1.600000*%
G04 #@! TD*
G04 #@! TA.AperFunction,ComponentPad*
%ADD15C,1.600000*%
G04 #@! TD*
G04 #@! TA.AperFunction,ComponentPad*
%ADD16O,2.200000X3.500000*%
G04 #@! TD*
G04 #@! TA.AperFunction,ComponentPad*
%ADD17R,1.500000X2.500000*%
G04 #@! TD*
G04 #@! TA.AperFunction,ComponentPad*
%ADD18O,1.500000X2.500000*%
G04 #@! TD*
G04 #@! TA.AperFunction,ComponentPad*
%ADD19O,1.700000X1.700000*%
G04 #@! TD*
G04 #@! TA.AperFunction,ComponentPad*
%ADD20R,1.700000X1.700000*%
G04 #@! TD*
G04 #@! TA.AperFunction,ComponentPad*
%ADD21R,3.000000X3.000000*%
G04 #@! TD*
G04 #@! TA.AperFunction,ComponentPad*
%ADD22C,3.000000*%
G04 #@! TD*
G04 #@! TA.AperFunction,ViaPad*
%ADD23C,0.800000*%
G04 #@! TD*
G04 #@! TA.AperFunction,Conductor*
%ADD24C,1.500000*%
G04 #@! TD*
G04 #@! TA.AperFunction,Conductor*
%ADD25C,1.000000*%
G04 #@! TD*
G04 APERTURE END LIST*
D10*
X182880000Y-73406000D03*
X182880000Y-77470000D03*
X182880000Y-81534000D03*
D11*
X193040000Y-72390000D03*
X193040000Y-82550000D03*
D12*
X162560000Y-52070000D03*
D13*
X170180000Y-52070000D03*
D14*
X171460000Y-66040000D03*
D15*
X177960000Y-66040000D03*
D16*
X181320000Y-52070000D03*
X189520000Y-52070000D03*
D17*
X183420000Y-52070000D03*
D18*
X185420000Y-52070000D03*
X187420000Y-52070000D03*
D19*
X116840000Y-52070000D03*
X116840000Y-54610000D03*
D20*
X116840000Y-57150000D03*
D19*
X116840000Y-59690000D03*
X116840000Y-62230000D03*
X116840000Y-64770000D03*
X116840000Y-67310000D03*
D20*
X116840000Y-69850000D03*
D19*
X116840000Y-72390000D03*
X116840000Y-74930000D03*
X116840000Y-77470000D03*
X116840000Y-80010000D03*
D20*
X116840000Y-82550000D03*
D19*
X116840000Y-85090000D03*
X116840000Y-87630000D03*
X116840000Y-90170000D03*
X116840000Y-92710000D03*
D20*
X116840000Y-95250000D03*
D19*
X116840000Y-97790000D03*
X116840000Y-100330000D03*
X134620000Y-100330000D03*
X134620000Y-97790000D03*
D20*
X134620000Y-95250000D03*
D19*
X134620000Y-92710000D03*
X134620000Y-90170000D03*
X134620000Y-87630000D03*
X134620000Y-85090000D03*
D20*
X134620000Y-82550000D03*
D19*
X134620000Y-80010000D03*
X134620000Y-77470000D03*
X134620000Y-74930000D03*
X134620000Y-72390000D03*
D20*
X134620000Y-69850000D03*
D19*
X134620000Y-67310000D03*
X134620000Y-64770000D03*
X134620000Y-62230000D03*
X134620000Y-59690000D03*
D20*
X134620000Y-57150000D03*
D19*
X134620000Y-54610000D03*
X134620000Y-52070000D03*
X123190000Y-100100000D03*
D20*
X125730000Y-100100000D03*
D19*
X128270000Y-100100000D03*
D10*
X149740000Y-58930000D03*
X152280000Y-58930000D03*
X154820000Y-58930000D03*
X157360000Y-58930000D03*
D21*
X188722000Y-125222000D03*
D22*
X188722000Y-130810000D03*
D23*
X130810000Y-121285000D03*
X156210000Y-67310000D03*
X151130000Y-69850000D03*
X176530000Y-127635000D03*
D24*
X185420000Y-52070000D02*
X185420000Y-53975000D01*
X188722000Y-57277000D02*
X188722000Y-125222000D01*
X185420000Y-53975000D02*
X188722000Y-57277000D01*
D25*
X142240000Y-72390000D02*
X143510000Y-71120000D01*
X154940000Y-60325000D02*
X154820000Y-60205000D01*
X154820000Y-60205000D02*
X154820000Y-58930000D01*
X134620000Y-72390000D02*
X142240000Y-72390000D01*
X143510000Y-62865000D02*
X144780000Y-61595000D01*
X143510000Y-71120000D02*
X143510000Y-62865000D01*
X153670000Y-61595000D02*
X154940000Y-60325000D01*
X144780000Y-61595000D02*
X153670000Y-61595000D01*
X145415000Y-71755000D02*
X145415000Y-64135000D01*
X154305000Y-63500000D02*
X157480000Y-60325000D01*
X157480000Y-60325000D02*
X157360000Y-60205000D01*
X146050000Y-63500000D02*
X154305000Y-63500000D01*
X157360000Y-60205000D02*
X157360000Y-58930000D01*
X142240000Y-74930000D02*
X145415000Y-71755000D01*
X134620000Y-74930000D02*
X142240000Y-74930000D01*
X145415000Y-64135000D02*
X146050000Y-63500000D01*
G04 #@! TA.AperFunction,Conductor*
G36*
X180187979Y-50058002D02*
G01*
X180234472Y-50111658D01*
X180244576Y-50181932D01*
X180215082Y-50246512D01*
X180201688Y-50259811D01*
X180182863Y-50275889D01*
X180182858Y-50275894D01*
X180179102Y-50279102D01*
X180014672Y-50471624D01*
X179882384Y-50687498D01*
X179880491Y-50692068D01*
X179880489Y-50692072D01*
X179788515Y-50914118D01*
X179785495Y-50921409D01*
X179784340Y-50926221D01*
X179731371Y-51146855D01*
X179726391Y-51167597D01*
X179711500Y-51356801D01*
X179711500Y-52783199D01*
X179711693Y-52785648D01*
X179711693Y-52785655D01*
X179718386Y-52870689D01*
X179726391Y-52972403D01*
X179727545Y-52977210D01*
X179727546Y-52977216D01*
X179750412Y-53072460D01*
X179785495Y-53218591D01*
X179787388Y-53223162D01*
X179787389Y-53223164D01*
X179870482Y-53423767D01*
X179882384Y-53452502D01*
X180014672Y-53668376D01*
X180179102Y-53860898D01*
X180371624Y-54025328D01*
X180587498Y-54157616D01*
X180592068Y-54159509D01*
X180592072Y-54159511D01*
X180816836Y-54252611D01*
X180821409Y-54254505D01*
X180853674Y-54262251D01*
X181062784Y-54312454D01*
X181062790Y-54312455D01*
X181067597Y-54313609D01*
X181320000Y-54333474D01*
X181572403Y-54313609D01*
X181577210Y-54312455D01*
X181577216Y-54312454D01*
X181786326Y-54262251D01*
X181818591Y-54254505D01*
X181823164Y-54252611D01*
X182047928Y-54159511D01*
X182047932Y-54159509D01*
X182052502Y-54157616D01*
X182268376Y-54025328D01*
X182460898Y-53860898D01*
X182463093Y-53858328D01*
X182525024Y-53824510D01*
X182565414Y-53822368D01*
X182618467Y-53828131D01*
X182618471Y-53828131D01*
X182621866Y-53828500D01*
X184032910Y-53828500D01*
X184101031Y-53848502D01*
X184147524Y-53902158D01*
X184158770Y-53948564D01*
X184160252Y-53979987D01*
X184161360Y-54003489D01*
X184161500Y-54009424D01*
X184161500Y-54031999D01*
X184163819Y-54057988D01*
X184164178Y-54063248D01*
X184168104Y-54146488D01*
X184169354Y-54151947D01*
X184169355Y-54151952D01*
X184172108Y-54163970D01*
X184174789Y-54180899D01*
X184176383Y-54198762D01*
X184177865Y-54204178D01*
X184177865Y-54204180D01*
X184198370Y-54279133D01*
X184199656Y-54284251D01*
X184215762Y-54354570D01*
X184218258Y-54365470D01*
X184220460Y-54370632D01*
X184225294Y-54381967D01*
X184230927Y-54398142D01*
X184235663Y-54415451D01*
X184238079Y-54420516D01*
X184271539Y-54490667D01*
X184273710Y-54495476D01*
X184306397Y-54572109D01*
X184316251Y-54587110D01*
X184324654Y-54602025D01*
X184332378Y-54618218D01*
X184374323Y-54676590D01*
X184380999Y-54685881D01*
X184383989Y-54690232D01*
X184427196Y-54756010D01*
X184427202Y-54756018D01*
X184429735Y-54759874D01*
X184448257Y-54780662D01*
X184456490Y-54790939D01*
X184463471Y-54800654D01*
X184540255Y-54875063D01*
X184541665Y-54876452D01*
X187426595Y-57761383D01*
X187460621Y-57823695D01*
X187463500Y-57850478D01*
X187463500Y-123087500D01*
X187443498Y-123155621D01*
X187389842Y-123202114D01*
X187337500Y-123213500D01*
X187173866Y-123213500D01*
X187111684Y-123220255D01*
X186975295Y-123271385D01*
X186858739Y-123358739D01*
X186771385Y-123475295D01*
X186720255Y-123611684D01*
X186713500Y-123673866D01*
X186713500Y-126770134D01*
X186720255Y-126832316D01*
X186771385Y-126968705D01*
X186858739Y-127085261D01*
X186975295Y-127172615D01*
X187111684Y-127223745D01*
X187173866Y-127230500D01*
X190270134Y-127230500D01*
X190332316Y-127223745D01*
X190468705Y-127172615D01*
X190585261Y-127085261D01*
X190672615Y-126968705D01*
X190723745Y-126832316D01*
X190730500Y-126770134D01*
X190730500Y-123673866D01*
X190723745Y-123611684D01*
X190672615Y-123475295D01*
X190585261Y-123358739D01*
X190468705Y-123271385D01*
X190332316Y-123220255D01*
X190270134Y-123213500D01*
X190106500Y-123213500D01*
X190038379Y-123193498D01*
X189991886Y-123139842D01*
X189980500Y-123087500D01*
X189980500Y-82550000D01*
X191526835Y-82550000D01*
X191545465Y-82786711D01*
X191546619Y-82791518D01*
X191546620Y-82791524D01*
X191573069Y-82901692D01*
X191600895Y-83017594D01*
X191602788Y-83022165D01*
X191602789Y-83022167D01*
X191680186Y-83209020D01*
X191691760Y-83236963D01*
X191694346Y-83241183D01*
X191813241Y-83435202D01*
X191813245Y-83435208D01*
X191815824Y-83439416D01*
X191970031Y-83619969D01*
X192150584Y-83774176D01*
X192154792Y-83776755D01*
X192154798Y-83776759D01*
X192344987Y-83893307D01*
X192353037Y-83898240D01*
X192357607Y-83900133D01*
X192357611Y-83900135D01*
X192506350Y-83961744D01*
X192572406Y-83989105D01*
X192631720Y-84003345D01*
X192798476Y-84043380D01*
X192798482Y-84043381D01*
X192803289Y-84044535D01*
X193040000Y-84063165D01*
X193276711Y-84044535D01*
X193281518Y-84043381D01*
X193281524Y-84043380D01*
X193448280Y-84003345D01*
X193507594Y-83989105D01*
X193573650Y-83961744D01*
X193722389Y-83900135D01*
X193722393Y-83900133D01*
X193726963Y-83898240D01*
X193735013Y-83893307D01*
X193925202Y-83776759D01*
X193925208Y-83776755D01*
X193929416Y-83774176D01*
X194109969Y-83619969D01*
X194264176Y-83439416D01*
X194266755Y-83435208D01*
X194266759Y-83435202D01*
X194385654Y-83241183D01*
X194388240Y-83236963D01*
X194399815Y-83209020D01*
X194477211Y-83022167D01*
X194477212Y-83022165D01*
X194479105Y-83017594D01*
X194506931Y-82901692D01*
X194533380Y-82791524D01*
X194533381Y-82791518D01*
X194534535Y-82786711D01*
X194553165Y-82550000D01*
X194534535Y-82313289D01*
X194530385Y-82296000D01*
X194480260Y-82087218D01*
X194479105Y-82082406D01*
X194404706Y-81902790D01*
X194390135Y-81867611D01*
X194390133Y-81867607D01*
X194388240Y-81863037D01*
X194325014Y-81759862D01*
X194266759Y-81664798D01*
X194266755Y-81664792D01*
X194264176Y-81660584D01*
X194109969Y-81480031D01*
X193929416Y-81325824D01*
X193925208Y-81323245D01*
X193925202Y-81323241D01*
X193731183Y-81204346D01*
X193726963Y-81201760D01*
X193722393Y-81199867D01*
X193722389Y-81199865D01*
X193512167Y-81112789D01*
X193512165Y-81112788D01*
X193507594Y-81110895D01*
X193427391Y-81091640D01*
X193281524Y-81056620D01*
X193281518Y-81056619D01*
X193276711Y-81055465D01*
X193040000Y-81036835D01*
X192803289Y-81055465D01*
X192798482Y-81056619D01*
X192798476Y-81056620D01*
X192652609Y-81091640D01*
X192572406Y-81110895D01*
X192567835Y-81112788D01*
X192567833Y-81112789D01*
X192357611Y-81199865D01*
X192357607Y-81199867D01*
X192353037Y-81201760D01*
X192348817Y-81204346D01*
X192154798Y-81323241D01*
X192154792Y-81323245D01*
X192150584Y-81325824D01*
X191970031Y-81480031D01*
X191815824Y-81660584D01*
X191813245Y-81664792D01*
X191813241Y-81664798D01*
X191754986Y-81759862D01*
X191691760Y-81863037D01*
X191689867Y-81867607D01*
X191689865Y-81867611D01*
X191675294Y-81902790D01*
X191600895Y-82082406D01*
X191599740Y-82087218D01*
X191549616Y-82296000D01*
X191545465Y-82313289D01*
X191526835Y-82550000D01*
X189980500Y-82550000D01*
X189980500Y-72390000D01*
X191526835Y-72390000D01*
X191545465Y-72626711D01*
X191600895Y-72857594D01*
X191602788Y-72862165D01*
X191602789Y-72862167D01*
X191647374Y-72969804D01*
X191691760Y-73076963D01*
X191694346Y-73081183D01*
X191813241Y-73275202D01*
X191813245Y-73275208D01*
X191815824Y-73279416D01*
X191970031Y-73459969D01*
X192150584Y-73614176D01*
X192154792Y-73616755D01*
X192154798Y-73616759D01*
X192325498Y-73721364D01*
X192353037Y-73738240D01*
X192357607Y-73740133D01*
X192357611Y-73740135D01*
X192567833Y-73827211D01*
X192572406Y-73829105D01*
X192626934Y-73842196D01*
X192798476Y-73883380D01*
X192798482Y-73883381D01*
X192803289Y-73884535D01*
X193040000Y-73903165D01*
X193276711Y-73884535D01*
X193281518Y-73883381D01*
X193281524Y-73883380D01*
X193453066Y-73842196D01*
X193507594Y-73829105D01*
X193512167Y-73827211D01*
X193722389Y-73740135D01*
X193722393Y-73740133D01*
X193726963Y-73738240D01*
X193754502Y-73721364D01*
X193925202Y-73616759D01*
X193925208Y-73616755D01*
X193929416Y-73614176D01*
X194109969Y-73459969D01*
X194264176Y-73279416D01*
X194266755Y-73275208D01*
X194266759Y-73275202D01*
X194385654Y-73081183D01*
X194388240Y-73076963D01*
X194432627Y-72969804D01*
X194477211Y-72862167D01*
X194477212Y-72862165D01*
X194479105Y-72857594D01*
X194534535Y-72626711D01*
X194553165Y-72390000D01*
X194534535Y-72153289D01*
X194532389Y-72144348D01*
X194498360Y-72002609D01*
X194479105Y-71922406D01*
X194454149Y-71862157D01*
X194390135Y-71707611D01*
X194390133Y-71707607D01*
X194388240Y-71703037D01*
X194385654Y-71698817D01*
X194266759Y-71504798D01*
X194266755Y-71504792D01*
X194264176Y-71500584D01*
X194109969Y-71320031D01*
X193929416Y-71165824D01*
X193925208Y-71163245D01*
X193925202Y-71163241D01*
X193731183Y-71044346D01*
X193726963Y-71041760D01*
X193722393Y-71039867D01*
X193722389Y-71039865D01*
X193512167Y-70952789D01*
X193512165Y-70952788D01*
X193507594Y-70950895D01*
X193427391Y-70931640D01*
X193281524Y-70896620D01*
X193281518Y-70896619D01*
X193276711Y-70895465D01*
X193040000Y-70876835D01*
X192803289Y-70895465D01*
X192798482Y-70896619D01*
X192798476Y-70896620D01*
X192652609Y-70931640D01*
X192572406Y-70950895D01*
X192567835Y-70952788D01*
X192567833Y-70952789D01*
X192357611Y-71039865D01*
X192357607Y-71039867D01*
X192353037Y-71041760D01*
X192348817Y-71044346D01*
X192154798Y-71163241D01*
X192154792Y-71163245D01*
X192150584Y-71165824D01*
X191970031Y-71320031D01*
X191815824Y-71500584D01*
X191813245Y-71504792D01*
X191813241Y-71504798D01*
X191694346Y-71698817D01*
X191691760Y-71703037D01*
X191689867Y-71707607D01*
X191689865Y-71707611D01*
X191625851Y-71862157D01*
X191600895Y-71922406D01*
X191581640Y-72002609D01*
X191547612Y-72144348D01*
X191545465Y-72153289D01*
X191526835Y-72390000D01*
X189980500Y-72390000D01*
X189980500Y-57368395D01*
X189981578Y-57351948D01*
X189983746Y-57335483D01*
X189983746Y-57335479D01*
X189984479Y-57329913D01*
X189980640Y-57248511D01*
X189980500Y-57242576D01*
X189980500Y-57220001D01*
X189978181Y-57194011D01*
X189977822Y-57188749D01*
X189974160Y-57111113D01*
X189973896Y-57105512D01*
X189969892Y-57088030D01*
X189967211Y-57071100D01*
X189966116Y-57058832D01*
X189965617Y-57053238D01*
X189943630Y-56972867D01*
X189942344Y-56967749D01*
X189924995Y-56892000D01*
X189924994Y-56891998D01*
X189923742Y-56886530D01*
X189916706Y-56870033D01*
X189911073Y-56853858D01*
X189907818Y-56841961D01*
X189907817Y-56841957D01*
X189906337Y-56836549D01*
X189870461Y-56761333D01*
X189868290Y-56756524D01*
X189837804Y-56685051D01*
X189837804Y-56685050D01*
X189835603Y-56679891D01*
X189825749Y-56664890D01*
X189817343Y-56649970D01*
X189812035Y-56638841D01*
X189809622Y-56633782D01*
X189806354Y-56629234D01*
X189806351Y-56629229D01*
X189760998Y-56566114D01*
X189758009Y-56561765D01*
X189712265Y-56492125D01*
X189693747Y-56471341D01*
X189685498Y-56461045D01*
X189681804Y-56455904D01*
X189678529Y-56451346D01*
X189601777Y-56376968D01*
X189600367Y-56375579D01*
X187267087Y-54042299D01*
X187233061Y-53979987D01*
X187238126Y-53909172D01*
X187280673Y-53852336D01*
X187347193Y-53827525D01*
X187363430Y-53827413D01*
X187413073Y-53830275D01*
X187454083Y-53832640D01*
X187454086Y-53832640D01*
X187459690Y-53832963D01*
X187682715Y-53805975D01*
X187897435Y-53739918D01*
X187902415Y-53737348D01*
X187902419Y-53737346D01*
X188071278Y-53650191D01*
X188140985Y-53636722D01*
X188206909Y-53663077D01*
X188224879Y-53680327D01*
X188375889Y-53857137D01*
X188375894Y-53857142D01*
X188379102Y-53860898D01*
X188571624Y-54025328D01*
X188787498Y-54157616D01*
X188792068Y-54159509D01*
X188792072Y-54159511D01*
X189016836Y-54252611D01*
X189021409Y-54254505D01*
X189053674Y-54262251D01*
X189262784Y-54312454D01*
X189262790Y-54312455D01*
X189267597Y-54313609D01*
X189520000Y-54333474D01*
X189772403Y-54313609D01*
X189777210Y-54312455D01*
X189777216Y-54312454D01*
X189986326Y-54262251D01*
X190018591Y-54254505D01*
X190023164Y-54252611D01*
X190247928Y-54159511D01*
X190247932Y-54159509D01*
X190252502Y-54157616D01*
X190468376Y-54025328D01*
X190660898Y-53860898D01*
X190825328Y-53668376D01*
X190957616Y-53452502D01*
X190969519Y-53423767D01*
X191052611Y-53223164D01*
X191052612Y-53223162D01*
X191054505Y-53218591D01*
X191089588Y-53072460D01*
X191112454Y-52977216D01*
X191112455Y-52977210D01*
X191113609Y-52972403D01*
X191121614Y-52870689D01*
X191128307Y-52785655D01*
X191128307Y-52785648D01*
X191128500Y-52783199D01*
X191128500Y-51356801D01*
X191113609Y-51167597D01*
X191108630Y-51146855D01*
X191055660Y-50926221D01*
X191054505Y-50921409D01*
X191051485Y-50914118D01*
X190959511Y-50692072D01*
X190959509Y-50692068D01*
X190957616Y-50687498D01*
X190825328Y-50471624D01*
X190660898Y-50279102D01*
X190657142Y-50275894D01*
X190657137Y-50275889D01*
X190638312Y-50259811D01*
X190599503Y-50200361D01*
X190598995Y-50129366D01*
X190636951Y-50069367D01*
X190701320Y-50039414D01*
X190720142Y-50038000D01*
X196216000Y-50038000D01*
X196284121Y-50058002D01*
X196330614Y-50111658D01*
X196342000Y-50164000D01*
X196342000Y-140336000D01*
X196321998Y-140404121D01*
X196268342Y-140450614D01*
X196216000Y-140462000D01*
X111124000Y-140462000D01*
X111055879Y-140441998D01*
X111009386Y-140388342D01*
X110998000Y-140336000D01*
X110998000Y-132399654D01*
X187497618Y-132399654D01*
X187504673Y-132409627D01*
X187535679Y-132435551D01*
X187542598Y-132440579D01*
X187767272Y-132581515D01*
X187774807Y-132585556D01*
X188016520Y-132694694D01*
X188024551Y-132697680D01*
X188278832Y-132773002D01*
X188287184Y-132774869D01*
X188549340Y-132814984D01*
X188557874Y-132815700D01*
X188823045Y-132819867D01*
X188831596Y-132819418D01*
X189094883Y-132787557D01*
X189103284Y-132785955D01*
X189359824Y-132718653D01*
X189367926Y-132715926D01*
X189612949Y-132614434D01*
X189620617Y-132610628D01*
X189849598Y-132476822D01*
X189856679Y-132472009D01*
X189936655Y-132409301D01*
X189945125Y-132397442D01*
X189938608Y-132385818D01*
X188734812Y-131182022D01*
X188720868Y-131174408D01*
X188719035Y-131174539D01*
X188712420Y-131178790D01*
X187504910Y-132386300D01*
X187497618Y-132399654D01*
X110998000Y-132399654D01*
X110998000Y-130793204D01*
X186709665Y-130793204D01*
X186724932Y-131057969D01*
X186726005Y-131066470D01*
X186777065Y-131326722D01*
X186779276Y-131334974D01*
X186865184Y-131585894D01*
X186868499Y-131593779D01*
X186987664Y-131830713D01*
X186992020Y-131838079D01*
X187121347Y-132026250D01*
X187131601Y-132034594D01*
X187145342Y-132027448D01*
X188349978Y-130822812D01*
X188356356Y-130811132D01*
X189086408Y-130811132D01*
X189086539Y-130812965D01*
X189090790Y-130819580D01*
X190297730Y-132026520D01*
X190309939Y-132033187D01*
X190321439Y-132024497D01*
X190418831Y-131891913D01*
X190423418Y-131884685D01*
X190549962Y-131651621D01*
X190553530Y-131643827D01*
X190647271Y-131395750D01*
X190649748Y-131387544D01*
X190708954Y-131129038D01*
X190710294Y-131120577D01*
X190734031Y-130854616D01*
X190734277Y-130849677D01*
X190734666Y-130812485D01*
X190734523Y-130807519D01*
X190716362Y-130541123D01*
X190715201Y-130532649D01*
X190661419Y-130272944D01*
X190659120Y-130264709D01*
X190570588Y-130014705D01*
X190567191Y-130006854D01*
X190445550Y-129771178D01*
X190441122Y-129763866D01*
X190322031Y-129594417D01*
X190311509Y-129586037D01*
X190298121Y-129593089D01*
X189094022Y-130797188D01*
X189086408Y-130811132D01*
X188356356Y-130811132D01*
X188357592Y-130808868D01*
X188357461Y-130807035D01*
X188353210Y-130800420D01*
X187145814Y-129593024D01*
X187133804Y-129586466D01*
X187122064Y-129595434D01*
X187013935Y-129745911D01*
X187009418Y-129753196D01*
X186885325Y-129987567D01*
X186881839Y-129995395D01*
X186790700Y-130244446D01*
X186788311Y-130252670D01*
X186731812Y-130511795D01*
X186730563Y-130520250D01*
X186709754Y-130784653D01*
X186709665Y-130793204D01*
X110998000Y-130793204D01*
X110998000Y-128061404D01*
X151700941Y-128061404D01*
X151727091Y-128360292D01*
X151728001Y-128364364D01*
X151728002Y-128364369D01*
X151791628Y-128649016D01*
X151792540Y-128653095D01*
X151896140Y-128934671D01*
X151898084Y-128938359D01*
X151898088Y-128938367D01*
X152034116Y-129196367D01*
X152036069Y-129200071D01*
X152209871Y-129444633D01*
X152414490Y-129664061D01*
X152646333Y-129854498D01*
X152901325Y-130012600D01*
X152905142Y-130014316D01*
X152905145Y-130014317D01*
X152980031Y-130047972D01*
X153174988Y-130135589D01*
X153349368Y-130187574D01*
X153458514Y-130220112D01*
X153458516Y-130220112D01*
X153462513Y-130221304D01*
X153466633Y-130221957D01*
X153466635Y-130221957D01*
X153585509Y-130240785D01*
X153758848Y-130268239D01*
X153801577Y-130270179D01*
X153851262Y-130272436D01*
X153851281Y-130272436D01*
X153852681Y-130272500D01*
X154040107Y-130272500D01*
X154263370Y-130257671D01*
X154267464Y-130256846D01*
X154267468Y-130256845D01*
X154408513Y-130228405D01*
X154557480Y-130198368D01*
X154841163Y-130100688D01*
X154844896Y-130098819D01*
X154844900Y-130098817D01*
X155105691Y-129968222D01*
X155105693Y-129968221D01*
X155109435Y-129966347D01*
X155357584Y-129797706D01*
X155581248Y-129597726D01*
X155584084Y-129594417D01*
X155773779Y-129373097D01*
X155773782Y-129373093D01*
X155776499Y-129369923D01*
X155778773Y-129366421D01*
X155778777Y-129366416D01*
X155872237Y-129222500D01*
X187498584Y-129222500D01*
X187504980Y-129233770D01*
X188709188Y-130437978D01*
X188723132Y-130445592D01*
X188724965Y-130445461D01*
X188731580Y-130441210D01*
X189938604Y-129234186D01*
X189945795Y-129221017D01*
X189938473Y-129210780D01*
X189891233Y-129172115D01*
X189884261Y-129167160D01*
X189658122Y-129028582D01*
X189650552Y-129024624D01*
X189407704Y-128918022D01*
X189399644Y-128915120D01*
X189144592Y-128842467D01*
X189136214Y-128840685D01*
X188873656Y-128803318D01*
X188865111Y-128802691D01*
X188599908Y-128801302D01*
X188591374Y-128801839D01*
X188328433Y-128836456D01*
X188320035Y-128838149D01*
X188064238Y-128908127D01*
X188056143Y-128910946D01*
X187812199Y-129014997D01*
X187804577Y-129018881D01*
X187577013Y-129155075D01*
X187569981Y-129159962D01*
X187507053Y-129210377D01*
X187498584Y-129222500D01*
X155872237Y-129222500D01*
X155937628Y-129121807D01*
X155937631Y-129121802D01*
X155939907Y-129118297D01*
X156068600Y-128847270D01*
X156071529Y-128838149D01*
X156159038Y-128565591D01*
X156159038Y-128565590D01*
X156160318Y-128561604D01*
X156213448Y-128266316D01*
X156227059Y-127966596D01*
X156200909Y-127667708D01*
X156156832Y-127470515D01*
X156136372Y-127378984D01*
X156136371Y-127378981D01*
X156135460Y-127374905D01*
X156031860Y-127093329D01*
X156029916Y-127089641D01*
X156029912Y-127089633D01*
X155893884Y-126831633D01*
X155893883Y-126831632D01*
X155891931Y-126827929D01*
X155718129Y-126583367D01*
X155513510Y-126363939D01*
X155281667Y-126173502D01*
X155026675Y-126015400D01*
X154753012Y-125892411D01*
X154539650Y-125828805D01*
X154469486Y-125807888D01*
X154469484Y-125807888D01*
X154465487Y-125806696D01*
X154461367Y-125806043D01*
X154461365Y-125806043D01*
X154342491Y-125787215D01*
X154169152Y-125759761D01*
X154126423Y-125757821D01*
X154076738Y-125755564D01*
X154076719Y-125755564D01*
X154075319Y-125755500D01*
X153887893Y-125755500D01*
X153664630Y-125770329D01*
X153660536Y-125771154D01*
X153660532Y-125771155D01*
X153519487Y-125799595D01*
X153370520Y-125829632D01*
X153086837Y-125927312D01*
X153083104Y-125929181D01*
X153083100Y-125929183D01*
X152822309Y-126059778D01*
X152818565Y-126061653D01*
X152570416Y-126230294D01*
X152346752Y-126430274D01*
X152344035Y-126433444D01*
X152344034Y-126433445D01*
X152218155Y-126580311D01*
X152151501Y-126658077D01*
X152149227Y-126661579D01*
X152149223Y-126661584D01*
X151990372Y-126906193D01*
X151988093Y-126909703D01*
X151859400Y-127180730D01*
X151767682Y-127466396D01*
X151714552Y-127761684D01*
X151700941Y-128061404D01*
X110998000Y-128061404D01*
X110998000Y-100296695D01*
X115477251Y-100296695D01*
X115477548Y-100301848D01*
X115477548Y-100301851D01*
X115483011Y-100396590D01*
X115490110Y-100519715D01*
X115491247Y-100524761D01*
X115491248Y-100524767D01*
X115511119Y-100612939D01*
X115539222Y-100737639D01*
X115623266Y-100944616D01*
X115647087Y-100983489D01*
X115705213Y-101078341D01*
X115739987Y-101135088D01*
X115886250Y-101303938D01*
X116058126Y-101446632D01*
X116251000Y-101559338D01*
X116459692Y-101639030D01*
X116464760Y-101640061D01*
X116464763Y-101640062D01*
X116572017Y-101661883D01*
X116678597Y-101683567D01*
X116683772Y-101683757D01*
X116683774Y-101683757D01*
X116896673Y-101691564D01*
X116896677Y-101691564D01*
X116901837Y-101691753D01*
X116906957Y-101691097D01*
X116906959Y-101691097D01*
X117118288Y-101664025D01*
X117118289Y-101664025D01*
X117123416Y-101663368D01*
X117128366Y-101661883D01*
X117332429Y-101600661D01*
X117332434Y-101600659D01*
X117337384Y-101599174D01*
X117537994Y-101500896D01*
X117719860Y-101371173D01*
X117761842Y-101329338D01*
X117820488Y-101270896D01*
X117878096Y-101213489D01*
X117890157Y-101196705D01*
X118005435Y-101036277D01*
X118008453Y-101032077D01*
X118025336Y-100997918D01*
X118105136Y-100836453D01*
X118105137Y-100836451D01*
X118107430Y-100831811D01*
X118172370Y-100618069D01*
X118201529Y-100396590D01*
X118203156Y-100330000D01*
X118184852Y-100107361D01*
X118174637Y-100066695D01*
X121827251Y-100066695D01*
X121827548Y-100071848D01*
X121827548Y-100071851D01*
X121836203Y-100221957D01*
X121840110Y-100289715D01*
X121841247Y-100294761D01*
X121841248Y-100294767D01*
X121849947Y-100333365D01*
X121889222Y-100507639D01*
X121973266Y-100714616D01*
X121990307Y-100742425D01*
X122047928Y-100836453D01*
X122089987Y-100905088D01*
X122236250Y-101073938D01*
X122408126Y-101216632D01*
X122601000Y-101329338D01*
X122809692Y-101409030D01*
X122814760Y-101410061D01*
X122814763Y-101410062D01*
X122922017Y-101431883D01*
X123028597Y-101453567D01*
X123033772Y-101453757D01*
X123033774Y-101453757D01*
X123246673Y-101461564D01*
X123246677Y-101461564D01*
X123251837Y-101461753D01*
X123256957Y-101461097D01*
X123256959Y-101461097D01*
X123468288Y-101434025D01*
X123468289Y-101434025D01*
X123473416Y-101433368D01*
X123478366Y-101431883D01*
X123682429Y-101370661D01*
X123682434Y-101370659D01*
X123687384Y-101369174D01*
X123887994Y-101270896D01*
X124069860Y-101141173D01*
X124178091Y-101033319D01*
X124240462Y-100999404D01*
X124311268Y-101004592D01*
X124368030Y-101047238D01*
X124385012Y-101078341D01*
X124408567Y-101141173D01*
X124429385Y-101196705D01*
X124516739Y-101313261D01*
X124633295Y-101400615D01*
X124769684Y-101451745D01*
X124831866Y-101458500D01*
X126628134Y-101458500D01*
X126690316Y-101451745D01*
X126826705Y-101400615D01*
X126943261Y-101313261D01*
X127030615Y-101196705D01*
X127051433Y-101141173D01*
X127074598Y-101079382D01*
X127117240Y-101022618D01*
X127183802Y-100997918D01*
X127253150Y-101013126D01*
X127287817Y-101041114D01*
X127316250Y-101073938D01*
X127488126Y-101216632D01*
X127681000Y-101329338D01*
X127889692Y-101409030D01*
X127894760Y-101410061D01*
X127894763Y-101410062D01*
X128002017Y-101431883D01*
X128108597Y-101453567D01*
X128113772Y-101453757D01*
X128113774Y-101453757D01*
X128326673Y-101461564D01*
X128326677Y-101461564D01*
X128331837Y-101461753D01*
X128336957Y-101461097D01*
X128336959Y-101461097D01*
X128548288Y-101434025D01*
X128548289Y-101434025D01*
X128553416Y-101433368D01*
X128558366Y-101431883D01*
X128762429Y-101370661D01*
X128762434Y-101370659D01*
X128767384Y-101369174D01*
X128967994Y-101270896D01*
X129149860Y-101141173D01*
X129155967Y-101135088D01*
X129255123Y-101036277D01*
X129308096Y-100983489D01*
X129367594Y-100900689D01*
X129435435Y-100806277D01*
X129438453Y-100802077D01*
X129472793Y-100732596D01*
X129535136Y-100606453D01*
X129535137Y-100606451D01*
X129537430Y-100601811D01*
X129602370Y-100388069D01*
X129614400Y-100296695D01*
X133257251Y-100296695D01*
X133257548Y-100301848D01*
X133257548Y-100301851D01*
X133263011Y-100396590D01*
X133270110Y-100519715D01*
X133271247Y-100524761D01*
X133271248Y-100524767D01*
X133291119Y-100612939D01*
X133319222Y-100737639D01*
X133403266Y-100944616D01*
X133427087Y-100983489D01*
X133485213Y-101078341D01*
X133519987Y-101135088D01*
X133666250Y-101303938D01*
X133838126Y-101446632D01*
X134031000Y-101559338D01*
X134239692Y-101639030D01*
X134244760Y-101640061D01*
X134244763Y-101640062D01*
X134352017Y-101661883D01*
X134458597Y-101683567D01*
X134463772Y-101683757D01*
X134463774Y-101683757D01*
X134676673Y-101691564D01*
X134676677Y-101691564D01*
X134681837Y-101691753D01*
X134686957Y-101691097D01*
X134686959Y-101691097D01*
X134898288Y-101664025D01*
X134898289Y-101664025D01*
X134903416Y-101663368D01*
X134908366Y-101661883D01*
X135112429Y-101600661D01*
X135112434Y-101600659D01*
X135117384Y-101599174D01*
X135317994Y-101500896D01*
X135499860Y-101371173D01*
X135541842Y-101329338D01*
X135600488Y-101270896D01*
X135658096Y-101213489D01*
X135670157Y-101196705D01*
X135785435Y-101036277D01*
X135788453Y-101032077D01*
X135805336Y-100997918D01*
X135885136Y-100836453D01*
X135885137Y-100836451D01*
X135887430Y-100831811D01*
X135952370Y-100618069D01*
X135981529Y-100396590D01*
X135983156Y-100330000D01*
X135964852Y-100107361D01*
X135910431Y-99890702D01*
X135821354Y-99685840D01*
X135766152Y-99600511D01*
X135702822Y-99502617D01*
X135702820Y-99502614D01*
X135700014Y-99498277D01*
X135549670Y-99333051D01*
X135545619Y-99329852D01*
X135545615Y-99329848D01*
X135378414Y-99197800D01*
X135378410Y-99197798D01*
X135374359Y-99194598D01*
X135333053Y-99171796D01*
X135283084Y-99121364D01*
X135268312Y-99051921D01*
X135293428Y-98985516D01*
X135320780Y-98958909D01*
X135364603Y-98927650D01*
X135499860Y-98831173D01*
X135526355Y-98804771D01*
X135654435Y-98677137D01*
X135658096Y-98673489D01*
X135672751Y-98653095D01*
X135785435Y-98496277D01*
X135788453Y-98492077D01*
X135887430Y-98291811D01*
X135952370Y-98078069D01*
X135954564Y-98061404D01*
X151700941Y-98061404D01*
X151727091Y-98360292D01*
X151728001Y-98364364D01*
X151728002Y-98364369D01*
X151779574Y-98595088D01*
X151792540Y-98653095D01*
X151793984Y-98657018D01*
X151793984Y-98657020D01*
X151801386Y-98677137D01*
X151896140Y-98934671D01*
X151898084Y-98938359D01*
X151898088Y-98938367D01*
X152023645Y-99176507D01*
X152036069Y-99200071D01*
X152209871Y-99444633D01*
X152414490Y-99664061D01*
X152646333Y-99854498D01*
X152901325Y-100012600D01*
X153174988Y-100135589D01*
X153278979Y-100166590D01*
X153458514Y-100220112D01*
X153458516Y-100220112D01*
X153462513Y-100221304D01*
X153466633Y-100221957D01*
X153466635Y-100221957D01*
X153585509Y-100240785D01*
X153758848Y-100268239D01*
X153801577Y-100270179D01*
X153851262Y-100272436D01*
X153851281Y-100272436D01*
X153852681Y-100272500D01*
X154040107Y-100272500D01*
X154263370Y-100257671D01*
X154267464Y-100256846D01*
X154267468Y-100256845D01*
X154408513Y-100228405D01*
X154557480Y-100198368D01*
X154841163Y-100100688D01*
X154844896Y-100098819D01*
X154844900Y-100098817D01*
X155105691Y-99968222D01*
X155105693Y-99968221D01*
X155109435Y-99966347D01*
X155259598Y-99864297D01*
X155354125Y-99800057D01*
X155354128Y-99800055D01*
X155357584Y-99797706D01*
X155581248Y-99597726D01*
X155583966Y-99594555D01*
X155773779Y-99373097D01*
X155773782Y-99373093D01*
X155776499Y-99369923D01*
X155778773Y-99366421D01*
X155778777Y-99366416D01*
X155937628Y-99121807D01*
X155937631Y-99121802D01*
X155939907Y-99118297D01*
X156068600Y-98847270D01*
X156070373Y-98841750D01*
X156159038Y-98565591D01*
X156159038Y-98565590D01*
X156160318Y-98561604D01*
X156213448Y-98266316D01*
X156216350Y-98202425D01*
X156226870Y-97970766D01*
X156226870Y-97970760D01*
X156227059Y-97966596D01*
X156217435Y-97856590D01*
X156201273Y-97671870D01*
X156200909Y-97667708D01*
X156179633Y-97572522D01*
X156136372Y-97378984D01*
X156136371Y-97378981D01*
X156135460Y-97374905D01*
X156031860Y-97093329D01*
X156029916Y-97089641D01*
X156029912Y-97089633D01*
X155893884Y-96831633D01*
X155893883Y-96831632D01*
X155891931Y-96827929D01*
X155718129Y-96583367D01*
X155513510Y-96363939D01*
X155281667Y-96173502D01*
X155026675Y-96015400D01*
X154753012Y-95892411D01*
X154539650Y-95828805D01*
X154469486Y-95807888D01*
X154469484Y-95807888D01*
X154465487Y-95806696D01*
X154461367Y-95806043D01*
X154461365Y-95806043D01*
X154342491Y-95787215D01*
X154169152Y-95759761D01*
X154126423Y-95757821D01*
X154076738Y-95755564D01*
X154076719Y-95755564D01*
X154075319Y-95755500D01*
X153887893Y-95755500D01*
X153664630Y-95770329D01*
X153660536Y-95771154D01*
X153660532Y-95771155D01*
X153519487Y-95799595D01*
X153370520Y-95829632D01*
X153086837Y-95927312D01*
X153083104Y-95929181D01*
X153083100Y-95929183D01*
X152822309Y-96059778D01*
X152818565Y-96061653D01*
X152815100Y-96064008D01*
X152611532Y-96202352D01*
X152570416Y-96230294D01*
X152346752Y-96430274D01*
X152344035Y-96433444D01*
X152344034Y-96433445D01*
X152154483Y-96654598D01*
X152151501Y-96658077D01*
X152149227Y-96661579D01*
X152149223Y-96661584D01*
X152038792Y-96831633D01*
X151988093Y-96909703D01*
X151986299Y-96913482D01*
X151986298Y-96913483D01*
X151965028Y-96958277D01*
X151859400Y-97180730D01*
X151858121Y-97184713D01*
X151858120Y-97184716D01*
X151803216Y-97355720D01*
X151767682Y-97466396D01*
X151766941Y-97470515D01*
X151715450Y-97756695D01*
X151714552Y-97761684D01*
X151714363Y-97765851D01*
X151714362Y-97765858D01*
X151704421Y-97984767D01*
X151700941Y-98061404D01*
X135954564Y-98061404D01*
X135981529Y-97856590D01*
X135983156Y-97790000D01*
X135964852Y-97567361D01*
X135910431Y-97350702D01*
X135821354Y-97145840D01*
X135700014Y-96958277D01*
X135696540Y-96954459D01*
X135696533Y-96954450D01*
X135552435Y-96796088D01*
X135521383Y-96732242D01*
X135529779Y-96661744D01*
X135574956Y-96606976D01*
X135601400Y-96593307D01*
X135708052Y-96553325D01*
X135723649Y-96544786D01*
X135825724Y-96468285D01*
X135838285Y-96455724D01*
X135914786Y-96353649D01*
X135923324Y-96338054D01*
X135968478Y-96217606D01*
X135972105Y-96202351D01*
X135977631Y-96151486D01*
X135978000Y-96144672D01*
X135978000Y-95522115D01*
X135973525Y-95506876D01*
X135972135Y-95505671D01*
X135964452Y-95504000D01*
X133280116Y-95504000D01*
X133264877Y-95508475D01*
X133263672Y-95509865D01*
X133262001Y-95517548D01*
X133262001Y-96144669D01*
X133262371Y-96151490D01*
X133267895Y-96202352D01*
X133271521Y-96217604D01*
X133316676Y-96338054D01*
X133325214Y-96353649D01*
X133401715Y-96455724D01*
X133414276Y-96468285D01*
X133516351Y-96544786D01*
X133531946Y-96553324D01*
X133640827Y-96594142D01*
X133697591Y-96636784D01*
X133722291Y-96703345D01*
X133707083Y-96772694D01*
X133687691Y-96799175D01*
X133582068Y-96909703D01*
X133560629Y-96932138D01*
X133434743Y-97116680D01*
X133340688Y-97319305D01*
X133280989Y-97534570D01*
X133257251Y-97756695D01*
X133257548Y-97761848D01*
X133257548Y-97761851D01*
X133263011Y-97856590D01*
X133270110Y-97979715D01*
X133271247Y-97984761D01*
X133271248Y-97984767D01*
X133287580Y-98057234D01*
X133319222Y-98197639D01*
X133357461Y-98291811D01*
X133386924Y-98364369D01*
X133403266Y-98404616D01*
X133519987Y-98595088D01*
X133666250Y-98763938D01*
X133838126Y-98906632D01*
X133879401Y-98930751D01*
X133911445Y-98949476D01*
X133960169Y-99001114D01*
X133973240Y-99070897D01*
X133946509Y-99136669D01*
X133906055Y-99170027D01*
X133893607Y-99176507D01*
X133889474Y-99179610D01*
X133889471Y-99179612D01*
X133765600Y-99272617D01*
X133714965Y-99310635D01*
X133711393Y-99314373D01*
X133571665Y-99460590D01*
X133560629Y-99472138D01*
X133434743Y-99656680D01*
X133419003Y-99690590D01*
X133347528Y-99844570D01*
X133340688Y-99859305D01*
X133280989Y-100074570D01*
X133257251Y-100296695D01*
X129614400Y-100296695D01*
X129631529Y-100166590D01*
X129632257Y-100136783D01*
X129633074Y-100103365D01*
X129633074Y-100103361D01*
X129633156Y-100100000D01*
X129614852Y-99877361D01*
X129560431Y-99660702D01*
X129471354Y-99455840D01*
X129350014Y-99268277D01*
X129199670Y-99103051D01*
X129195619Y-99099852D01*
X129195615Y-99099848D01*
X129028414Y-98967800D01*
X129028410Y-98967798D01*
X129024359Y-98964598D01*
X129014054Y-98958909D01*
X128913366Y-98903327D01*
X128828789Y-98856638D01*
X128823920Y-98854914D01*
X128823916Y-98854912D01*
X128623087Y-98783795D01*
X128623083Y-98783794D01*
X128618212Y-98782069D01*
X128613119Y-98781162D01*
X128613116Y-98781161D01*
X128403373Y-98743800D01*
X128403367Y-98743799D01*
X128398284Y-98742894D01*
X128324452Y-98741992D01*
X128180081Y-98740228D01*
X128180079Y-98740228D01*
X128174911Y-98740165D01*
X127954091Y-98773955D01*
X127741756Y-98843357D01*
X127543607Y-98946507D01*
X127539474Y-98949610D01*
X127539471Y-98949612D01*
X127374658Y-99073357D01*
X127364965Y-99080635D01*
X127308537Y-99139684D01*
X127284283Y-99165064D01*
X127222759Y-99200494D01*
X127151846Y-99197037D01*
X127094060Y-99155791D01*
X127075207Y-99122243D01*
X127033767Y-99011703D01*
X127030615Y-99003295D01*
X126943261Y-98886739D01*
X126826705Y-98799385D01*
X126690316Y-98748255D01*
X126628134Y-98741500D01*
X124831866Y-98741500D01*
X124769684Y-98748255D01*
X124633295Y-98799385D01*
X124516739Y-98886739D01*
X124429385Y-99003295D01*
X124426233Y-99011703D01*
X124384919Y-99121907D01*
X124342277Y-99178671D01*
X124275716Y-99203371D01*
X124206367Y-99188163D01*
X124173743Y-99162476D01*
X124123151Y-99106875D01*
X124123142Y-99106866D01*
X124119670Y-99103051D01*
X124115619Y-99099852D01*
X124115615Y-99099848D01*
X123948414Y-98967800D01*
X123948410Y-98967798D01*
X123944359Y-98964598D01*
X123934054Y-98958909D01*
X123833366Y-98903327D01*
X123748789Y-98856638D01*
X123743920Y-98854914D01*
X123743916Y-98854912D01*
X123543087Y-98783795D01*
X123543083Y-98783794D01*
X123538212Y-98782069D01*
X123533119Y-98781162D01*
X123533116Y-98781161D01*
X123323373Y-98743800D01*
X123323367Y-98743799D01*
X123318284Y-98742894D01*
X123244452Y-98741992D01*
X123100081Y-98740228D01*
X123100079Y-98740228D01*
X123094911Y-98740165D01*
X122874091Y-98773955D01*
X122661756Y-98843357D01*
X122463607Y-98946507D01*
X122459474Y-98949610D01*
X122459471Y-98949612D01*
X122294658Y-99073357D01*
X122284965Y-99080635D01*
X122252587Y-99114517D01*
X122173729Y-99197037D01*
X122130629Y-99242138D01*
X122127715Y-99246410D01*
X122127714Y-99246411D01*
X122081354Y-99314373D01*
X122004743Y-99426680D01*
X121989003Y-99460590D01*
X121924054Y-99600511D01*
X121910688Y-99629305D01*
X121850989Y-99844570D01*
X121827251Y-100066695D01*
X118174637Y-100066695D01*
X118130431Y-99890702D01*
X118041354Y-99685840D01*
X117986152Y-99600511D01*
X117922822Y-99502617D01*
X117922820Y-99502614D01*
X117920014Y-99498277D01*
X117769670Y-99333051D01*
X117765619Y-99329852D01*
X117765615Y-99329848D01*
X117598414Y-99197800D01*
X117598410Y-99197798D01*
X117594359Y-99194598D01*
X117553053Y-99171796D01*
X117503084Y-99121364D01*
X117488312Y-99051921D01*
X117513428Y-98985516D01*
X117540780Y-98958909D01*
X117584603Y-98927650D01*
X117719860Y-98831173D01*
X117746355Y-98804771D01*
X117874435Y-98677137D01*
X117878096Y-98673489D01*
X117892751Y-98653095D01*
X118005435Y-98496277D01*
X118008453Y-98492077D01*
X118107430Y-98291811D01*
X118172370Y-98078069D01*
X118201529Y-97856590D01*
X118203156Y-97790000D01*
X118184852Y-97567361D01*
X118130431Y-97350702D01*
X118041354Y-97145840D01*
X117920014Y-96958277D01*
X117916540Y-96954459D01*
X117916533Y-96954450D01*
X117772435Y-96796088D01*
X117741383Y-96732242D01*
X117749779Y-96661744D01*
X117794956Y-96606976D01*
X117821400Y-96593307D01*
X117928052Y-96553325D01*
X117943649Y-96544786D01*
X118045724Y-96468285D01*
X118058285Y-96455724D01*
X118134786Y-96353649D01*
X118143324Y-96338054D01*
X118188478Y-96217606D01*
X118192105Y-96202351D01*
X118197631Y-96151486D01*
X118198000Y-96144672D01*
X118198000Y-95522115D01*
X118193525Y-95506876D01*
X118192135Y-95505671D01*
X118184452Y-95504000D01*
X115500116Y-95504000D01*
X115484877Y-95508475D01*
X115483672Y-95509865D01*
X115482001Y-95517548D01*
X115482001Y-96144669D01*
X115482371Y-96151490D01*
X115487895Y-96202352D01*
X115491521Y-96217604D01*
X115536676Y-96338054D01*
X115545214Y-96353649D01*
X115621715Y-96455724D01*
X115634276Y-96468285D01*
X115736351Y-96544786D01*
X115751946Y-96553324D01*
X115860827Y-96594142D01*
X115917591Y-96636784D01*
X115942291Y-96703345D01*
X115927083Y-96772694D01*
X115907691Y-96799175D01*
X115802068Y-96909703D01*
X115780629Y-96932138D01*
X115654743Y-97116680D01*
X115560688Y-97319305D01*
X115500989Y-97534570D01*
X115477251Y-97756695D01*
X115477548Y-97761848D01*
X115477548Y-97761851D01*
X115483011Y-97856590D01*
X115490110Y-97979715D01*
X115491247Y-97984761D01*
X115491248Y-97984767D01*
X115507580Y-98057234D01*
X115539222Y-98197639D01*
X115577461Y-98291811D01*
X115606924Y-98364369D01*
X115623266Y-98404616D01*
X115739987Y-98595088D01*
X115886250Y-98763938D01*
X116058126Y-98906632D01*
X116099401Y-98930751D01*
X116131445Y-98949476D01*
X116180169Y-99001114D01*
X116193240Y-99070897D01*
X116166509Y-99136669D01*
X116126055Y-99170027D01*
X116113607Y-99176507D01*
X116109474Y-99179610D01*
X116109471Y-99179612D01*
X115985600Y-99272617D01*
X115934965Y-99310635D01*
X115931393Y-99314373D01*
X115791665Y-99460590D01*
X115780629Y-99472138D01*
X115654743Y-99656680D01*
X115639003Y-99690590D01*
X115567528Y-99844570D01*
X115560688Y-99859305D01*
X115500989Y-100074570D01*
X115477251Y-100296695D01*
X110998000Y-100296695D01*
X110998000Y-92676695D01*
X115477251Y-92676695D01*
X115477548Y-92681848D01*
X115477548Y-92681851D01*
X115483011Y-92776590D01*
X115490110Y-92899715D01*
X115491247Y-92904761D01*
X115491248Y-92904767D01*
X115511119Y-92992939D01*
X115539222Y-93117639D01*
X115623266Y-93324616D01*
X115739987Y-93515088D01*
X115886250Y-93683938D01*
X115890225Y-93687238D01*
X115890231Y-93687244D01*
X115895425Y-93691556D01*
X115935059Y-93750460D01*
X115936555Y-93821441D01*
X115899439Y-93881962D01*
X115859168Y-93906480D01*
X115751946Y-93946676D01*
X115736351Y-93955214D01*
X115634276Y-94031715D01*
X115621715Y-94044276D01*
X115545214Y-94146351D01*
X115536676Y-94161946D01*
X115491522Y-94282394D01*
X115487895Y-94297649D01*
X115482369Y-94348514D01*
X115482000Y-94355328D01*
X115482000Y-94977885D01*
X115486475Y-94993124D01*
X115487865Y-94994329D01*
X115495548Y-94996000D01*
X118179884Y-94996000D01*
X118195123Y-94991525D01*
X118196328Y-94990135D01*
X118197999Y-94982452D01*
X118197999Y-94355331D01*
X118197629Y-94348510D01*
X118192105Y-94297648D01*
X118188479Y-94282396D01*
X118143324Y-94161946D01*
X118134786Y-94146351D01*
X118058285Y-94044276D01*
X118045724Y-94031715D01*
X117943649Y-93955214D01*
X117928054Y-93946676D01*
X117817813Y-93905348D01*
X117761049Y-93862706D01*
X117736349Y-93796145D01*
X117751557Y-93726796D01*
X117773104Y-93698115D01*
X117874430Y-93597144D01*
X117874440Y-93597132D01*
X117878096Y-93593489D01*
X117937594Y-93510689D01*
X118005435Y-93416277D01*
X118008453Y-93412077D01*
X118107430Y-93211811D01*
X118172370Y-92998069D01*
X118201529Y-92776590D01*
X118203156Y-92710000D01*
X118200418Y-92676695D01*
X133257251Y-92676695D01*
X133257548Y-92681848D01*
X133257548Y-92681851D01*
X133263011Y-92776590D01*
X133270110Y-92899715D01*
X133271247Y-92904761D01*
X133271248Y-92904767D01*
X133291119Y-92992939D01*
X133319222Y-93117639D01*
X133403266Y-93324616D01*
X133519987Y-93515088D01*
X133666250Y-93683938D01*
X133670225Y-93687238D01*
X133670231Y-93687244D01*
X133675425Y-93691556D01*
X133715059Y-93750460D01*
X133716555Y-93821441D01*
X133679439Y-93881962D01*
X133639168Y-93906480D01*
X133531946Y-93946676D01*
X133516351Y-93955214D01*
X133414276Y-94031715D01*
X133401715Y-94044276D01*
X133325214Y-94146351D01*
X133316676Y-94161946D01*
X133271522Y-94282394D01*
X133267895Y-94297649D01*
X133262369Y-94348514D01*
X133262000Y-94355328D01*
X133262000Y-94977885D01*
X133266475Y-94993124D01*
X133267865Y-94994329D01*
X133275548Y-94996000D01*
X135959884Y-94996000D01*
X135975123Y-94991525D01*
X135976328Y-94990135D01*
X135977999Y-94982452D01*
X135977999Y-94355331D01*
X135977629Y-94348510D01*
X135972105Y-94297648D01*
X135968479Y-94282396D01*
X135923324Y-94161946D01*
X135914786Y-94146351D01*
X135838285Y-94044276D01*
X135825724Y-94031715D01*
X135723649Y-93955214D01*
X135708054Y-93946676D01*
X135597813Y-93905348D01*
X135541049Y-93862706D01*
X135516349Y-93796145D01*
X135531557Y-93726796D01*
X135553104Y-93698115D01*
X135654430Y-93597144D01*
X135654440Y-93597132D01*
X135658096Y-93593489D01*
X135717594Y-93510689D01*
X135785435Y-93416277D01*
X135788453Y-93412077D01*
X135887430Y-93211811D01*
X135952370Y-92998069D01*
X135981529Y-92776590D01*
X135983156Y-92710000D01*
X135964852Y-92487361D01*
X135910431Y-92270702D01*
X135821354Y-92065840D01*
X135700014Y-91878277D01*
X135549670Y-91713051D01*
X135545619Y-91709852D01*
X135545615Y-91709848D01*
X135378414Y-91577800D01*
X135378410Y-91577798D01*
X135374359Y-91574598D01*
X135333053Y-91551796D01*
X135283084Y-91501364D01*
X135268312Y-91431921D01*
X135293428Y-91365516D01*
X135320780Y-91338909D01*
X135364603Y-91307650D01*
X135499860Y-91211173D01*
X135658096Y-91053489D01*
X135717594Y-90970689D01*
X135785435Y-90876277D01*
X135788453Y-90872077D01*
X135887430Y-90671811D01*
X135952370Y-90458069D01*
X135981529Y-90236590D01*
X135983156Y-90170000D01*
X135964852Y-89947361D01*
X135910431Y-89730702D01*
X135821354Y-89525840D01*
X135700014Y-89338277D01*
X135549670Y-89173051D01*
X135545619Y-89169852D01*
X135545615Y-89169848D01*
X135378414Y-89037800D01*
X135378410Y-89037798D01*
X135374359Y-89034598D01*
X135333053Y-89011796D01*
X135283084Y-88961364D01*
X135268312Y-88891921D01*
X135293428Y-88825516D01*
X135320780Y-88798909D01*
X135364603Y-88767650D01*
X135499860Y-88671173D01*
X135658096Y-88513489D01*
X135717594Y-88430689D01*
X135785435Y-88336277D01*
X135788453Y-88332077D01*
X135887430Y-88131811D01*
X135952370Y-87918069D01*
X135981529Y-87696590D01*
X135983156Y-87630000D01*
X135964852Y-87407361D01*
X135910431Y-87190702D01*
X135821354Y-86985840D01*
X135700014Y-86798277D01*
X135549670Y-86633051D01*
X135545619Y-86629852D01*
X135545615Y-86629848D01*
X135378414Y-86497800D01*
X135378410Y-86497798D01*
X135374359Y-86494598D01*
X135333053Y-86471796D01*
X135283084Y-86421364D01*
X135268312Y-86351921D01*
X135293428Y-86285516D01*
X135320780Y-86258909D01*
X135364603Y-86227650D01*
X135499860Y-86131173D01*
X135658096Y-85973489D01*
X135717594Y-85890689D01*
X135785435Y-85796277D01*
X135788453Y-85792077D01*
X135887430Y-85591811D01*
X135952370Y-85378069D01*
X135981529Y-85156590D01*
X135983156Y-85090000D01*
X135964852Y-84867361D01*
X135910431Y-84650702D01*
X135821354Y-84445840D01*
X135745447Y-84328506D01*
X135702822Y-84262617D01*
X135702820Y-84262614D01*
X135700014Y-84258277D01*
X135696540Y-84254459D01*
X135696533Y-84254450D01*
X135552435Y-84096088D01*
X135521383Y-84032242D01*
X135529779Y-83961744D01*
X135574956Y-83906976D01*
X135601400Y-83893307D01*
X135708052Y-83853325D01*
X135723649Y-83844786D01*
X135825724Y-83768285D01*
X135838285Y-83755724D01*
X135914786Y-83653649D01*
X135923324Y-83638054D01*
X135968478Y-83517606D01*
X135972105Y-83502351D01*
X135977631Y-83451486D01*
X135978000Y-83444672D01*
X135978000Y-83167655D01*
X140359858Y-83167655D01*
X140395104Y-83426638D01*
X140396412Y-83431124D01*
X140396412Y-83431126D01*
X140416098Y-83498664D01*
X140468243Y-83677567D01*
X140577668Y-83914928D01*
X140601197Y-83950816D01*
X140718410Y-84129596D01*
X140718414Y-84129601D01*
X140720976Y-84133509D01*
X140895018Y-84328506D01*
X141095970Y-84495637D01*
X141099973Y-84498066D01*
X141315422Y-84628804D01*
X141315426Y-84628806D01*
X141319419Y-84631229D01*
X141560455Y-84732303D01*
X141813783Y-84796641D01*
X141818434Y-84797109D01*
X141818438Y-84797110D01*
X142011308Y-84816531D01*
X142030867Y-84818500D01*
X142186354Y-84818500D01*
X142188679Y-84818327D01*
X142188685Y-84818327D01*
X142376000Y-84804407D01*
X142376004Y-84804406D01*
X142380652Y-84804061D01*
X142385200Y-84803032D01*
X142385206Y-84803031D01*
X142571601Y-84760853D01*
X142635577Y-84746377D01*
X142671769Y-84732303D01*
X142874824Y-84653340D01*
X142874827Y-84653339D01*
X142879177Y-84651647D01*
X143106098Y-84521951D01*
X143311357Y-84360138D01*
X143490443Y-84169763D01*
X143605892Y-84003345D01*
X143636759Y-83958851D01*
X143636761Y-83958848D01*
X143639424Y-83955009D01*
X143666485Y-83900135D01*
X143752960Y-83724781D01*
X143752961Y-83724778D01*
X143755025Y-83720593D01*
X143834707Y-83471665D01*
X143876721Y-83213693D01*
X143877324Y-83167655D01*
X163219858Y-83167655D01*
X163255104Y-83426638D01*
X163256412Y-83431124D01*
X163256412Y-83431126D01*
X163276098Y-83498664D01*
X163328243Y-83677567D01*
X163437668Y-83914928D01*
X163461197Y-83950816D01*
X163578410Y-84129596D01*
X163578414Y-84129601D01*
X163580976Y-84133509D01*
X163755018Y-84328506D01*
X163955970Y-84495637D01*
X163959973Y-84498066D01*
X164175422Y-84628804D01*
X164175426Y-84628806D01*
X164179419Y-84631229D01*
X164420455Y-84732303D01*
X164673783Y-84796641D01*
X164678434Y-84797109D01*
X164678438Y-84797110D01*
X164871308Y-84816531D01*
X164890867Y-84818500D01*
X165046354Y-84818500D01*
X165048679Y-84818327D01*
X165048685Y-84818327D01*
X165236000Y-84804407D01*
X165236004Y-84804406D01*
X165240652Y-84804061D01*
X165245200Y-84803032D01*
X165245206Y-84803031D01*
X165431601Y-84760853D01*
X165495577Y-84746377D01*
X165531769Y-84732303D01*
X165734824Y-84653340D01*
X165734827Y-84653339D01*
X165739177Y-84651647D01*
X165966098Y-84521951D01*
X166171357Y-84360138D01*
X166350443Y-84169763D01*
X166465892Y-84003345D01*
X166496759Y-83958851D01*
X166496761Y-83958848D01*
X166499424Y-83955009D01*
X166526485Y-83900135D01*
X166612960Y-83724781D01*
X166612961Y-83724778D01*
X166615025Y-83720593D01*
X166694707Y-83471665D01*
X166736721Y-83213693D01*
X166740142Y-82952345D01*
X166704896Y-82693362D01*
X166690473Y-82643877D01*
X166675579Y-82592777D01*
X182185777Y-82592777D01*
X182195074Y-82604793D01*
X182238069Y-82634898D01*
X182247555Y-82640376D01*
X182438993Y-82729645D01*
X182449285Y-82733391D01*
X182653309Y-82788059D01*
X182664104Y-82789962D01*
X182874525Y-82808372D01*
X182885475Y-82808372D01*
X183095896Y-82789962D01*
X183106691Y-82788059D01*
X183310715Y-82733391D01*
X183321007Y-82729645D01*
X183512445Y-82640376D01*
X183521931Y-82634898D01*
X183565764Y-82604207D01*
X183574139Y-82593729D01*
X183567071Y-82580281D01*
X182892812Y-81906022D01*
X182878868Y-81898408D01*
X182877035Y-81898539D01*
X182870420Y-81902790D01*
X182192207Y-82581003D01*
X182185777Y-82592777D01*
X166675579Y-82592777D01*
X166633068Y-82446932D01*
X166631757Y-82442433D01*
X166522332Y-82205072D01*
X166441909Y-82082406D01*
X166381590Y-81990404D01*
X166381586Y-81990399D01*
X166379024Y-81986491D01*
X166204982Y-81791494D01*
X166004030Y-81624363D01*
X165956844Y-81595730D01*
X165864139Y-81539475D01*
X181605628Y-81539475D01*
X181624038Y-81749896D01*
X181625941Y-81760691D01*
X181680609Y-81964715D01*
X181684355Y-81975007D01*
X181773623Y-82166441D01*
X181779103Y-82175932D01*
X181809794Y-82219765D01*
X181820271Y-82228140D01*
X181833718Y-82221072D01*
X182507978Y-81546812D01*
X182514356Y-81535132D01*
X183244408Y-81535132D01*
X183244539Y-81536965D01*
X183248790Y-81543580D01*
X183927003Y-82221793D01*
X183938777Y-82228223D01*
X183950793Y-82218926D01*
X183980897Y-82175932D01*
X183986377Y-82166441D01*
X184075645Y-81975007D01*
X184079391Y-81964715D01*
X184134059Y-81760691D01*
X184135962Y-81749896D01*
X184154372Y-81539475D01*
X184154372Y-81528525D01*
X184135962Y-81318104D01*
X184134059Y-81307309D01*
X184079391Y-81103285D01*
X184075645Y-81092993D01*
X183986377Y-80901559D01*
X183980897Y-80892068D01*
X183950206Y-80848235D01*
X183939729Y-80839860D01*
X183926282Y-80846928D01*
X183252022Y-81521188D01*
X183244408Y-81535132D01*
X182514356Y-81535132D01*
X182515592Y-81532868D01*
X182515461Y-81531035D01*
X182511210Y-81524420D01*
X181832997Y-80846207D01*
X181821223Y-80839777D01*
X181809207Y-80849074D01*
X181779103Y-80892068D01*
X181773623Y-80901559D01*
X181684355Y-81092993D01*
X181680609Y-81103285D01*
X181625941Y-81307309D01*
X181624038Y-81318104D01*
X181605628Y-81528525D01*
X181605628Y-81539475D01*
X165864139Y-81539475D01*
X165784578Y-81491196D01*
X165784574Y-81491194D01*
X165780581Y-81488771D01*
X165539545Y-81387697D01*
X165286217Y-81323359D01*
X165281566Y-81322891D01*
X165281562Y-81322890D01*
X165072271Y-81301816D01*
X165069133Y-81301500D01*
X164913646Y-81301500D01*
X164911321Y-81301673D01*
X164911315Y-81301673D01*
X164724000Y-81315593D01*
X164723996Y-81315594D01*
X164719348Y-81315939D01*
X164714800Y-81316968D01*
X164714794Y-81316969D01*
X164594117Y-81344276D01*
X164464423Y-81373623D01*
X164460071Y-81375315D01*
X164460069Y-81375316D01*
X164225176Y-81466660D01*
X164225173Y-81466661D01*
X164220823Y-81468353D01*
X164216769Y-81470670D01*
X164216767Y-81470671D01*
X164193819Y-81483787D01*
X163993902Y-81598049D01*
X163788643Y-81759862D01*
X163609557Y-81950237D01*
X163460576Y-82164991D01*
X163458510Y-82169181D01*
X163458508Y-82169184D01*
X163387444Y-82313289D01*
X163344975Y-82399407D01*
X163265293Y-82648335D01*
X163223279Y-82906307D01*
X163219858Y-83167655D01*
X143877324Y-83167655D01*
X143880142Y-82952345D01*
X143844896Y-82693362D01*
X143830473Y-82643877D01*
X143773068Y-82446932D01*
X143771757Y-82442433D01*
X143662332Y-82205072D01*
X143581909Y-82082406D01*
X143521590Y-81990404D01*
X143521586Y-81990399D01*
X143519024Y-81986491D01*
X143344982Y-81791494D01*
X143144030Y-81624363D01*
X143096844Y-81595730D01*
X142924578Y-81491196D01*
X142924574Y-81491194D01*
X142920581Y-81488771D01*
X142679545Y-81387697D01*
X142426217Y-81323359D01*
X142421566Y-81322891D01*
X142421562Y-81322890D01*
X142212271Y-81301816D01*
X142209133Y-81301500D01*
X142053646Y-81301500D01*
X142051321Y-81301673D01*
X142051315Y-81301673D01*
X141864000Y-81315593D01*
X141863996Y-81315594D01*
X141859348Y-81315939D01*
X141854800Y-81316968D01*
X141854794Y-81316969D01*
X141734117Y-81344276D01*
X141604423Y-81373623D01*
X141600071Y-81375315D01*
X141600069Y-81375316D01*
X141365176Y-81466660D01*
X141365173Y-81466661D01*
X141360823Y-81468353D01*
X141356769Y-81470670D01*
X141356767Y-81470671D01*
X141333819Y-81483787D01*
X141133902Y-81598049D01*
X140928643Y-81759862D01*
X140749557Y-81950237D01*
X140600576Y-82164991D01*
X140598510Y-82169181D01*
X140598508Y-82169184D01*
X140527444Y-82313289D01*
X140484975Y-82399407D01*
X140405293Y-82648335D01*
X140363279Y-82906307D01*
X140359858Y-83167655D01*
X135978000Y-83167655D01*
X135978000Y-82822115D01*
X135973525Y-82806876D01*
X135972135Y-82805671D01*
X135964452Y-82804000D01*
X133280116Y-82804000D01*
X133264877Y-82808475D01*
X133263672Y-82809865D01*
X133262001Y-82817548D01*
X133262001Y-83444669D01*
X133262371Y-83451490D01*
X133267895Y-83502352D01*
X133271521Y-83517604D01*
X133316676Y-83638054D01*
X133325214Y-83653649D01*
X133401715Y-83755724D01*
X133414276Y-83768285D01*
X133516351Y-83844786D01*
X133531946Y-83853324D01*
X133640827Y-83894142D01*
X133697591Y-83936784D01*
X133722291Y-84003345D01*
X133707083Y-84072694D01*
X133687691Y-84099175D01*
X133654881Y-84133509D01*
X133560629Y-84232138D01*
X133434743Y-84416680D01*
X133340688Y-84619305D01*
X133280989Y-84834570D01*
X133257251Y-85056695D01*
X133257548Y-85061848D01*
X133257548Y-85061851D01*
X133263011Y-85156590D01*
X133270110Y-85279715D01*
X133271247Y-85284761D01*
X133271248Y-85284767D01*
X133291119Y-85372939D01*
X133319222Y-85497639D01*
X133403266Y-85704616D01*
X133519987Y-85895088D01*
X133666250Y-86063938D01*
X133838126Y-86206632D01*
X133908595Y-86247811D01*
X133911445Y-86249476D01*
X133960169Y-86301114D01*
X133973240Y-86370897D01*
X133946509Y-86436669D01*
X133906055Y-86470027D01*
X133893607Y-86476507D01*
X133889474Y-86479610D01*
X133889471Y-86479612D01*
X133865247Y-86497800D01*
X133714965Y-86610635D01*
X133560629Y-86772138D01*
X133434743Y-86956680D01*
X133340688Y-87159305D01*
X133280989Y-87374570D01*
X133257251Y-87596695D01*
X133257548Y-87601848D01*
X133257548Y-87601851D01*
X133263011Y-87696590D01*
X133270110Y-87819715D01*
X133271247Y-87824761D01*
X133271248Y-87824767D01*
X133291119Y-87912939D01*
X133319222Y-88037639D01*
X133403266Y-88244616D01*
X133519987Y-88435088D01*
X133666250Y-88603938D01*
X133838126Y-88746632D01*
X133908595Y-88787811D01*
X133911445Y-88789476D01*
X133960169Y-88841114D01*
X133973240Y-88910897D01*
X133946509Y-88976669D01*
X133906055Y-89010027D01*
X133893607Y-89016507D01*
X133889474Y-89019610D01*
X133889471Y-89019612D01*
X133865247Y-89037800D01*
X133714965Y-89150635D01*
X133560629Y-89312138D01*
X133434743Y-89496680D01*
X133340688Y-89699305D01*
X133280989Y-89914570D01*
X133257251Y-90136695D01*
X133257548Y-90141848D01*
X133257548Y-90141851D01*
X133263011Y-90236590D01*
X133270110Y-90359715D01*
X133271247Y-90364761D01*
X133271248Y-90364767D01*
X133291119Y-90452939D01*
X133319222Y-90577639D01*
X133403266Y-90784616D01*
X133519987Y-90975088D01*
X133666250Y-91143938D01*
X133838126Y-91286632D01*
X133908595Y-91327811D01*
X133911445Y-91329476D01*
X133960169Y-91381114D01*
X133973240Y-91450897D01*
X133946509Y-91516669D01*
X133906055Y-91550027D01*
X133893607Y-91556507D01*
X133889474Y-91559610D01*
X133889471Y-91559612D01*
X133865247Y-91577800D01*
X133714965Y-91690635D01*
X133560629Y-91852138D01*
X133434743Y-92036680D01*
X133340688Y-92239305D01*
X133280989Y-92454570D01*
X133257251Y-92676695D01*
X118200418Y-92676695D01*
X118184852Y-92487361D01*
X118130431Y-92270702D01*
X118041354Y-92065840D01*
X117920014Y-91878277D01*
X117769670Y-91713051D01*
X117765619Y-91709852D01*
X117765615Y-91709848D01*
X117598414Y-91577800D01*
X117598410Y-91577798D01*
X117594359Y-91574598D01*
X117553053Y-91551796D01*
X117503084Y-91501364D01*
X117488312Y-91431921D01*
X117513428Y-91365516D01*
X117540780Y-91338909D01*
X117584603Y-91307650D01*
X117719860Y-91211173D01*
X117878096Y-91053489D01*
X117937594Y-90970689D01*
X118005435Y-90876277D01*
X118008453Y-90872077D01*
X118107430Y-90671811D01*
X118172370Y-90458069D01*
X118201529Y-90236590D01*
X118203156Y-90170000D01*
X118184852Y-89947361D01*
X118130431Y-89730702D01*
X118041354Y-89525840D01*
X117920014Y-89338277D01*
X117769670Y-89173051D01*
X117765619Y-89169852D01*
X117765615Y-89169848D01*
X117598414Y-89037800D01*
X117598410Y-89037798D01*
X117594359Y-89034598D01*
X117553053Y-89011796D01*
X117503084Y-88961364D01*
X117488312Y-88891921D01*
X117513428Y-88825516D01*
X117540780Y-88798909D01*
X117584603Y-88767650D01*
X117719860Y-88671173D01*
X117878096Y-88513489D01*
X117937594Y-88430689D01*
X118005435Y-88336277D01*
X118008453Y-88332077D01*
X118107430Y-88131811D01*
X118172370Y-87918069D01*
X118201529Y-87696590D01*
X118203156Y-87630000D01*
X118184852Y-87407361D01*
X118130431Y-87190702D01*
X118041354Y-86985840D01*
X117920014Y-86798277D01*
X117769670Y-86633051D01*
X117765619Y-86629852D01*
X117765615Y-86629848D01*
X117598414Y-86497800D01*
X117598410Y-86497798D01*
X117594359Y-86494598D01*
X117553053Y-86471796D01*
X117503084Y-86421364D01*
X117488312Y-86351921D01*
X117513428Y-86285516D01*
X117540780Y-86258909D01*
X117584603Y-86227650D01*
X117719860Y-86131173D01*
X117878096Y-85973489D01*
X117937594Y-85890689D01*
X118005435Y-85796277D01*
X118008453Y-85792077D01*
X118107430Y-85591811D01*
X118172370Y-85378069D01*
X118201529Y-85156590D01*
X118203156Y-85090000D01*
X118184852Y-84867361D01*
X118130431Y-84650702D01*
X118041354Y-84445840D01*
X117965447Y-84328506D01*
X117922822Y-84262617D01*
X117922820Y-84262614D01*
X117920014Y-84258277D01*
X117916540Y-84254459D01*
X117916533Y-84254450D01*
X117772435Y-84096088D01*
X117741383Y-84032242D01*
X117749779Y-83961744D01*
X117794956Y-83906976D01*
X117821400Y-83893307D01*
X117928052Y-83853325D01*
X117943649Y-83844786D01*
X118045724Y-83768285D01*
X118058285Y-83755724D01*
X118134786Y-83653649D01*
X118143324Y-83638054D01*
X118188478Y-83517606D01*
X118192105Y-83502351D01*
X118197631Y-83451486D01*
X118198000Y-83444672D01*
X118198000Y-82822115D01*
X118193525Y-82806876D01*
X118192135Y-82805671D01*
X118184452Y-82804000D01*
X115500116Y-82804000D01*
X115484877Y-82808475D01*
X115483672Y-82809865D01*
X115482001Y-82817548D01*
X115482001Y-83444669D01*
X115482371Y-83451490D01*
X115487895Y-83502352D01*
X115491521Y-83517604D01*
X115536676Y-83638054D01*
X115545214Y-83653649D01*
X115621715Y-83755724D01*
X115634276Y-83768285D01*
X115736351Y-83844786D01*
X115751946Y-83853324D01*
X115860827Y-83894142D01*
X115917591Y-83936784D01*
X115942291Y-84003345D01*
X115927083Y-84072694D01*
X115907691Y-84099175D01*
X115874881Y-84133509D01*
X115780629Y-84232138D01*
X115654743Y-84416680D01*
X115560688Y-84619305D01*
X115500989Y-84834570D01*
X115477251Y-85056695D01*
X115477548Y-85061848D01*
X115477548Y-85061851D01*
X115483011Y-85156590D01*
X115490110Y-85279715D01*
X115491247Y-85284761D01*
X115491248Y-85284767D01*
X115511119Y-85372939D01*
X115539222Y-85497639D01*
X115623266Y-85704616D01*
X115739987Y-85895088D01*
X115886250Y-86063938D01*
X116058126Y-86206632D01*
X116128595Y-86247811D01*
X116131445Y-86249476D01*
X116180169Y-86301114D01*
X116193240Y-86370897D01*
X116166509Y-86436669D01*
X116126055Y-86470027D01*
X116113607Y-86476507D01*
X116109474Y-86479610D01*
X116109471Y-86479612D01*
X116085247Y-86497800D01*
X115934965Y-86610635D01*
X115780629Y-86772138D01*
X115654743Y-86956680D01*
X115560688Y-87159305D01*
X115500989Y-87374570D01*
X115477251Y-87596695D01*
X115477548Y-87601848D01*
X115477548Y-87601851D01*
X115483011Y-87696590D01*
X115490110Y-87819715D01*
X115491247Y-87824761D01*
X115491248Y-87824767D01*
X115511119Y-87912939D01*
X115539222Y-88037639D01*
X115623266Y-88244616D01*
X115739987Y-88435088D01*
X115886250Y-88603938D01*
X116058126Y-88746632D01*
X116128595Y-88787811D01*
X116131445Y-88789476D01*
X116180169Y-88841114D01*
X116193240Y-88910897D01*
X116166509Y-88976669D01*
X116126055Y-89010027D01*
X116113607Y-89016507D01*
X116109474Y-89019610D01*
X116109471Y-89019612D01*
X116085247Y-89037800D01*
X115934965Y-89150635D01*
X115780629Y-89312138D01*
X115654743Y-89496680D01*
X115560688Y-89699305D01*
X115500989Y-89914570D01*
X115477251Y-90136695D01*
X115477548Y-90141848D01*
X115477548Y-90141851D01*
X115483011Y-90236590D01*
X115490110Y-90359715D01*
X115491247Y-90364761D01*
X115491248Y-90364767D01*
X115511119Y-90452939D01*
X115539222Y-90577639D01*
X115623266Y-90784616D01*
X115739987Y-90975088D01*
X115886250Y-91143938D01*
X116058126Y-91286632D01*
X116128595Y-91327811D01*
X116131445Y-91329476D01*
X116180169Y-91381114D01*
X116193240Y-91450897D01*
X116166509Y-91516669D01*
X116126055Y-91550027D01*
X116113607Y-91556507D01*
X116109474Y-91559610D01*
X116109471Y-91559612D01*
X116085247Y-91577800D01*
X115934965Y-91690635D01*
X115780629Y-91852138D01*
X115654743Y-92036680D01*
X115560688Y-92239305D01*
X115500989Y-92454570D01*
X115477251Y-92676695D01*
X110998000Y-92676695D01*
X110998000Y-79976695D01*
X115477251Y-79976695D01*
X115477548Y-79981848D01*
X115477548Y-79981851D01*
X115483011Y-80076590D01*
X115490110Y-80199715D01*
X115491247Y-80204761D01*
X115491248Y-80204767D01*
X115503612Y-80259628D01*
X115539222Y-80417639D01*
X115623266Y-80624616D01*
X115739987Y-80815088D01*
X115886250Y-80983938D01*
X115890225Y-80987238D01*
X115890231Y-80987244D01*
X115895425Y-80991556D01*
X115935059Y-81050460D01*
X115936555Y-81121441D01*
X115899439Y-81181962D01*
X115859168Y-81206480D01*
X115751946Y-81246676D01*
X115736351Y-81255214D01*
X115634276Y-81331715D01*
X115621715Y-81344276D01*
X115545214Y-81446351D01*
X115536676Y-81461946D01*
X115491522Y-81582394D01*
X115487895Y-81597649D01*
X115482369Y-81648514D01*
X115482000Y-81655328D01*
X115482000Y-82277885D01*
X115486475Y-82293124D01*
X115487865Y-82294329D01*
X115495548Y-82296000D01*
X118179884Y-82296000D01*
X118195123Y-82291525D01*
X118196328Y-82290135D01*
X118197999Y-82282452D01*
X118197999Y-81655331D01*
X118197629Y-81648510D01*
X118192105Y-81597648D01*
X118188479Y-81582396D01*
X118143324Y-81461946D01*
X118134786Y-81446351D01*
X118058285Y-81344276D01*
X118045724Y-81331715D01*
X117943649Y-81255214D01*
X117928054Y-81246676D01*
X117817813Y-81205348D01*
X117761049Y-81162706D01*
X117736349Y-81096145D01*
X117751557Y-81026796D01*
X117773104Y-80998115D01*
X117874430Y-80897144D01*
X117874440Y-80897132D01*
X117878096Y-80893489D01*
X117937594Y-80810689D01*
X118005435Y-80716277D01*
X118008453Y-80712077D01*
X118107430Y-80511811D01*
X118172370Y-80298069D01*
X118201529Y-80076590D01*
X118203156Y-80010000D01*
X118200418Y-79976695D01*
X133257251Y-79976695D01*
X133257548Y-79981848D01*
X133257548Y-79981851D01*
X133263011Y-80076590D01*
X133270110Y-80199715D01*
X133271247Y-80204761D01*
X133271248Y-80204767D01*
X133283612Y-80259628D01*
X133319222Y-80417639D01*
X133403266Y-80624616D01*
X133519987Y-80815088D01*
X133666250Y-80983938D01*
X133670225Y-80987238D01*
X133670231Y-80987244D01*
X133675425Y-80991556D01*
X133715059Y-81050460D01*
X133716555Y-81121441D01*
X133679439Y-81181962D01*
X133639168Y-81206480D01*
X133531946Y-81246676D01*
X133516351Y-81255214D01*
X133414276Y-81331715D01*
X133401715Y-81344276D01*
X133325214Y-81446351D01*
X133316676Y-81461946D01*
X133271522Y-81582394D01*
X133267895Y-81597649D01*
X133262369Y-81648514D01*
X133262000Y-81655328D01*
X133262000Y-82277885D01*
X133266475Y-82293124D01*
X133267865Y-82294329D01*
X133275548Y-82296000D01*
X135959884Y-82296000D01*
X135975123Y-82291525D01*
X135976328Y-82290135D01*
X135977999Y-82282452D01*
X135977999Y-81655331D01*
X135977629Y-81648510D01*
X135972105Y-81597648D01*
X135968479Y-81582396D01*
X135923324Y-81461946D01*
X135914786Y-81446351D01*
X135838285Y-81344276D01*
X135825724Y-81331715D01*
X135723649Y-81255214D01*
X135708054Y-81246676D01*
X135597813Y-81205348D01*
X135541049Y-81162706D01*
X135516349Y-81096145D01*
X135531557Y-81026796D01*
X135553104Y-80998115D01*
X135654430Y-80897144D01*
X135654440Y-80897132D01*
X135658096Y-80893489D01*
X135717594Y-80810689D01*
X135785435Y-80716277D01*
X135788453Y-80712077D01*
X135887430Y-80511811D01*
X135898836Y-80474271D01*
X182185860Y-80474271D01*
X182192928Y-80487718D01*
X182867188Y-81161978D01*
X182881132Y-81169592D01*
X182882965Y-81169461D01*
X182889580Y-81165210D01*
X183567793Y-80486997D01*
X183574223Y-80475223D01*
X183564926Y-80463207D01*
X183521931Y-80433102D01*
X183512445Y-80427624D01*
X183321007Y-80338355D01*
X183310715Y-80334609D01*
X183106691Y-80279941D01*
X183095896Y-80278038D01*
X182885475Y-80259628D01*
X182874525Y-80259628D01*
X182664104Y-80278038D01*
X182653309Y-80279941D01*
X182449285Y-80334609D01*
X182438993Y-80338355D01*
X182247559Y-80427623D01*
X182238068Y-80433103D01*
X182194235Y-80463794D01*
X182185860Y-80474271D01*
X135898836Y-80474271D01*
X135952370Y-80298069D01*
X135981529Y-80076590D01*
X135983156Y-80010000D01*
X135964852Y-79787361D01*
X135910431Y-79570702D01*
X135821354Y-79365840D01*
X135700014Y-79178277D01*
X135549670Y-79013051D01*
X135545619Y-79009852D01*
X135545615Y-79009848D01*
X135378414Y-78877800D01*
X135378410Y-78877798D01*
X135374359Y-78874598D01*
X135333053Y-78851796D01*
X135283084Y-78801364D01*
X135268312Y-78731921D01*
X135293428Y-78665516D01*
X135320780Y-78638909D01*
X135364603Y-78607650D01*
X135499860Y-78511173D01*
X135658096Y-78353489D01*
X135717594Y-78270689D01*
X135785435Y-78176277D01*
X135788453Y-78172077D01*
X135818054Y-78112185D01*
X135885136Y-77976453D01*
X135885137Y-77976451D01*
X135887430Y-77971811D01*
X135952370Y-77758069D01*
X135981529Y-77536590D01*
X135983156Y-77470000D01*
X181604647Y-77470000D01*
X181624022Y-77691463D01*
X181625446Y-77696776D01*
X181675191Y-77882425D01*
X181681560Y-77906196D01*
X181683882Y-77911177D01*
X181683883Y-77911178D01*
X181773186Y-78102689D01*
X181773189Y-78102694D01*
X181775512Y-78107676D01*
X181778668Y-78112183D01*
X181778669Y-78112185D01*
X181889655Y-78270689D01*
X181903023Y-78289781D01*
X182060219Y-78446977D01*
X182064727Y-78450134D01*
X182064730Y-78450136D01*
X182140495Y-78503187D01*
X182242323Y-78574488D01*
X182247305Y-78576811D01*
X182247310Y-78576814D01*
X182437533Y-78665516D01*
X182443804Y-78668440D01*
X182449112Y-78669862D01*
X182449114Y-78669863D01*
X182514949Y-78687503D01*
X182658537Y-78725978D01*
X182880000Y-78745353D01*
X183101463Y-78725978D01*
X183245051Y-78687503D01*
X183310886Y-78669863D01*
X183310888Y-78669862D01*
X183316196Y-78668440D01*
X183322467Y-78665516D01*
X183512690Y-78576814D01*
X183512695Y-78576811D01*
X183517677Y-78574488D01*
X183619505Y-78503187D01*
X183695270Y-78450136D01*
X183695273Y-78450134D01*
X183699781Y-78446977D01*
X183856977Y-78289781D01*
X183870346Y-78270689D01*
X183981331Y-78112185D01*
X183981332Y-78112183D01*
X183984488Y-78107676D01*
X183986811Y-78102694D01*
X183986814Y-78102689D01*
X184076117Y-77911178D01*
X184076118Y-77911177D01*
X184078440Y-77906196D01*
X184084810Y-77882425D01*
X184134554Y-77696776D01*
X184135978Y-77691463D01*
X184155353Y-77470000D01*
X184135978Y-77248537D01*
X184078440Y-77033804D01*
X184076117Y-77028822D01*
X183986814Y-76837311D01*
X183986811Y-76837306D01*
X183984488Y-76832324D01*
X183979948Y-76825840D01*
X183860136Y-76654730D01*
X183860134Y-76654727D01*
X183856977Y-76650219D01*
X183699781Y-76493023D01*
X183695273Y-76489866D01*
X183695270Y-76489864D01*
X183619505Y-76436813D01*
X183517677Y-76365512D01*
X183512695Y-76363189D01*
X183512690Y-76363186D01*
X183321178Y-76273883D01*
X183321177Y-76273882D01*
X183316196Y-76271560D01*
X183310888Y-76270138D01*
X183310886Y-76270137D01*
X183245051Y-76252497D01*
X183101463Y-76214022D01*
X182880000Y-76194647D01*
X182658537Y-76214022D01*
X182514949Y-76252497D01*
X182449114Y-76270137D01*
X182449112Y-76270138D01*
X182443804Y-76271560D01*
X182438823Y-76273882D01*
X182438822Y-76273883D01*
X182247311Y-76363186D01*
X182247306Y-76363189D01*
X182242324Y-76365512D01*
X182237817Y-76368668D01*
X182237815Y-76368669D01*
X182064730Y-76489864D01*
X182064727Y-76489866D01*
X182060219Y-76493023D01*
X181903023Y-76650219D01*
X181899866Y-76654727D01*
X181899864Y-76654730D01*
X181780052Y-76825840D01*
X181775512Y-76832324D01*
X181773189Y-76837306D01*
X181773186Y-76837311D01*
X181683883Y-77028822D01*
X181681560Y-77033804D01*
X181624022Y-77248537D01*
X181604647Y-77470000D01*
X135983156Y-77470000D01*
X135964852Y-77247361D01*
X135910431Y-77030702D01*
X135821354Y-76825840D01*
X135700014Y-76638277D01*
X135549670Y-76473051D01*
X135545619Y-76469852D01*
X135545615Y-76469848D01*
X135378414Y-76337800D01*
X135378410Y-76337798D01*
X135374359Y-76334598D01*
X135333053Y-76311796D01*
X135283084Y-76261364D01*
X135268312Y-76191921D01*
X135293428Y-76125516D01*
X135320780Y-76098909D01*
X135495651Y-75974175D01*
X135499860Y-75971173D01*
X135502886Y-75968157D01*
X135567588Y-75939570D01*
X135583976Y-75938500D01*
X142178157Y-75938500D01*
X142191764Y-75939237D01*
X142223262Y-75942659D01*
X142223267Y-75942659D01*
X142229388Y-75943324D01*
X142255638Y-75941027D01*
X142279388Y-75938950D01*
X142284214Y-75938621D01*
X142286686Y-75938500D01*
X142289769Y-75938500D01*
X142301738Y-75937326D01*
X142332506Y-75934310D01*
X142333819Y-75934188D01*
X142378084Y-75930315D01*
X142426413Y-75926087D01*
X142431532Y-75924600D01*
X142436833Y-75924080D01*
X142525834Y-75897209D01*
X142526967Y-75896874D01*
X142610414Y-75872630D01*
X142610418Y-75872628D01*
X142616336Y-75870909D01*
X142621068Y-75868456D01*
X142626169Y-75866916D01*
X142631612Y-75864022D01*
X142708260Y-75823269D01*
X142709426Y-75822657D01*
X142786453Y-75782729D01*
X142791926Y-75779892D01*
X142796089Y-75776569D01*
X142800796Y-75774066D01*
X142872918Y-75715245D01*
X142873774Y-75714554D01*
X142912973Y-75683262D01*
X142915477Y-75680758D01*
X142916195Y-75680116D01*
X142920528Y-75676415D01*
X142954062Y-75649065D01*
X142971954Y-75627438D01*
X142983287Y-75613738D01*
X142991277Y-75604958D01*
X145190234Y-73406000D01*
X181604647Y-73406000D01*
X181624022Y-73627463D01*
X181681560Y-73842196D01*
X181683882Y-73847177D01*
X181683883Y-73847178D01*
X181773186Y-74038689D01*
X181773189Y-74038694D01*
X181775512Y-74043676D01*
X181778668Y-74048183D01*
X181778669Y-74048185D01*
X181792825Y-74068401D01*
X181903023Y-74225781D01*
X182060219Y-74382977D01*
X182064727Y-74386134D01*
X182064730Y-74386136D01*
X182140495Y-74439187D01*
X182242323Y-74510488D01*
X182247305Y-74512811D01*
X182247310Y-74512814D01*
X182438822Y-74602117D01*
X182443804Y-74604440D01*
X182449112Y-74605862D01*
X182449114Y-74605863D01*
X182514949Y-74623503D01*
X182658537Y-74661978D01*
X182880000Y-74681353D01*
X183101463Y-74661978D01*
X183245051Y-74623503D01*
X183310886Y-74605863D01*
X183310888Y-74605862D01*
X183316196Y-74604440D01*
X183321178Y-74602117D01*
X183512690Y-74512814D01*
X183512695Y-74512811D01*
X183517677Y-74510488D01*
X183619505Y-74439187D01*
X183695270Y-74386136D01*
X183695273Y-74386134D01*
X183699781Y-74382977D01*
X183856977Y-74225781D01*
X183967176Y-74068401D01*
X183981331Y-74048185D01*
X183981332Y-74048183D01*
X183984488Y-74043676D01*
X183986811Y-74038694D01*
X183986814Y-74038689D01*
X184076117Y-73847178D01*
X184076118Y-73847177D01*
X184078440Y-73842196D01*
X184135978Y-73627463D01*
X184155353Y-73406000D01*
X184135978Y-73184537D01*
X184078440Y-72969804D01*
X184028248Y-72862167D01*
X183986814Y-72773311D01*
X183986811Y-72773306D01*
X183984488Y-72768324D01*
X183856977Y-72586219D01*
X183699781Y-72429023D01*
X183695273Y-72425866D01*
X183695270Y-72425864D01*
X183596486Y-72356695D01*
X183517677Y-72301512D01*
X183512695Y-72299189D01*
X183512690Y-72299186D01*
X183321178Y-72209883D01*
X183321177Y-72209882D01*
X183316196Y-72207560D01*
X183310888Y-72206138D01*
X183310886Y-72206137D01*
X183185433Y-72172522D01*
X183101463Y-72150022D01*
X182880000Y-72130647D01*
X182658537Y-72150022D01*
X182574567Y-72172522D01*
X182449114Y-72206137D01*
X182449112Y-72206138D01*
X182443804Y-72207560D01*
X182438823Y-72209882D01*
X182438822Y-72209883D01*
X182247311Y-72299186D01*
X182247306Y-72299189D01*
X182242324Y-72301512D01*
X182237817Y-72304668D01*
X182237815Y-72304669D01*
X182064730Y-72425864D01*
X182064727Y-72425866D01*
X182060219Y-72429023D01*
X181903023Y-72586219D01*
X181775512Y-72768324D01*
X181773189Y-72773306D01*
X181773186Y-72773311D01*
X181731752Y-72862167D01*
X181681560Y-72969804D01*
X181624022Y-73184537D01*
X181604647Y-73406000D01*
X145190234Y-73406000D01*
X146084379Y-72511855D01*
X146094522Y-72502753D01*
X146119218Y-72482897D01*
X146124025Y-72479032D01*
X146156292Y-72440578D01*
X146159472Y-72436931D01*
X146161115Y-72435119D01*
X146163309Y-72432925D01*
X146190642Y-72399651D01*
X146191348Y-72398800D01*
X146194596Y-72394930D01*
X146251154Y-72327526D01*
X146253722Y-72322856D01*
X146257103Y-72318739D01*
X146300977Y-72236914D01*
X146301606Y-72235755D01*
X146343462Y-72159619D01*
X146343465Y-72159611D01*
X146346433Y-72154213D01*
X146348045Y-72149131D01*
X146350562Y-72144437D01*
X146377762Y-72055469D01*
X146378108Y-72054358D01*
X146404373Y-71971563D01*
X146406235Y-71965694D01*
X146406829Y-71960398D01*
X146408387Y-71955302D01*
X146417790Y-71862743D01*
X146417911Y-71861607D01*
X146423500Y-71811773D01*
X146423500Y-71808246D01*
X146423555Y-71807261D01*
X146424002Y-71801581D01*
X146428374Y-71758538D01*
X146424059Y-71712891D01*
X146423500Y-71701033D01*
X146423500Y-66888134D01*
X170151500Y-66888134D01*
X170158255Y-66950316D01*
X170209385Y-67086705D01*
X170296739Y-67203261D01*
X170413295Y-67290615D01*
X170549684Y-67341745D01*
X170611866Y-67348500D01*
X172308134Y-67348500D01*
X172370316Y-67341745D01*
X172506705Y-67290615D01*
X172623261Y-67203261D01*
X172681119Y-67126062D01*
X177238493Y-67126062D01*
X177247789Y-67138077D01*
X177298994Y-67173931D01*
X177308489Y-67179414D01*
X177505947Y-67271490D01*
X177516239Y-67275236D01*
X177726688Y-67331625D01*
X177737481Y-67333528D01*
X177954525Y-67352517D01*
X177965475Y-67352517D01*
X178182519Y-67333528D01*
X178193312Y-67331625D01*
X178403761Y-67275236D01*
X178414053Y-67271490D01*
X178611511Y-67179414D01*
X178621006Y-67173931D01*
X178673048Y-67137491D01*
X178681424Y-67127012D01*
X178674356Y-67113566D01*
X177972812Y-66412022D01*
X177958868Y-66404408D01*
X177957035Y-66404539D01*
X177950420Y-66408790D01*
X177244923Y-67114287D01*
X177238493Y-67126062D01*
X172681119Y-67126062D01*
X172710615Y-67086705D01*
X172761745Y-66950316D01*
X172768500Y-66888134D01*
X172768500Y-66045475D01*
X176647483Y-66045475D01*
X176666472Y-66262519D01*
X176668375Y-66273312D01*
X176724764Y-66483761D01*
X176728510Y-66494053D01*
X176820586Y-66691511D01*
X176826069Y-66701006D01*
X176862509Y-66753048D01*
X176872988Y-66761424D01*
X176886434Y-66754356D01*
X177587978Y-66052812D01*
X177594356Y-66041132D01*
X178324408Y-66041132D01*
X178324539Y-66042965D01*
X178328790Y-66049580D01*
X179034287Y-66755077D01*
X179046062Y-66761507D01*
X179058077Y-66752211D01*
X179093931Y-66701006D01*
X179099414Y-66691511D01*
X179191490Y-66494053D01*
X179195236Y-66483761D01*
X179251625Y-66273312D01*
X179253528Y-66262519D01*
X179272517Y-66045475D01*
X179272517Y-66034525D01*
X179253528Y-65817481D01*
X179251625Y-65806688D01*
X179195236Y-65596239D01*
X179191490Y-65585947D01*
X179099414Y-65388489D01*
X179093931Y-65378994D01*
X179057491Y-65326952D01*
X179047012Y-65318576D01*
X179033566Y-65325644D01*
X178332022Y-66027188D01*
X178324408Y-66041132D01*
X177594356Y-66041132D01*
X177595592Y-66038868D01*
X177595461Y-66037035D01*
X177591210Y-66030420D01*
X176885713Y-65324923D01*
X176873938Y-65318493D01*
X176861923Y-65327789D01*
X176826069Y-65378994D01*
X176820586Y-65388489D01*
X176728510Y-65585947D01*
X176724764Y-65596239D01*
X176668375Y-65806688D01*
X176666472Y-65817481D01*
X176647483Y-66034525D01*
X176647483Y-66045475D01*
X172768500Y-66045475D01*
X172768500Y-65191866D01*
X172761745Y-65129684D01*
X172710615Y-64993295D01*
X172680407Y-64952988D01*
X177238576Y-64952988D01*
X177245644Y-64966434D01*
X177947188Y-65667978D01*
X177961132Y-65675592D01*
X177962965Y-65675461D01*
X177969580Y-65671210D01*
X178675077Y-64965713D01*
X178681507Y-64953938D01*
X178672211Y-64941923D01*
X178621006Y-64906069D01*
X178611511Y-64900586D01*
X178414053Y-64808510D01*
X178403761Y-64804764D01*
X178193312Y-64748375D01*
X178182519Y-64746472D01*
X177965475Y-64727483D01*
X177954525Y-64727483D01*
X177737481Y-64746472D01*
X177726688Y-64748375D01*
X177516239Y-64804764D01*
X177505947Y-64808510D01*
X177308489Y-64900586D01*
X177298994Y-64906069D01*
X177246952Y-64942509D01*
X177238576Y-64952988D01*
X172680407Y-64952988D01*
X172623261Y-64876739D01*
X172506705Y-64789385D01*
X172370316Y-64738255D01*
X172308134Y-64731500D01*
X170611866Y-64731500D01*
X170549684Y-64738255D01*
X170413295Y-64789385D01*
X170296739Y-64876739D01*
X170209385Y-64993295D01*
X170158255Y-65129684D01*
X170151500Y-65191866D01*
X170151500Y-66888134D01*
X146423500Y-66888134D01*
X146423500Y-64634500D01*
X146443502Y-64566379D01*
X146497158Y-64519886D01*
X146549500Y-64508500D01*
X154243157Y-64508500D01*
X154256764Y-64509237D01*
X154288262Y-64512659D01*
X154288267Y-64512659D01*
X154294388Y-64513324D01*
X154320638Y-64511027D01*
X154344388Y-64508950D01*
X154349214Y-64508621D01*
X154351686Y-64508500D01*
X154354769Y-64508500D01*
X154366738Y-64507326D01*
X154397506Y-64504310D01*
X154398819Y-64504188D01*
X154443084Y-64500315D01*
X154491413Y-64496087D01*
X154496532Y-64494600D01*
X154501833Y-64494080D01*
X154590834Y-64467209D01*
X154591967Y-64466874D01*
X154675414Y-64442630D01*
X154675418Y-64442628D01*
X154681336Y-64440909D01*
X154686068Y-64438456D01*
X154691169Y-64436916D01*
X154696612Y-64434022D01*
X154773260Y-64393269D01*
X154774426Y-64392657D01*
X154851453Y-64352729D01*
X154856926Y-64349892D01*
X154861089Y-64346569D01*
X154865796Y-64344066D01*
X154937918Y-64285245D01*
X154938774Y-64284554D01*
X154977973Y-64253262D01*
X154980477Y-64250758D01*
X154981195Y-64250116D01*
X154985528Y-64246415D01*
X155019062Y-64219065D01*
X155048288Y-64183737D01*
X155056277Y-64174958D01*
X158150777Y-61080457D01*
X158160578Y-61071632D01*
X158162560Y-61070027D01*
X158191548Y-61046553D01*
X158223860Y-61007770D01*
X158226499Y-61004735D01*
X158228309Y-61002925D01*
X158256992Y-60968005D01*
X158257171Y-60967789D01*
X158318147Y-60894604D01*
X158319848Y-60891484D01*
X158322103Y-60888739D01*
X158328969Y-60875935D01*
X158366953Y-60805093D01*
X158367373Y-60804318D01*
X158394355Y-60754830D01*
X158412822Y-60720960D01*
X158413887Y-60717560D01*
X158415562Y-60714437D01*
X158434537Y-60652374D01*
X158443268Y-60623816D01*
X158443528Y-60622976D01*
X158462634Y-60562007D01*
X158471965Y-60532232D01*
X158472349Y-60528697D01*
X158473387Y-60525302D01*
X158482975Y-60430914D01*
X158483066Y-60430044D01*
X158492659Y-60341741D01*
X158493325Y-60335612D01*
X158493015Y-60332071D01*
X158493374Y-60328538D01*
X158491400Y-60307655D01*
X163219858Y-60307655D01*
X163255104Y-60566638D01*
X163256412Y-60571124D01*
X163256412Y-60571126D01*
X163271525Y-60622976D01*
X163328243Y-60817567D01*
X163330203Y-60821820D01*
X163330204Y-60821821D01*
X163342551Y-60848604D01*
X163437668Y-61054928D01*
X163440231Y-61058837D01*
X163578410Y-61269596D01*
X163578414Y-61269601D01*
X163580976Y-61273509D01*
X163755018Y-61468506D01*
X163955970Y-61635637D01*
X163959973Y-61638066D01*
X164175422Y-61768804D01*
X164175426Y-61768806D01*
X164179419Y-61771229D01*
X164420455Y-61872303D01*
X164673783Y-61936641D01*
X164678434Y-61937109D01*
X164678438Y-61937110D01*
X164871308Y-61956531D01*
X164890867Y-61958500D01*
X165046354Y-61958500D01*
X165048679Y-61958327D01*
X165048685Y-61958327D01*
X165236000Y-61944407D01*
X165236004Y-61944406D01*
X165240652Y-61944061D01*
X165245200Y-61943032D01*
X165245206Y-61943031D01*
X165431601Y-61900853D01*
X165495577Y-61886377D01*
X165531769Y-61872303D01*
X165734824Y-61793340D01*
X165734827Y-61793339D01*
X165739177Y-61791647D01*
X165966098Y-61661951D01*
X166171357Y-61500138D01*
X166350443Y-61309763D01*
X166499424Y-61095009D01*
X166508903Y-61075787D01*
X166612960Y-60864781D01*
X166612961Y-60864778D01*
X166615025Y-60860593D01*
X166620054Y-60844884D01*
X166693280Y-60616123D01*
X166694707Y-60611665D01*
X166736721Y-60353693D01*
X166739456Y-60144732D01*
X166740081Y-60097022D01*
X166740081Y-60097019D01*
X166740142Y-60092345D01*
X166704896Y-59833362D01*
X166690473Y-59783877D01*
X166633068Y-59586932D01*
X166631757Y-59582433D01*
X166522332Y-59345072D01*
X166460460Y-59250702D01*
X166381590Y-59130404D01*
X166381586Y-59130399D01*
X166379024Y-59126491D01*
X166204982Y-58931494D01*
X166004030Y-58764363D01*
X165921061Y-58714016D01*
X165784578Y-58631196D01*
X165784574Y-58631194D01*
X165780581Y-58628771D01*
X165539545Y-58527697D01*
X165286217Y-58463359D01*
X165281566Y-58462891D01*
X165281562Y-58462890D01*
X165072271Y-58441816D01*
X165069133Y-58441500D01*
X164913646Y-58441500D01*
X164911321Y-58441673D01*
X164911315Y-58441673D01*
X164724000Y-58455593D01*
X164723996Y-58455594D01*
X164719348Y-58455939D01*
X164714800Y-58456968D01*
X164714794Y-58456969D01*
X164554206Y-58493307D01*
X164464423Y-58513623D01*
X164460071Y-58515315D01*
X164460069Y-58515316D01*
X164225176Y-58606660D01*
X164225173Y-58606661D01*
X164220823Y-58608353D01*
X163993902Y-58738049D01*
X163788643Y-58899862D01*
X163609557Y-59090237D01*
X163460576Y-59304991D01*
X163458510Y-59309181D01*
X163458508Y-59309184D01*
X163394142Y-59439707D01*
X163344975Y-59539407D01*
X163265293Y-59788335D01*
X163223279Y-60046307D01*
X163219858Y-60307655D01*
X158491400Y-60307655D01*
X158490660Y-60299829D01*
X158484436Y-60233981D01*
X158484357Y-60233106D01*
X158476625Y-60144732D01*
X158476624Y-60144728D01*
X158476087Y-60138587D01*
X158475095Y-60135173D01*
X158474761Y-60131638D01*
X158472999Y-60125727D01*
X158447651Y-60040696D01*
X158447403Y-60039854D01*
X158428582Y-59975074D01*
X158420909Y-59948664D01*
X158419275Y-59945511D01*
X158418259Y-59942104D01*
X158383043Y-59875311D01*
X158368500Y-59816546D01*
X158368500Y-59744489D01*
X158391287Y-59672218D01*
X158461331Y-59572185D01*
X158461332Y-59572183D01*
X158464488Y-59567676D01*
X158466811Y-59562694D01*
X158466814Y-59562689D01*
X158556117Y-59371178D01*
X158556118Y-59371177D01*
X158558440Y-59366196D01*
X158562963Y-59349318D01*
X158596462Y-59224297D01*
X158615978Y-59151463D01*
X158635353Y-58930000D01*
X158615978Y-58708537D01*
X158563474Y-58512592D01*
X158559863Y-58499114D01*
X158559862Y-58499112D01*
X158558440Y-58493804D01*
X158549727Y-58475119D01*
X158466814Y-58297311D01*
X158466811Y-58297306D01*
X158464488Y-58292324D01*
X158426488Y-58238054D01*
X158340136Y-58114730D01*
X158340134Y-58114727D01*
X158336977Y-58110219D01*
X158179781Y-57953023D01*
X158175273Y-57949866D01*
X158175270Y-57949864D01*
X158033332Y-57850478D01*
X157997677Y-57825512D01*
X157992695Y-57823189D01*
X157992690Y-57823186D01*
X157801178Y-57733883D01*
X157801177Y-57733882D01*
X157796196Y-57731560D01*
X157790888Y-57730138D01*
X157790886Y-57730137D01*
X157725051Y-57712497D01*
X157581463Y-57674022D01*
X157360000Y-57654647D01*
X157138537Y-57674022D01*
X156994949Y-57712497D01*
X156929114Y-57730137D01*
X156929112Y-57730138D01*
X156923804Y-57731560D01*
X156918823Y-57733882D01*
X156918822Y-57733883D01*
X156727311Y-57823186D01*
X156727306Y-57823189D01*
X156722324Y-57825512D01*
X156717817Y-57828668D01*
X156717815Y-57828669D01*
X156544730Y-57949864D01*
X156544727Y-57949866D01*
X156540219Y-57953023D01*
X156383023Y-58110219D01*
X156379866Y-58114727D01*
X156379864Y-58114730D01*
X156293512Y-58238054D01*
X156255512Y-58292324D01*
X156253189Y-58297306D01*
X156253186Y-58297311D01*
X156204195Y-58402373D01*
X156157277Y-58455658D01*
X156089000Y-58475119D01*
X156021040Y-58454577D01*
X155975805Y-58402373D01*
X155926814Y-58297311D01*
X155926811Y-58297306D01*
X155924488Y-58292324D01*
X155886488Y-58238054D01*
X155800136Y-58114730D01*
X155800134Y-58114727D01*
X155796977Y-58110219D01*
X155639781Y-57953023D01*
X155635273Y-57949866D01*
X155635270Y-57949864D01*
X155493332Y-57850478D01*
X155457677Y-57825512D01*
X155452695Y-57823189D01*
X155452690Y-57823186D01*
X155261178Y-57733883D01*
X155261177Y-57733882D01*
X155256196Y-57731560D01*
X155250888Y-57730138D01*
X155250886Y-57730137D01*
X155185051Y-57712497D01*
X155041463Y-57674022D01*
X154820000Y-57654647D01*
X154598537Y-57674022D01*
X154454949Y-57712497D01*
X154389114Y-57730137D01*
X154389112Y-57730138D01*
X154383804Y-57731560D01*
X154378823Y-57733882D01*
X154378822Y-57733883D01*
X154187311Y-57823186D01*
X154187306Y-57823189D01*
X154182324Y-57825512D01*
X154177817Y-57828668D01*
X154177815Y-57828669D01*
X154004730Y-57949864D01*
X154004727Y-57949866D01*
X154000219Y-57953023D01*
X153843023Y-58110219D01*
X153839866Y-58114727D01*
X153839864Y-58114730D01*
X153753512Y-58238054D01*
X153715512Y-58292324D01*
X153713189Y-58297306D01*
X153713186Y-58297311D01*
X153664195Y-58402373D01*
X153617277Y-58455658D01*
X153549000Y-58475119D01*
X153481040Y-58454577D01*
X153435805Y-58402373D01*
X153386814Y-58297311D01*
X153386811Y-58297306D01*
X153384488Y-58292324D01*
X153346488Y-58238054D01*
X153260136Y-58114730D01*
X153260134Y-58114727D01*
X153256977Y-58110219D01*
X153099781Y-57953023D01*
X153095273Y-57949866D01*
X153095270Y-57949864D01*
X152953332Y-57850478D01*
X152917677Y-57825512D01*
X152912695Y-57823189D01*
X152912690Y-57823186D01*
X152721178Y-57733883D01*
X152721177Y-57733882D01*
X152716196Y-57731560D01*
X152710888Y-57730138D01*
X152710886Y-57730137D01*
X152645051Y-57712497D01*
X152501463Y-57674022D01*
X152280000Y-57654647D01*
X152058537Y-57674022D01*
X151914949Y-57712497D01*
X151849114Y-57730137D01*
X151849112Y-57730138D01*
X151843804Y-57731560D01*
X151838823Y-57733882D01*
X151838822Y-57733883D01*
X151647311Y-57823186D01*
X151647306Y-57823189D01*
X151642324Y-57825512D01*
X151637817Y-57828668D01*
X151637815Y-57828669D01*
X151464730Y-57949864D01*
X151464727Y-57949866D01*
X151460219Y-57953023D01*
X151303023Y-58110219D01*
X151299866Y-58114727D01*
X151299864Y-58114730D01*
X151213512Y-58238054D01*
X151175512Y-58292324D01*
X151173189Y-58297306D01*
X151173186Y-58297311D01*
X151124195Y-58402373D01*
X151077277Y-58455658D01*
X151009000Y-58475119D01*
X150941040Y-58454577D01*
X150895805Y-58402373D01*
X150846814Y-58297311D01*
X150846811Y-58297306D01*
X150844488Y-58292324D01*
X150806488Y-58238054D01*
X150720136Y-58114730D01*
X150720134Y-58114727D01*
X150716977Y-58110219D01*
X150559781Y-57953023D01*
X150555273Y-57949866D01*
X150555270Y-57949864D01*
X150413332Y-57850478D01*
X150377677Y-57825512D01*
X150372695Y-57823189D01*
X150372690Y-57823186D01*
X150181178Y-57733883D01*
X150181177Y-57733882D01*
X150176196Y-57731560D01*
X150170888Y-57730138D01*
X150170886Y-57730137D01*
X150105051Y-57712497D01*
X149961463Y-57674022D01*
X149740000Y-57654647D01*
X149518537Y-57674022D01*
X149374949Y-57712497D01*
X149309114Y-57730137D01*
X149309112Y-57730138D01*
X149303804Y-57731560D01*
X149298823Y-57733882D01*
X149298822Y-57733883D01*
X149107311Y-57823186D01*
X149107306Y-57823189D01*
X149102324Y-57825512D01*
X149097817Y-57828668D01*
X149097815Y-57828669D01*
X148924730Y-57949864D01*
X148924727Y-57949866D01*
X148920219Y-57953023D01*
X148763023Y-58110219D01*
X148759866Y-58114727D01*
X148759864Y-58114730D01*
X148673512Y-58238054D01*
X148635512Y-58292324D01*
X148633189Y-58297306D01*
X148633186Y-58297311D01*
X148550273Y-58475119D01*
X148541560Y-58493804D01*
X148540138Y-58499112D01*
X148540137Y-58499114D01*
X148536526Y-58512592D01*
X148484022Y-58708537D01*
X148464647Y-58930000D01*
X148484022Y-59151463D01*
X148503538Y-59224297D01*
X148537038Y-59349318D01*
X148541560Y-59366196D01*
X148543882Y-59371177D01*
X148543883Y-59371178D01*
X148633186Y-59562689D01*
X148633189Y-59562694D01*
X148635512Y-59567676D01*
X148638668Y-59572183D01*
X148638669Y-59572185D01*
X148759318Y-59744489D01*
X148763023Y-59749781D01*
X148920219Y-59906977D01*
X148924727Y-59910134D01*
X148924730Y-59910136D01*
X148986665Y-59953503D01*
X149102323Y-60034488D01*
X149107305Y-60036811D01*
X149107310Y-60036814D01*
X149297986Y-60125727D01*
X149303804Y-60128440D01*
X149309112Y-60129862D01*
X149309114Y-60129863D01*
X149364572Y-60144723D01*
X149518537Y-60185978D01*
X149740000Y-60205353D01*
X149961463Y-60185978D01*
X150115428Y-60144723D01*
X150170886Y-60129863D01*
X150170888Y-60129862D01*
X150176196Y-60128440D01*
X150182014Y-60125727D01*
X150372690Y-60036814D01*
X150372695Y-60036811D01*
X150377677Y-60034488D01*
X150493335Y-59953503D01*
X150555270Y-59910136D01*
X150555273Y-59910134D01*
X150559781Y-59906977D01*
X150716977Y-59749781D01*
X150720683Y-59744489D01*
X150841331Y-59572185D01*
X150841332Y-59572183D01*
X150844488Y-59567676D01*
X150846811Y-59562694D01*
X150846814Y-59562689D01*
X150895805Y-59457627D01*
X150942723Y-59404342D01*
X151011000Y-59384881D01*
X151078960Y-59405423D01*
X151124195Y-59457627D01*
X151173186Y-59562689D01*
X151173189Y-59562694D01*
X151175512Y-59567676D01*
X151178668Y-59572183D01*
X151178669Y-59572185D01*
X151299318Y-59744489D01*
X151303023Y-59749781D01*
X151460219Y-59906977D01*
X151464727Y-59910134D01*
X151464730Y-59910136D01*
X151526665Y-59953503D01*
X151642323Y-60034488D01*
X151647305Y-60036811D01*
X151647310Y-60036814D01*
X151837986Y-60125727D01*
X151843804Y-60128440D01*
X151849112Y-60129862D01*
X151849114Y-60129863D01*
X151904572Y-60144723D01*
X152058537Y-60185978D01*
X152280000Y-60205353D01*
X152501463Y-60185978D01*
X152655428Y-60144723D01*
X152710886Y-60129863D01*
X152710888Y-60129862D01*
X152716196Y-60128440D01*
X152722014Y-60125727D01*
X152912690Y-60036814D01*
X152912695Y-60036811D01*
X152917677Y-60034488D01*
X153033335Y-59953503D01*
X153095270Y-59910136D01*
X153095273Y-59910134D01*
X153099781Y-59906977D01*
X153256977Y-59749781D01*
X153260683Y-59744489D01*
X153381331Y-59572185D01*
X153381332Y-59572183D01*
X153384488Y-59567676D01*
X153386811Y-59562694D01*
X153386814Y-59562689D01*
X153435805Y-59457627D01*
X153482723Y-59404342D01*
X153551000Y-59384881D01*
X153618960Y-59405423D01*
X153664195Y-59457627D01*
X153713186Y-59562689D01*
X153713189Y-59562694D01*
X153715512Y-59567676D01*
X153718668Y-59572183D01*
X153718669Y-59572185D01*
X153788713Y-59672218D01*
X153811500Y-59744489D01*
X153811500Y-59975074D01*
X153791498Y-60043195D01*
X153774596Y-60064169D01*
X153289171Y-60549595D01*
X153226858Y-60583620D01*
X153200075Y-60586500D01*
X144841842Y-60586500D01*
X144828235Y-60585763D01*
X144796737Y-60582341D01*
X144796732Y-60582341D01*
X144790611Y-60581676D01*
X144772611Y-60583251D01*
X144740609Y-60586050D01*
X144735784Y-60586379D01*
X144733313Y-60586500D01*
X144730231Y-60586500D01*
X144707763Y-60588703D01*
X144687489Y-60590691D01*
X144686174Y-60590813D01*
X144653913Y-60593636D01*
X144593587Y-60598913D01*
X144588468Y-60600400D01*
X144583167Y-60600920D01*
X144494194Y-60627782D01*
X144493054Y-60628120D01*
X144403663Y-60654091D01*
X144398929Y-60656545D01*
X144393831Y-60658084D01*
X144388387Y-60660978D01*
X144388386Y-60660979D01*
X144311831Y-60701684D01*
X144310663Y-60702298D01*
X144249174Y-60734171D01*
X144228074Y-60745108D01*
X144223911Y-60748431D01*
X144219204Y-60750934D01*
X144147082Y-60809755D01*
X144146226Y-60810446D01*
X144107027Y-60841738D01*
X144104523Y-60844242D01*
X144103805Y-60844884D01*
X144099472Y-60848585D01*
X144065938Y-60875935D01*
X144062011Y-60880682D01*
X144062009Y-60880684D01*
X144036713Y-60911262D01*
X144028723Y-60920042D01*
X143965750Y-60983015D01*
X143903438Y-61017041D01*
X143832623Y-61011976D01*
X143775787Y-60969429D01*
X143750976Y-60902909D01*
X143756653Y-60855507D01*
X143833280Y-60616123D01*
X143834707Y-60611665D01*
X143876721Y-60353693D01*
X143879456Y-60144732D01*
X143880081Y-60097022D01*
X143880081Y-60097019D01*
X143880142Y-60092345D01*
X143844896Y-59833362D01*
X143830473Y-59783877D01*
X143773068Y-59586932D01*
X143771757Y-59582433D01*
X143662332Y-59345072D01*
X143600460Y-59250702D01*
X143521590Y-59130404D01*
X143521586Y-59130399D01*
X143519024Y-59126491D01*
X143344982Y-58931494D01*
X143144030Y-58764363D01*
X143061061Y-58714016D01*
X142924578Y-58631196D01*
X142924574Y-58631194D01*
X142920581Y-58628771D01*
X142679545Y-58527697D01*
X142426217Y-58463359D01*
X142421566Y-58462891D01*
X142421562Y-58462890D01*
X142212271Y-58441816D01*
X142209133Y-58441500D01*
X142053646Y-58441500D01*
X142051321Y-58441673D01*
X142051315Y-58441673D01*
X141864000Y-58455593D01*
X141863996Y-58455594D01*
X141859348Y-58455939D01*
X141854800Y-58456968D01*
X141854794Y-58456969D01*
X141694206Y-58493307D01*
X141604423Y-58513623D01*
X141600071Y-58515315D01*
X141600069Y-58515316D01*
X141365176Y-58606660D01*
X141365173Y-58606661D01*
X141360823Y-58608353D01*
X141133902Y-58738049D01*
X140928643Y-58899862D01*
X140749557Y-59090237D01*
X140600576Y-59304991D01*
X140598510Y-59309181D01*
X140598508Y-59309184D01*
X140534142Y-59439707D01*
X140484975Y-59539407D01*
X140405293Y-59788335D01*
X140363279Y-60046307D01*
X140359858Y-60307655D01*
X140395104Y-60566638D01*
X140396412Y-60571124D01*
X140396412Y-60571126D01*
X140411525Y-60622976D01*
X140468243Y-60817567D01*
X140470203Y-60821820D01*
X140470204Y-60821821D01*
X140482551Y-60848604D01*
X140577668Y-61054928D01*
X140580231Y-61058837D01*
X140718410Y-61269596D01*
X140718414Y-61269601D01*
X140720976Y-61273509D01*
X140895018Y-61468506D01*
X141095970Y-61635637D01*
X141099973Y-61638066D01*
X141315422Y-61768804D01*
X141315426Y-61768806D01*
X141319419Y-61771229D01*
X141560455Y-61872303D01*
X141813783Y-61936641D01*
X141818434Y-61937109D01*
X141818438Y-61937110D01*
X142011308Y-61956531D01*
X142030867Y-61958500D01*
X142186354Y-61958500D01*
X142188679Y-61958327D01*
X142188685Y-61958327D01*
X142376000Y-61944407D01*
X142376004Y-61944406D01*
X142380652Y-61944061D01*
X142385200Y-61943032D01*
X142385206Y-61943031D01*
X142571601Y-61900853D01*
X142635577Y-61886377D01*
X142676416Y-61870496D01*
X142775519Y-61831957D01*
X142846258Y-61825910D01*
X142909036Y-61859066D01*
X142943923Y-61920900D01*
X142939841Y-61991780D01*
X142910281Y-62038485D01*
X142840621Y-62108145D01*
X142830478Y-62117247D01*
X142800975Y-62140968D01*
X142797008Y-62145696D01*
X142768709Y-62179421D01*
X142765528Y-62183069D01*
X142763885Y-62184881D01*
X142761691Y-62187075D01*
X142734358Y-62220349D01*
X142733696Y-62221147D01*
X142673846Y-62292474D01*
X142671278Y-62297144D01*
X142667897Y-62301261D01*
X142636860Y-62359145D01*
X142624023Y-62383086D01*
X142623394Y-62384245D01*
X142581538Y-62460381D01*
X142581535Y-62460389D01*
X142578567Y-62465787D01*
X142576955Y-62470869D01*
X142574438Y-62475563D01*
X142547238Y-62564531D01*
X142546918Y-62565559D01*
X142518765Y-62654306D01*
X142518171Y-62659602D01*
X142516613Y-62664698D01*
X142509796Y-62731811D01*
X142507218Y-62757187D01*
X142507089Y-62758393D01*
X142501500Y-62808227D01*
X142501500Y-62811754D01*
X142501445Y-62812739D01*
X142500998Y-62818419D01*
X142496626Y-62861462D01*
X142497206Y-62867593D01*
X142500941Y-62907109D01*
X142501500Y-62918967D01*
X142501500Y-70650074D01*
X142481498Y-70718195D01*
X142464596Y-70739169D01*
X141859171Y-71344595D01*
X141796858Y-71378620D01*
X141770075Y-71381500D01*
X135784856Y-71381500D01*
X135716735Y-71361498D01*
X135670242Y-71307842D01*
X135660138Y-71237568D01*
X135689632Y-71172988D01*
X135716953Y-71150946D01*
X135716705Y-71150615D01*
X135739732Y-71133357D01*
X135833261Y-71063261D01*
X135920615Y-70946705D01*
X135971745Y-70810316D01*
X135978500Y-70748134D01*
X135978500Y-68951866D01*
X135971745Y-68889684D01*
X135920615Y-68753295D01*
X135833261Y-68636739D01*
X135716705Y-68549385D01*
X135689905Y-68539338D01*
X135598203Y-68504960D01*
X135541439Y-68462318D01*
X135516739Y-68395756D01*
X135531947Y-68326408D01*
X135553493Y-68297727D01*
X135654435Y-68197137D01*
X135658096Y-68193489D01*
X135717594Y-68110689D01*
X135785435Y-68016277D01*
X135788453Y-68012077D01*
X135887430Y-67811811D01*
X135952370Y-67598069D01*
X135981529Y-67376590D01*
X135982117Y-67352517D01*
X135983074Y-67313365D01*
X135983074Y-67313361D01*
X135983156Y-67310000D01*
X135964852Y-67087361D01*
X135910431Y-66870702D01*
X135821354Y-66665840D01*
X135700014Y-66478277D01*
X135549670Y-66313051D01*
X135545619Y-66309852D01*
X135545615Y-66309848D01*
X135378414Y-66177800D01*
X135378410Y-66177798D01*
X135374359Y-66174598D01*
X135333053Y-66151796D01*
X135283084Y-66101364D01*
X135268312Y-66031921D01*
X135293428Y-65965516D01*
X135320780Y-65938909D01*
X135364603Y-65907650D01*
X135499860Y-65811173D01*
X135658096Y-65653489D01*
X135717594Y-65570689D01*
X135785435Y-65476277D01*
X135788453Y-65472077D01*
X135864318Y-65318576D01*
X135885136Y-65276453D01*
X135885137Y-65276451D01*
X135887430Y-65271811D01*
X135952370Y-65058069D01*
X135981529Y-64836590D01*
X135982551Y-64794771D01*
X135983074Y-64773365D01*
X135983074Y-64773361D01*
X135983156Y-64770000D01*
X135964852Y-64547361D01*
X135910431Y-64330702D01*
X135821354Y-64125840D01*
X135700014Y-63938277D01*
X135549670Y-63773051D01*
X135545619Y-63769852D01*
X135545615Y-63769848D01*
X135378414Y-63637800D01*
X135378410Y-63637798D01*
X135374359Y-63634598D01*
X135333053Y-63611796D01*
X135283084Y-63561364D01*
X135268312Y-63491921D01*
X135293428Y-63425516D01*
X135320780Y-63398909D01*
X135364603Y-63367650D01*
X135499860Y-63271173D01*
X135658096Y-63113489D01*
X135717594Y-63030689D01*
X135785435Y-62936277D01*
X135788453Y-62932077D01*
X135794933Y-62918967D01*
X135885136Y-62736453D01*
X135885137Y-62736451D01*
X135887430Y-62731811D01*
X135952370Y-62518069D01*
X135981529Y-62296590D01*
X135983156Y-62230000D01*
X135964852Y-62007361D01*
X135910431Y-61790702D01*
X135821354Y-61585840D01*
X135745447Y-61468506D01*
X135702822Y-61402617D01*
X135702820Y-61402614D01*
X135700014Y-61398277D01*
X135549670Y-61233051D01*
X135545619Y-61229852D01*
X135545615Y-61229848D01*
X135378414Y-61097800D01*
X135378410Y-61097798D01*
X135374359Y-61094598D01*
X135333053Y-61071796D01*
X135283084Y-61021364D01*
X135268312Y-60951921D01*
X135293428Y-60885516D01*
X135320780Y-60858909D01*
X135389763Y-60809704D01*
X135499860Y-60731173D01*
X135658096Y-60573489D01*
X135675266Y-60549595D01*
X135785435Y-60396277D01*
X135788453Y-60392077D01*
X135807424Y-60353693D01*
X135885136Y-60196453D01*
X135885137Y-60196451D01*
X135887430Y-60191811D01*
X135952370Y-59978069D01*
X135981529Y-59756590D01*
X135981611Y-59753240D01*
X135983074Y-59693365D01*
X135983074Y-59693361D01*
X135983156Y-59690000D01*
X135964852Y-59467361D01*
X135910431Y-59250702D01*
X135821354Y-59045840D01*
X135742872Y-58924525D01*
X135702822Y-58862617D01*
X135702820Y-58862614D01*
X135700014Y-58858277D01*
X135696540Y-58854459D01*
X135696533Y-58854450D01*
X135552435Y-58696088D01*
X135521383Y-58632242D01*
X135529779Y-58561744D01*
X135574956Y-58506976D01*
X135601400Y-58493307D01*
X135708052Y-58453325D01*
X135723649Y-58444786D01*
X135825724Y-58368285D01*
X135838285Y-58355724D01*
X135914786Y-58253649D01*
X135923324Y-58238054D01*
X135968478Y-58117606D01*
X135972105Y-58102351D01*
X135977631Y-58051486D01*
X135978000Y-58044672D01*
X135978000Y-57422115D01*
X135973525Y-57406876D01*
X135972135Y-57405671D01*
X135964452Y-57404000D01*
X133280116Y-57404000D01*
X133264877Y-57408475D01*
X133263672Y-57409865D01*
X133262001Y-57417548D01*
X133262001Y-58044669D01*
X133262371Y-58051490D01*
X133267895Y-58102352D01*
X133271521Y-58117604D01*
X133316676Y-58238054D01*
X133325214Y-58253649D01*
X133401715Y-58355724D01*
X133414276Y-58368285D01*
X133516351Y-58444786D01*
X133531946Y-58453324D01*
X133640827Y-58494142D01*
X133697591Y-58536784D01*
X133722291Y-58603345D01*
X133707083Y-58672694D01*
X133687691Y-58699175D01*
X133625396Y-58764363D01*
X133560629Y-58832138D01*
X133434743Y-59016680D01*
X133340688Y-59219305D01*
X133280989Y-59434570D01*
X133257251Y-59656695D01*
X133257548Y-59661848D01*
X133257548Y-59661851D01*
X133262843Y-59753678D01*
X133270110Y-59879715D01*
X133271247Y-59884761D01*
X133271248Y-59884767D01*
X133286498Y-59952435D01*
X133319222Y-60097639D01*
X133403266Y-60304616D01*
X133420350Y-60332495D01*
X133483988Y-60436342D01*
X133519987Y-60495088D01*
X133666250Y-60663938D01*
X133838126Y-60806632D01*
X133849140Y-60813068D01*
X133911445Y-60849476D01*
X133960169Y-60901114D01*
X133973240Y-60970897D01*
X133946509Y-61036669D01*
X133906055Y-61070027D01*
X133893607Y-61076507D01*
X133889474Y-61079610D01*
X133889471Y-61079612D01*
X133719100Y-61207530D01*
X133714965Y-61210635D01*
X133560629Y-61372138D01*
X133434743Y-61556680D01*
X133340688Y-61759305D01*
X133280989Y-61974570D01*
X133257251Y-62196695D01*
X133257548Y-62201848D01*
X133257548Y-62201851D01*
X133263043Y-62297144D01*
X133270110Y-62419715D01*
X133271247Y-62424761D01*
X133271248Y-62424767D01*
X133282696Y-62475563D01*
X133319222Y-62637639D01*
X133403266Y-62844616D01*
X133519987Y-63035088D01*
X133666250Y-63203938D01*
X133838126Y-63346632D01*
X133900322Y-63382976D01*
X133911445Y-63389476D01*
X133960169Y-63441114D01*
X133973240Y-63510897D01*
X133946509Y-63576669D01*
X133906055Y-63610027D01*
X133893607Y-63616507D01*
X133889474Y-63619610D01*
X133889471Y-63619612D01*
X133865247Y-63637800D01*
X133714965Y-63750635D01*
X133560629Y-63912138D01*
X133434743Y-64096680D01*
X133419003Y-64130590D01*
X133347191Y-64285296D01*
X133340688Y-64299305D01*
X133280989Y-64514570D01*
X133257251Y-64736695D01*
X133257548Y-64741848D01*
X133257548Y-64741851D01*
X133263011Y-64836590D01*
X133270110Y-64959715D01*
X133271247Y-64964761D01*
X133271248Y-64964767D01*
X133291119Y-65052939D01*
X133319222Y-65177639D01*
X133403266Y-65384616D01*
X133519987Y-65575088D01*
X133666250Y-65743938D01*
X133838126Y-65886632D01*
X133908595Y-65927811D01*
X133911445Y-65929476D01*
X133960169Y-65981114D01*
X133973240Y-66050897D01*
X133946509Y-66116669D01*
X133906055Y-66150027D01*
X133893607Y-66156507D01*
X133889474Y-66159610D01*
X133889471Y-66159612D01*
X133865247Y-66177800D01*
X133714965Y-66290635D01*
X133560629Y-66452138D01*
X133557715Y-66456410D01*
X133557714Y-66456411D01*
X133472556Y-66581249D01*
X133434743Y-66636680D01*
X133404884Y-66701006D01*
X133381116Y-66752211D01*
X133340688Y-66839305D01*
X133280989Y-67054570D01*
X133257251Y-67276695D01*
X133257548Y-67281848D01*
X133257548Y-67281851D01*
X133263011Y-67376590D01*
X133270110Y-67499715D01*
X133271247Y-67504761D01*
X133271248Y-67504767D01*
X133291119Y-67592939D01*
X133319222Y-67717639D01*
X133403266Y-67924616D01*
X133519987Y-68115088D01*
X133666250Y-68283938D01*
X133670230Y-68287242D01*
X133674981Y-68291187D01*
X133714616Y-68350090D01*
X133716113Y-68421071D01*
X133678997Y-68481593D01*
X133638725Y-68506112D01*
X133550095Y-68539338D01*
X133523295Y-68549385D01*
X133406739Y-68636739D01*
X133319385Y-68753295D01*
X133268255Y-68889684D01*
X133261500Y-68951866D01*
X133261500Y-70748134D01*
X133268255Y-70810316D01*
X133319385Y-70946705D01*
X133406739Y-71063261D01*
X133523295Y-71150615D01*
X133531704Y-71153767D01*
X133531705Y-71153768D01*
X133640451Y-71194535D01*
X133697216Y-71237176D01*
X133721916Y-71303738D01*
X133706709Y-71373087D01*
X133687316Y-71399568D01*
X133560629Y-71532138D01*
X133434743Y-71716680D01*
X133388979Y-71815270D01*
X133366911Y-71862813D01*
X133340688Y-71919305D01*
X133280989Y-72134570D01*
X133257251Y-72356695D01*
X133257548Y-72361848D01*
X133257548Y-72361851D01*
X133265672Y-72502753D01*
X133270110Y-72579715D01*
X133271247Y-72584761D01*
X133271248Y-72584767D01*
X133272592Y-72590730D01*
X133319222Y-72797639D01*
X133357461Y-72891811D01*
X133391287Y-72975114D01*
X133403266Y-73004616D01*
X133405965Y-73009020D01*
X133510266Y-73179224D01*
X133519987Y-73195088D01*
X133666250Y-73363938D01*
X133838126Y-73506632D01*
X133899391Y-73542432D01*
X133911445Y-73549476D01*
X133960169Y-73601114D01*
X133973240Y-73670897D01*
X133946509Y-73736669D01*
X133906055Y-73770027D01*
X133893607Y-73776507D01*
X133889474Y-73779610D01*
X133889471Y-73779612D01*
X133724914Y-73903165D01*
X133714965Y-73910635D01*
X133560629Y-74072138D01*
X133434743Y-74256680D01*
X133340688Y-74459305D01*
X133280989Y-74674570D01*
X133257251Y-74896695D01*
X133257548Y-74901848D01*
X133257548Y-74901851D01*
X133263011Y-74996590D01*
X133270110Y-75119715D01*
X133271247Y-75124761D01*
X133271248Y-75124767D01*
X133291119Y-75212939D01*
X133319222Y-75337639D01*
X133403266Y-75544616D01*
X133405965Y-75549020D01*
X133484021Y-75676396D01*
X133519987Y-75735088D01*
X133666250Y-75903938D01*
X133838126Y-76046632D01*
X133908595Y-76087811D01*
X133911445Y-76089476D01*
X133960169Y-76141114D01*
X133973240Y-76210897D01*
X133946509Y-76276669D01*
X133906055Y-76310027D01*
X133893607Y-76316507D01*
X133889474Y-76319610D01*
X133889471Y-76319612D01*
X133719100Y-76447530D01*
X133714965Y-76450635D01*
X133560629Y-76612138D01*
X133434743Y-76796680D01*
X133340688Y-76999305D01*
X133280989Y-77214570D01*
X133257251Y-77436695D01*
X133257548Y-77441848D01*
X133257548Y-77441851D01*
X133263011Y-77536590D01*
X133270110Y-77659715D01*
X133271247Y-77664761D01*
X133271248Y-77664767D01*
X133278462Y-77696776D01*
X133319222Y-77877639D01*
X133403266Y-78084616D01*
X133519987Y-78275088D01*
X133666250Y-78443938D01*
X133838126Y-78586632D01*
X133908595Y-78627811D01*
X133911445Y-78629476D01*
X133960169Y-78681114D01*
X133973240Y-78750897D01*
X133946509Y-78816669D01*
X133906055Y-78850027D01*
X133893607Y-78856507D01*
X133889474Y-78859610D01*
X133889471Y-78859612D01*
X133865247Y-78877800D01*
X133714965Y-78990635D01*
X133560629Y-79152138D01*
X133434743Y-79336680D01*
X133340688Y-79539305D01*
X133280989Y-79754570D01*
X133257251Y-79976695D01*
X118200418Y-79976695D01*
X118184852Y-79787361D01*
X118130431Y-79570702D01*
X118041354Y-79365840D01*
X117920014Y-79178277D01*
X117769670Y-79013051D01*
X117765619Y-79009852D01*
X117765615Y-79009848D01*
X117598414Y-78877800D01*
X117598410Y-78877798D01*
X117594359Y-78874598D01*
X117553053Y-78851796D01*
X117503084Y-78801364D01*
X117488312Y-78731921D01*
X117513428Y-78665516D01*
X117540780Y-78638909D01*
X117584603Y-78607650D01*
X117719860Y-78511173D01*
X117878096Y-78353489D01*
X117937594Y-78270689D01*
X118005435Y-78176277D01*
X118008453Y-78172077D01*
X118038054Y-78112185D01*
X118105136Y-77976453D01*
X118105137Y-77976451D01*
X118107430Y-77971811D01*
X118172370Y-77758069D01*
X118201529Y-77536590D01*
X118203156Y-77470000D01*
X118184852Y-77247361D01*
X118130431Y-77030702D01*
X118041354Y-76825840D01*
X117920014Y-76638277D01*
X117769670Y-76473051D01*
X117765619Y-76469852D01*
X117765615Y-76469848D01*
X117598414Y-76337800D01*
X117598410Y-76337798D01*
X117594359Y-76334598D01*
X117553053Y-76311796D01*
X117503084Y-76261364D01*
X117488312Y-76191921D01*
X117513428Y-76125516D01*
X117540780Y-76098909D01*
X117584603Y-76067650D01*
X117719860Y-75971173D01*
X117747807Y-75943324D01*
X117874435Y-75817137D01*
X117878096Y-75813489D01*
X117902160Y-75780001D01*
X118005435Y-75636277D01*
X118008453Y-75632077D01*
X118019778Y-75609164D01*
X118105136Y-75436453D01*
X118105137Y-75436451D01*
X118107430Y-75431811D01*
X118172370Y-75218069D01*
X118201529Y-74996590D01*
X118203156Y-74930000D01*
X118184852Y-74707361D01*
X118130431Y-74490702D01*
X118041354Y-74285840D01*
X117920014Y-74098277D01*
X117769670Y-73933051D01*
X117765619Y-73929852D01*
X117765615Y-73929848D01*
X117598414Y-73797800D01*
X117598410Y-73797798D01*
X117594359Y-73794598D01*
X117553053Y-73771796D01*
X117503084Y-73721364D01*
X117488312Y-73651921D01*
X117513428Y-73585516D01*
X117540780Y-73558909D01*
X117584603Y-73527650D01*
X117719860Y-73431173D01*
X117732576Y-73418502D01*
X117874435Y-73277137D01*
X117878096Y-73273489D01*
X117937594Y-73190689D01*
X118005435Y-73096277D01*
X118008453Y-73092077D01*
X118018184Y-73072389D01*
X118105136Y-72896453D01*
X118105137Y-72896451D01*
X118107430Y-72891811D01*
X118172370Y-72678069D01*
X118201529Y-72456590D01*
X118202107Y-72432925D01*
X118203074Y-72393365D01*
X118203074Y-72393361D01*
X118203156Y-72390000D01*
X118184852Y-72167361D01*
X118130431Y-71950702D01*
X118041354Y-71745840D01*
X117920014Y-71558277D01*
X117916540Y-71554459D01*
X117916533Y-71554450D01*
X117772435Y-71396088D01*
X117741383Y-71332242D01*
X117749779Y-71261744D01*
X117794956Y-71206976D01*
X117821400Y-71193307D01*
X117928052Y-71153325D01*
X117943649Y-71144786D01*
X118045724Y-71068285D01*
X118058285Y-71055724D01*
X118134786Y-70953649D01*
X118143324Y-70938054D01*
X118188478Y-70817606D01*
X118192105Y-70802351D01*
X118197631Y-70751486D01*
X118198000Y-70744672D01*
X118198000Y-70122115D01*
X118193525Y-70106876D01*
X118192135Y-70105671D01*
X118184452Y-70104000D01*
X115500116Y-70104000D01*
X115484877Y-70108475D01*
X115483672Y-70109865D01*
X115482001Y-70117548D01*
X115482001Y-70744669D01*
X115482371Y-70751490D01*
X115487895Y-70802352D01*
X115491521Y-70817604D01*
X115536676Y-70938054D01*
X115545214Y-70953649D01*
X115621715Y-71055724D01*
X115634276Y-71068285D01*
X115736351Y-71144786D01*
X115751946Y-71153324D01*
X115860827Y-71194142D01*
X115917591Y-71236784D01*
X115942291Y-71303345D01*
X115927083Y-71372694D01*
X115907691Y-71399175D01*
X115806756Y-71504798D01*
X115780629Y-71532138D01*
X115654743Y-71716680D01*
X115608979Y-71815270D01*
X115586911Y-71862813D01*
X115560688Y-71919305D01*
X115500989Y-72134570D01*
X115477251Y-72356695D01*
X115477548Y-72361848D01*
X115477548Y-72361851D01*
X115485672Y-72502753D01*
X115490110Y-72579715D01*
X115491247Y-72584761D01*
X115491248Y-72584767D01*
X115492592Y-72590730D01*
X115539222Y-72797639D01*
X115577461Y-72891811D01*
X115611287Y-72975114D01*
X115623266Y-73004616D01*
X115625965Y-73009020D01*
X115730266Y-73179224D01*
X115739987Y-73195088D01*
X115886250Y-73363938D01*
X116058126Y-73506632D01*
X116119391Y-73542432D01*
X116131445Y-73549476D01*
X116180169Y-73601114D01*
X116193240Y-73670897D01*
X116166509Y-73736669D01*
X116126055Y-73770027D01*
X116113607Y-73776507D01*
X116109474Y-73779610D01*
X116109471Y-73779612D01*
X115944914Y-73903165D01*
X115934965Y-73910635D01*
X115780629Y-74072138D01*
X115654743Y-74256680D01*
X115560688Y-74459305D01*
X115500989Y-74674570D01*
X115477251Y-74896695D01*
X115477548Y-74901848D01*
X115477548Y-74901851D01*
X115483011Y-74996590D01*
X115490110Y-75119715D01*
X115491247Y-75124761D01*
X115491248Y-75124767D01*
X115511119Y-75212939D01*
X115539222Y-75337639D01*
X115623266Y-75544616D01*
X115625965Y-75549020D01*
X115704021Y-75676396D01*
X115739987Y-75735088D01*
X115886250Y-75903938D01*
X116058126Y-76046632D01*
X116128595Y-76087811D01*
X116131445Y-76089476D01*
X116180169Y-76141114D01*
X116193240Y-76210897D01*
X116166509Y-76276669D01*
X116126055Y-76310027D01*
X116113607Y-76316507D01*
X116109474Y-76319610D01*
X116109471Y-76319612D01*
X115939100Y-76447530D01*
X115934965Y-76450635D01*
X115780629Y-76612138D01*
X115654743Y-76796680D01*
X115560688Y-76999305D01*
X115500989Y-77214570D01*
X115477251Y-77436695D01*
X115477548Y-77441848D01*
X115477548Y-77441851D01*
X115483011Y-77536590D01*
X115490110Y-77659715D01*
X115491247Y-77664761D01*
X115491248Y-77664767D01*
X115498462Y-77696776D01*
X115539222Y-77877639D01*
X115623266Y-78084616D01*
X115739987Y-78275088D01*
X115886250Y-78443938D01*
X116058126Y-78586632D01*
X116128595Y-78627811D01*
X116131445Y-78629476D01*
X116180169Y-78681114D01*
X116193240Y-78750897D01*
X116166509Y-78816669D01*
X116126055Y-78850027D01*
X116113607Y-78856507D01*
X116109474Y-78859610D01*
X116109471Y-78859612D01*
X116085247Y-78877800D01*
X115934965Y-78990635D01*
X115780629Y-79152138D01*
X115654743Y-79336680D01*
X115560688Y-79539305D01*
X115500989Y-79754570D01*
X115477251Y-79976695D01*
X110998000Y-79976695D01*
X110998000Y-67276695D01*
X115477251Y-67276695D01*
X115477548Y-67281848D01*
X115477548Y-67281851D01*
X115483011Y-67376590D01*
X115490110Y-67499715D01*
X115491247Y-67504761D01*
X115491248Y-67504767D01*
X115511119Y-67592939D01*
X115539222Y-67717639D01*
X115623266Y-67924616D01*
X115739987Y-68115088D01*
X115886250Y-68283938D01*
X115890225Y-68287238D01*
X115890231Y-68287244D01*
X115895425Y-68291556D01*
X115935059Y-68350460D01*
X115936555Y-68421441D01*
X115899439Y-68481962D01*
X115859168Y-68506480D01*
X115751946Y-68546676D01*
X115736351Y-68555214D01*
X115634276Y-68631715D01*
X115621715Y-68644276D01*
X115545214Y-68746351D01*
X115536676Y-68761946D01*
X115491522Y-68882394D01*
X115487895Y-68897649D01*
X115482369Y-68948514D01*
X115482000Y-68955328D01*
X115482000Y-69577885D01*
X115486475Y-69593124D01*
X115487865Y-69594329D01*
X115495548Y-69596000D01*
X118179884Y-69596000D01*
X118195123Y-69591525D01*
X118196328Y-69590135D01*
X118197999Y-69582452D01*
X118197999Y-68955331D01*
X118197629Y-68948510D01*
X118192105Y-68897648D01*
X118188479Y-68882396D01*
X118143324Y-68761946D01*
X118134786Y-68746351D01*
X118058285Y-68644276D01*
X118045724Y-68631715D01*
X117943649Y-68555214D01*
X117928054Y-68546676D01*
X117817813Y-68505348D01*
X117761049Y-68462706D01*
X117736349Y-68396145D01*
X117751557Y-68326796D01*
X117773104Y-68298115D01*
X117874430Y-68197144D01*
X117874440Y-68197132D01*
X117878096Y-68193489D01*
X117937594Y-68110689D01*
X118005435Y-68016277D01*
X118008453Y-68012077D01*
X118107430Y-67811811D01*
X118172370Y-67598069D01*
X118201529Y-67376590D01*
X118202117Y-67352517D01*
X118203074Y-67313365D01*
X118203074Y-67313361D01*
X118203156Y-67310000D01*
X118184852Y-67087361D01*
X118130431Y-66870702D01*
X118041354Y-66665840D01*
X117920014Y-66478277D01*
X117769670Y-66313051D01*
X117765619Y-66309852D01*
X117765615Y-66309848D01*
X117598414Y-66177800D01*
X117598410Y-66177798D01*
X117594359Y-66174598D01*
X117553053Y-66151796D01*
X117503084Y-66101364D01*
X117488312Y-66031921D01*
X117513428Y-65965516D01*
X117540780Y-65938909D01*
X117584603Y-65907650D01*
X117719860Y-65811173D01*
X117878096Y-65653489D01*
X117937594Y-65570689D01*
X118005435Y-65476277D01*
X118008453Y-65472077D01*
X118084318Y-65318576D01*
X118105136Y-65276453D01*
X118105137Y-65276451D01*
X118107430Y-65271811D01*
X118172370Y-65058069D01*
X118201529Y-64836590D01*
X118202551Y-64794771D01*
X118203074Y-64773365D01*
X118203074Y-64773361D01*
X118203156Y-64770000D01*
X118184852Y-64547361D01*
X118130431Y-64330702D01*
X118041354Y-64125840D01*
X117920014Y-63938277D01*
X117769670Y-63773051D01*
X117765619Y-63769852D01*
X117765615Y-63769848D01*
X117598414Y-63637800D01*
X117598410Y-63637798D01*
X117594359Y-63634598D01*
X117553053Y-63611796D01*
X117503084Y-63561364D01*
X117488312Y-63491921D01*
X117513428Y-63425516D01*
X117540780Y-63398909D01*
X117584603Y-63367650D01*
X117719860Y-63271173D01*
X117878096Y-63113489D01*
X117937594Y-63030689D01*
X118005435Y-62936277D01*
X118008453Y-62932077D01*
X118014933Y-62918967D01*
X118105136Y-62736453D01*
X118105137Y-62736451D01*
X118107430Y-62731811D01*
X118172370Y-62518069D01*
X118201529Y-62296590D01*
X118203156Y-62230000D01*
X118184852Y-62007361D01*
X118130431Y-61790702D01*
X118041354Y-61585840D01*
X117965447Y-61468506D01*
X117922822Y-61402617D01*
X117922820Y-61402614D01*
X117920014Y-61398277D01*
X117769670Y-61233051D01*
X117765619Y-61229852D01*
X117765615Y-61229848D01*
X117598414Y-61097800D01*
X117598410Y-61097798D01*
X117594359Y-61094598D01*
X117553053Y-61071796D01*
X117503084Y-61021364D01*
X117488312Y-60951921D01*
X117513428Y-60885516D01*
X117540780Y-60858909D01*
X117609763Y-60809704D01*
X117719860Y-60731173D01*
X117878096Y-60573489D01*
X117895266Y-60549595D01*
X118005435Y-60396277D01*
X118008453Y-60392077D01*
X118027424Y-60353693D01*
X118105136Y-60196453D01*
X118105137Y-60196451D01*
X118107430Y-60191811D01*
X118172370Y-59978069D01*
X118201529Y-59756590D01*
X118201611Y-59753240D01*
X118203074Y-59693365D01*
X118203074Y-59693361D01*
X118203156Y-59690000D01*
X118184852Y-59467361D01*
X118130431Y-59250702D01*
X118041354Y-59045840D01*
X117962872Y-58924525D01*
X117922822Y-58862617D01*
X117922820Y-58862614D01*
X117920014Y-58858277D01*
X117916540Y-58854459D01*
X117916533Y-58854450D01*
X117772435Y-58696088D01*
X117741383Y-58632242D01*
X117749779Y-58561744D01*
X117794956Y-58506976D01*
X117821400Y-58493307D01*
X117928052Y-58453325D01*
X117943649Y-58444786D01*
X118045724Y-58368285D01*
X118058285Y-58355724D01*
X118134786Y-58253649D01*
X118143324Y-58238054D01*
X118188478Y-58117606D01*
X118192105Y-58102351D01*
X118197631Y-58051486D01*
X118198000Y-58044672D01*
X118198000Y-57422115D01*
X118193525Y-57406876D01*
X118192135Y-57405671D01*
X118184452Y-57404000D01*
X115500116Y-57404000D01*
X115484877Y-57408475D01*
X115483672Y-57409865D01*
X115482001Y-57417548D01*
X115482001Y-58044669D01*
X115482371Y-58051490D01*
X115487895Y-58102352D01*
X115491521Y-58117604D01*
X115536676Y-58238054D01*
X115545214Y-58253649D01*
X115621715Y-58355724D01*
X115634276Y-58368285D01*
X115736351Y-58444786D01*
X115751946Y-58453324D01*
X115860827Y-58494142D01*
X115917591Y-58536784D01*
X115942291Y-58603345D01*
X115927083Y-58672694D01*
X115907691Y-58699175D01*
X115845396Y-58764363D01*
X115780629Y-58832138D01*
X115654743Y-59016680D01*
X115560688Y-59219305D01*
X115500989Y-59434570D01*
X115477251Y-59656695D01*
X115477548Y-59661848D01*
X115477548Y-59661851D01*
X115482843Y-59753678D01*
X115490110Y-59879715D01*
X115491247Y-59884761D01*
X115491248Y-59884767D01*
X115506498Y-59952435D01*
X115539222Y-60097639D01*
X115623266Y-60304616D01*
X115640350Y-60332495D01*
X115703988Y-60436342D01*
X115739987Y-60495088D01*
X115886250Y-60663938D01*
X116058126Y-60806632D01*
X116069140Y-60813068D01*
X116131445Y-60849476D01*
X116180169Y-60901114D01*
X116193240Y-60970897D01*
X116166509Y-61036669D01*
X116126055Y-61070027D01*
X116113607Y-61076507D01*
X116109474Y-61079610D01*
X116109471Y-61079612D01*
X115939100Y-61207530D01*
X115934965Y-61210635D01*
X115780629Y-61372138D01*
X115654743Y-61556680D01*
X115560688Y-61759305D01*
X115500989Y-61974570D01*
X115477251Y-62196695D01*
X115477548Y-62201848D01*
X115477548Y-62201851D01*
X115483043Y-62297144D01*
X115490110Y-62419715D01*
X115491247Y-62424761D01*
X115491248Y-62424767D01*
X115502696Y-62475563D01*
X115539222Y-62637639D01*
X115623266Y-62844616D01*
X115739987Y-63035088D01*
X115886250Y-63203938D01*
X116058126Y-63346632D01*
X116120322Y-63382976D01*
X116131445Y-63389476D01*
X116180169Y-63441114D01*
X116193240Y-63510897D01*
X116166509Y-63576669D01*
X116126055Y-63610027D01*
X116113607Y-63616507D01*
X116109474Y-63619610D01*
X116109471Y-63619612D01*
X116085247Y-63637800D01*
X115934965Y-63750635D01*
X115780629Y-63912138D01*
X115654743Y-64096680D01*
X115639003Y-64130590D01*
X115567191Y-64285296D01*
X115560688Y-64299305D01*
X115500989Y-64514570D01*
X115477251Y-64736695D01*
X115477548Y-64741848D01*
X115477548Y-64741851D01*
X115483011Y-64836590D01*
X115490110Y-64959715D01*
X115491247Y-64964761D01*
X115491248Y-64964767D01*
X115511119Y-65052939D01*
X115539222Y-65177639D01*
X115623266Y-65384616D01*
X115739987Y-65575088D01*
X115886250Y-65743938D01*
X116058126Y-65886632D01*
X116128595Y-65927811D01*
X116131445Y-65929476D01*
X116180169Y-65981114D01*
X116193240Y-66050897D01*
X116166509Y-66116669D01*
X116126055Y-66150027D01*
X116113607Y-66156507D01*
X116109474Y-66159610D01*
X116109471Y-66159612D01*
X116085247Y-66177800D01*
X115934965Y-66290635D01*
X115780629Y-66452138D01*
X115777715Y-66456410D01*
X115777714Y-66456411D01*
X115692556Y-66581249D01*
X115654743Y-66636680D01*
X115624884Y-66701006D01*
X115601116Y-66752211D01*
X115560688Y-66839305D01*
X115500989Y-67054570D01*
X115477251Y-67276695D01*
X110998000Y-67276695D01*
X110998000Y-54576695D01*
X115477251Y-54576695D01*
X115477548Y-54581848D01*
X115477548Y-54581851D01*
X115483670Y-54688026D01*
X115490110Y-54799715D01*
X115491247Y-54804761D01*
X115491248Y-54804767D01*
X115507239Y-54875721D01*
X115539222Y-55017639D01*
X115623266Y-55224616D01*
X115739987Y-55415088D01*
X115886250Y-55583938D01*
X115890225Y-55587238D01*
X115890231Y-55587244D01*
X115895425Y-55591556D01*
X115935059Y-55650460D01*
X115936555Y-55721441D01*
X115899439Y-55781962D01*
X115859168Y-55806480D01*
X115751946Y-55846676D01*
X115736351Y-55855214D01*
X115634276Y-55931715D01*
X115621715Y-55944276D01*
X115545214Y-56046351D01*
X115536676Y-56061946D01*
X115491522Y-56182394D01*
X115487895Y-56197649D01*
X115482369Y-56248514D01*
X115482000Y-56255328D01*
X115482000Y-56877885D01*
X115486475Y-56893124D01*
X115487865Y-56894329D01*
X115495548Y-56896000D01*
X118179884Y-56896000D01*
X118195123Y-56891525D01*
X118196328Y-56890135D01*
X118197999Y-56882452D01*
X118197999Y-56255331D01*
X118197629Y-56248510D01*
X118192105Y-56197648D01*
X118188479Y-56182396D01*
X118143324Y-56061946D01*
X118134786Y-56046351D01*
X118058285Y-55944276D01*
X118045724Y-55931715D01*
X117943649Y-55855214D01*
X117928054Y-55846676D01*
X117817813Y-55805348D01*
X117761049Y-55762706D01*
X117736349Y-55696145D01*
X117751557Y-55626796D01*
X117773104Y-55598115D01*
X117874430Y-55497144D01*
X117874440Y-55497132D01*
X117878096Y-55493489D01*
X117913734Y-55443894D01*
X118005435Y-55316277D01*
X118008453Y-55312077D01*
X118049018Y-55230000D01*
X122041693Y-55230000D01*
X122060885Y-55449371D01*
X122117880Y-55662076D01*
X122120205Y-55667061D01*
X122208618Y-55856666D01*
X122208621Y-55856671D01*
X122210944Y-55861653D01*
X122337251Y-56042038D01*
X122492962Y-56197749D01*
X122673346Y-56324056D01*
X122872924Y-56417120D01*
X123085629Y-56474115D01*
X123305000Y-56493307D01*
X123524371Y-56474115D01*
X123737076Y-56417120D01*
X123936654Y-56324056D01*
X124117038Y-56197749D01*
X124272749Y-56042038D01*
X124399056Y-55861653D01*
X124401379Y-55856671D01*
X124401382Y-55856666D01*
X124489795Y-55667061D01*
X124492120Y-55662076D01*
X124549115Y-55449371D01*
X124568307Y-55230000D01*
X126891693Y-55230000D01*
X126910885Y-55449371D01*
X126967880Y-55662076D01*
X126970205Y-55667061D01*
X127058618Y-55856666D01*
X127058621Y-55856671D01*
X127060944Y-55861653D01*
X127187251Y-56042038D01*
X127342962Y-56197749D01*
X127523346Y-56324056D01*
X127722924Y-56417120D01*
X127935629Y-56474115D01*
X128155000Y-56493307D01*
X128374371Y-56474115D01*
X128587076Y-56417120D01*
X128786654Y-56324056D01*
X128967038Y-56197749D01*
X129122749Y-56042038D01*
X129249056Y-55861653D01*
X129251379Y-55856671D01*
X129251382Y-55856666D01*
X129339795Y-55667061D01*
X129342120Y-55662076D01*
X129399115Y-55449371D01*
X129418307Y-55230000D01*
X129399115Y-55010629D01*
X129342120Y-54797924D01*
X129289874Y-54685881D01*
X129251382Y-54603334D01*
X129251379Y-54603329D01*
X129249056Y-54598347D01*
X129241181Y-54587100D01*
X129233895Y-54576695D01*
X133257251Y-54576695D01*
X133257548Y-54581848D01*
X133257548Y-54581851D01*
X133263670Y-54688026D01*
X133270110Y-54799715D01*
X133271247Y-54804761D01*
X133271248Y-54804767D01*
X133287239Y-54875721D01*
X133319222Y-55017639D01*
X133403266Y-55224616D01*
X133519987Y-55415088D01*
X133666250Y-55583938D01*
X133670225Y-55587238D01*
X133670231Y-55587244D01*
X133675425Y-55591556D01*
X133715059Y-55650460D01*
X133716555Y-55721441D01*
X133679439Y-55781962D01*
X133639168Y-55806480D01*
X133531946Y-55846676D01*
X133516351Y-55855214D01*
X133414276Y-55931715D01*
X133401715Y-55944276D01*
X133325214Y-56046351D01*
X133316676Y-56061946D01*
X133271522Y-56182394D01*
X133267895Y-56197649D01*
X133262369Y-56248514D01*
X133262000Y-56255328D01*
X133262000Y-56877885D01*
X133266475Y-56893124D01*
X133267865Y-56894329D01*
X133275548Y-56896000D01*
X135959884Y-56896000D01*
X135975123Y-56891525D01*
X135976328Y-56890135D01*
X135977999Y-56882452D01*
X135977999Y-56255331D01*
X135977629Y-56248510D01*
X135972105Y-56197648D01*
X135968479Y-56182396D01*
X135923324Y-56061946D01*
X135914786Y-56046351D01*
X135838285Y-55944276D01*
X135825724Y-55931715D01*
X135723649Y-55855214D01*
X135708054Y-55846676D01*
X135597813Y-55805348D01*
X135541049Y-55762706D01*
X135516349Y-55696145D01*
X135531557Y-55626796D01*
X135553104Y-55598115D01*
X135654430Y-55497144D01*
X135654440Y-55497132D01*
X135658096Y-55493489D01*
X135693734Y-55443894D01*
X135785435Y-55316277D01*
X135788453Y-55312077D01*
X135887430Y-55111811D01*
X135952370Y-54898069D01*
X135981529Y-54676590D01*
X135983156Y-54610000D01*
X135964852Y-54387361D01*
X135910431Y-54170702D01*
X135821354Y-53965840D01*
X135731802Y-53827413D01*
X135702822Y-53782617D01*
X135702820Y-53782614D01*
X135700014Y-53778277D01*
X135549670Y-53613051D01*
X135545619Y-53609852D01*
X135545615Y-53609848D01*
X135378414Y-53477800D01*
X135378410Y-53477798D01*
X135374359Y-53474598D01*
X135333053Y-53451796D01*
X135283084Y-53401364D01*
X135268312Y-53331921D01*
X135293428Y-53265516D01*
X135320780Y-53238909D01*
X135367089Y-53205877D01*
X135499860Y-53111173D01*
X135593225Y-53018134D01*
X161151500Y-53018134D01*
X161158255Y-53080316D01*
X161209385Y-53216705D01*
X161296739Y-53333261D01*
X161413295Y-53420615D01*
X161549684Y-53471745D01*
X161611866Y-53478500D01*
X163508134Y-53478500D01*
X163570316Y-53471745D01*
X163706705Y-53420615D01*
X163823261Y-53333261D01*
X163910615Y-53216705D01*
X163961745Y-53080316D01*
X163968500Y-53018134D01*
X163968500Y-52035469D01*
X168767095Y-52035469D01*
X168767392Y-52040622D01*
X168767392Y-52040625D01*
X168774590Y-52165469D01*
X168780427Y-52266697D01*
X168781564Y-52271743D01*
X168781565Y-52271749D01*
X168808559Y-52391529D01*
X168831346Y-52492642D01*
X168833288Y-52497424D01*
X168833289Y-52497428D01*
X168911087Y-52689020D01*
X168918484Y-52707237D01*
X169039501Y-52904719D01*
X169191147Y-53079784D01*
X169369349Y-53227730D01*
X169569322Y-53344584D01*
X169574147Y-53346426D01*
X169574148Y-53346427D01*
X169627075Y-53366638D01*
X169785694Y-53427209D01*
X169790760Y-53428240D01*
X169790761Y-53428240D01*
X169843846Y-53439040D01*
X170012656Y-53473385D01*
X170142089Y-53478131D01*
X170238949Y-53481683D01*
X170238953Y-53481683D01*
X170244113Y-53481872D01*
X170249233Y-53481216D01*
X170249235Y-53481216D01*
X170323166Y-53471745D01*
X170473847Y-53452442D01*
X170478795Y-53450957D01*
X170478802Y-53450956D01*
X170690747Y-53387369D01*
X170695690Y-53385886D01*
X170700324Y-53383616D01*
X170899049Y-53286262D01*
X170899052Y-53286260D01*
X170903684Y-53283991D01*
X171092243Y-53149494D01*
X171256303Y-52986005D01*
X171269623Y-52967469D01*
X171360039Y-52841641D01*
X171391458Y-52797917D01*
X171399953Y-52780730D01*
X171491784Y-52594922D01*
X171491785Y-52594920D01*
X171494078Y-52590280D01*
X171561408Y-52368671D01*
X171591640Y-52139041D01*
X171593327Y-52070000D01*
X171587032Y-51993434D01*
X171574773Y-51844318D01*
X171574772Y-51844312D01*
X171574349Y-51839167D01*
X171523247Y-51635720D01*
X171519184Y-51619544D01*
X171519183Y-51619540D01*
X171517925Y-51614533D01*
X171515866Y-51609797D01*
X171427630Y-51406868D01*
X171427628Y-51406865D01*
X171425570Y-51402131D01*
X171299764Y-51207665D01*
X171143887Y-51036358D01*
X171139836Y-51033159D01*
X171139832Y-51033155D01*
X170966177Y-50896011D01*
X170966172Y-50896008D01*
X170962123Y-50892810D01*
X170957607Y-50890317D01*
X170957604Y-50890315D01*
X170763879Y-50783373D01*
X170763875Y-50783371D01*
X170759355Y-50780876D01*
X170754486Y-50779152D01*
X170754482Y-50779150D01*
X170545903Y-50705288D01*
X170545899Y-50705287D01*
X170541028Y-50703562D01*
X170535935Y-50702655D01*
X170535932Y-50702654D01*
X170318095Y-50663851D01*
X170318089Y-50663850D01*
X170313006Y-50662945D01*
X170240096Y-50662054D01*
X170086581Y-50660179D01*
X170086579Y-50660179D01*
X170081411Y-50660116D01*
X169852464Y-50695150D01*
X169632314Y-50767106D01*
X169627726Y-50769494D01*
X169627722Y-50769496D01*
X169501337Y-50835288D01*
X169426872Y-50874052D01*
X169422739Y-50877155D01*
X169422736Y-50877157D01*
X169245790Y-51010012D01*
X169241655Y-51013117D01*
X169232392Y-51022810D01*
X169089316Y-51172531D01*
X169081639Y-51180564D01*
X169078725Y-51184836D01*
X169078724Y-51184837D01*
X169063152Y-51207665D01*
X168951119Y-51371899D01*
X168853602Y-51581981D01*
X168791707Y-51805169D01*
X168767095Y-52035469D01*
X163968500Y-52035469D01*
X163968500Y-51121866D01*
X163961745Y-51059684D01*
X163910615Y-50923295D01*
X163823261Y-50806739D01*
X163706705Y-50719385D01*
X163570316Y-50668255D01*
X163508134Y-50661500D01*
X161611866Y-50661500D01*
X161549684Y-50668255D01*
X161413295Y-50719385D01*
X161296739Y-50806739D01*
X161209385Y-50923295D01*
X161158255Y-51059684D01*
X161151500Y-51121866D01*
X161151500Y-53018134D01*
X135593225Y-53018134D01*
X135658096Y-52953489D01*
X135717594Y-52870689D01*
X135785435Y-52776277D01*
X135788453Y-52772077D01*
X135811759Y-52724922D01*
X135885136Y-52576453D01*
X135885137Y-52576451D01*
X135887430Y-52571811D01*
X135952370Y-52358069D01*
X135981529Y-52136590D01*
X135983156Y-52070000D01*
X135964852Y-51847361D01*
X135910431Y-51630702D01*
X135821354Y-51425840D01*
X135700014Y-51238277D01*
X135549670Y-51073051D01*
X135545619Y-51069852D01*
X135545615Y-51069848D01*
X135378414Y-50937800D01*
X135378410Y-50937798D01*
X135374359Y-50934598D01*
X135331387Y-50910876D01*
X135322136Y-50905769D01*
X135178789Y-50826638D01*
X135173920Y-50824914D01*
X135173916Y-50824912D01*
X134973087Y-50753795D01*
X134973083Y-50753794D01*
X134968212Y-50752069D01*
X134963119Y-50751162D01*
X134963116Y-50751161D01*
X134753373Y-50713800D01*
X134753367Y-50713799D01*
X134748284Y-50712894D01*
X134674452Y-50711992D01*
X134530081Y-50710228D01*
X134530079Y-50710228D01*
X134524911Y-50710165D01*
X134304091Y-50743955D01*
X134091756Y-50813357D01*
X134066015Y-50826757D01*
X133907740Y-50909150D01*
X133893607Y-50916507D01*
X133889474Y-50919610D01*
X133889471Y-50919612D01*
X133752024Y-51022810D01*
X133714965Y-51050635D01*
X133711393Y-51054373D01*
X133564904Y-51207665D01*
X133560629Y-51212138D01*
X133557715Y-51216410D01*
X133557714Y-51216411D01*
X133477611Y-51333838D01*
X133434743Y-51396680D01*
X133340688Y-51599305D01*
X133280989Y-51814570D01*
X133257251Y-52036695D01*
X133257548Y-52041848D01*
X133257548Y-52041851D01*
X133266667Y-52200000D01*
X133270110Y-52259715D01*
X133271247Y-52264761D01*
X133271248Y-52264767D01*
X133272822Y-52271749D01*
X133319222Y-52477639D01*
X133403266Y-52684616D01*
X133454019Y-52767438D01*
X133463678Y-52783199D01*
X133519987Y-52875088D01*
X133666250Y-53043938D01*
X133838126Y-53186632D01*
X133900643Y-53223164D01*
X133911445Y-53229476D01*
X133960169Y-53281114D01*
X133973240Y-53350897D01*
X133946509Y-53416669D01*
X133906055Y-53450027D01*
X133901301Y-53452502D01*
X133893607Y-53456507D01*
X133889474Y-53459610D01*
X133889471Y-53459612D01*
X133719100Y-53587530D01*
X133714965Y-53590635D01*
X133693544Y-53613051D01*
X133574765Y-53737346D01*
X133560629Y-53752138D01*
X133434743Y-53936680D01*
X133402354Y-54006457D01*
X133343328Y-54133618D01*
X133340688Y-54139305D01*
X133280989Y-54354570D01*
X133257251Y-54576695D01*
X129233895Y-54576695D01*
X129125908Y-54422473D01*
X129125906Y-54422470D01*
X129122749Y-54417962D01*
X128967038Y-54262251D01*
X128957626Y-54255660D01*
X128887759Y-54206739D01*
X128786654Y-54135944D01*
X128587076Y-54042880D01*
X128374371Y-53985885D01*
X128155000Y-53966693D01*
X127935629Y-53985885D01*
X127722924Y-54042880D01*
X127629562Y-54086415D01*
X127528334Y-54133618D01*
X127528329Y-54133621D01*
X127523347Y-54135944D01*
X127518840Y-54139100D01*
X127518838Y-54139101D01*
X127347473Y-54259092D01*
X127347470Y-54259094D01*
X127342962Y-54262251D01*
X127187251Y-54417962D01*
X127184094Y-54422470D01*
X127184092Y-54422473D01*
X127068819Y-54587100D01*
X127060944Y-54598347D01*
X127058621Y-54603329D01*
X127058618Y-54603334D01*
X127020126Y-54685881D01*
X126967880Y-54797924D01*
X126910885Y-55010629D01*
X126891693Y-55230000D01*
X124568307Y-55230000D01*
X124549115Y-55010629D01*
X124492120Y-54797924D01*
X124439874Y-54685881D01*
X124401382Y-54603334D01*
X124401379Y-54603329D01*
X124399056Y-54598347D01*
X124391181Y-54587100D01*
X124275908Y-54422473D01*
X124275906Y-54422470D01*
X124272749Y-54417962D01*
X124117038Y-54262251D01*
X124107626Y-54255660D01*
X124037759Y-54206739D01*
X123936654Y-54135944D01*
X123737076Y-54042880D01*
X123524371Y-53985885D01*
X123305000Y-53966693D01*
X123085629Y-53985885D01*
X122872924Y-54042880D01*
X122779562Y-54086415D01*
X122678334Y-54133618D01*
X122678329Y-54133621D01*
X122673347Y-54135944D01*
X122668840Y-54139100D01*
X122668838Y-54139101D01*
X122497473Y-54259092D01*
X122497470Y-54259094D01*
X122492962Y-54262251D01*
X122337251Y-54417962D01*
X122334094Y-54422470D01*
X122334092Y-54422473D01*
X122218819Y-54587100D01*
X122210944Y-54598347D01*
X122208621Y-54603329D01*
X122208618Y-54603334D01*
X122170126Y-54685881D01*
X122117880Y-54797924D01*
X122060885Y-55010629D01*
X122041693Y-55230000D01*
X118049018Y-55230000D01*
X118107430Y-55111811D01*
X118172370Y-54898069D01*
X118201529Y-54676590D01*
X118203156Y-54610000D01*
X118184852Y-54387361D01*
X118130431Y-54170702D01*
X118041354Y-53965840D01*
X117951802Y-53827413D01*
X117922822Y-53782617D01*
X117922820Y-53782614D01*
X117920014Y-53778277D01*
X117769670Y-53613051D01*
X117765619Y-53609852D01*
X117765615Y-53609848D01*
X117598414Y-53477800D01*
X117598410Y-53477798D01*
X117594359Y-53474598D01*
X117553053Y-53451796D01*
X117503084Y-53401364D01*
X117488312Y-53331921D01*
X117513428Y-53265516D01*
X117540780Y-53238909D01*
X117587089Y-53205877D01*
X117719860Y-53111173D01*
X117878096Y-52953489D01*
X117937594Y-52870689D01*
X118005435Y-52776277D01*
X118008453Y-52772077D01*
X118031759Y-52724922D01*
X118105136Y-52576453D01*
X118105137Y-52576451D01*
X118107430Y-52571811D01*
X118172370Y-52358069D01*
X118197727Y-52165469D01*
X121592095Y-52165469D01*
X121592392Y-52170622D01*
X121592392Y-52170625D01*
X121598067Y-52269041D01*
X121605427Y-52396697D01*
X121606564Y-52401743D01*
X121606565Y-52401749D01*
X121638741Y-52544523D01*
X121656346Y-52622642D01*
X121658288Y-52627424D01*
X121658289Y-52627428D01*
X121725634Y-52793278D01*
X121743484Y-52837237D01*
X121864501Y-53034719D01*
X122016147Y-53209784D01*
X122194349Y-53357730D01*
X122394322Y-53474584D01*
X122399147Y-53476426D01*
X122399148Y-53476427D01*
X122404577Y-53478500D01*
X122610694Y-53557209D01*
X122615760Y-53558240D01*
X122615761Y-53558240D01*
X122668846Y-53569040D01*
X122837656Y-53603385D01*
X122968324Y-53608176D01*
X123063949Y-53611683D01*
X123063953Y-53611683D01*
X123069113Y-53611872D01*
X123074233Y-53611216D01*
X123074235Y-53611216D01*
X123147270Y-53601860D01*
X123298847Y-53582442D01*
X123303795Y-53580957D01*
X123303802Y-53580956D01*
X123515747Y-53517369D01*
X123520690Y-53515886D01*
X123525324Y-53513616D01*
X123724049Y-53416262D01*
X123724052Y-53416260D01*
X123728684Y-53413991D01*
X123917243Y-53279494D01*
X124081303Y-53116005D01*
X124216458Y-52927917D01*
X124263641Y-52832450D01*
X124316784Y-52724922D01*
X124316785Y-52724920D01*
X124319078Y-52720280D01*
X124386408Y-52498671D01*
X124416640Y-52269041D01*
X124416722Y-52265691D01*
X124418245Y-52203365D01*
X124418245Y-52203361D01*
X124418327Y-52200000D01*
X124415488Y-52165469D01*
X127042095Y-52165469D01*
X127042392Y-52170622D01*
X127042392Y-52170625D01*
X127048067Y-52269041D01*
X127055427Y-52396697D01*
X127056564Y-52401743D01*
X127056565Y-52401749D01*
X127088741Y-52544523D01*
X127106346Y-52622642D01*
X127108288Y-52627424D01*
X127108289Y-52627428D01*
X127175634Y-52793278D01*
X127193484Y-52837237D01*
X127314501Y-53034719D01*
X127466147Y-53209784D01*
X127644349Y-53357730D01*
X127844322Y-53474584D01*
X127849147Y-53476426D01*
X127849148Y-53476427D01*
X127854577Y-53478500D01*
X128060694Y-53557209D01*
X128065760Y-53558240D01*
X128065761Y-53558240D01*
X128118846Y-53569040D01*
X128287656Y-53603385D01*
X128418324Y-53608176D01*
X128513949Y-53611683D01*
X128513953Y-53611683D01*
X128519113Y-53611872D01*
X128524233Y-53611216D01*
X128524235Y-53611216D01*
X128597270Y-53601860D01*
X128748847Y-53582442D01*
X128753795Y-53580957D01*
X128753802Y-53580956D01*
X128965747Y-53517369D01*
X128970690Y-53515886D01*
X128975324Y-53513616D01*
X129174049Y-53416262D01*
X129174052Y-53416260D01*
X129178684Y-53413991D01*
X129367243Y-53279494D01*
X129531303Y-53116005D01*
X129666458Y-52927917D01*
X129713641Y-52832450D01*
X129766784Y-52724922D01*
X129766785Y-52724920D01*
X129769078Y-52720280D01*
X129836408Y-52498671D01*
X129866640Y-52269041D01*
X129866722Y-52265691D01*
X129868245Y-52203365D01*
X129868245Y-52203361D01*
X129868327Y-52200000D01*
X129854378Y-52030336D01*
X129849773Y-51974318D01*
X129849772Y-51974312D01*
X129849349Y-51969167D01*
X129792925Y-51744533D01*
X129790866Y-51739797D01*
X129702630Y-51536868D01*
X129702628Y-51536865D01*
X129700570Y-51532131D01*
X129574764Y-51337665D01*
X129418887Y-51166358D01*
X129414836Y-51163159D01*
X129414832Y-51163155D01*
X129241177Y-51026011D01*
X129241172Y-51026008D01*
X129237123Y-51022810D01*
X129232607Y-51020317D01*
X129232604Y-51020315D01*
X129038879Y-50913373D01*
X129038875Y-50913371D01*
X129034355Y-50910876D01*
X129029486Y-50909152D01*
X129029482Y-50909150D01*
X128820903Y-50835288D01*
X128820899Y-50835287D01*
X128816028Y-50833562D01*
X128810935Y-50832655D01*
X128810932Y-50832654D01*
X128593095Y-50793851D01*
X128593089Y-50793850D01*
X128588006Y-50792945D01*
X128515096Y-50792054D01*
X128361581Y-50790179D01*
X128361579Y-50790179D01*
X128356411Y-50790116D01*
X128127464Y-50825150D01*
X127907314Y-50897106D01*
X127902726Y-50899494D01*
X127902722Y-50899496D01*
X127835292Y-50934598D01*
X127701872Y-51004052D01*
X127697739Y-51007155D01*
X127697736Y-51007157D01*
X127520790Y-51140012D01*
X127516655Y-51143117D01*
X127458629Y-51203838D01*
X127429369Y-51234457D01*
X127356639Y-51310564D01*
X127353725Y-51314836D01*
X127353724Y-51314837D01*
X127297895Y-51396680D01*
X127226119Y-51501899D01*
X127128602Y-51711981D01*
X127066707Y-51935169D01*
X127042095Y-52165469D01*
X124415488Y-52165469D01*
X124404378Y-52030336D01*
X124399773Y-51974318D01*
X124399772Y-51974312D01*
X124399349Y-51969167D01*
X124342925Y-51744533D01*
X124340866Y-51739797D01*
X124252630Y-51536868D01*
X124252628Y-51536865D01*
X124250570Y-51532131D01*
X124124764Y-51337665D01*
X123968887Y-51166358D01*
X123964836Y-51163159D01*
X123964832Y-51163155D01*
X123791177Y-51026011D01*
X123791172Y-51026008D01*
X123787123Y-51022810D01*
X123782607Y-51020317D01*
X123782604Y-51020315D01*
X123588879Y-50913373D01*
X123588875Y-50913371D01*
X123584355Y-50910876D01*
X123579486Y-50909152D01*
X123579482Y-50909150D01*
X123370903Y-50835288D01*
X123370899Y-50835287D01*
X123366028Y-50833562D01*
X123360935Y-50832655D01*
X123360932Y-50832654D01*
X123143095Y-50793851D01*
X123143089Y-50793850D01*
X123138006Y-50792945D01*
X123065096Y-50792054D01*
X122911581Y-50790179D01*
X122911579Y-50790179D01*
X122906411Y-50790116D01*
X122677464Y-50825150D01*
X122457314Y-50897106D01*
X122452726Y-50899494D01*
X122452722Y-50899496D01*
X122385292Y-50934598D01*
X122251872Y-51004052D01*
X122247739Y-51007155D01*
X122247736Y-51007157D01*
X122070790Y-51140012D01*
X122066655Y-51143117D01*
X122008629Y-51203838D01*
X121979369Y-51234457D01*
X121906639Y-51310564D01*
X121903725Y-51314836D01*
X121903724Y-51314837D01*
X121847895Y-51396680D01*
X121776119Y-51501899D01*
X121678602Y-51711981D01*
X121616707Y-51935169D01*
X121592095Y-52165469D01*
X118197727Y-52165469D01*
X118201529Y-52136590D01*
X118203156Y-52070000D01*
X118184852Y-51847361D01*
X118130431Y-51630702D01*
X118041354Y-51425840D01*
X117920014Y-51238277D01*
X117769670Y-51073051D01*
X117765619Y-51069852D01*
X117765615Y-51069848D01*
X117598414Y-50937800D01*
X117598410Y-50937798D01*
X117594359Y-50934598D01*
X117551387Y-50910876D01*
X117542136Y-50905769D01*
X117398789Y-50826638D01*
X117393920Y-50824914D01*
X117393916Y-50824912D01*
X117193087Y-50753795D01*
X117193083Y-50753794D01*
X117188212Y-50752069D01*
X117183119Y-50751162D01*
X117183116Y-50751161D01*
X116973373Y-50713800D01*
X116973367Y-50713799D01*
X116968284Y-50712894D01*
X116894452Y-50711992D01*
X116750081Y-50710228D01*
X116750079Y-50710228D01*
X116744911Y-50710165D01*
X116524091Y-50743955D01*
X116311756Y-50813357D01*
X116286015Y-50826757D01*
X116127740Y-50909150D01*
X116113607Y-50916507D01*
X116109474Y-50919610D01*
X116109471Y-50919612D01*
X115972024Y-51022810D01*
X115934965Y-51050635D01*
X115931393Y-51054373D01*
X115784904Y-51207665D01*
X115780629Y-51212138D01*
X115777715Y-51216410D01*
X115777714Y-51216411D01*
X115697611Y-51333838D01*
X115654743Y-51396680D01*
X115560688Y-51599305D01*
X115500989Y-51814570D01*
X115477251Y-52036695D01*
X115477548Y-52041848D01*
X115477548Y-52041851D01*
X115486667Y-52200000D01*
X115490110Y-52259715D01*
X115491247Y-52264761D01*
X115491248Y-52264767D01*
X115492822Y-52271749D01*
X115539222Y-52477639D01*
X115623266Y-52684616D01*
X115674019Y-52767438D01*
X115683678Y-52783199D01*
X115739987Y-52875088D01*
X115886250Y-53043938D01*
X116058126Y-53186632D01*
X116120643Y-53223164D01*
X116131445Y-53229476D01*
X116180169Y-53281114D01*
X116193240Y-53350897D01*
X116166509Y-53416669D01*
X116126055Y-53450027D01*
X116121301Y-53452502D01*
X116113607Y-53456507D01*
X116109474Y-53459610D01*
X116109471Y-53459612D01*
X115939100Y-53587530D01*
X115934965Y-53590635D01*
X115913544Y-53613051D01*
X115794765Y-53737346D01*
X115780629Y-53752138D01*
X115654743Y-53936680D01*
X115622354Y-54006457D01*
X115563328Y-54133618D01*
X115560688Y-54139305D01*
X115500989Y-54354570D01*
X115477251Y-54576695D01*
X110998000Y-54576695D01*
X110998000Y-50164000D01*
X111018002Y-50095879D01*
X111071658Y-50049386D01*
X111124000Y-50038000D01*
X180119858Y-50038000D01*
X180187979Y-50058002D01*
G37*
G04 #@! TD.AperFunction*
M02*
