G04 #@! TF.GenerationSoftware,KiCad,Pcbnew,(6.0.2)*
G04 #@! TF.CreationDate,2022-06-07T21:46:18+01:00*
G04 #@! TF.ProjectId,Pico_Handheld,5069636f-5f48-4616-9e64-68656c642e6b,rev?*
G04 #@! TF.SameCoordinates,Original*
G04 #@! TF.FileFunction,Soldermask,Top*
G04 #@! TF.FilePolarity,Negative*
%FSLAX46Y46*%
G04 Gerber Fmt 4.6, Leading zero omitted, Abs format (unit mm)*
G04 Created by KiCad (PCBNEW (6.0.2)) date 2022-06-07 21:46:18*
%MOMM*%
%LPD*%
G01*
G04 APERTURE LIST*
G04 Aperture macros list*
%AMRoundRect*
0 Rectangle with rounded corners*
0 $1 Rounding radius*
0 $2 $3 $4 $5 $6 $7 $8 $9 X,Y pos of 4 corners*
0 Add a 4 corners polygon primitive as box body*
4,1,4,$2,$3,$4,$5,$6,$7,$8,$9,$2,$3,0*
0 Add four circle primitives for the rounded corners*
1,1,$1+$1,$2,$3*
1,1,$1+$1,$4,$5*
1,1,$1+$1,$6,$7*
1,1,$1+$1,$8,$9*
0 Add four rect primitives between the rounded corners*
20,1,$1+$1,$2,$3,$4,$5,0*
20,1,$1+$1,$4,$5,$6,$7,0*
20,1,$1+$1,$6,$7,$8,$9,0*
20,1,$1+$1,$8,$9,$2,$3,0*%
G04 Aperture macros list end*
%ADD10C,0.120000*%
%ADD11C,1.524000*%
%ADD12C,2.000000*%
%ADD13R,1.800000X1.800000*%
%ADD14O,1.800000X1.800000*%
%ADD15R,1.500000X1.000000*%
%ADD16RoundRect,0.381000X-0.381000X0.762000X-0.381000X-0.762000X0.381000X-0.762000X0.381000X0.762000X0*%
%ADD17R,1.600000X1.600000*%
%ADD18C,1.600000*%
%ADD19RoundRect,0.381000X-0.762000X-0.381000X0.762000X-0.381000X0.762000X0.381000X-0.762000X0.381000X0*%
%ADD20O,2.200000X3.500000*%
%ADD21R,1.500000X2.500000*%
%ADD22O,1.500000X2.500000*%
%ADD23O,1.500000X1.500000*%
%ADD24R,3.500000X1.700000*%
%ADD25O,1.700000X1.700000*%
%ADD26R,1.700000X1.700000*%
%ADD27R,1.700000X3.500000*%
%ADD28RoundRect,0.381000X0.381000X-0.762000X0.381000X0.762000X-0.381000X0.762000X-0.381000X-0.762000X0*%
%ADD29RoundRect,0.381000X0.762000X0.381000X-0.762000X0.381000X-0.762000X-0.381000X0.762000X-0.381000X0*%
%ADD30C,3.500000*%
%ADD31R,3.000000X3.000000*%
%ADD32C,3.000000*%
G04 APERTURE END LIST*
D10*
X134906000Y-124841000D02*
X126778000Y-124841000D01*
X126778000Y-124841000D02*
X126778000Y-132969000D01*
X126778000Y-132969000D02*
X134906000Y-132969000D01*
X134906000Y-132969000D02*
X134906000Y-124841000D01*
G36*
X134906000Y-124841000D02*
G01*
X126778000Y-124841000D01*
X126778000Y-132969000D01*
X134906000Y-132969000D01*
X134906000Y-124841000D01*
G37*
X164846000Y-117881000D02*
X172974000Y-117881000D01*
X172974000Y-117881000D02*
X172974000Y-126009000D01*
X172974000Y-126009000D02*
X164846000Y-126009000D01*
X164846000Y-126009000D02*
X164846000Y-117881000D01*
G36*
X164846000Y-117881000D02*
G01*
X172974000Y-117881000D01*
X172974000Y-126009000D01*
X164846000Y-126009000D01*
X164846000Y-117881000D01*
G37*
X134366000Y-117208000D02*
X142494000Y-117208000D01*
X142494000Y-117208000D02*
X142494000Y-125336000D01*
X142494000Y-125336000D02*
X134366000Y-125336000D01*
X134366000Y-125336000D02*
X134366000Y-117208000D01*
G36*
X134366000Y-117208000D02*
G01*
X142494000Y-117208000D01*
X142494000Y-125336000D01*
X134366000Y-125336000D01*
X134366000Y-117208000D01*
G37*
X178816000Y-112830000D02*
X186944000Y-112830000D01*
X186944000Y-112830000D02*
X186944000Y-120958000D01*
X186944000Y-120958000D02*
X178816000Y-120958000D01*
X178816000Y-120958000D02*
X178816000Y-112830000D01*
G36*
X178816000Y-112830000D02*
G01*
X186944000Y-112830000D01*
X186944000Y-120958000D01*
X178816000Y-120958000D01*
X178816000Y-112830000D01*
G37*
X126746000Y-117856000D02*
X134874000Y-117856000D01*
X134874000Y-117856000D02*
X134874000Y-109728000D01*
X134874000Y-109728000D02*
X126746000Y-109728000D01*
X126746000Y-109728000D02*
X126746000Y-117856000D01*
G36*
X126746000Y-117856000D02*
G01*
X134874000Y-117856000D01*
X134874000Y-109728000D01*
X126746000Y-109728000D01*
X126746000Y-117856000D01*
G37*
X127254000Y-125381000D02*
X119126000Y-125381000D01*
X119126000Y-125381000D02*
X119126000Y-117253000D01*
X119126000Y-117253000D02*
X127254000Y-117253000D01*
X127254000Y-117253000D02*
X127254000Y-125381000D01*
G36*
X127254000Y-125381000D02*
G01*
X119126000Y-125381000D01*
X119126000Y-117253000D01*
X127254000Y-117253000D01*
X127254000Y-125381000D01*
G37*
D11*
X182880000Y-73406000D03*
X182880000Y-77470000D03*
X182880000Y-81534000D03*
D12*
X193040000Y-72390000D03*
X193040000Y-82550000D03*
D13*
X162560000Y-52070000D03*
D14*
X170180000Y-52070000D03*
D15*
X151130000Y-67280000D03*
X151130000Y-68580000D03*
X151130000Y-69880000D03*
D16*
X130842000Y-125349000D03*
X130842000Y-132461000D03*
D17*
X171460000Y-66040000D03*
D18*
X177960000Y-66040000D03*
D19*
X165354000Y-121945000D03*
X172466000Y-121945000D03*
D20*
X181320000Y-52070000D03*
X189520000Y-52070000D03*
D21*
X183420000Y-52070000D03*
D22*
X185420000Y-52070000D03*
X187420000Y-52070000D03*
D14*
X128455000Y-52200000D03*
X123005000Y-52200000D03*
D23*
X128155000Y-55230000D03*
X123305000Y-55230000D03*
D24*
X115940000Y-52070000D03*
D25*
X116840000Y-52070000D03*
D24*
X115940000Y-54610000D03*
D25*
X116840000Y-54610000D03*
D26*
X116840000Y-57150000D03*
D24*
X115940000Y-57150000D03*
D25*
X116840000Y-59690000D03*
D24*
X115940000Y-59690000D03*
D25*
X116840000Y-62230000D03*
D24*
X115940000Y-62230000D03*
D25*
X116840000Y-64770000D03*
D24*
X115940000Y-64770000D03*
X115940000Y-67310000D03*
D25*
X116840000Y-67310000D03*
D26*
X116840000Y-69850000D03*
D24*
X115940000Y-69850000D03*
X115940000Y-72390000D03*
D25*
X116840000Y-72390000D03*
D24*
X115940000Y-74930000D03*
D25*
X116840000Y-74930000D03*
D24*
X115940000Y-77470000D03*
D25*
X116840000Y-77470000D03*
D24*
X115940000Y-80010000D03*
D25*
X116840000Y-80010000D03*
D24*
X115940000Y-82550000D03*
D26*
X116840000Y-82550000D03*
D24*
X115940000Y-85090000D03*
D25*
X116840000Y-85090000D03*
X116840000Y-87630000D03*
D24*
X115940000Y-87630000D03*
X115940000Y-90170000D03*
D25*
X116840000Y-90170000D03*
X116840000Y-92710000D03*
D24*
X115940000Y-92710000D03*
D26*
X116840000Y-95250000D03*
D24*
X115940000Y-95250000D03*
D25*
X116840000Y-97790000D03*
D24*
X115940000Y-97790000D03*
D25*
X116840000Y-100330000D03*
D24*
X115940000Y-100330000D03*
D25*
X134620000Y-100330000D03*
D24*
X135520000Y-100330000D03*
D25*
X134620000Y-97790000D03*
D24*
X135520000Y-97790000D03*
X135520000Y-95250000D03*
D26*
X134620000Y-95250000D03*
D24*
X135520000Y-92710000D03*
D25*
X134620000Y-92710000D03*
D24*
X135520000Y-90170000D03*
D25*
X134620000Y-90170000D03*
D24*
X135520000Y-87630000D03*
D25*
X134620000Y-87630000D03*
X134620000Y-85090000D03*
D24*
X135520000Y-85090000D03*
X135520000Y-82550000D03*
D26*
X134620000Y-82550000D03*
D24*
X135520000Y-80010000D03*
D25*
X134620000Y-80010000D03*
X134620000Y-77470000D03*
D24*
X135520000Y-77470000D03*
D25*
X134620000Y-74930000D03*
D24*
X135520000Y-74930000D03*
X135520000Y-72390000D03*
D25*
X134620000Y-72390000D03*
D24*
X135520000Y-69850000D03*
D26*
X134620000Y-69850000D03*
D24*
X135520000Y-67310000D03*
D25*
X134620000Y-67310000D03*
D24*
X135520000Y-64770000D03*
D25*
X134620000Y-64770000D03*
X134620000Y-62230000D03*
D24*
X135520000Y-62230000D03*
D25*
X134620000Y-59690000D03*
D24*
X135520000Y-59690000D03*
D26*
X134620000Y-57150000D03*
D24*
X135520000Y-57150000D03*
D25*
X134620000Y-54610000D03*
D24*
X135520000Y-54610000D03*
X135520000Y-52070000D03*
D25*
X134620000Y-52070000D03*
D27*
X123190000Y-101000000D03*
D25*
X123190000Y-100100000D03*
D27*
X125730000Y-101000000D03*
D26*
X125730000Y-100100000D03*
D25*
X128270000Y-100100000D03*
D27*
X128270000Y-101000000D03*
D19*
X134874000Y-121272000D03*
X141986000Y-121272000D03*
D11*
X149740000Y-58930000D03*
X152280000Y-58930000D03*
X154820000Y-58930000D03*
X157360000Y-58930000D03*
D19*
X179324000Y-116894000D03*
X186436000Y-116894000D03*
D28*
X130810000Y-117348000D03*
X130810000Y-110236000D03*
D15*
X156210000Y-67280000D03*
X156210000Y-68580000D03*
X156210000Y-69880000D03*
D29*
X126746000Y-121317000D03*
X119634000Y-121317000D03*
D30*
X153964000Y-128014000D03*
X153964000Y-98014000D03*
D31*
X188722000Y-125222000D03*
D32*
X188722000Y-130810000D03*
M02*
