M48
; DRILL file {KiCad (6.0.2)} date Tue Jun  7 21:46:54 2022
; FORMAT={-:-/ absolute / metric / decimal}
; #@! TF.CreationDate,2022-06-07T21:46:54+01:00
; #@! TF.GenerationSoftware,Kicad,Pcbnew,(6.0.2)
; #@! TF.FileFunction,Plated,1,2,PTH
FMAT,2
METRIC
; #@! TA.AperFunction,Plated,PTH,ViaDrill
T1C0.400
; #@! TA.AperFunction,Plated,PTH,ComponentDrill
T2C0.762
; #@! TA.AperFunction,Plated,PTH,ComponentDrill
T3C0.800
; #@! TA.AperFunction,Plated,PTH,ComponentDrill
T4C0.900
; #@! TA.AperFunction,Plated,PTH,ComponentDrill
T5C1.000
; #@! TA.AperFunction,Plated,PTH,ComponentDrill
T6C1.020
; #@! TA.AperFunction,Plated,PTH,ComponentDrill
T7C1.200
; #@! TA.AperFunction,Plated,PTH,ComponentDrill
T8C1.500
%
G90
G05
T1
X130.81Y-121.285
X151.13Y-69.85
X156.21Y-67.31
X176.53Y-127.635
T2
X149.74Y-58.93
X152.28Y-58.93
X154.82Y-58.93
X157.36Y-58.93
X182.88Y-73.406
X182.88Y-77.47
X182.88Y-81.534
T3
X183.42Y-52.07
X185.42Y-52.07
X187.42Y-52.07
T4
X162.56Y-52.07
X170.18Y-52.07
T5
X171.46Y-66.04
X177.96Y-66.04
X193.04Y-72.39
X193.04Y-82.55
T6
X116.84Y-52.07
X116.84Y-54.61
X116.84Y-57.15
X116.84Y-59.69
X116.84Y-62.23
X116.84Y-64.77
X116.84Y-67.31
X116.84Y-69.85
X116.84Y-72.39
X116.84Y-74.93
X116.84Y-77.47
X116.84Y-80.01
X116.84Y-82.55
X116.84Y-85.09
X116.84Y-87.63
X116.84Y-90.17
X116.84Y-92.71
X116.84Y-95.25
X116.84Y-97.79
X116.84Y-100.33
X123.19Y-100.1
X125.73Y-100.1
X128.27Y-100.1
X134.62Y-52.07
X134.62Y-54.61
X134.62Y-57.15
X134.62Y-59.69
X134.62Y-62.23
X134.62Y-64.77
X134.62Y-67.31
X134.62Y-69.85
X134.62Y-72.39
X134.62Y-74.93
X134.62Y-77.47
X134.62Y-80.01
X134.62Y-82.55
X134.62Y-85.09
X134.62Y-87.63
X134.62Y-90.17
X134.62Y-92.71
X134.62Y-95.25
X134.62Y-97.79
X134.62Y-100.33
T7
X188.722Y-125.222
X188.722Y-130.81
T8
X181.32Y-52.07
X189.52Y-52.07
T0
M30
